<?xml version="1.0" standalone="no"?>
<!DOCTYPE svg PUBLIC "-//W3C//DTD SVG 1.1//EN" "http://www.w3.org/Graphics/SVG/1.1/DTD/svg11.dtd" >
<svg>
<metadata>
Created by FontForge 20110222 at Fri Jul 25 13:22:43 2014
 By deploy user
Copyright (c) Underware, 2012. Exclusive custom font for Dow Corporation.
</metadata>
<defs>
<font id="DowScript-Regular" horiz-adv-x="530" >
  <font-face 
    font-family="Dow Script"
    font-weight="400"
    font-stretch="normal"
    units-per-em="1000"
    panose-1="2 15 5 5 5 8 1 2 0 7"
    ascent="622"
    descent="-378"
    x-height="452"
    cap-height="1012"
    bbox="-557 -1217 4206.75 1642.55"
    underline-thickness="50"
    underline-position="-25"
    unicode-range="U+0020-FB06"
  />
<missing-glyph horiz-adv-x="384" 
 />
    <glyph glyph-name=".notdef" horiz-adv-x="384" 
 />
    <glyph glyph-name=".null" horiz-adv-x="0" 
 />
    <glyph glyph-name="nonmarkingreturn" horiz-adv-x="333" 
 />
    <glyph glyph-name="space" unicode=" " horiz-adv-x="440" 
 />
    <glyph glyph-name="exclam" unicode="!" horiz-adv-x="337" 
d="M233 874q4 19 15 28.5t36 9.5q31 0 31 -33q-2 -10 -7.5 -26t-9 -27.5t-3.5 -13.5l-1 -6q-2 -5 -4.5 -14t-5 -19t-4.5 -20.5t-3 -18.5q0 -1 -2.5 -8t-4.5 -15.5t-5 -24t-4 -31.5q0 -11 -7 -39.5t-8 -33.5q0 -2 -8.5 -33.5t-8.5 -45.5q0 -1 1.5 -5t1.5 -6q0 -3 -2 -5
q-3 -3 -3.5 -19.5t-3 -42.5t-11.5 -48q-15 -60 -22 -73.5t-23 -13.5q-4 0 -15.5 5.5t-13.5 7.5v2q1 2 1.5 8t1.5 14.5t2.5 24t3.5 35.5q2 14 10.5 61.5t13.5 107.5q9 63 12 73q1 3 4 27t8.5 52t11.5 43q3 6 4.5 20t6.5 41.5t15 61.5zM126 107q2 1 5 1q17 0 38.5 -31.5
t21.5 -51.5q0 -7 -9.5 -18.5t-14.5 -11.5q-4 0 -6 1q-4 0 -8 -1t-6.5 -1.5t-3.5 -0.5q-9 0 -30 19t-21 37q0 19 13.5 38.5t20.5 19.5z" />
    <glyph glyph-name="quotedbl" unicode="&#x22;" horiz-adv-x="472" 
d="M135 816q9 7 10 7q22 0 34 -32.5t12 -84.5q0 -23 -9 -115l-2 -17q0 -1 -0.5 -3t-0.5 -4q-8 -20 -8 -72q0 -11 -2 -15t-6 -6.5t-6 -7.5q-3 3 -12 3q-2 -1 -5 -1h-2q-28 6 -28 61q0 16 5 65t5 55v6q0 4 1 11.5t1 10.5v4q3 6 3 33v24q0 21 -4 26h1q-2 4 -2 16q0 28 15 36z
M334 807l4 2q4 2 9 2q3 -1 10 -1q12 0 19 -8t11.5 -24t5.5 -18q0 -9 5 -24v1l2 -18q0 -11 1 -16q0 -9 -1 -19t-1 -14v-25q0 -18 -7 -47v-9q2 -2 2 -7q0 -7 -4.5 -14.5t-4.5 -10.5q3 -4 3 -8q-2 -3 -2 -5l-2 -6l-1 -2q-1 -1 -3 -4t-3.5 -7.5t-2.5 -10t-1 -11.5l-4 -10
q0 -1 -0.5 -2t-0.5 -2q2 2 2 -2q1 -16 -13 -33q-4 -4 -8 -6h1q-3 -1 -7 -1q-3 0 -5 1t-4 1q-7 0 -8 -2v1q-3 0 -6.5 6t-3.5 8l-4 5l1 -1q-2 11 -2 64l1 1v1l3 9q0 14 4 15q-2 2 -2 10q0 4 2 9.5t2 11.5l2 10q0 2 0.5 4.5t0.5 3.5v5l2 2q1 2 5.5 40.5t4.5 51.5q0 9 -6 13l3 5
q3 5 3 6l-2 4q-1 3 -3 7.5t-2 8.5l-3 15q0 19 -4 26v-1q-1 3 -1 7q0 6 14 12h-1z" />
    <glyph glyph-name="numbersign" unicode="#" horiz-adv-x="760" 
d="M396 368q-36 -5 -76 -8q-24 -3 -28 -4.5t-5 -10.5q0 -8 -2 -14l-9 -46q-4 -5 -6 -29l-3 -11q-6 -9 -6 -37q0 -11 43 -11q9 0 24.5 3t17.5 3q3 -3 12 -3q13 0 46 7l29 6v10q0 2 1 5v2v6q1 -1 1 2q3 25 6 30v5q0 4 1 5q-2 7 -2 9q7 3 7 14v2q0 2 1 3l3 12q0 2 1 4v1
q0 15 -3 32t-7 17q-14 0 -46 -4zM249 641v1q0 2 2 6l3 2q2 0 14.5 -6t14.5 -6l6 -3h-1q28 -11 28 -14v-75l-7 -26q0 -1 0.5 -5t0.5 -6q0 -1 -2.5 -18t-2.5 -30v-4q0 -3 -3.5 -9t-3.5 -10q0 -14 15 -23q3 0 6 3v-1q2 1 3 1h14q3 0 14.5 1.5t16.5 1.5h6q1 0 3 1h9q2 1 5 1
q11 2 30 3t26 3t13.5 11t6.5 27q-1 1 -1 6q2 4 2 9q0 1 -0.5 3.5t-0.5 3.5l1 9q0 2 1 10.5t1 12.5v10q0 6 1 7q-3 9 -3 14l3 14l2 6q1 7 1 13v6q2 21 5 33q2 5 2.5 9t1.5 5v1q16 0 33 -11l12 -6v1q18 -18 18 -40v-8q0 -7 1 -10q-6 -14 -6 -43v-8q0 -22 -1 -31q2 -21 8.5 -29
t24.5 -8l58 13l7 2l17 1q6 0 16 -3l1 -1q23 -8 43 -28q-1 -6 -5 -8.5t-10 -3.5t-19 -4.5t-26 -8.5l-74 -14q-38 -4 -46.5 -10t-4.5 -19.5t-8 -37.5l-2 -19q0 -14 -4.5 -34t-4.5 -23q0 -15 8 -20l36 5q8 6 11 6q2 -2 5 -2q8 0 16 8l9 3q6 0 14 4q1 -3 5 -3t11 5q1 0 7 -5.5
t13.5 -12.5t9.5 -9l-9 -11h1l-15 -15v1l-9 -4q-1 0 -3 -2l-3 -3l-11 -9l-37 -9l-15 -4q-8 -5 -34 -11l-24 -4l-4 -16q-17 -66 -17 -172q0 -21 1 -29v-4q0 -2 1 -3v-5q5 -19 9.5 -34.5t6.5 -27.5q-17 -12 -24 -12h-1l-19 3h1q-11 3 -21.5 11.5t-12.5 12.5q1 7 1 9
q0 4 -4.5 10t-4.5 26q0 1 0.5 3.5t0.5 3.5q0 6 -2 10v3q0 5 -2 13l3 26q-2 2 -2 6q1 1 1 2v32q1 5 1 17v5q0 2 0.5 6.5t1.5 8.5v4v5q0 24 3.5 35.5t3.5 13.5q0 7 -1 11l2 17q-1 0 -4 -0.5t-4 -0.5h-5q-2 -1 -4 -1l-30 -3q-7 -1 -21 -1.5t-24 -2.5l-82 -6l-3 -14
q0 -6 -3.5 -26t-3.5 -36q0 -46 19 -46q11 0 11 15l9 -7q0 -14 7 -18l-1 -1q0 -1 1 -3.5t1 -3.5q0 -4 -4 -8q-1 -1 -8.5 -23.5t-14.5 -29.5q-2 1 -7 1l-9 1h-5q-18 0 -26.5 1.5t-12 5t-4 8.5t-6 14.5t-15.5 19.5v34q0 1 0.5 5t0.5 7q0 5 -2 11v-1q-1 2 -1 12q0 20 3 46
q0 22 -8 31q-17 0 -24 -1h-9q-27 0 -53.5 7.5t-29.5 7.5l-11 5q-4 8 -4 13q0 16 10.5 22t38.5 8q8 -2 22 -2q55 0 70 4t16 21l3 12l1 1v2l5 24q0 3 2 10.5t2 9.5l4 18q3 6 3 19v1q1 1 1 2l3 14v-1q2 4 2 14v13q0 10 -3.5 13.5t-17.5 7.5l-9 3q-4 2 -15 2q-4 0 -30.5 14.5
t-26.5 20.5q0 21 11 24l10 4q5 0 13 -2t13 -2q2 0 6.5 -4.5t19.5 -6.5h-1q4 -3 22 -3q25 0 25 28q-1 3 -1 8v1q1 1 1 2v6q0 15 7 36v16q2 14 2 20l1 3q0 6 1 13t1 10v41q0 13 5 23h-4l4 7v4z" />
    <glyph glyph-name="dollar" unicode="$" horiz-adv-x="604" 
d="M376 589q1 3 1 6q0 4 -4 4q-28 0 -70 -31l-18 -11q-2 0 -8.5 -6.5t-8.5 -6.5l-5 -2q-5 -3 -11 -7.5t-8 -9.5q-7 -14 -16.5 -25.5t-13.5 -19t-4 -19.5q0 -39 9 -59.5t43 -59.5l17 -20l4 10q6 11 12.5 28t10.5 30.5t8 25.5l3 13l5 16q5 9 11 26.5t6 21.5q0 5 -3 5
q6 2 21 34.5t19 56.5zM346 197q-18 16 -22 16t-9 -10t-5 -15l-4 -10q-6 -21 -8 -23v1q-3 -2 -3 -12l-5 -19q-9 -42 -14 -45q0 -1 -5.5 -12.5t-10 -26t-4.5 -25.5q-16 -36 -16 -60q0 -7 11 -7q1 0 4 0.5t5 0.5l53 6h1q1 1 2 1l15 4q55 8 63 23v-1q10 4 10 6q12 3 37.5 30
t25.5 44q0 11 -5 24q-1 1 -9.5 10.5t-16 18.5t-7.5 12t-28.5 26.5t-32.5 23.5h-3zM461 786q4 2 8 2q18 0 30 -16.5t12 -32.5q0 -6 -6.5 -23.5t-6.5 -19.5t15.5 -2.5t44 -6t52.5 -18.5l13 -5q15 -6 27.5 -19t13.5 -25q0 -23 -14 -23q-5 0 -14 5l-20 10q-6 0 -10 4l-7 4
q-23 10 -37 10q-8 -2 -10 -2h-2q-2 1 -4.5 1.5t-6.5 1t-8.5 1t-9.5 0.5h-5q-5 0 -9 0.5t-11 -0.5t-12 -2.5t-11.5 -5.5t-10.5 -9t-6.5 -13.5t-2.5 -18.5l-6 -14q-2 -8 -8 -20.5t-7 -19.5l-9 -29q0 -1 -5.5 -11t-5.5 -15l-10 -19q-11 -19 -11 -33q0 -2 1 -2h-1v-1q0 -3 -1 -4
l-7 -15q-9 -19 -11 -35q0 -1 -4 -10t-8.5 -20.5t-4.5 -16.5v-5q-4 -8 -12 -28v1q-2 -7 -3 -7l-2 -9l26 -21q7 -9 9 -11.5t3.5 -3.5t3 -1t8 -5t17.5 -14v1q9 -9 21 -17q11 -5 14 -8q8 -12 40 -41h-1q4 -6 9 -9v1q1 -1 9 -13.5t15.5 -24.5t9.5 -12v-7q0 -4 4.5 -15t4.5 -28v-4
l-6 -17q-3 -4 -4 -8l-1.5 -6t-1.5 -3l-4 -7q-5 -7 -10.5 -15t-12 -14.5t-10.5 -6.5q-2 0 -23.5 -18t-32.5 -18l-7 -4q-7 -4 -19.5 -9t-23.5 -6l-14 -2q-5 0 -41 -5.5t-50 -5.5q-6 0 -16 2t-14 2q-6 0 -8 -5h1q-3 -1 -3 -4q0 -7 3 -7q-4 -4 -4 -18q0 -16 -4 -20q0 -1 1.5 -8
l3 -14t2.5 -7v1v-1q1 -1 1 -2t-1 -3v-2q0 -4 1 -7t1 -5v-5q0 -13 8 -43.5t8 -35.5l-10 -15h-11q-14 0 -29 27l-10 17q-6 12 -6 20l-5 18l-9 69q0 2 -1 14t-1 19l-1 27l-7 3q-35 10 -52 24l-11 8q-4 1 -14.5 13.5t-10.5 16.5q0 2 -3 8v3l1 2v2t-2 4t-2 5v1l1 2q0 6 -2 6
q0 5 2 15q0 13 -1 15h1q0 3 1 6l3 13q0 6 6 12l6 8q2 0 7 7.5t6 7.5h2l2 -1q6 0 10.5 10.5t16.5 10.5q9 0 9 -4q0 -3 -1 -5l-3 -12v1q-3 -8 -3 -15q0 -2 0.5 -3t0.5 -2t-5.5 -17.5t-5.5 -32.5q0 -11 2.5 -20t5.5 -14.5t8.5 -9.5t9 -5.5t10 -3t7.5 -2.5l12 -5q0 4 1.5 11
t1.5 8l2 10q0 4 1 5l14 57q17 61 17 67q6 9 13 34t7 31v4q0 1 3 6l2 3q3 4 6 10.5t6 14.5t5.5 19t2.5 22q0 8 -14 25.5t-27 27.5v-1q-2 2 -7.5 9.5t-10 13.5t-5.5 6v1q0 1 -2.5 7t-9 16t-13.5 17h1q-25 24 -25 78q0 23 5.5 48t16.5 28l10 12q7 10 14 18.5t11.5 13.5t14 12
t13 9t16.5 10t17 10l46 20q24 12 33 18q8 3 28 8t32 10t23.5 22.5t11.5 46.5l1 3q2 3 4.5 8.5t5.5 11.5t7 11t8 6z" />
    <glyph glyph-name="percent" unicode="%" horiz-adv-x="649" 
d="M210 581q3 0 7 0.5t6 0.5q38 0 38 -33q0 -4 -15.5 -15t-15.5 -17q0 -1 12 -10t23.5 -26t11.5 -37t-36.5 -55t-75.5 -35q-44 0 -58 20t-14 56q0 22 13.5 47.5t27.5 43t14 18.5q10 25 62 42zM206 471q-2 13 -7 16q-5 0 -14 -6.5t-10 -13.5l-8 -16q-10 -19 -10 -30
q0 -7 6 -7q11 0 27.5 15t16.5 33q0 2 -0.5 5t-0.5 4zM496 9q0 18 -10 18q-7 0 -13 -10l-6 -15q-3 -8 -3 -13q0 -11 10 -11q7 0 14.5 11t7.5 20zM480 169q2 3 6 3q32 0 32 -28q0 -19 -5 -31l-4 -11q-2 -4 -2 -9t21 -16t21 -16l14 -15q2 -2 5.5 -17t3.5 -23q0 -24 -9 -34
l-8 -10q-8 -6 -10 -10h1l-14 -13v1q-47 -33 -70 -33q-30 0 -54 18l-14 31q-3 6 -3 16q0 20 12 46t12 28v6l9 11q3 19 13 34l25 50q4 7 10.5 13.5t7.5 8.5zM557 681q1 1 6 1q15 0 23.5 -7.5t13 -18t6.5 -11.5q0 -3 0.5 -6.5t1 -5t0.5 -2.5l-1 -2q-8 -8 -12 -15t-6.5 -15.5
t-4.5 -12.5q-2 -5 -3.5 -13t-10.5 -24.5t-31 -50.5l-4 -7h1q-3 -3 -3 -4l-22 -38q-3 -4 -6 -10l-4 -9l-4 -3l-20 -35q-9 -12 -11 -17l-9 -15q-10 -10 -19 -26l-22 -41q-12 -12 -14 -17l-5 -10q-9 -15 -24 -37.5l-25 -37.5t-10 -17l-11 -17q-19 -30 -22 -34l-4 -6q0 -2 -2 -4
t-2 -3v1l-10 -15q-23 -29 -32 -41.5t-14.5 -23t-15.5 -24.5q-7 -7 -17.5 -29t-27.5 -39l-25 -41q-2 -2 -15 -25l-13 -22q-2 -4 -2 -12q0 -4 -7 -12t-7 -19l-8 -10v1q-8 -5 -22 -5q-5 0 -9 2l-9 4l-3 3q-3 3 -6 7.5t-3 8.5q0 5 8 31q4 13 17 43t15 31l11 13l7 16q6 8 9 16
l5 8h-1l10 11q4 6 11.5 20.5t16.5 27.5t24 30l15 22q1 1 12 15.5t21.5 29t10.5 17.5q16 22 21.5 29t6 9t1 5t13 22.5t36.5 54.5l6 9q1 3 5 9l10 16q0 1 3.5 5t3.5 6l4 10q15 11 15 24v5q8 8 8 10q2 0 13.5 18.5t11.5 22.5h-1q5 2 16.5 16t11.5 24q-1 -1 8 12.5t18.5 29.5
t9.5 19l7 10h-1q6 6 10 16v7q28 45 49 94l16 32q10 14 12 16z" />
    <glyph glyph-name="ampersand" unicode="&#x26;" horiz-adv-x="835" 
d="M470 831l-4 1q-10 4 -37 8.5t-38 4.5q-9 0 -24 -3q-81 -16 -89 -32q-36 -22 -52 -41t-22 -55v1q-4 -13 -4 -35q0 -30 15.5 -79.5t37.5 -91.5l3 -5l-1 -1q1 1 9.5 -19t20 -40.5t20.5 -20.5q3 3 14.5 17.5t11.5 15.5q0 2 2 4l22 27l4 5l4 4q4 3 8 7.5t4 8.5v3l7 8l11 16v-1
q5 1 7 5h-1l3 4h-1l3 5q0 1 3 4l2 7l15 15q3 7 12 18t11 15h-1l5 7q6 2 8 9.5t6 12.5l14 22q15 18 27.5 51t12.5 51q0 6 -2 16t-24 37q-3 3 -3 2l-10 8zM311 293q-1 8 -6 8l-31 -19q0 -3 1 -4l-1 -4l-4 -3v1l-8 -8q-4 -4 -4 -11l-4 -3q-10 -4 -16 -14q-15 -24 -33.5 -46
t-23.5 -30h1q-2 -2 -4.5 -4t-4 -3.5t-3.5 -3t-3.5 -3.5t-2.5 -5l-5 -10l-3 -7h1l-10 -14l-3 -3q-2 -3 -4.5 -6.5t-6 -9t-6.5 -12t-6 -14t-4.5 -16.5t-1.5 -18t1 -14q0 -13 7.5 -36t25.5 -32q2 -2 14 -8t32 -12t35 -6q44 0 70 13l10 3l5 2l3 2q2 2 7.5 5.5t11.5 6.5t13 5
t13 2q1 0 2 -1t2 -1q11 0 13 11l19 14q4 0 14 10l8 6l14 8q6 6 10 7l7 6l25 24q18 10 22 21l-7 9q-6 10 -15 20.5t-13 10.5l-17 17h1q-18 25 -56 63h1l-8 8q-1 1 -15.5 21.5t-16.5 21.5q-3 0 -23 25.5t-19 29.5zM792 349l29 30q11 -2 17.5 -12.5t-1.5 -20.5l-12 -14
q-6 -10 -24.5 -27t-22.5 -29h1l-9 -4q-8 -5 -8 -13l-7 -12q-7 -12 -18.5 -26.5t-21.5 -17.5h1q-4 -1 -6.5 -4t-3.5 -5v-2v-1q-1 1 -3 1q-4 0 -4 -5q0 -1 1 -3q0 -3 -2.5 -5.5t-2.5 -4.5v-1q-1 0 -1 -0.5t-1 -0.5l-13 -13v1l-13 -13h1l-4 -5l-5 -4q-31 -21 -31 -35v-1
q0 -2 -8 -8l-18 -22h1q-8 -8 -9 -11h1q-3 -3 -3 -6t8 -10h-1l12 -13q30 -29 64 -75.5t34 -55.5q0 -8 -4 -12v1q-10 -7 -28 -7h-5l-3 4l-17 15l-30 32l-20 25l-8 8q1 -3 -4 3q-22 26 -24 27l-1 1l-11 11l-9 6l-17 -15q-47 -28 -62 -47l-9 -5q-38 -28 -70 -44l-6 -3l-14 -6
q-3 0 -23 -6t-48.5 -12t-51.5 -6h-28q-9 0 -29.5 5t-37.5 11t-16 10l-6 5q-8 2 -16 10l-11 8q-5 2 -16.5 15.5t-23.5 41t-12 55.5q0 22 8 50t15 36l9 11l4 3q3 2 6.5 5.5t3.5 5.5l-8 2q0 1 1.5 3t4.5 5.5t5 6.5l4 7l14 19q39 52 39 54l5 3q9 7 16 22l30 35l10 17
q21 17 28 27.5t11 27.5v1q0 3 -3.5 10t-3.5 8l-6 11q-7 14 -10 16v-1q-1 1 -1 8l-3 6q-3 4 -15 28t-19 31q-1 1 -7 19.5t-11 23.5q0 4 -8.5 20t-16.5 44.5t-8 63.5q0 44 11.5 84.5t23.5 53.5q3 4 3.5 7t-1 5t8 11.5t30.5 26.5q13 12 26 16t17 10q37 25 77 25q5 0 8.5 -3.5
t6.5 -3.5q2 0 15.5 4t26.5 4q12 0 23 -2t16 -2l2 1h3t3.5 -1.5t6 -3.5t6.5 -2h4q6 0 10 -1h-1q24 -12 30 -13q11 -5 13 -6l8 -6q6 -8 12 -8l3 -2v1l25 -24h-1l7 -12q14 -26 16 -56q0 -21 -4 -40.5t-8 -31t-4 -13.5l1 1l-21 -41q-3 -8 -10 -17l-8 -16h1q-5 -4 -5 -7
q0 -1 1 -1l-11 -11q0 -1 -1 -3q-2 -5 -2 -6q-4 2 -7 -6t-11 -24.5t-23 -27.5l-8 -10q-3 -3 -12 -15.5t-16 -19.5l-7 -7l-8 -14l-15 -18q-1 -3 -6 -8.5t-6 -7.5l-20 -25h1l-6 -6l-11 -15q-1 0 -7.5 -8t-6.5 -9q0 -5 38.5 -57t49.5 -60v1q2 -2 3 -4.5t1.5 -4t1.5 -2.5t3 -1
l13 -15h-1q34 -42 51 -59l25 -26h-1q11 -19 19 -19q4 0 16 13l159 158z" />
    <glyph glyph-name="quotesingle" unicode="'" horiz-adv-x="337" 
d="M194 881q0 4 2 4q1 0 4.5 -0.5t6.5 -0.5q7 -1 11 -3.5t4 -4.5l1 -1q2 5 3 5t3 -3t4 -10t2 -16q0 -3 -0.5 -17.5t-1.5 -27.5q-1 -18 -12 -86t-11 -78v-2l1 -2q-4 -24 -4 -35q0 -10 2 -21.5t2 -13.5q0 -14 -15 -34.5t-24 -24.5q4 -1 -2 -3q-9 -2 -16 16q-10 27 -10 87
q0 31 7 81.5t7 71.5v4l-1 2q0 5 1 8.5t1 13.5v10q0 18 3 38q2 19 10 28.5t15 11.5t7 3z" />
    <glyph glyph-name="parenleft" unicode="(" horiz-adv-x="471" 
d="M421 -338q9 -8 5.5 -21.5t-23.5 -17.5q-6 -2 -11 -7h-1q-5 -9 -14 -9h-1q-14 -6 -43 -6q-21 0 -40 5h-1q-1 -1 -3 -1q-1 0 -7 3l-12 4q-30 4 -56.5 22t-43.5 43t-24.5 38t-12.5 26l-5 12q-17 40 -17 58l1 1v2q0 12 -7 28.5t-10 27.5l-3 20q-6 34 -5 43q0 7 2 8.5t2 3.5
t-3.5 6t-3.5 8q0 3 2 4.5t2 2.5t-2 7t-2 9q0 2 1 6.5t1 6.5v8q-1 1 -1 2q0 2 2.5 7t2.5 6l-2 4q-3 4 -3 7q0 1 1 4t1 6q0 2 -1 6.5t-1 7.5q0 4 1.5 9t1.5 11v2q-1 2 -1 3q0 6 3.5 17.5t3.5 16.5q-2 6 -2 15q0 6 2 18v14q-1 1 -1 2t3.5 17t3.5 23q0 1 -0.5 3t-0.5 4
q0 12 7 34t7 26q1 15 3 24t4 12.5t2 5.5q-1 2 -1 5q0 1 2 2.5t2 3.5q0 1 -1 3.5t-1 4.5q0 3 2 7t2 5q20 45 20 64q0 1 -0.5 3.5t-0.5 3.5q0 2 1.5 5t1.5 4v2q0 2 3 9t3 10l-1 2q0 6 24 69l4 13q30 60 30 67v5q0 3 5 15l7 13q4 9 7 19.5t6.5 18.5t9.5 20q4 8 7 16t3.5 11.5
t1.5 3.5t1 -0.5t1 -0.5q3 0 5.5 10.5t6.5 12.5h1q0 1 1 3l12 25q3 5 9.5 13.5t10 13.5t6.5 10.5t3 9.5h-1q0 2 5 7q4 2 8.5 6.5t20 22t38.5 40.5h1q2 9 24 20q14 10 47 10q2 0 4 -0.5t3 -0.5h1q5 -1 15 -1h2q11 0 23.5 -8.5t12.5 -16.5q0 -7 -8 -12.5t-18 -5.5
q-20 0 -23.5 -3t-6.5 -3h-1q-22 -13 -37 -28t-21 -24.5t-8 -10.5q-6 -7 -16.5 -23t-21.5 -34.5t-21 -35.5t-15 -28t-3 -11h-1q-1 -1 -6.5 -10.5t-11.5 -23t-8 -21.5l-1 -3l-6 -11l-1 -1h1v-5q-5 -3 -18 -35t-16 -49l-5 -11q-1 -1 -1.5 -4t-2 -9.5t-3.5 -11.5l-4 -13
q-1 -4 -3.5 -15t-8.5 -26l-4 -12q-2 -6 -4 -15.5t-3.5 -16.5t-3.5 -9l-6 -27l-10 -34q-2 -4 -2 -6l-4 -16q-2 -6 -2 -8q0 -1 0.5 -2.5t0.5 -2.5q0 -4 -1 -5h-1q-5 -5 -5 -25l-2 -8q0 -15 -8.5 -100.5t-8.5 -110.5v-23q0 -3 -0.5 -8.5t-0.5 -7.5q0 -19 2 -35q0 -29 14.5 -97
t14.5 -69v-1q0 -6 5 -8l8 -16q12 -27 25.5 -46t20 -24.5t9.5 -6.5h2q1 0 1.5 -0.5t1 -2t2 -3t4.5 -2.5l5 -3q-1 0 3.5 -4t11.5 -8.5t13 -4.5h2q4 0 5 -3q48 -19 112 10z" />
    <glyph glyph-name="parenright" unicode=")" horiz-adv-x="439" 
d="M91 915q8 12 16 12q2 0 3 -3t5 -3t8 4l7 -5q8 -5 14 -5l10 -5q2 -1 6.5 -1.5t8 -1t3.5 -1.5q0 -6 8.5 -5.5t19.5 -7t14 -32.5l2 -15l-17 -4l-24 1q0 -17 5 -27q12 -19 19.5 -39.5t17.5 -38.5l14 -26q4 -8 5 -9l6 -9l15 -34l23 -48q5 -17 10 -25q0 -8 8 -28t20 -31l4 -12
q10 -23 10 -27l-1 -1q0 -1 1 -3t2.5 -5.5t2.5 -7.5l6 -21l1 -3q1 -3 2.5 -9.5t3.5 -15.5t4.5 -21t5 -25.5t4.5 -29.5t3.5 -32t2.5 -34.5t1 -36.5q0 -20 -3 -27q0 -2 0.5 -4t0.5 -6q0 -19 -5.5 -45t-5.5 -28l-3 -27q-4 -18 -12 -27q1 0 1 -5q-2 0 -4.5 -9t-2.5 -14v-3l-4 -6
q-1 -1 -16 -40q-4 -12 -29.5 -55t-27.5 -43q1 0 -8 -8t-19 -20.5t-10 -20.5h1v-1q0 -1 -2 -2t-6.5 -5t-9.5 -10l-12 -16q-5 0 -17 -15l-10 -12q-1 0 -7 -4t-19.5 -16t-27.5 -29h-1q-12 -12 -15 -16l-32 -24q-9 -10 -25 -21t-22 -13l-6 -2l-9 -4q0 -2 -3 -2v1h-1q-3 -1 -5 -2
l-10 -4q-24 -12 -65 -12q-13 1 -27.5 12t-14.5 19q0 5 3 9.5t7 4.5h3q2 0 3.5 -2.5t2.5 -2.5q7 12 59 31h1q21 8 79 53l6 6h1q2 1 32 29.5t39 39.5l3 3q2 3 8 11t14 18t21 24t28 29l3 4l13 19q12 14 17 22l2 3q2 3 6 8t8 11t6.5 12t2.5 10v4q7 5 12.5 24t7.5 21h1q0 4 1 5h1
q1 1 1 3q1 0 4.5 11.5t7.5 27.5t4 25q0 8 7.5 48t7.5 74q0 108 -44 249l-4 12q-13 32 -24 61q-9 23 -14 35.5t-9.5 21.5t-5.5 11.5t-6 9.5t-8 12l-12 18q-4 8 -4 7l-3 8q-1 5 -7.5 15.5t-7.5 13.5l-4 8q-14 21 -16 33l-5 12q-6 18 -13 32l-19 39q-2 14 -7 14h-1q-2 0 -2 5
q0 19 7 35z" />
    <glyph glyph-name="asterisk" unicode="*" horiz-adv-x="769" 
d="M567 898q4 2 5 2q3 0 8 -4q45 -3 47 -47q0 -2 -7 -11l-19 -34q-3 -7 -5.5 -10.5t-4 -4.5l-3 -2t-3.5 -4.5t-4 -9.5l-6 -11q-13 -13 -13 -15q0 -11 -16.5 -39t-16.5 -32t17 -4q6 0 24.5 3t27.5 3h5q2 0 55.5 6.5t84.5 6.5l19 2q15 0 18 3v-1h2q6 0 8.5 -2.5t5 -7.5t6.5 -8
l-5 -5q-5 -6 -11 -10.5t-10 -4.5h-1q-5 0 -6 -1.5t-1.5 -4t-14 -6.5t-39.5 -7q-8 -1 -14.5 -2.5t-10.5 -3t-5 -1.5l-1 1h-2q-2 0 -6.5 -1.5t-7.5 -1.5q-23 -6 -67 -10t-50 -6q-1 -1 -18.5 -5t-22.5 -2q-5 0 -13 -1.5t-11 -1.5q-7 0 -23 -21.5t-16 -25.5q0 -6 7.5 -19
t11.5 -15v1q1 -1 2 -5t4 -8v1l2 -4q5 -5 7 -10t11 -14h-1q23 -28 23 -35q6 -5 31.5 -40t25.5 -44q0 -11 -19 -11q-23 0 -37 11.5t-50 59.5l-4 4q2 -4 -2 2q-37 59 -46 67q-4 3 -6 3q-7 0 -25 -30t-32 -37l-11 -9q-13 -15 -13 -35q0 -8 -17 -28.5t-17 -21.5v-1
q-2 -11 -13 -17t-12 -7h1q-6 -6 -15 -6q-5 0 -6 2v-1l-4 2q-1 0 -2.5 -1.5t-5.5 -1.5q-24 0 -24 11q0 2 6 12.5t14.5 25t12.5 22.5q57 116 85 144l4 3l6 6t7 8.5t7 10.5t5 12.5t2 14.5q0 11 -17 11q-5 5 -69 -9l-36 -8q-10 -1 -22 -5.5t-24 -4.5q-7 0 -14.5 2.5t-9.5 2.5
l1 -1q-1 1 -7 6t-10.5 9.5t-9 13t-4.5 17.5l1 2q2 1 5 4t8 6t13.5 5.5t19.5 2.5h3l2 -1q4 0 16.5 3t13.5 6h-1l48 6q49 5 52 8q-5 11 -44 86l-15 28v-1l-18 29q-17 23 -17 41q0 10 5 10q1 0 3 -0.5t4 -0.5v1q2 0 18 -4q-1 0 3 -2q44 -26 60 -58l8 -14l1 -3q1 -2 3 -7t4 -8
q3 -4 5 -7t2 -5t0.5 -3t1 -1.5t2.5 -0.5q3 0 5.5 -7t8 -20.5t12.5 -24.5l5 -10q7 -16 22 -16h2q2 1 6.5 2.5t10 3.5t11.5 6.5t11.5 10t10 14t6.5 18.5l-1 -1l8 11l9 15q4 4 6.5 11t5.5 10l9 14q2 6 9 16.5t8 12.5l10 18q5 9 15 26t12 21l4 8q0 2 3 5l5 9v-1q4 2 5 6.5t4 5.5
z" />
    <glyph glyph-name="plus" unicode="+" horiz-adv-x="615" 
d="M319 525q4 2 6 2q1 -1 11 -2t15.5 -5.5t11.5 -28t6 -64.5q0 -96 -7 -103v-2q0 -15 12 -15q1 0 56 8t88 8q35 0 56 -7t21 -18q0 -8 -15 -11l-17 -6q-6 -3 -13 -3h-6q-18 0 -32 -7h1l-21 -5l-42 -8l-20 -4l-14 -3q-49 -11 -53 -16v1q-12 -12 -12 -133q0 -69 9 -113
q2 -6 2 -14q0 -24 -24 -24q-5 0 -7 2v-1q-3 3 -14 5q-15 2 -21 7.5t-10 21.5q-7 19 -7 105q0 32 1.5 60t3 43.5t1.5 17.5q0 7 -3 8h-10q-11 -6 -57 -13q-14 -2 -18 -4.5t-7 -2.5h-1q-9 0 -16 -3q-1 -1 -13.5 -2t-25.5 -4t-18 -8v1q-6 -4 -21 -4q-20 0 -36 9.5t-17 19.5
q0 19 8 23q-8 0 5 5q43 15 104 24l20 3l44 10q4 0 12 2l38 9q15 0 15 15v8q6 6 6 40v14l2 27q1 26 1 46q0 66 4 69q4 0 9.5 9.5t8.5 10.5z" />
    <glyph glyph-name="comma" unicode="," horiz-adv-x="405" 
d="M224 141q23 0 41 -9.5t21 -20.5l11 -19q18 -39 18 -70q0 -39 -4 -43q-1 -1 -3.5 -10.5t-6 -22.5t-9.5 -22q-3 -4 -4.5 -8t-1.5 -6.5t-1 -4.5t-2 -2q3 -3 -15.5 -30t-45.5 -56t-43 -34q-3 -2 -4.5 -5.5t-2 -5.5t-2.5 -2q-8 0 -30.5 -28t-25.5 -28q-1 0 -4.5 1t-6.5 1h-8
q-3 0 -13.5 12t-10.5 16q0 16 13 32q28 34 56 62.5t39.5 40t11.5 14.5q1 0 7.5 10t15 24t12.5 23q4 11 11 20.5t9.5 20.5t2.5 38q0 29 -7 43.5t-15 16.5t-15 10.5t-7 27.5q0 10 19 14z" />
    <glyph glyph-name="hyphen" unicode="-" horiz-adv-x="713" 
d="M532 309q16 2 35 2l21 1l-1 -13q-1 -15 -8.5 -24t-17.5 -9h-4q-1 1 -7 -3t-16 -8t-17 -4q-9 0 -11.5 -1t-3.5 -1h-1q1 -2 -13 -6.5t-51 -9t-84 -4.5h-5q-30 0 -64.5 -5.5t-60.5 -5.5q-25 0 -38.5 6.5t-17 13.5t-5.5 19l-2 12l13 5q13 6 36 7q2 0 24 2.5t64.5 5.5t95.5 3
h3q2 0 6 1q36 5 130 16z" />
    <glyph glyph-name="period" unicode="." horiz-adv-x="372" 
d="M194 126q14 11 21 11t13 -9q1 -1 7 -4.5t12 -7.5t12 -11t7 -15q0 -9 -3.5 -16t-3.5 -12q-2 -21 -22.5 -40.5t-28.5 -19.5q-1 0 -7 2t-9 2q-1 0 -5 -1t-7 -1q-14 0 -35.5 20.5t-21.5 41.5q0 14 10.5 22t29.5 17t31 21z" />
    <glyph glyph-name="slash" unicode="/" horiz-adv-x="583" 
d="M589 879q4 2 10 2q12 0 18 -2.5t11 -8t7 -7.5l7 -7h-1q2 -6 2 -12q0 -7 -3 -13l-12 -20v-11q0 -2 -9.5 -20t-13.5 -22l-18 -47q-2 -4 -8.5 -15t-10.5 -31v1l-4 -7q-22 -38 -26 -59q-1 -1 -12 -18.5t-12 -20.5h1q-2 -2 -4 -6l-1 -1q-4 -5 -14 -24.5t-13 -23.5l-4 -7
q-2 -6 -15 -28t-13 -27q0 -10 -20.5 -37.5t-20.5 -39.5v-3l-5 -3q-8 -5 -8 -16l-2 -3q-12 -19 -40 -79q0 -6 -2 -8l-9 -11q-3 -9 -9 -17l-10 -15q0 -2 -1 -6t-1 -5l-4 -7q-3 -6 -3 -8t2 -6l-16 -23l-1 -5q0 -2 -4.5 -10t-4.5 -9v1q-10 -18 -10 -27v1l-6 -16l-1 -2l-7 -10
l-4 -8l-1 -3l-1 -3l3 -3q-14 -19 -14 -25v-1l-11 -20v-13q0 -7 -11 -18l-22 -60q0 -7 -4.5 -15t-4.5 -21q-2 -4 -9.5 -30.5t-13.5 -50t-6 -22.5l4 -9l-1 -5l-3 -16q-1 -1 -1 -3t1.5 -5.5t1.5 -4.5v-4q0 -28 9 -41q0 -1 -3 -4q0 -5 2.5 -13t2.5 -12q0 -9 -9 -18l-4 -4
q-11 0 -15 -1l-3 -1h-6t-7.5 0.5t-9 1.5t-9 3.5t-7.5 6.5t-5 10t-2 14q0 1 0.5 3.5t0.5 4.5l-1 1q3 1 3 7q0 13 -10 23q9 35 9 58v13l3 4q2 3 2 5q0 3 -4 10l3 11q5 21 6 23l4 16q0 11 3 17l13 39q7 36 14 42l31 72q0 1 -1 1l-4 -2q1 3 4.5 5t3.5 9v7q0 10 29 68l3 11
q11 19 11 27l8 9q2 7 5 14t5 11l2 4l6 9q0 3 7 15t7 17q0 1 -2 3l8 9l20 57h-1q13 13 19 21t9 14t6 10l2 4q14 38 31 64l10 15v2q0 4 -2 5l16 19q5 15 18 32v-1l5 15q0 1 3.5 5.5t5.5 8.5l3 4l-1 -1v1q0 15 12 27q-1 1 -1 2l5 6q4 6 8 13.5t4 10.5l3 8l7 8l4 6q4 7 15.5 29
t24.5 51l5 15v-1l10 16q0 11 2 13l4 5q1 4 4 12t4 12v-1q8 16 14 22l3 6q5 15 9 23l3 14v-1q6 11 8 22l8 14h-1l8 9v2q0 8 8 13z" />
    <glyph glyph-name="zero" unicode="0" horiz-adv-x="547" 
d="M315 559q0 1 -6 3t-9 2t-5.5 -2.5t-11.5 -5.5l1 1q-6 -1 -14.5 -7.5t-10.5 -13.5v2q-2 -3 -9 -7.5t-7 -10.5v-3q-3 -4 -15 -29.5t-13 -33.5q-11 -27 -13 -42l1 1l-10 -30v1l-7 -20v-4q0 -10 -6 -60t-6 -77q0 -10 2 -26q0 -1 -0.5 -3t-0.5 -3q0 -3 0.5 -8t0.5 -7v-9
q0 -57 26 -103.5t72 -46.5q11 0 21 4.5t18.5 15t15 19.5t14 27.5t11.5 29t12 33t12 32.5q0 2 2 6.5t4.5 11t4.5 26.5t3 50q-5 140 -34 198l2 7q0 5 -3 18t-3 19q-18 50 -28 50q-4 0 -11 -5zM323 619q0 3 0.5 4.5t2 2.5t2.5 2q3 0 5 1q12 0 16.5 -8.5t8.5 -8.5t7 1
q4 0 9.5 -8.5t5.5 -15.5q20 -36 28 -69q1 0 10.5 -43t19.5 -93t11 -65q0 -20 3 -35q2 -26 2 -36q0 -80 -32 -144v1q-3 -4 -4 -12t-8 -15q-1 -1 -13.5 -30t-32.5 -38l-20 -13q-20 -18 -47 -18q-5 0 -6 1h-25q-5 -1 -15 -1q-53 0 -84 36v-1l-15 15q-20 16 -33.5 85t-13.5 99
q0 25 2.5 53.5t5 47t2.5 19.5t-0.5 3t-0.5 3t3 12q0 2 3.5 22t12 52t17.5 54l3 11q5 6 6 15t25 41q11 18 21.5 29t24 16t23.5 6.5t29 2.5t31 3q10 2 10 16z" />
    <glyph glyph-name="one" unicode="1" horiz-adv-x="527" 
d="M139 467l32 41l36 41q14 11 23 16l8 5l23 20q0 9 5 9l12 12l47 41q4 4 31 15l23 -8h2l16 -4v1q6 -20 6 -55q0 -76 -4 -137v1q-1 -4 -1.5 -12t-1 -19t-0.5 -16l-3 -48v1q-13 -44 -13 -199q0 -43 2 -58q9 -35 9 -59.5t5 -32.5v1l3 -8q0 -9 11 -23v-20q-6 -8 -25 -8
q-27 0 -48 30l2 -7l-2 6l-3 5q-2 6 -3 10v5q-27 45 -27 223q0 27 7 105t8 131l6 78l-48 -30q-2 -2 -16 -9t-19 -21l-33 -33q-31 -31 -59 -29q-16 0 -27 8q0 9 2 17l4 4q7 3 10 10z" />
    <glyph glyph-name="two" unicode="2" horiz-adv-x="624" 
d="M529 -25q0 -11 -6 -14l-49 9h-8q-29 0 -37 4q-25 3 -50.5 4.5t-37.5 2t-13 1.5q-5 5 -46.5 6t-78 10.5t-36.5 35.5q0 7 20 34t50.5 66.5t46.5 64.5v-1l17 26q6 3 10.5 12l18 36t30.5 57l-2 -2l4 6q15 26 15 39l1 3v6l-3 -1q8 5 12 20l7 39v-1q3 20 3 35q-2 31 -14 49
l-11 16l-33 -1q-51 -2 -83 -34q-7 0 -16.5 -10.5t-13.5 -13.5h-1q-9 -9 -12 -18q-7 0 -26 -33t-30 -33q-14 0 -25.5 8.5t-11.5 19.5t14 40t28 45l15 17q6 8 7 11v-2l4 4l9 8v-1q22 19 46 32l44 22l17 6h-1q14 4 28 4q46 -2 71 -21l13 -10l-1 1l6 -4l-1 1q7 -5 18 -18t11 -18
v-1q0 -1 4 -9t8.5 -26t4.5 -44q0 -25 -10.5 -81t-15.5 -56t-11.5 -14t-22.5 -46t-36 -63v3l-2 -3q-2 -4 -4.5 -9.5t-4.5 -7.5l-6 -12q-2 -4 -9 -12.5t-9 -12.5v1q-6 -7 -14 -23v1q-2 -3 -7 -11t-7 -10l-11 -17q-5 -13 -5 -16q0 -6 14.5 -9t34.5 -5t26 -4q110 -28 121 -28
q6 0 9 -3t3 -7t4 -10t13 -11l-1 1q15 -12 15 -20z" />
    <glyph glyph-name="three" unicode="3" horiz-adv-x="624" 
d="M252 -333q-54 -27 -100 -24q-47 14 -47 87q0 20 11.5 52t24.5 34q0 -12 14 -34l-1 1v-5l1 3q0 -1 -0.5 -3.5t-0.5 -4.5q0 -11 3 -17v1l1 -2v-3q0 -2 -2 -9t-2 -11q0 -7 3 -16l-1 2q2 -11 5.5 -14.5t11.5 -3.5q13 0 27 8l2 2q6 0 21 7.5t24 18.5l5 5q10 0 25 15l6 5l-2 -1
q38 24 91 77l32 32q15 11 20 20t14 17q36 45 36 95q0 22 -9 34q-10 13 -21.5 24t-20.5 16.5t-16.5 9t-12.5 5.5l-5 2l-13 5q-2 0 -4 1h-2q1 -1 1 -4q1 0 1 -1l-1 1q-3 7 -21 18h1q-37 21 -76 74l-4 10q-10 18 -10 22l1 1l-3 -1q11 6 11 16v2q-1 1 -1 2q0 10 14 35l-2 -2
l11 20v-1q3 7 18 29t24 37q8 12 9 17l2 3q22 25 37 73.5t15 76.5q0 20 -8 28t-26 8q-11 0 -40.5 -11.5t-45.5 -25.5l-13 -9h2q-20 -11 -26 -16.5t-6 -11.5l-5 -5q-22 -30 -23 -35q0 3 -4 3q-14 0 -22 -8l1 1h-1l-2 -1q-7 0 -12.5 7.5t-7.5 13.5t-2 8q0 5 1 7q17 34 17 38
t17 21.5t58.5 41t91.5 32.5q16 2 24 2q26 0 43 -10h3q27 -12 42 -49v1q8 -21 8 -51q0 -9 -2 -23l-10 -27l-4 -9q-3 -9 -3 -15l-22 -54q-10 -20 -14 -26q2 0 5 -3q-15 0 -17 -17l4 3h1h-1q-9 -7 -16 -22v1q-5 -9 -11.5 -19t-10 -16t-3.5 -9q0 -2 -7.5 -12t-14.5 -25.5
t-7 -30.5q0 -8 13 -21t21 -13q22 -24 74 -44q23 -13 38 -28t27.5 -32t20.5 -25v-6q0 -6 6 -17t6 -22q0 -25 -12 -59v1q-11 -29 -21.5 -48t-16.5 -24.5t-10 -9.5t-4 -8l-1 1q0 2 1 3q-6 -5 -19.5 -24.5t-29.5 -33.5l-21 -21q-4 -4 -4 -6q-7 0 -19 -12l-32 -31q-6 2 -8 2
q-5 0 -7 -1.5t-2 -4.5t-6 -9t-18 -12l-11 -9z" />
    <glyph glyph-name="four" unicode="4" horiz-adv-x="598" 
d="M254 621v-1q3 1 9 1q14 0 26.5 -11t12.5 -25q0 -4 -6 -25l-12 -60v-1q-1 -1 -1 -2v1q-8 -27 -11 -29v-3q-2 -5 -3 -11q-1 -9 -12 -45l-11 -35l1 1q-3 -7 -5.5 -14.5t-4.5 -14t-2 -7.5q-5 -3 -6 -4.5t-2 -5.5t-1.5 -9.5t-4.5 -19.5t-11 -32q0 -1 -1 -3t-1 -3v1l-4 -23
l-1 4q-3 -3 -6 -12t-7.5 -23.5t-9.5 -26.5v1q-20 -45 -20 -77q0 -5 15.5 -12t68.5 -15t131 -8q2 0 7.5 1.5t6.5 1.5l-1 -1l21 5q0 108 7 115v8q0 71 5.5 87.5t29.5 16.5q8 0 23.5 -17.5t15.5 -22.5q-5 -6 -5 -31v-27q0 -20 -0.5 -38t-0.5 -20v-5q-7 -47 -7 -142q0 -13 1 -17
q0 -6 -1 -9l-3 -25q-1 -6 -1 -18v-14v-5q0 -2 -2 -11.5t-2 -16.5q1 -13 1.5 -33t1 -29.5t1 -24.5t1.5 -21.5t1.5 -17.5t2 -16t3 -12.5t3.5 -12.5t4.5 -10t5.5 -10q11 -16 11 -22q0 -2 -2 -6l1 3q-3 -3 -3 -4q-5 4 -11 4q-7 0 -11 -7q-1 0 -7 3q-43 21 -55.5 74t-12.5 156
q0 82 1 95q0 16 -8 22q-67 10 -183 10q-1 0 -3 -0.5t-3 -0.5q-48 9 -70 20h1q-14 7 -33.5 27.5t-19.5 29.5q0 36 9 56q3 7 18.5 54t15.5 50q11 2 14 25l2 12q9 13 9 23q0 6 -2 6l3 2q8 8 12 23q23 89 36.5 115.5t17.5 53.5v-1q5 17 9 37t5.5 30.5t6 19.5t12.5 11z" />
    <glyph glyph-name="five" unicode="5" horiz-adv-x="735" 
d="M486 542l-126 -20q-1 -1 -18 -2.5t-22 -4.5q-4 2 -14 2q-8 -3 -18 -3h-6q-9 0 -21 -25l4 2q-8 -6 -17 -54t-9 -77q0 -31 13.5 -69t19.5 -44l2 -2l7 -19q3 -6 7 -9q0 -15 40.5 -53.5t46.5 -38.5l2 -3q2 -3 5.5 -8.5t8 -11t10 -9.5t10.5 -4q1 0 1 0.5t1 0.5q0 -3 5.5 -9
t9.5 -6l4 -2q7 -5 18.5 -15t16.5 -13l1 -1q11 -7 44.5 -41t33.5 -39q0 -8 7 -17l-2 6l4 -10q9 -11 9 -14l5 -15q2 -1 6 -22q1 -6 1 -19q0 -52 -22 -96q-35 -57 -40 -57h-2l-2 1q-5 0 -9 -5t-4 -9q0 3 -12 -8q-10 -11 -15 -11q-18 0 -18 -14q-1 2 -4 2q-14 -6 -21 -10h1
l-10 -4q-34 -21 -80 -21q-64 0 -90 11t-67 64l1 -1q-22 37 -22 43l-1 -1q-3 5 -5 18v-1q-3 6 -9 39q5 -3 11 -3q5 0 7 1v-4h1q3 0 9 -6.5t11 -12.5l4 -7q-1 0 -1 -8q0 -30 12 -30q6 0 10 2q-2 -2 -2 -4t2 -4l4 -5q9 -11 16 -15l4 -3q18 -22 68 -22q2 0 8 0.5t9 0.5l5 1
q95 18 95 39q4 1 8 3.5t6.5 5t11 11.5t16.5 17q40 49 46 64l2 6q0 1 2.5 5t4 10t1.5 13q0 13 -3 23.5t-6 16t-3 6.5q-4 17 -51.5 61.5t-48.5 45.5t-21.5 16.5t-40 30t-23.5 14.5q-3 0 -26.5 29t-30.5 31q1 0 1 1l-10 15q-5 0 -30.5 41t-25.5 53l-4 15q-2 3 -8 56t-6 70
q0 26 21 118v-1q20 60 34 87l17 33v-1l18 29l-1 -1q4 5 15 24q3 7 9 13.5t10 6.5h1q10 0 15 4q4 -1 16.5 -16t20.5 -17h-4v-3q0 -12 -17 -35v1q-17 -17 -17 -34q0 -6 4 -10l-2 4q6 -6 37 -6q12 0 19 1l48 4q45 0 58 6l-1 -1q76 13 141 10q5 0 11.5 -4t12.5 -4q1 0 2 0.5
t2 0.5l1 -1v-1q-1 -2 -1 -4v-1q-23 -44 -84 -38q-60 -1 -79 -15z" />
    <glyph glyph-name="six" unicode="6" horiz-adv-x="591" 
d="M265 -25q-13 0 -21 5t-16 7h2q-139 48 -139 200q0 20 2 32q6 29 13.5 55.5t12.5 41t10.5 28.5t6.5 16l2 6q6 20 13 35.5t11 23t4 11.5v2q1 1 3 6t5 11l3 6q1 2 3.5 9.5t7 16.5t11.5 20v-1l10 18q4 4 10 16.5t6 15.5v1q7 6 9 13.5t7 12.5l8 15v-1q3 4 12 23t9 22
q2 11 15 30t13 31q0 21 7 35l14 18q5 3 15 14t25 28.5t23 25.5l-1 -1l13 22q11 14 31 32t28 21h1q6 2 10 2t13.5 -10.5t14.5 -18.5v1q5 -8 5 -12q0 -2 -2 -10q0 -1 -22 -27t-43 -55.5t-21 -40.5q-8 -1 -32.5 -45.5t-30.5 -45.5q-8 -8 -12 -25.5t-19 -37.5l-9 -15
q-3 -10 -14.5 -26t-24.5 -45q-9 -23 -17.5 -40t-13 -23t-7 -12t-2.5 -12l-1 -2q-1 -2 -2.5 -5.5t-2.5 -5.5q59 35 131 35q32 0 37 -1q8 -3 21.5 -11.5t14.5 -8.5q84 -46 84 -177q0 -80 -53 -148q-8 -10 -10 -15q-90 -86 -181 -86zM440 212q0 89 -35 133q-18 21 -25 26
q-7 3 -41 3q-49 0 -144 -54q-2 -1 -6 -9t-7 -15l-3 -8q-26 -78 -26 -124q0 -32 18 -76v1q21 -59 88 -59q72 0 128 54q7 7 13 23q9 7 16 18q24 39 24 87z" />
    <glyph glyph-name="seven" unicode="7" horiz-adv-x="683" 
d="M309 -382q0 -4 -4 -7.5t-6 -3.5q-6 2 -11 2t-7 -1q-7 1 -7 4q1 0 1 1q-3 2 -15 5l-6 5q-7 13 -16 20l1 -2q-16 21 -17 25v-1q-3 9 -5.5 16t-4.5 12t-3.5 8.5t-2.5 4.5t-2 1q3 5 3 10q0 9 -10 12l1 26q0 26 1 55t4 36q5 11 7.5 25.5t3 25.5t1.5 13q1 1 4 19.5t9 40.5
t13 33q23 47 23 85q0 19 -21 19q-20 0 -36 2t-25.5 4.5t-16.5 7t-10 7.5t-4.5 7t-1.5 5v3q0 1 2 5l13 15q7 4 60 4h29.5t19.5 1.5t12.5 2t7 5t4 6t2.5 9.5l3 12l-1 -1q4 6 9 22l5 17q1 2 10.5 32.5t16.5 58.5l4 14l-1 -1l3 12q33 130 33 150q0 32 -23 57t-61 25
q-14 0 -34.5 -4.5t-26.5 -9.5l-2 -1h-2l-2 1q-3 0 -10 -2.5t-25.5 -15t-39.5 -33.5h1l-1 -1q-4 -6 -4 -7q0 5 4 7q-7 -2 -24 -22q-3 -3 -3 -5q0 4 3 5q-3 -1 -12 -5t-19 -4q-4 0 -26 2q0 2 -3.5 11t-3.5 15q6 19 46 57l24 23q4 3 18 8l23 12q1 1 1 2q3 0 31.5 8t38.5 9
q1 -1 6 -1q9 0 16 4l-1 -1q1 0 3.5 0.5t4.5 0.5q25 0 54 -7t40 -15l5 -2l-3 1l9 -5q9 -6 14.5 -10t14 -13t14.5 -20q3 -6 8.5 -16.5t8 -15.5t5.5 -14.5t4 -21t1 -27.5q0 -9 -4.5 -31t-10.5 -46t-12.5 -47t-10 -37.5t-3.5 -13.5q-6 -9 -20.5 -52.5t-14.5 -70.5q0 -8 105 -8
q17 0 66.5 2t59.5 2q24 0 24 -10q-1 -12 -6 -18q-3 1 -8 1q-14 0 -72 -24q-94 0 -140 -7t-54.5 -15t-12.5 -27q-3 -13 -6 -21.5t-4.5 -11t-2 -6t-0.5 -8.5h-1q-1 -1 -9.5 -29t-16.5 -54.5t-8 -24.5q0 -13 -6.5 -19t-6.5 -9q0 -11 7 -13q-16 0 -16 -117q0 -17 0.5 -25
t2 -11.5t5 -15t7.5 -27.5l7 -18l9 -24q1 -3 5 -11t4 -11z" />
    <glyph glyph-name="eight" unicode="8" horiz-adv-x="690" 
d="M273 210q-11 -20 -12.5 -42t1 -47.5t1.5 -38.5q0 -28 26 -43t63 -15q47 0 70 15l29 30q-2 6 -2 9q0 4 3 15t3 18q0 58 -77 137h1q-26 29 -32 47l-19 -3v8l-9 3q-6 -2 -16 -14t-10 -18q0 -11 -2 -13l-3 -5l-3 -2l-6 -19q0 -6 -3 -13.5t-3 -8.5zM364 404q3 -8 2.5 -11.5
t-3.5 -11t-4 -11.5q0 -3 7 -10l19 -20q0 -2 1 -3q4 -3 8 -9l1 -7h5q8 -13 10 -13l1 1q3 0 31 -42l14 -17q13 -10 27 -33v1l16 -31q2 -4 8 -16.5t9 -18.5v1l4 -9q1 -3 3.5 -9t4.5 -11l2 -4q0 -1 -3 -7l1 -16l2 -8q0 -3 -10.5 -26t-16.5 -21v-19q-8 -7 -12 -13
q-21 -25 -49 -25q-8 0 -13 -3t-8 -6l-3 -3l-1 1h-4q-1 0 -4 -0.5t-4 -0.5l-23 -4q-24 -2 -30 -2q-11 0 -29.5 4t-23.5 4t-9 -2q-6 0 -51 30q-24 16 -35.5 56t-11.5 64q4 88 23 140q28 80 52 120q-4 7 -17.5 26t-17.5 29l-10 21q-14 14 -40 69.5t-34 83.5v2q0 2 -0.5 5
t-0.5 4l-4 18q-1 4 -1 15q0 10 1 14q-1 2 -1 17q0 13 1 20q-1 1 -1 2q0 39 23.5 76t53.5 57l7 5l-2 -2l14 9q3 1 10 5l15 7h-1l19 5q2 1 9 1q38 0 51 -16v29q9 2 18 2q26 0 84 -22h-1q10 -5 21.5 -14t11.5 -12h3q2 -1 5 -12l34 -41l19 -21q8 -16 8 -24q0 -5 -1 -7q5 -5 5 -9
q0 -3 -1 -4l7 -45q2 -14 2 -40q0 -24 -5 -72q1 0 1 -3q0 -13 -13 -32q0 -2 0.5 -7.5t0.5 -6.5q0 -5 -6 -7q2 -8 2 -13q0 -13 -14 -41l-2 -9q0 -1 -5 -10.5t-5 -13.5l-2 -9q0 -3 1 -7q8 -15 -8 -47t-37 -27q-2 0 -6 -2l-3 10q-3 9 -3 39q0 34 7 56v12q0 8 6 34q14 64 14 76
l2 9h5q0 10 2.5 40t2.5 41q0 51 -12 81l1 -4l-2 6q1 0 1 1q0 2 -3.5 7t-3.5 7q-32 63 -74 78q0 2 3 2q-10 5 -29 5q-41 0 -79 -19l-48 -41l-8 -13q-1 -2 -9.5 -15t-9.5 -13q0 -49 -9 -58q0 -9 1.5 -19.5t1.5 -14.5l6 -14q4 -20 4 -32l19 -46q15 -28 31 -48q0 -1 2 -5.5
t4.5 -9.5t6.5 -11t10.5 -12.5t15.5 -11.5q-1 -2 -4 -2q6 -6 20 -6q8 0 17 3l-1 -1q6 0 14 -11t8 -21l-1 -2v-2z" />
    <glyph glyph-name="nine" unicode="9" horiz-adv-x="575" 
d="M192 299q0 -108 93 -108q27 0 65 11q1 -4 1 -11q0 -49 -74 -49q-31 0 -61 10t-58.5 41t-36.5 79q7 2 7 25v16q0 1 0.5 8t0.5 12l-1 3v3q0 11 4.5 30t5.5 33l7 22h-1l14 49q2 8 7 14.5t6 14.5q56 129 164 129q68 0 108.5 -92.5t40.5 -291.5q0 -13 -2.5 -66.5t-2.5 -89.5
l-2 -19q0 -1 -2 -17v-5q0 -3 -1 -7.5t-1.5 -7.5t-0.5 -4v-6q0 -1 -1 -8t-3 -18.5t-4.5 -25.5t-7 -31t-8.5 -32l-4 -13l1 1l-5 -13q-10 -19 -15 -38l-5 -16l-6 -10l-10 -24v1q-24 -59 -58 -84l-15 -14q-1 -3 -4.5 -6t-9 -7t-8.5 -7l-6 -4q-4 -1 -7.5 -4t-12.5 -6h3l-5 -2
q-3 0 -14 -6t-34 -12.5t-56 -6.5q-10 0 -19 1.5t-19 5t-15.5 6t-17.5 8.5l-16 8q-31 14 -53.5 40t-22.5 42q0 18 12 18q2 0 8 -7q70 -67 156 -67q24 0 62 19.5t45 28.5q2 3 6.5 8.5t6.5 8.5q25 34 39 67t21 59.5t11 34.5v-2l6 21l-1 -1l3 9v-2q13 45 13 65l-1 9q10 38 10 70
v7q0 1 2 47t2 49q0 319 -67 368l-8 7q-11 14 -19 14q-13 0 -34 -21t-42.5 -56t-37 -90.5t-15.5 -114.5z" />
    <glyph glyph-name="colon" unicode=":" horiz-adv-x="460" 
d="M241 426q7 5 9 5q1 0 7 -4q-2 1 1 1q18 1 35 -15q11 -11 11 -25q0 -12 -10 -19q-12 -10 -18 -22.5t-13 -18t-27 -5.5q-20 1 -35 12t-15 21q0 4 3.5 18t15.5 31.5t28 17.5h1q2 0 7 3zM224 212h5q57 0 57 -44q0 -6 -33.5 -50t-41.5 -44h-2q-3 0 -20.5 -9t-19.5 -9
q-9 0 -22 12t-13 16q0 12 2 17t6.5 8t14 22t20.5 53l2 3q2 3 5 6t8 6.5t13.5 6.5t18.5 6z" />
    <glyph glyph-name="semicolon" unicode=";" horiz-adv-x="538" 
d="M314 506q4 2 8 2q8 0 20 -10l5 -4l3 -2q4 -2 6 -2l9 -7q4 -2 4 -14q-1 -9 -5 -11q-16 -9 -23 -36.5t-13 -32.5l-15 -13l-17 -10q-12 -2 -15 -7l-6 4q-1 1 -20.5 3.5t-30 13t-10.5 33.5q0 7 5 15q4 9 10 17t12 14.5t12.5 12t12.5 9t11 6.5t8 5l3 1q11 9 17.5 10.5t8.5 2.5
zM245 140q2 0 4 2h1q3 3 8 3h2q4 -5 13 -5q18 0 26 -21.5t8 -33.5q0 -14 -6 -33t-6 -31q-3 -2 -5.5 -10.5t-13.5 -28.5t-33 -45l-16 -18h1l-22 -21q-6 0 -14 -6l-8 -6l-2 -2q-1 -1 -6 -4l-10 -6h-4l-3 -2q-11 -5 -37 -5q-13 0 -33.5 6.5t-20.5 16.5q0 8 3 11.5t7.5 4.5
t15.5 5.5t23 12.5l10 8q15 9 62 61l7 10q4 5 5 7l8 12q6 11 10 24l7 21q5 16 5 61l10 5z" />
    <glyph glyph-name="less" unicode="&#x3c;" horiz-adv-x="640" 
d="M471 531q2 1 7 1q8 0 13 -3.5t9 -8.5l3 -4l1 -6q9 0 11 -14l-7 -21q-3 -2 -11 -11t-16 -15.5t-16 -7.5l-5 -9q-3 -5 -15 -16t-14 -11q-5 0 -45 -33q-30 -23 -51 -40l-37 -27l-12 -6q-3 -3 -13 -9l-7 -5l-4 -3l-10 -7.5t-12.5 -9.5t-14 -11.5t-12.5 -11.5q0 -7 6 -9l8 -5
v1l5 -3l2 -3q4 -7 9 -7l2 -1l13 -15q13 -10 15 -11l6 -6l1.5 -1.5t2.5 -3t5 -5.5l4 -5h-1q1 -4 8 -7.5t21.5 -16t31.5 -33.5l5 -1q5 -1 7 -3l3 -5q0 -1 1 -1v-1l4 -8q4 -3 7 -3q2 0 6 6v-1q0 -10 2 -10q1 0 6 2.5t5 3.5q0 3 -2.5 5t-4.5 3l-2 1q-1 0 -3 -1q5 7 10 7
q-4 4 -4 7q0 1 1 1q10 0 17.5 -3.5t9.5 -7t2 -5.5v-2q0 -9 7 -12v1l9 -10h-1l3 -7q2 -8 5 -11l7 -10q8 -11 12 -11q-2 -1 2 -8.5t9.5 -18.5t6.5 -19q-1 -13 -14 -22q-26 0 -29 4h1q-2 5 -10.5 8.5t-11.5 10.5l-18 13v-1l-6 4q-2 0 -4 2l-3 3l1 -1l4 -5q-2 1 -8 7l-14 14
t-13 12l-13 12l-12 11q0 3 -3 5.5t-6 3.5l-3 1l-14 13q-2 2 -5.5 4.5t-5.5 4.5t-3 2v-2l-25 25h1q-6 9 -20 20v-1l-7 5q-1 0 -8 12q-7 5 -14.5 10.5t-13 10t-10.5 8.5t-7 7l-2 2l-12 6q-45 14 -57 37h1q-3 9 -3 17q0 4 10 14t17 14h1q4 0 7 5h-1q4 4 17 13.5t16 9.5h1
q4 0 5.5 1t2 2.5t2.5 3.5t6 4l53 37q11 9 19.5 15t13 8.5t7.5 3.5l4.5 1.5t2 1t0.5 2.5l4 4v-1q3 3 10.5 9t9.5 7l26 23v-1l9 7q8 4 13 11l8 6q4 4 9.5 8t14.5 13l10 10q4 6 11 10t13 12l4 8h-1q7 7 11.5 9.5t9.5 4t10 3.5z" />
    <glyph glyph-name="equal" unicode="=" horiz-adv-x="616" 
d="M356 378q21 0 37 2h15q12 -1 54 -1h40l31 -30v-14q0 -17 -15 -22t-72 -5q-55 0 -67 -2h-1v1q-12 0 -17 -4h-20q-10 0 -40 -3l-6 -1q-6 -1 -15 -1h-10h-11t-20.5 -0.5t-21.5 -0.5q-38 0 -56.5 9t-20.5 9l-10 12h-2l-2 22q0 15 4 18.5t20 3.5q5 0 28 -0.5t36 -0.5
q17 0 142 8zM141 190q8 0 12 3q5 -4 41 -4q5 0 14 0.5t13 0.5q7 0 8 -1q11 0 15 1q3 -1 9 -1q4 0 6 1q1 -2 21 -2h17q31 0 121 -10q2 0 12 3t14 3q22 0 36.5 -12t18 -21.5t3.5 -13.5q0 -18 -16 -26q-47 0 -81 3.5t-46 3.5h-9h-8.5t-17.5 0.5t-23 0.5h-14q-2 0 -4 1h-2h-61
h-1q-1 -1 -2 -1h-9q-34 0 -40 6q-8 0 -29 13t-21 30q0 22 23 22z" />
    <glyph glyph-name="greater" unicode="&#x3e;" horiz-adv-x="646" 
d="M174 534q3 0 7 2l-1 3h4v-1h1q1 0 9 -3t13 -3l12 -9q6 -7 18 -9l27 -31q1 -4 9 -13.5t13 -10.5l24 -25l12 -13l4 -3q3 -2 4 -2l10 -9q3 -9 10 -13l11 -9h3l22 -22q1 -1 3 -5.5t4 -6.5l6 -5h1q1 0 14.5 -13.5t21.5 -15.5l4 -6v-1q1 0 2 1q17 -15 25 -24t18 -18l15 -19h2
l2 -1l17 -19q19 -21 19 -44q-7 -8 -28 -22l-44 -22l-24 -16v1l-5 -5l-7 -2h1l-8 -4l-24 -11l-24 -14q-3 0 -7 -3l-8 -7l-20 -9l-70 -40q-14 -8 -45.5 -29t-33.5 -25q-16 0 -21 3l-8 2q-2 1 -7 1l-4 5q-5 5 -21 34q7 20 18 29l15 10q2 1 8 5.5t8 6.5l50 25q6 3 25.5 16
t31.5 20l18 5q-1 0 0.5 1t4.5 2.5l7 3.5t10 5.5t12 7.5l36 24l16 8q8 7 18 11t13 7l17 16l-6 9h1l-14 15v-1l-61 55v-1q-8 4 -15 14h1q-22 22 -31 22h-1l-26 31l-1 6l-10 8v-1q-8 4 -16 14l-21 18q-11 11 -12 17l-20 12q-8 13 -12 15l-11 12h-8q0 9 -5 14l-2 6q-2 1 -4 14
v-1l-2 6l3 18q0 1 2 7q2 -1 5 -1z" />
    <glyph glyph-name="question" unicode="?" horiz-adv-x="655" 
d="M175 208q-3 -1 -4 3t-3 4h-3q-7 0 -7 3l-2 4q1 13 32 41l2 5q16 38 27 38h1q24 35 39 44q10 6 15.5 12t7 9.5t3.5 6t5 2.5l111 118q1 1 10.5 14t19 24.5t12.5 11.5h1q2 0 26 35q4 8 17 21t21 27.5t8 32.5q18 36 18 91q0 32 -17 50q-10 11 -21 19t-16 10l-4 2
q-60 29 -160 29q-8 0 -12 -0.5t-11 -2t-17 -2.5q-8 -3 -19 -7.5t-28 -18.5t-17 -29q0 -17 35 -63l6 -8l-6 1q-3 0 -13 -7t-13 -7h-1q-3 -3 -19 14t-31 42.5t-15 42.5q0 30 20.5 64.5t53.5 34.5q1 0 1 -0.5t1 -0.5t9 2.5t18.5 5t17.5 2.5q2 0 4.5 -0.5t5.5 -0.5l2 1h3
q1 1 13 1q63 0 83 -10q37 0 77 -20.5t60.5 -38.5t22.5 -22l3 -5q19 -29 23 -29q2 -1 7 -9.5t10.5 -28t5.5 -40.5v-18q0 -16 -16 -61q-11 -30 -26 -55q-2 -2 -9 -16t-15.5 -27t-14.5 -14q-3 -1 -3 -4t-14.5 -21t-14.5 -19q0 -3 -37 -41.5t-39 -38.5q-6 0 -15.5 -15.5
t-16.5 -15.5q-3 0 -5 -2l-1 -3q-1 0 -4 3q-40 -67 -93.5 -115t-94.5 -55zM166 72l14 7q3 0 18 -7.5t32.5 -24.5t17.5 -36q0 -13 -12 -23.5t-25 -10.5q-30 0 -46.5 26t-16.5 48q0 10 18 21z" />
    <glyph glyph-name="at" unicode="@" horiz-adv-x="1290" 
d="M586 360q0 12 -17 12q-9 0 -31 -22q-1 0 -15.5 -10.5t-35 -31t-31.5 -40.5l-5 -6q-2 -2 -2 -6l-4 -6h1q-9 -9 -9 -13t3.5 -8t8.5 -4t20 14l6 6v-1l35 31q10 7 11 9h-1l32 32q32 32 34 44zM819 -231l14 5q22 -20 -11 -39h1l-2 -2q-13 -3 -18 -8v1q-8 -5 -13 -7t-8.5 -2
t-6.5 -1l-38 -8q-5 -4 -8 -4q-1 0 -3 0.5t-3 0.5q-3 0 -6.5 -2.5t-4.5 -2.5q-4 2 -5 2t-15 -7l-10 -2q-14 0 -22 -2l-40 -6q-1 0 -5 -1t-6 -1h-4q-2 -2 -3 -2t-1 1h-16q-4 -4 -6 -4t-2 1v-1q-3 3 -16 3h-9q-5 -5 -57 -5q-9 0 -29 3t-26 4l-37 7h1q-7 5 -29 5l-27 8
q-2 1 -8 3t-8 2l1 -1q-4 2 -6 2l-7 4q-9 0 -27 11l-17 9h-5l1 -1l-19 13q-5 1 -8 5l-4 4q-1 0 -4 2t-5 2l-10 4l-11 10q-10 3 -20 12t-16.5 16t-8.5 7q-4 0 -7 4t-9 13.5t-12 17.5l1 -1l-7 14q-18 21 -20 27l-11 27q-1 1 -13 37v-1l-8 26q-10 31 -10 98q0 47 4 69l3 18
q0 2 1 10l1 7q0 31 27 84v15l5 -1l4 12h-1q11 11 11 26v2q16 12 22 45l14 15q2 2 2 4q0 1 -0.5 1t-0.5 1q0 6 13 16l4 6l7 18l1 4l13 13q3 6 7 10l21 28q0 2 2 5t3 4h-1l30 30q8 10 36 35.5t52 46.5t24 22l2 -2l12 5q14 7 17 11v-1q62 42 104 59l20 9l12 6h-1l13 4
q9 3 19 7.5t16 7.5t8 3t8.5 5t22.5 9.5t40 4.5l38 5q7 1 19.5 3.5t15.5 2.5q18 0 40 3t57 3q6 0 16 -0.5t12 -0.5h3q3 -3 8 -3q2 0 6.5 1.5t8.5 1.5q2 0 5.5 -0.5t5.5 -0.5l2 -2l17 -4q17 -3 36 -7t38.5 -10.5t26.5 -11.5l10 -4v1q7 0 27 -16l15 -8q10 -6 16 -10l10 -7l7 -5
q11 -2 29 -20.5t30 -35.5l13 -17h-1q6 -9 11.5 -22.5t10 -26t7.5 -23.5t5 -19l2 -7l-1 -2q0 -11 1.5 -30t1.5 -30q0 -115 -26 -145h1q-2 -2 -2 -6q0 -5 1 -7l-1 -1l-2.5 -5t-3.5 -6.5t-3 -7t-2 -5.5l-12 -17q-13 -19 -36 -34l-22 -15q-22 -14 -23 -14h-1l-2 1q-2 0 -13 -7
l-6 -1q-32 -13 -42 -21l-8 -5q-5 -5 -21 -7l-16 -3h1q-14 -4 -62 -4q-36 0 -69 11.5t-55.5 27.5t-39.5 32t-25 28l-8 11l-8 11q0 4 -9 13h1l-10 29q-10 27 -21 27q-5 0 -11 -5t-21 -21.5t-25 -26.5v1l-10 -7q-10 -7 -18.5 -15t-8.5 -14q0 -4 -2 -6t-5 -2.5t-10.5 -6
t-15.5 -15.5v1q-13 -5 -17.5 -7t-12.5 -7t-14 -11.5t-16 -18.5q-3 -1 -9.5 -8t-17.5 -13t-27 -6q-50 0 -72 16.5t-22 35.5q0 9 5.5 17.5t9.5 33.5v5q13 15 20 27l6 13q1 3 8 11t11 15l19 24q24 26 61.5 57t39.5 33v-1q28 17 43 17q2 0 8.5 -1.5t10.5 -1.5q7 0 9 1
q10 -1 21 -7t12 -6q15 0 27 14h-1q14 13 17 28q0 1 3.5 5.5t9 11t8.5 12.5q16 0 20 3q5 0 9 -2l9 -4q1 -1 12 -5t12 -4v2l11 -11q-2 -3 -2 -41q0 -55 7.5 -98t14.5 -61t13 -24h-1l13 -15h-1q3 -12 13 -16l12 -12q26 -26 82 -26q37 0 104.5 31.5t71.5 44.5l7 12q31 31 32 59
q14 56 14 128q0 108 -35 149q-23 27 -74 59t-71 34h-4q-24 12 -108 12q-35 0 -43 -2h-9q-46 0 -92 -14h1l-31 -6q-7 -2 -19 -6t-21.5 -7t-12.5 -3l-9 -3q-3 -3 -7 -3l-24 -10q-4 -4 -21 -10l-5 -4v1l-18 -9t-21 -10l-22 -11q-20 -12 -52 -38t-68 -50h1l-4 -2
q-23 -18 -29 -28h1q-12 -13 -22.5 -22.5t-15 -13.5t-6.5 -8h1l-16 -22h1l-11 -10h1l-8 -6q-6 -9 -6 -16v-3q-18 -18 -19 -22q-11 -22 -32 -53t-24 -51l-12 -29q-3 -9 -6 -13l-3 -8q-4 -8 -4 -10l-6 -22q-7 -13 -12 -64l-4 -16q-1 -3 -1 -17l3 -37q3 -69 13 -81v-2
q0 -4 3 -17t11.5 -35.5t21 -45t35 -46.5t49.5 -39l17 -10l8 -5l8 -4q22 -12 29 -13l7 -3v1q2 -3 7 -3l7 -4q77 -28 163 -28q27 0 60 2.5t56 5.5t26 3q11 1 24 3t22.5 4t17.5 4l12 3l4 1l34 12q3 3 10 5.5t18.5 5.5t17.5 5z" />
    <glyph glyph-name="A" unicode="A" horiz-adv-x="1082" 
d="M875 887l-4 20l-2 6l-9 -12q-4 -5 -9.5 -10.5t-8 -8.5t-2.5 -5q0 -3 -0.5 -4t-3.5 -3t-11.5 -15t-21.5 -36q-10 -18 -18 -31t-12.5 -18.5t-8 -9t-4.5 -3.5t-1.5 -0.5t-0.5 -2.5q0 -3 2 -4.5t2 -3.5q0 -12 -4 -15l-5 -3l-20 -37v1l-26 -61q-5 -11 -9 -20.5t-7 -16
t-5.5 -11.5l-4 -8l-2.5 -5l-1 -2l-1 -1q0 -1 1 -1l1 -2q-1 0 -4 -5t-6 -15t-3 -20v-2q-1 0 -5.5 -17.5t-10.5 -37t-10 -23.5t-4.5 -8.5t-4 -24t-12.5 -49.5q-10 -33 -18 -54t-11 -26l-2 -4q0 -2 1.5 -7t1.5 -7q-1 -27 -7.5 -38t-7.5 -32l-1 -22h9q10 0 19 3q11 4 59 13t69 9
q1 0 2 -1h1q1 0 19.5 6t24.5 6h3l2 -1q7 0 15 3q13 4 30 6t43 9q5 2 6 8.5t1 46.5v2q1 2 1.5 7t1 12t1.5 16.5t2 20.5t1.5 24.5t1 28t1 32t0.5 34.5v18t-0.5 16.5t-0.5 7.5q5 23 5 100q0 8 -2 40t-3.5 72t-1.5 82q0 6 0.5 14.5t0.5 12.5q0 12 -11 67zM937 -308q-2 0 -8 2
l-6 2q0 -3 -3 -3q-4 0 -7 5v-1q-2 0 -10.5 11.5t-19 33t-14.5 43.5v-1q-1 0 -4 15.5t-6 39.5t-3 44q0 6 1 9l1 4l-4 16v4q0 15 2.5 29.5t2.5 38.5q0 4 -0.5 10.5t-0.5 8.5q0 10 3 23.5t3 23.5v7q0 15 3.5 57.5t3.5 55.5q0 17 -2 18q0 -2 -20 -9t-24 -7h-2q-3 -2 -33.5 -9
t-37.5 -8h-8q-5 0 -18.5 -4.5t-19.5 -4.5q-3 0 -6 1t-4 1t-1 -3t-2 -3q-1 0 -2 0.5t-2 0.5t-3 -1.5t-4 -1.5t-5 0.5t-4 0.5q0 -1 -2 -2t-6 -2.5t-10 -3t-13.5 -2.5t-15.5 -1q0 -1 -10 -4t-23.5 -6.5t-21.5 -3.5q-1 0 -2 0.5t-2 0.5q-8 0 -15.5 -19.5t-7.5 -31.5q0 -5 -1 -8
t-2.5 -4.5t-1.5 -2.5t1.5 -3t1.5 -3q-3 0 -4 -7t-5.5 -31t-16.5 -55q-14 -26 -14 -59l-17 -55q-2 -11 -2 -15v-2v-7t-2.5 -12t-7 -14.5t-15 -10.5t-25.5 -5q-10 0 -18 8t-8 22q0 16 27 105q4 14 11 37.5t10.5 34.5t8.5 28t7 26.5t4.5 21.5t3.5 21t1 17q0 7 -4 7q-2 0 -9 -3
t-9 -3h-1q-2 -1 -21 -5t-26 -4q-10 0 -13 3q-7 -5 -116 -23q-13 -1 -22 -2.5t-12.5 -2.5l-7 -2t-5.5 -1q-4 0 -10.5 1.5t-11.5 2.5l-5 1h-1q-2 -1 -4.5 -1.5t-6.5 -1.5t-11.5 -1.5t-16.5 -0.5q-103 0 -103 35q0 8 7.5 15.5t17.5 7.5q1 0 41 -3.5t66 -3.5q15 0 89 10
q30 0 64 7t56.5 13.5t25.5 6.5q2 0 7.5 -2.5t6.5 -2.5t3 2h4q5 1 12 2t14.5 3.5t13.5 7.5t8 13q3 15 8.5 35t8 30.5t2.5 13.5l-1 2v1q1 0 1.5 0.5t1 2t1.5 5t2 7.5q0 7 7 41t13 40q0 1 13.5 43.5t13.5 53.5q6 29 10.5 46.5t7.5 23t6 12t5 13.5l8 24q7 23 17 50.5t18 40.5
q23 54 64 134q40 79 50 87v1v1l-2 -2l2 2q5 7 51 68q25 35 53 49q3 3 13 3q16 0 39 -14t23 -39l16 -141q0 -95 4 -99l-2 -7q-1 -7 -1 -9q0 -1 2 -5t2 -10q0 -8 -3 -14l-2 -7q0 -1 2 -6.5t2 -8.5q0 -2 -1 -4t-1 -5t1 -13t1 -20q0 -72 -7 -72l-2 2v-2q0 -1 1 -3l1 2q1 2 2 2
q3 0 3 -42l-14 -265l-25 -221q0 -3 1 -3l2 1l1 -9l2 -16l1 -8q0 -1 -3 -7.5t-3 -14.5q0 -13 2 -28t2 -17q0 -8 -3.5 -10.5t-3.5 -5.5q0 -8 3 -8l2 2q1 0 1 -9v-5q0 -9 2.5 -22.5t2.5 -15.5q-1 -1 -1 -4q0 -2 1 -5l2 -4h-3q-3 -1 -3 -3q0 -6 3 -9v2q1 0 5.5 -13.5t6.5 -13.5
h-1l2 -3q2 -2 5 -6.5t6 -11t5 -18t2 -24.5q0 -6 -6.5 -10t-10.5 -4z" />
    <glyph glyph-name="B" unicode="B" horiz-adv-x="808" 
d="M507 909q-19 3 -30 3t-17 -2l-26 -5q-4 -1 -16.5 -5.5t-23 -8t-14.5 -3.5q-5 0 -11.5 -5t-11.5 -10.5t-6 -6.5q-10 -4 -33 -30.5t-31 -28.5q-5 -2 -24 -26t-19 -33v-1q1 -1 -13 -29l-9 -18l-3 -4q-3 -4 -5 -8.5t-2 -7.5q3 1 -1 -4q-13 -22 -13 -32v-5l-11 -29v0
q-1 0 -2 1l-1 -2l2 -1q1 -2 1 -4q0 -3 -3 -9.5t-4 -6.5v-4q1 -3 1 -5q0 -11 -3 -11v-7q0 -15 -2 -22t-3 -38q-2 -18 -2 -22v-6q-1 -2 -3 -30v-6q-1 -13 -1 -25q0 -17 1.5 -44.5t1.5 -33.5v-7q0 -4 0.5 -10.5t1.5 -13.5t1.5 -13.5t0.5 -10.5l1 -4l12 4h15q1 0 6.5 0.5t20.5 2
t35 2.5q30 1 47 4.5t18.5 5l6.5 6.5l7 7h-1q-2 0 2 2q1 0 4 1q11 5 12 6h-1q3 5 6 5q-1 -5 1 -1q19 33 39 33q1 0 3 -1q4 0 6 6q1 6 11 10t14 8l8 8l25 21l4 4l24 22l24 25q10 7 45 44t35 41q0 1 11 12l14 17v-1q1 5 10 14q21 18 34 68t13 84q0 25 -2 34v-1q-2 8 -4 14
t-3.5 9.5t-3 6t-2 3t-1.5 1t-1 1v1.5q1 5 -22.5 29.5t-33.5 30.5l-12 7q-35 29 -94 38zM358 231q-20 2 -23 2q-16 0 -61 -24l-5 -2h1q-9 -7 -26 -11.5t-31 -6.5t-15 -3l-10 -6q-5 0 -5 -4q4 -42 5 -42l3 -28q2 -27 5 -43l4 -23l6 -42q6 -43 6 -58v-4q0 -19 8 -43h-1
q3 -3 4 -7t1.5 -13.5t2.5 -19.5l5 -44q0 -4 2 -12l3 -12h5l8 3q8 4 12 4q12 6 23 10t17 6t11 4.5t8 5.5l8 2q9 2 23 14t21 14v-1l7 5q2 3 6 3h4q1 0 5 6.5t9 7.5h-1l20 16v-1l10 10q2 2 3.5 3t2 1t3.5 2.5t8 6.5t15 13.5t24 23.5q35 35 35 38q0 2 12 16t24.5 39.5t12.5 55.5
q0 36 -25 64v-1q-16 14 -64 39l-6 3q-25 11 -40 15t-18 5h1l-24 6q-18 4 -39 7zM247 -333q0 -33 -9.5 -44t-32.5 -11h-4l-20 18v20q0 1 -4 26t-4 52l-1 -1q-2 0 -10 2l-15 6q-4 2 -6 2l-20 9q-41 23 -41 52v3q-15 15 -18 121q1 120 18 118q-1 -1 2.5 -7.5t8 -13.5t4.5 -9
q0 -1 -1 -2t-1 -3q4 -4 4 -15q11 -48 13 -67v-6q7 -7 12 -54l9 -27q6 -26 18 -38l4 -7q1 -2 5.5 -3t5.5 -2q2 2 2 10q0 1 -3 20t-6 44.5t-3 41.5v3q0 2 -1.5 5t-1.5 6q0 4 1 6v11v1q-1 1 -1.5 3t-1 4.5t-1.5 5.5t-1.5 5.5l-1 5t-1 4.5t-0.5 4l1 2h1q-3 2 -3 14q0 47 -16 135
l-3 29q-4 26 -11 43.5t-7 24.5q0 16 7 19v-1q1 1 1 5q0 2 -2 19.5t-4 58t-2 98.5q0 68 2 83l3 24q1 6 1 12l3 18q10 67 12 67q3 20 10 39t11.5 30t4.5 14q7 20 24 53l18 34q7 7 7 9q0 4 7 13t15.5 17.5t9.5 10.5l24 26l19 19q10 10 32.5 25.5t28.5 17.5q1 1 3 2v-1l4 3l1 1
q0 1 1 2.5t2.5 3t5 3.5t7.5 3.5t11 3t16 2.5l14 4q2 0 5.5 1.5t5.5 1.5q1 0 3 -1h2q2 0 6 1t13.5 2.5t24.5 2.5h27l1 2h3q4 0 6 -2l1 -1h1q4 0 85 -22l8 -5h1q2 1 3 1t4 -0.5t7 -3t10.5 -7.5t14.5 -12v1q6 -3 8 -3l9 -7q-2 3 3 -1q18 -19 19 -19q12 0 40.5 -37.5t28.5 -61.5
v-4q8 0 8 -33v-36q0 -28 -9 -56v1q-1 -5 -1 -9.5t0.5 -5t-0.5 -1.5h-1q-3 -3 -4 -3v-1q0 -4 -4 -8h1q-4 -6 -7.5 -17.5t-7.5 -15.5l-10 -13h1q-5 -11 -8 -11q-1 0 -1 1l-1 -1q0 -4 -5 -9v-1q0 -3 -14 -21.5t-22 -26.5l-4 -5h1l-7 -11q-4 -7 -10 -13t-10 -9t-5 -3
q-10 -21 -24 -24l-13 -13q-7 -8 -12.5 -13.5t-8 -7.5t-4 -3.5t-2.5 -3.5l-6 -6q-1 0 -11 -10l-11 -10v1q-35 -38 -49 -40q0 -3 -13.5 -12.5t-29.5 -21.5t-21 -19q-4 -3 -10 -6.5t-9 -5.5l-3 -2q0 -1 2 -1q14 0 23 -6t11 -6h1q1 1 2 1q18 0 35 -11q0 1 5 1q13 0 46.5 -16.5
t50.5 -29.5v1l8 -6q4 0 6 -4l1 -4l3 -3v1q9 -5 23 -27t17 -31v1l4 -13q4 -5 4 -33q0 -17 -4.5 -33.5t-9 -25.5t-6.5 -9h-1q1 0 -1.5 -5t-6 -12.5t-4.5 -11.5l-6 -11q-4 -4 -6.5 -7t-4.5 -6t-3 -5l-18 -20h1q-3 -5 -15.5 -19.5t-16.5 -16.5l-11 -9h1q-4 -9 -9 -12t-6 -5
q-15 -12 -40 -29t-41 -33l-5 -4q-42 -25 -44 -25l-8 -6q-1 -1 -9 -4.5t-18.5 -7.5t-14.5 -6v1q-5 -5 -15 -9.5t-16.5 -6.5t-7.5 -2l-2 1q-9 -3 -13 -4l-24 -8h1l-10 -3v-15q0 -7 1.5 -24.5t1.5 -26.5z" />
    <glyph glyph-name="C" unicode="C" horiz-adv-x="821" 
d="M298 712q0 1 1 2v-1zM467 -187q-3 0 -15 -4t-33 -8t-47 -4l-27 3q-26 0 -43.5 3t-25.5 6.5t-26.5 13t-34.5 16.5q-19 10 -41 30v-1l-14 11q-4 8 -21 22l-3 3q-4 3 -7.5 6t-8.5 8.5t-9 11t-6.5 12t-2.5 12.5l-7 12h1l-8 6q-2 3 -9 30.5t-8 40.5l-2 17q-3 15 -3 59
q0 50 4 62v11q0 21 7 48.5t14 46.5l7 19h1q-1 1 -1 3q0 4 6 22l5 21q0 1 1 4q0 1 1 3.5t1 4.5l1 1l8 13l2 11l10 37q15 43 34 62h-1l3 4q1 1 3.5 7.5t7.5 13.5v3q-1 4 -0.5 7t3 9.5t10 17.5t18.5 26l3 4l9 15v4q8 3 31 49l7 13q7 9 8 12.5t6 8.5h-1l6 10q10 5 17 19l1 1l1 1
l15 25q3 5 8 10l3 2l-2 -1q24 35 51 68l29 29h-1q5 8 6.5 9.5t6.5 5.5t14 12l15 15t14.5 13.5t12 10t13.5 10t14 7.5t17.5 7.5t20.5 6t27 6.5h-1q8 2 18 2q72 0 102 -23q26 -13 44.5 -81t18.5 -143q0 -114 -30 -148h2l-2 -3l-1 1l-3 2q-5 -2 -6 -5l-3 -4q-13 -15 -31 -15
q-6 0 -7.5 2t-1.5 10q0 17 7.5 70.5t7.5 102.5q0 54 -5 66l-3 10q-4 35 -22 66t-32 31q-7 0 -20 -3l-11 -2l-1 -1h-2h1q-3 -1 -8 -1l-15 -3q-2 0 -8.5 -2t-19.5 -9.5t-25 -19.5l-8 -7q-3 0 -36 -33t-40 -44l-6 -7h1q-2 -5 -10 -11v1l-7 -10v1q-1 0 -4 -3l2 -2l-7 -8h1
q-8 -11 -13 -20l-4 -6l-2 2q0 -5 -15 -22l-10 -11h1l-10 -17q-8 -9 -21.5 -29.5t-14.5 -27.5l-7 -7h1l-9 -7q-8 -26 -26.5 -56.5t-34.5 -72.5l-6 -16q-3 -6 -3 -7q-8 -5 -10 -20.5t-11 -24.5h1l-3 -7q-1 -2 -2 -7.5t-4 -8.5q-2 -2 -2 -6l-1 -1q-5 -15 -11.5 -44t-13.5 -43
q-6 -3 -6 -10v-14q0 -13 -9 -53t-9 -63q0 -22 3 -55t6 -37h-1q1 -1 14 -32t38 -66t58 -52l10 -5q16 -13 25 -13h3q11 0 41.5 -8.5t57.5 -8.5q100 0 181 52q0 -1 1 -1q3 0 5 2t6.5 5.5t10.5 6.5l8 4h-1l38 19l20 16q12 4 24 15l12 8q12 8 18 10t8 4l1 -6q3 -5 0.5 -11.5
t-9 -16t-9.5 -15.5q-2 -6 -5 -12t-8 -11l-8.5 -8.5t-10.5 -8t-10.5 -7t-13 -7t-13 -6t-14.5 -6t-15 -6.5l-23 -11q-8 -3 -14 -7l-12 -8l-11 -4h1q-23 -7 -24 -12h-5q-9 0 -14 -4v1q-2 -2 -7 -2h-1q-3 0 -11.5 -5.5t-12.5 -5.5q-5 0 -7 1z" />
    <glyph glyph-name="D" unicode="D" horiz-adv-x="1130" 
d="M487 -102l10 4l8 7l41 25v-1l9 9q0 8 9 11t16 10l33 22q9 1 12 4h-1q2 3 5 5l22 17l11 10q12 10 23 14l12 11v-1l13 11v-1l3 3h-1q4 9 16 16l18 12v-1l15 13h-1q12 16 25 24.5t20 18.5l23 18q2 2 6 5.5t5 5.5l19 20q0 5 2 7q14 12 16.5 14t2 3t1.5 4l22 22q43 64 53 83v4
l10 11q0 2 2 5v-1q0 1 1 4.5t2.5 8.5t3.5 9.5t3 7.5l1 3q5 17 13 26v-1q0 4 3.5 15.5t7.5 12.5v16l7 13q1 14 4 21.5t3 9.5l-2 4q-1 4 -1 9q0 3 2.5 13.5t2.5 25.5q0 4 -0.5 7t-0.5 6l1 30q-1 0 -5 25l-5 25q-1 1 -4.5 13t-6.5 15l-2 4h1l-6 8v-1q-16 13 -19 22h1l-7 6v-1
q-16 8 -20 19l-1 1q-6 0 -14 6l-8 3l-12 12q-7 7 -23 7l-26 15q-5 0 -7 2l-11 3q-10 2 -12 4l-14 5q-1 0 -4 1t-6 1l-6 3h1l-32 6q-19 8 -35 8h-2l-42 6q-32 4 -37 4h-4q-7 0 -17.5 1.5t-11.5 1.5h-18l-29 3h-2q-5 -1 -17 -1q-7 0 -22 2t-26 2q-3 -1 -11 -1q-7 0 -9 1
q-9 -2 -23 -2h-40v5q-30 -12 -74 -12q-5 0 -6 1q-20 -5 -31 -9.5t-13.5 -6t-3.5 -6.5l-2 -5h3q3 -9 3 -18q0 -12 -4 -20v-3q0 -1 0.5 -6t0.5 -8q0 -18 -2 -20q6 -2 6 -11q0 -6 -2 -8v1q-1 -6 -1 -17v-8v-1q-1 -2 -1 -4v-4q2 -12 2 -15q0 -2 -0.5 -4t-0.5 -3l-2 -1v-10
q0 -17 -1 -23v-12q0 -9 -3 -40t-3 -36l1 -3q-1 -1 -1 -3v-6q0 -14 -4 -16q3 -3 3 -7q0 -15 -3 -31t-5.5 -27t-2.5 -12q2 -6 2 -10q0 -2 -1.5 -10t-1.5 -12l-6 -39q-1 -7 -3 -7q-5 -49 -8 -57l1 -2q1 -2 1 -3t0.5 -3t0.5 -3q0 -5 -3 -11.5t-5.5 -11t-3.5 -4.5v-9
q0 -3 -0.5 -8t-0.5 -6q0 -2 1 -3q0 -8 -1 -10v1l-3 -14q0 -1 -0.5 -2t-0.5 -2v-7l-8 -41q-1 -1 -1 -2t2 -4t2 -4q0 -2 -4.5 -12t-6.5 -11q1 -4 1 -16q0 -2 -0.5 -5t-0.5 -7v-8q-3 -6 -5 -17q0 -3 1 -4l-2 -6l-5 -9q0 -1 -1 -3.5t-1 -4.5q0 -3 2 -5q-2 -13 -8 -28v-10
q0 -2 -6 -14q2 -6 2 -14q0 -7 -2 -15v-10q0 -23 -5 -23q-1 0 -1 1q0 -7 -1 -9v-7q0 -21 -4 -31v-5q0 -2 1 -3q0 -10 -3 -22q0 -1 0.5 -2t0.5 -2v-18q0 -1 -1.5 -9.5t-1.5 -11.5q0 -4 2 -5.5t6 -3t7 -4.5h10q1 -1 9 -1q24 0 33 3h-1l6 4l3 1q4 2 11.5 5t17.5 6l15 7q9 2 14 7
l9 4q21 16 30 16l9 1q5 5 10.5 7.5t10.5 7.5l3 2l6 5q6 4 11 7l34 21q11 8 17 9l9 8l6 1l10 11v1zM512 864l83 -2q6 0 8 -2l-1 1h12q14 0 16 -1l2 -1q1 0 17.5 -1.5t21.5 -1.5h7h1q1 -1 3 -1.5t4.5 -1t6.5 -1t9 -0.5q1 0 2 1q2 -2 7 -2q1 0 2 0.5t2 0.5q31 0 49.5 -6
t19.5 -6h4q41 0 48 -11l8 -5l19 -3l3 -3h1q3 0 5 -2h6q1 -2 7 -3.5t8 -2.5l7 -3q97 -49 131 -89h-1l5 -4v1l10 -13q10 -12 18 -29t10 -37l-2 -6q2 -7 7.5 -33.5t5.5 -30.5v-17v-1l1 -2l-1 -18q1 -5 1 -18q-10 -34 -6.5 -47.5t-20.5 -65.5q-2 -2 -2 -3l-5 -15q0 -5 -2.5 -11
t-4.5 -9.5t-3 -3.5t-1 1v-4l1 -2l-4 -4l-2 -7q-3 -4 -12.5 -24t-13.5 -24h1q-3 -4 -4 -6l-7 -8q-7 0 -7 -13l-12 -9q3 -5 3 -6t-7 -3l-3 -5q-1 -7 -19 -25l-16 -17h1l-4 -6q-1 -3 -12.5 -16t-15.5 -15v-3q-1 -1 -2 -2.5l-2 -3t-3 -3.5t-5 -4v1q-19 -19 -23 -20l-29 -27v-6
q-3 -4 -8 -6.5t-8.5 -4.5t-3.5 -4l-11 -12q-8 -11 -21 -13q-20 -22 -30 -27v1q-27 -27 -35 -27v1l-10 -12h-2q-11 -9 -14 -10l-10 -4q-3 -11 -14 -11l-5 -6l-13 -11h-7l-7 -7h1q-4 -7 -11 -11l-9 -3q-1 -2 -7 -8l-3 -1v1q-11 -11 -20 -11l-2 1q-4 -11 -14 -14v1l-3 -3
q-3 -3 -4 -3l-1 -1q-7 -13 -20 -13l-4 -4l-6 -2l-13 -11q0 -3 -9.5 -9t-14.5 -7l-11 -5l1 1l-11 -10l-8 -2l2 2l-5 -4q-6 -4 -12 -9t-7 -6q-13 -13 -33 -24q-5 -3 -8 -3h-3q-3 -1 -7 -3.5t-13.5 -7.5t-15 -8.5t-4.5 -3.5l-6 -2l-3 -2q-3 -3 -7 -5.5t-8 -2.5l-3 1
q-2 -1 -5 -4t-7.5 -5t-13.5 -3h-4q-10 -8 -11 -8t-1 0.5t-1 0.5l-10 -6h1l-21 -6q-5 -1 -12 -1.5t-21 -3.5h-12q-12 -3 -41 -3q-7 0 -14 3t-8 3h-2q-6 2 -22 18l-9 9l-2 29q-1 7 -1 25q0 12 2 28.5t2 18.5v2q1 2 1.5 13t2.5 13v4v3q0 3 0.5 9t1 12.5t1 14.5t1.5 14t2.5 11
t3.5 7h-1q5 17 8.5 38t5 35t3.5 17l-1 3q0 2 2 12.5t2 13.5v3q0 4 2 8l9 35q0 7 1 10l1 3l1 16q1 16 3 29.5t6 18.5q0 4 3 7l-1 -1l11 63q0 32 10 65v3q4 27 8 69t8 59v6q1 14 4 49t3 40q0 3 -0.5 7t-0.5 5l4 43q0 4 1 7v4q0 7 2 9l-1 -1v7q0 10 -2 16q0 2 0.5 7t0.5 8
q0 2 -0.5 8.5t-0.5 10.5q1 9 1 30q0 47 -3 56q1 2 1 4q0 4 -2 8l-3 -1l-6 -2l-9 -4v1q-7 -7 -27 -11l-7 -5q-7 -2 -23 -13l-15 -5h1l-29 -18v1q-24 -24 -28 -24v1l-36 -36l-6 -14q-4 -8 -4 -18v-8q0 -15 -7 -15q-4 0 -10 6q-4 -3 -10 -3q-27 0 -27 33q0 34 22 56h-1
q6 12 11 17.5t8 5.5h3l10 10q2 0 8 6l3 3q2 2 7 5l4 4l6 5q0 3 4 4l10 7l9 2q12 12 13 12l8 2q12 12 18 14l28 10q11 11 26 11q21 21 45 21q0 5 -2.5 13.5t-3.5 12.5l-7 22q0 2 -1 3.5t-2 3.5l-2 -2t-2 -2.5t-3 -3t-5 -2.5t-7.5 -2t-11 -1.5t-14.5 -0.5q-17 0 -17 18
q0 10 8 32v-1q5 25 11.5 36t20.5 19q4 2 15 2q1 -1 5 0.5t12.5 -2.5t17 -9.5t18.5 -20.5t18 -36l2 -8v1l3 -11l5 -22v1q4 -15 5 -22l2 -4q16 0 24 6q6 0 11 -4q14 7 21 7q2 0 4 -1l1 -2q12 4 19 4l4 -1q20 4 37 4q5 -1 29 -1l13 1q7 0 9 1q8 0 10 -1q2 2 13 2q1 -1 5 -1
q2 0 7 1t7 1q3 0 6 -4z" />
    <glyph glyph-name="E" unicode="E" horiz-adv-x="919" 
d="M483 1054q3 3 6 3q8 0 27 -12.5t19 -27.5q0 -11 -10.5 -32.5t-20.5 -37.5t-12 -17h-3q5 -2 5 -6q0 -3 -4.5 -6.5t-4.5 -4.5q1 0 1 -1h-1q1 -1 1 -4q0 -5 -3 -9.5t-7 -4.5h-1q-2 0 -2 -3q0 -1 1 -5t1 -5q0 -4 -6 -4q-1 0 -9 -21t-12 -21q-1 0 -1 4v1q-1 0 -1 -11
q0 -9 -3.5 -13t-7 -4.5t-3.5 -1.5h-1q2 -2 2 -6q0 -1 -1 -2v-2l-2 -10q0 -13 -6 -19h1q-17 -26 -17 -31q0 -7 11 -7q14 0 47.5 6.5t62.5 6.5q1 0 3.5 0.5t4.5 0.5l11 2q18 4 146 22l13 2q3 0 25 2.5t36 6.5h-1q11 4 20 4q1 0 2 -0.5t3 -0.5q3 0 7.5 2.5t7.5 2.5h8l10 -1
q0 1 2 3t7 4t11 2l24 6q5 2 11 2q11 0 21 -7.5t10 -15.5q0 -10 -16 -25t-43 -15h-2q1 -1 -2 -3t-10 -5t-15.5 -6t-21.5 -5t-26 -2l-40 -7q-43 -8 -46 -8l-14 -3l1 1q-8 -2 -15 -3l-17 -2q-5 -3 -132 -18l-25 -3q-8 0 -23.5 -2.5t-45.5 -5.5q-40 -3 -40 -12v-3q2 -3 -2 -3h-2
q-3 -7 -6 -9q3 -2 3 -5l-6 -8q-7 -13 -9 -13q2 -2 2 -5q0 -5 -4.5 -16t-4.5 -12t1 -3v-1q0 -13 -9.5 -19t-9.5 -13q0 -1 1.5 -3.5t1.5 -4.5q0 -7 -5 -9.5t-5 -4.5v-1h-1q4 -4 4 -11q0 -3 -2 -11l-5 -14q0 -8 -5 -10v-5q0 -5 -5.5 -21t-9.5 -20q-3 -3 -2 -6.5t-9 -33.5
l-6 -21q0 -1 -0.5 -4.5t-0.5 -5.5q1 0 5 1t5 1l108 12q17 2 21 4l49 7q13 2 23 3.5t15 2.5t8.5 2t5 1t2.5 0.5t2 0.5h4h4l20 3q19 3 46.5 7.5t42.5 7.5q6 1 13 1q2 0 3 -1q-1 2 23 9.5t54.5 14t46.5 6.5l15 5h-1q11 3 15 11v-1q2 8 7 8h1v1l11 -5q17 -9 17 -29q0 -8 -4 -12
h1l1 1v-1q0 -11 -22 -24t-53 -18l-82 -17q-14 0 -30.5 -3.5t-27.5 -7t-12 -3.5q-2 0 -4 0.5t-3 0.5t-10 -2t-21 -4t-22 -2h-2q-7 0 -29 -6q-55 -12 -109 -18l-39 -5q-6 -1 -25 -3.5t-26 -3.5q-17 -5 -33 -8.5t-20 -3.5t-9 -3.5t-4.5 -5t-2 -12.5t-5.5 -22q-4 -25 -7 -43.5
t-4 -24.5t-1.5 -16.5t-0.5 -34.5q0 -57 3 -75v1q3 -9 3 -19v-1q0 -5 3 -8l10 -26q14 -39 15 -44v-2h3q0 -2 21 -30l10 -14q9 -12 12 -13l15 -14v1q8 -7 22 -16l20 -13v1q1 -1 3.5 -3t4 -3t5.5 -3t8.5 -3t11 -2.5t16 -2t20.5 -0.5q29 0 67 14.5t63 34.5q61 45 65 49l14 13
q8 6 22 22.5t25.5 29t16.5 12.5q1 0 2.5 -0.5t2.5 -0.5q3 0 7 2t5 2q5 0 5 -20q0 -9 -6 -14v1q-8 -8 -10 -8v-2q-2 -14 -10 -22t-8 -13q-15 -32 -29 -32h-2q1 0 -4 -5.5t-12.5 -11.5t-8.5 -7l-7.5 -7.5l-7 -7l-5 -5t-5 -4.5t-4.5 -3.5t-5.5 -4t-6 -3.5t-7.5 -4t-8.5 -4.5
t-11.5 -5.5v1l-7 -5q-6 -3 -22 -12t-26 -13.5t-17 -4.5l-19 -5h1q-11 -5 -27 -5q-26 0 -62 4t-39 11l-7 3q-6 2 -11 3.5t-6 1.5q-1 -1 -4 -1q-4 0 -4 3h1q-1 1 -8 6l-11 7q-20 14 -21 16q-1 -2 -12 6t-24 21.5t-18 23.5l-4 6q-5 0 -16 25l-8 14l-9 20v-1l-3 7
q-29 61 -29 129v47t1 25t2 14t4 17t6 32l7 44q3 4 3 10q0 2 -10 2q-2 0 -28 -1t-39 -1q-34 0 -52 4.5t-22 9.5t-4 14v2q0 1 -1 3t-1 3q0 11 7 17.5t15 8t25.5 3.5t27.5 4h-1q5 2 14 2q5 0 20 -4t25 -4q20 2 29 4.5t9 4t0.5 4.5t5.5 6l3 12q1 3 4 8.5t6 24.5l12 39v-1l4 13
q3 10 5 18.5t3 12.5t4 9q2 3 18 49.5t16 47.5v1q0 5 6.5 20.5t11.5 21.5h-1q3 4 3 8q0 7 -4 7q-5 0 -16.5 -1.5t-14.5 -1.5q-19 0 -29.5 8t-10.5 19q0 7 2 12.5t6.5 9.5t8 7t11.5 5l12 3t13.5 1.5t12 0.5h12.5h10h6q2 0 13.5 18.5t11.5 25.5q0 5 10 31.5t17 33.5v2
q0 4 7 19.5t16.5 34t11.5 24.5l15 35l7 18q1 1 16.5 36.5t27.5 49.5z" />
    <glyph glyph-name="F" unicode="F" horiz-adv-x="965" 
d="M158 769l-3 3q-3 -1 -14 -1q-26 0 -49.5 9t-23.5 28q0 6 8 14q1 1 2.5 3.5t3.5 4.5l1 3q1 0 4 -2.5t6 -2.5q2 0 6 1t6 1q1 0 13 -2t14 -2h66q9 5 73 7l121 12q254 26 295 28q31 0 95 6t97 6q16 0 38 -4q41 0 66 -15q13 -7 13 -18q0 -5 -17.5 -8.5t-26.5 -3.5h-4
q-3 0 -22.5 1.5t-26.5 1.5q-3 -3 -6 -3q-5 0 -17 0.5t-18 0.5q-51 0 -150 -10t-117 -11q-20 0 -67.5 -8.5t-61.5 -8.5l-31 -3q-199 -21 -259 -24q-1 0 -6.5 -1.5t-7.5 -1.5zM265 -231l3 129v10q0 42 3.5 125t3.5 127v50q-7 3 -23 5.5t-24.5 8t-8.5 18.5q0 10 14 21t25 11
q1 0 2.5 -2t6.5 -2q8 0 8 3v1l-2 65q-5 116 -8 148l-9 92l-5 21q-5 20 -5 36q0 32 8 35l24 7q5 -4 13 -4q14 -2 19 -9.5t6 -21.5t3 -19q13 -99 20 -234v-36q0 -11 2.5 -45t2.5 -47l3 -2q21 -3 49 -3q57 0 169 12l49 5q84 9 109 10h30q16 0 16 -12l-1 -6q-2 -1 -5 -3t-5 -3
l-20 -10q-26 -10 -84 -17l-55 -8q-129 -19 -207 -19h-19q-1 0 -6.5 -1.5t-7.5 -1.5l-2 3h-4q-11 0 -11 -90v-6q0 -66 -5 -101t-5 -38q0 -4 1.5 -8.5t1.5 -8.5q0 -20 -1.5 -60t-1.5 -60v-71q5 -7 9 -30t4 -31q0 -10 -11.5 -17.5t-20.5 -7.5q-27 0 -38 31t-10 61z" />
    <glyph glyph-name="G" unicode="G" horiz-adv-x="858" 
d="M691 -50l-3 2q-47 -12 -68 -26h1q-36 -9 -96 -16l-15 4l-12 -4h-14q-105 0 -223 71v-1l-4 4q-113 103 -113 154h-4q-7 14 -12 18v-1q-1 1 -7 24l-7 20q0 3 -2 11t-2 10l4 11l-5 15l-4 -2q3 6 3 16q0 4 -1 12t-1 11v6q0 28 6.5 61.5t16.5 38.5v5q-3 4 -4 6q3 23 18.5 63.5
t18.5 51.5q-3 19 18 49.5t23 46.5h5q14 28 48.5 82.5t47.5 82.5h-1l4 4v-1q15 10 38 40.5t31 37.5q4 0 12.5 7.5t10.5 7.5q9 5 26.5 23.5t39.5 33.5l17 10q33 19 86 37h-1l25 8h59q47 -14 78.5 -57.5t31.5 -93.5q0 -19 -10 -37l-2 1h-1q-4 0 -27 -26t-28 -29h-26l-3 2v0
q-1 2 11 16h-1q21 21 21 40l3 3v16q0 45 -22 82.5t-66 37.5q-22 0 -45.5 -9.5t-46 -26t-38.5 -30.5t-34.5 -32.5t-22.5 -21.5v1l-12 -11q-101 -112 -169.5 -251t-68.5 -273v-39q6 -9 8.5 -36t6.5 -34q37 -103 130.5 -160t206.5 -57q80 0 121 26l6 4q15 9 25 20.5t15 20.5
t7.5 25.5t3 24t0 27t-0.5 25.5v45q-4 17 -22 42.5t-32 25.5h-39q-7 0 -21 -0.5t-21 -0.5q-27 0 -75.5 5t-51.5 5q-11 0 -19 -1q-3 5 -15 15t-16 21q29 35 113 35h7q1 0 5 -0.5t7 -0.5q24 0 35 8q8 -9 57 -19t64 -10h12q3 0 10 0.5t11 0.5q21 0 34 -6.5t18 -21t6 -25.5t1 -32
v-8v-141q-5 -13 -8 -71l-3 -71q-4 -84 -8 -124q4 -6 4 -14v-7q0 -40 5.5 -74t5.5 -46l-4 -7l4 -12v-11q0 -17 -3 -26l-3 2q-9 0 -23 -23h1l-3 -3q-40 0 -40 192q0 4 -2 33.5t-2 33.5v109z" />
    <glyph glyph-name="H" unicode="H" horiz-adv-x="1116" 
d="M984 1095l4 -140q0 -10 -1 -14q-1 0 1 -12.5t3 -24t-2 -16.5l3 1q-3 -3 -3 -16l-8 -76q-3 -11 -3 -18l1 -2h-1q-5 -4 -7 -30t-7 -31v-7q-1 -5 -1 -21q-1 -1 -2 -3l-3 -23q0 -47 -8 -71l-14 -14q9 -11 9 -16v-1l-5 -29q0 -6 -3 -19.5t-3 -20.5l-11 -60q5 -19 10 -23t34 -8
q27 -1 39 -11l-3 -6q-14 -18 -59 -29h-3q-21 0 -27 -24v-12q-11 -15 -11 -33q2 -4 2 -6q0 -3 -2 -5v-1q-5 -7 -5 -15q0 -3 1 -5q-8 -20 -10 -46t-1 -48t-1 -50q0 -3 1 -8v-5q0 -4 -8 -10q-1 0 0 -4t2.5 -9t1.5 -7t-2 -24q-9 -27 -9.5 -55.5t3 -60.5t3.5 -48q0 -5 -2 -11
q-8 -69 20 -134q-1 -1 -1 -2v-2q-1 -2 -1 -6t1.5 -11t2.5 -12.5t2 -5.5v1q7 -15 8 -17q0 -19 -32 -19q-21 2 -25 11q-13 27 -26 95.5t-13 142.5q0 112 16 229l13 101q6 54 6 74q0 22 -6 32q-13 0 -18 -4q-8 0 -16 2q-5 -2 -9 -5l-9 2q-6 0 -14 -3t-15 -3q-5 0 -7 1
q-2 0 -11.5 -2.5t-12.5 -2.5q-6 0 -9 3q-15 0 -20 -3l-7 -2l-12 1q-6 -6 -54 -6h-7q-9 0 -21 -1.5t-14 -1.5q-3 0 -5 1q-16 0 -25 -7q-2 0 -13 2q-14 -2 -38.5 -5t-41 -5t-21.5 -3l3 1q-2 0 -4.5 -0.5t-3.5 -0.5l-23 -9q-16 -7 -18 -16v-17q0 -17 -6 -28.5t-10 -15.5t-1 -6
q4 -6 4 -8v-4q-2 -18 -2 -31q-6 -31 -9 -65t-4 -75.5t-3 -62.5q0 -2 0.5 -7t0.5 -8q0 -11 -3 -14q0 -6 2 -22l-1 -54q0 -2 0.5 -3.5t0.5 -2.5t-0.5 -2.5t-0.5 -3.5l5 -8q-2 -4 -2 -8q0 -9 4 -14v-2q1 -4 1 -9q-7 -5 -7 -9q0 -2 2.5 -9.5t4.5 -27.5v-8q-1 -21 -10.5 -29.5
t-23.5 -4.5l-1 1q-22 3 -22 60q0 9 1 12q0 18 -2 25l-4 15q-1 2 -1 9q0 38 10 203l13 133q7 56 9 84l-1 37h-27q-55 0 -91 4q-52 0 -118 14.5t-82 45.5q0 1 -0.5 2.5t-0.5 2.5q0 14 11 26t18 12q6 -4 43 -4h15q2 0 15.5 0.5t23.5 0.5t25.5 -1.5t26.5 -4t20.5 -8.5t13.5 -15
l5 -12q14 0 20 1l6 -3q2 0 4 0.5t3.5 0.5t2.5 1h2h39l35 -3q0 6 1.5 16.5t4 36t5.5 61.5l3 28q3 38 7 49v8q0 129 10 150v7l-1 17l1 -4q0 13 2.5 26.5t2.5 27.5l7 111q2 10 7 86l10 165q0 4 6 7t12 3l7 1q9 0 18.5 -15.5t9.5 -21.5l-9 -196q1 -8 -3 -26.5t-4 -24.5
q0 -35 -3 -61q-3 -25 -5.5 -45t-2.5 -26l-1 -6l-3 -113q0 -2 0.5 -5t0.5 -4q0 -4 -2 -6l-8 -8l-1 -24v-9q0 -26 -5 -53t-5 -76q0 -16 1 -20q0 -12 -8.5 -33.5t-8.5 -24.5q0 -4 3 -4t20 15q43 0 58 4l2 -2q2 -1 4 -1q3 0 6 2q8 2 13 2h5q15 0 49 5t52 5l53 2q4 2 5 2h9
q3 0 8 -5q8 6 12 6h15q2 0 18.5 1t22.5 1h8q16 0 37.5 2.5t33.5 2.5h9q4 0 8 0.5t6.5 2t4.5 2.5t3.5 4.5t2 4.5t1.5 5.5t1 6t0.5 7t0.5 6.5v7l-1 -3l4 23q2 10 5.5 26t4.5 28l5 31l1 3l1 3l-2 -2q1 2 5 20l3 19q1 20 3.5 32t2.5 16q-1 2 -1 9q0 6 2 16t2 15l3 18q0 5 2 13
t2 11q14 52 25 296v-1q2 33 3 40q-4 6 -5 12v1q-1 1 -1 5q-1 10 -1 21.5t-0.5 17t-1.5 10.5t-3.5 7t-6.5 2t-18 -7h1l-13 -6q-5 -2 -10.5 -7.5t-12 -8t-18.5 -2.5l-19 3h-1v1q0 2 2 8l3 3l4 10v2q8 5 9 5l14 15q32 28 63 28q18 0 24 -8l8 -1q4 0 6 -4l7 -11q3 -3 9 -18
t6 -27v-3q2 -1 2 -5z" />
    <glyph glyph-name="I" unicode="I" horiz-adv-x="732" 
d="M473 597l-4 -105q-5 -162 -10 -167q-3 -5 -3 -9t3 -9q-5 -12 -5 -62l1 -20q-3 -3 -3 -30v-8l-4 -17q-4 -18 -4 -38q-3 -39 -11 -93.5t-8 -85.5q0 -3 2 -9q0 1 4 4l-3 -6q0 -1 1 -2l-1 1q-3 -6 -4 -36.5t-3 -40.5l1 2q1 -3 8.5 -7.5t9.5 -4.5h1l-9 -6q32 1 88 12h-1l49 8
q9 1 23.5 2.5t22 2.5t15 4t10.5 8h7q2 -1 5 -1t31 11t45 11q11 0 29.5 14t21.5 14l2 -1l-2 5q5 -10 19 -10q-6 -2 -11 -12l-7 -16q-4 0 -21 -15.5t-18 -19.5q-1 6 -2 6t-2.5 -1.5t-2.5 -1.5l-13 -5q-35 -13 -36 -13l-10 -3l1 1l-36 -9q-4 -1 -14 -4t-18 -5t-13 -2
q-79 -21 -148 -28l-20 -2q-1 0 -6 -0.5t-8 -0.5l-33 -3q-60 -6 -135 -6q-86 0 -108 7v-1l-39 9q-27 8 -47.5 20.5t-20.5 23.5q0 26 14.5 39.5t16.5 19.5v-1v1l1 2l-1 2q6 2 25 21l12 12q3 -1 9 -1l23 -4q0 -10 3 -21q0 -9 -17.5 -24t-17.5 -27q0 -4 1.5 -7t5 -5t7.5 -3.5
t12 -4t15 -5.5l14 -3q16 -4 89 -4q110 0 120 10q5 3 7 30.5t5 89t8 113.5l4 42q0 7 1.5 27t1.5 29q11 61 11 143q11 89 11 270q0 26 -1.5 51t-1.5 34q0 10 1 19.5t1 12.5q0 16 -4 23q0 1 -0.5 12.5t-2 29.5t-3.5 32l-4 25q-2 9 -3.5 23t-2.5 19.5t-3.5 12t-6.5 10.5q1 0 1 2
v2q-1 2 -1 4l-3 16q-3 14 -9.5 22.5t-11.5 8.5q-72 -14 -98 -14l-43 -12q-22 -3 -36 -15q-4 0 -5 3l-8 3q-1 0 -3 1q-3 0 -3 1l-12 6q-7 0 -13 16v-1q-2 6 -2 8q0 4 5.5 7.5t13 6.5t15 5.5t12.5 3.5l5 1l60 19q22 0 62 7l7 1q6 1 19.5 3t30 4t39 3.5t43.5 1.5l105 6
q2 0 4 -1l-1 1q6 -1 73 -3l65 -2h45q17 -4 69 -9t92 -9.5t40 -8.5q0 -5 17.5 -16.5t25.5 -31.5l2 -10l2 -8h-8q-7 0 -17 -13q0 13 -13.5 25.5t-28.5 13.5l-21 4q-59 11 -80 11q-3 0 -9.5 -2t-9.5 -2l-11 1q-11 1 -30 2.5t-38 1.5q-17 0 -25 -3v5h-4q-13 0 -13 -3h-5
q-16 0 -49 -2.5t-35 -4.5q-2 8 -29 8q-145 0 -145 -19q0 -6 16 -13q5 -1 10 -26.5t11 -28.5l-3 1q0 -4 6 -36t7 -55l3 -25q0 -37 4 -38q-3 -6 -3 -11q0 -4 2.5 -13.5t2.5 -15.5q0 -7 -0.5 -16.5t-0.5 -12.5l5 -51q0 1 1 1z" />
    <glyph glyph-name="J" unicode="J" horiz-adv-x="983" 
d="M474 966q33 0 70 -58t66 -142t47 -147t26 -102v-5q0 -8 1 -15l1 -14l-1 -5v-3q3 -3 3 -4v-8q0 -1 -1 -3q0 -2 6 -7q3 -15 10.5 -84t20.5 -109q17 2 54 20l15 7q161 47 236 47h15q39 0 47 -22v-2q-3 -7 -12.5 -12t-17.5 -7l-9 -2l-35 -4l-33 -8q-4 -2 -9 -2l-12 -2
q-34 -8 -106 -31t-92 -28h1l-7 -3l-26 -10h1q-1 -1 -4 -3t-4 -2v-7q0 -33 5 -76v-4q4 -48 4 -77q0 -15 -4.5 -53.5t-4.5 -58.5q0 -1 2 -5l2 -21q0 -11 -2 -31v-12q0 -1 -1 -3v-13q-2 -14 -2 -21l-1 -4q0 -36 -10.5 -103t-37 -160t-65.5 -173t-104 -136.5t-143 -56.5
q-56 0 -102.5 38.5t-74 96t-42 117.5t-14.5 110q-1 124 71.5 256.5t179.5 238.5l48 47l41 34q11 7 32 19l34 19q17 10 23 11l17 18l90 50q-2 79 -23 166l-7 43l-3 25q-26 166 -133 393q-11 34 -42 47q-77 0 -124 -52.5t-47 -140.5q0 -62 13 -109t31.5 -72t37.5 -41.5t32 -28
t13 -22.5q0 -6 -11 -14t-21 -8q-14 0 -38 18t-51.5 51t-47 92t-19.5 128q0 118 69 186.5t179 68.5zM227 -637l8 -5q21 -55 58.5 -89.5t88.5 -34.5q2 0 4 1l9 3v-1l7 5l11 5l7 2q10 3 15 5v-1l5 5q62 38 111.5 129.5t75.5 200.5t39.5 208.5t13.5 175.5v76v1q-1 1 -1 2l-2 43
q-1 19 -1 53v20q0 2 -2 5q-63 -32 -75 -39l-18 -11q-70 -54 -134 -115.5t-125 -136t-97.5 -156.5t-36.5 -155q0 -101 18 -147l6 -15v1l6 -11l6 -15z" />
    <glyph glyph-name="K" unicode="K" horiz-adv-x="1098" 
d="M1211 -285q-24 0 -34 4l-18 4q-13 0 -25 6l-10 3q-2 0 -4 3v-1q-94 35 -133 55l-28 14q-6 4 -13 7t-10 4.5t-5 4.5l-9 5q-4 6 -10 6v3q-4 0 -20.5 8.5t-21.5 13.5q-4 4 -15 9.5t-39 28.5l-35 26q-2 1 -51 41v-1l-20 14q-4 6 -15 13l-11 10q-1 0 -5.5 4.5t-9.5 8.5t-8 4
l-56 42v-1q-44 32 -95 55l-15 8l-9 6l1 -2l-25 12l-18 5q-17 6 -20 11h1q-2 2 -17.5 4.5t-16.5 3.5l-5 3v-1q0 1 -23 5t-53 8.5t-45 4.5q-6 0 -11.5 -4.5t-7.5 -4.5h-2q-1 0 -5 -1.5t-7 -1.5q-13 0 -27.5 8t-14.5 20h-1q-4 0 -11 -104.5t-7 -159.5v-8q0 -9 -2 -11.5t-2 -3.5
l2 -10q2 -11 2 -18v-4q0 -27 2 -35v1q3 -5 4 -19.5t2 -26t5 -11.5q2 0 7 3t6 3q6 0 6 -10q-1 -2 -1 -4q4 -2 4 -10q0 -13 -9.5 -20.5t-19.5 -7.5q-7 0 -16.5 6.5t-15.5 12.5t-7 8l-4 6q-6 8 -6 13v-1q-2 0 -6 16t-7.5 46.5t-3.5 61.5v41q0 59 9 188t14 145q1 1 4 24
q10 77 16.5 113.5t8.5 52.5l4 20q2 15 3 17v-1q13 50 18 71l3 13q3 15 12.5 42.5t9.5 29.5v1q0 7 4 15v-1l10 41q2 8 2 11q0 1 4 21t12 37.5t22 21.5h-1l8 2q5 0 15.5 -13.5t10.5 -20.5q-5 -30 -30 -124l-5 -17q-6 -22 -10 -26t-6 -21t-4 -31.5t-7 -14.5v-3q0 -1 -0.5 -2.5
t-0.5 -2.5l-7 -31v-2q0 -12 -5.5 -23.5t-5.5 -30.5q0 -8 -0.5 -14t-1.5 -9.5t-2.5 -5l-2.5 -2.5v-1l2 -2q1 -2 1 -6q0 -18 -5 -23v-7q0 -10 -3 -28l-7 -45q0 -2 -0.5 -6.5t-1.5 -11t-1 -11.5l-3 -31q0 -4 -1.5 -14.5t-1.5 -13.5q5 3 25 9.5t37 12.5t18 7h-1q1 1 14.5 8
t32 14t27.5 7q8 0 9 -3l-1 2v3q0 5 9 5h1q0 1 8 4.5t16 7.5l9 3q6 6 12 7.5t7 2.5l25 12q14 7 19 7q2 0 4 -2l3 -2l3 8q23 35 65 35q1 0 18.5 12t22.5 12l1 -1l19 14q1 2 14.5 7.5t18.5 10.5l4 3q7 0 18 11l6 3q5 4 11 6t8 4h-1q3 5 15 12.5t15 7.5q17 17 33 22l6 4
q1 3 23 19t30 16h1l-1 1l5 6q5 6 8 6q2 0 23.5 17.5t24.5 17.5l2 -1l2 -1q1 10 13 18v-1l12 10h-1l10 11l20 20l9 9q0 4 2 6t6 4t13 13t21 29v-1q0 5 9.5 18.5t12.5 23.5q-9 0 -35 -8l-8 -2q-4 -1 -12 -6t-17.5 -8t-20.5 -3q-16 0 -30 12t-14 19q0 13 7 19t26 11q6 1 12.5 5
t9.5 4h3q12 0 23 6v-1q6 6 25 6l18 3q4 3 13 3q60 0 60 -43q0 -39 -14 -57q1 -4 -14.5 -33.5t-23.5 -29.5q0 -9 -19 -28h1l-15 -15h1q-4 -5 -12.5 -11.5t-26 -21.5t-38.5 -36l-8 -7q-2 -1 -6 -5t-8 -7l-3 -2h-2q-3 -5 -14 -7l-5 -4q-2 -4 -8.5 -8.5t-8.5 -4.5l-5 -5
q-2 -2 -22.5 -12t-31.5 -21l-2 -1q-15 -21 -27 -21q-2 0 -7 -7t-14.5 -13.5t-23.5 -6.5q-1 0 -1 1q-2 -2 -5 -4l-13 -8q-7 -2 -16 -10v1q-11 -11 -17 -11h-2l-2 -2q-1 -2 -4 -5l-6.5 -6.5t-9.5 -5.5t-12 -2h-1q0 -4 -39 -23t-46 -19h-4q-2 0 -4 -2t-4.5 -5.5t-12.5 -9.5
t-25 -12l-5 -2h1l-12 -6l-12 -5l-8 -4q-2 -4 -10.5 -6t-11.5 -4v1q-4 -4 -7 -4l-2 1l-9 -5q-10 -6 -12 -6q51 -11 125 -46l4 -2l20 -11q5 -3 9 -4t6 -2t4 -5h-1q2 -6 5 -8t6.5 -2t10 -1t13.5 -5l27 -15q8 -5 15.5 -11.5t12 -10.5t5.5 -4l10 -4q10 -5 66 -49l43 -34
q3 -3 9.5 -7.5t11.5 -8.5t9 -8l8 -7v1q6 -4 6 -8h2q3 0 13.5 -8.5t24 -19.5t21.5 -14l14 -10q1 -3 9.5 -7.5t9.5 -4.5l9 -8q30 -20 41 -24l12 -8q2 -4 3 -5.5t5 -3t8.5 -3.5t15.5 -6.5t24 -11.5l21 -11q7 0 30 -14h-1q4 -1 10 -5t10 -4l11 -4q79 -30 110 -30h8q7 0 7 -2h3
l14 2q13 1 31.5 4.5t30.5 8.5v-1q-1 -1 -1 -2l10 6q10 5 23 10.5t21 5.5q1 0 2 -0.5t2 -0.5q4 0 10 5.5t8 5.5q1 0 2 -1.5t3 -1.5h1q-1 2 -1 4q0 7 7 7h1l2 -1l5 5q27 28 36 28q5 -3 5 -16q-3 -34 -35 -59v1q-31 -28 -53 -36l-16 -6q-1 0 -6 -3t-10 -5.5t-15 -5t-20 -2.5
q-13 0 -33 -2.5t-37 -2.5z" />
    <glyph glyph-name="L" unicode="L" horiz-adv-x="789" 
d="M243 131v-90q0 -1 1.5 -8t1.5 -12q0 -11 -4 -15v-3q7 -8 7 -56l-1 1q2 -4 2 -6t-1 -4.5t-1 -3.5q3 -6 5 -16q3 -29 15 -52.5t22 -30.5l12 -9q1 0 4 -1l9 -6l8 -4q0 -1 4.5 -3.5t19.5 -5t36 -2.5q2 0 10 2l25 6q14 3 21.5 5.5t8.5 3t1.5 1t1.5 0.5t7 1q0 -1 1 -1l4 2
q4 3 6 3h4l12 5q12 6 29 13.5t25 10.5l8 4q2 1 26 10v-1q5 5 25 12q30 9 33 9q1 0 4 -0.5t4 -0.5l13 9q14 8 30 13l15 5q5 2 9 2l-1 1q7 0 24 9.5t40 9.5h1q2 4 6 4h1q3 0 15.5 5.5t29.5 5.5q12 0 12 -7q0 -6 -9 -11.5t-19 -5.5h-3q0 -8 -4 -8q-3 0 -4 1q-3 -5 -25 -21
q-8 -9 -15 -13t-20 -8t-26 -11l-5 -2h1l-17 -7v1q-5 -5 -8 -5l-2 -1q-3 -4 -13.5 -9t-22.5 -8.5t-13 -4.5l-38 -17q-7 -3 -24.5 -11.5t-28 -13.5t-24 -9.5t-21.5 -4.5l-6 -2q-3 0 -6 -3l-2 -1q-1 0 -5 -2l-23 -8q-4 -4 -12 -4l-18 -5q-18 -4 -78 -4q-51 0 -92 35l-5 4
q1 -1 1 -2q-11 1 -30 32h1q-9 9 -9 13q0 3 -6.5 9t-13.5 27.5t-7 62.5v4q-1 12 -3.5 23t-2.5 20q0 22 4 26v9q2 179 9 300q1 0 1 1v1q-1 1 -1.5 2.5t-1 4t-0.5 5.5q0 7 2 25.5t2 26.5t-1.5 25.5t-1.5 32.5q0 27 3 33v1q-3 5 -3 32q0 4 0.5 12.5t0.5 13.5v31l1 21q-4 4 -4 20
q0 5 1 6q0 1 -2 4t-2 4q0 5 3 9q-5 3 -5 13q0 4 2 12v-1q1 4 1 11q-9 5 -9 75l1 2q-27 97 -27 116q0 3 1 4q-4 5 -4 9q0 10 24 19h2q2 1 3 1q13 0 23 -12q0 1 5 1q3 0 8 -8l6 -12v1q1 -2 1.5 -6.5t3.5 -13.5l2 -8v1q17 -57 17 -92v-3q0 -4 2 -20.5t2 -22.5t-1 -10l-2 -4
q9 -13 9 -77q0 -7 -0.5 -14.5t-1 -12t-0.5 -5.5t1.5 -5t1.5 -6l-3 -8l3 -207v-8q0 -15 -2 -17v-8q0 -4 -1 -9t-1 -8l-1 -3q0 -2 1.5 -7.5t1.5 -9.5q0 -12 -3 -15q1 -6 1 -28q0 -9 -1 -13.5t-1 -6.5t1 -12t1 -18q0 -5 -1 -18t-1 -16v-3q0 -5 -3 -8z" />
    <glyph glyph-name="M" unicode="M" horiz-adv-x="1072" 
d="M824 117q-4 13 -9 35t-8 32v-1q-6 119 -6 243q0 28 3 49v-1q6 8 6 26l-5 -5q0 5 -0.5 14t-0.5 13q0 32 3 68v5q0 17 3 63t3 70l-10 1q-50 -100 -96 -260l-3 -12q1 -2 1 -8l-4 1q-4 -7 -6 -19l-6 -18q-2 -3 -2 -8q-20 -61 -28 -128q0 -1 -7 -21.5t-14 -49.5t-7 -51v-6
l-1 -1q-1 -2 -2.5 -6t-3 -9t-2.5 -12t-2 -15l-10 -39q-31 -117 -40 -117q-24 0 -39.5 4t-24.5 14.5t-12.5 18.5t-9.5 26v-1l-2 7q-63 155 -86 398l-6 61q-1 7 -6.5 50.5t-5.5 63.5q0 45 -14 73q-12 -13 -23.5 -57.5t-11.5 -69.5l-3 -12q-3 -12 -6.5 -32.5t-5.5 -29.5
l-33 -121q-62 -257 -73 -394l-2 -2q-14 -3 -36 -3q-19 0 -25 4t-6 23q0 75 48 252q6 22 17.5 78t20.5 83l12 45q4 20 11 49v-1q16 55 19 88q10 9 11 43t18 42q-4 4 -6 7l25 116q0 7 6.5 25.5t7.5 32.5v4q0 71 28 71l16 3q29 -2 35 -5q4 -28 7 -58.5t6 -66.5t5 -57l3 -29
q0 -3 0.5 -8t0.5 -8q3 -32 12 -113.5t12 -124.5l2 -32q0 -1 0.5 -3t0.5 -3l7 -71l10 -41l3 -20q1 -9 7 -21l-3 3q0 -4 1 -15l2 -11q2 -18 24 -88.5t29 -73.5q8 10 15.5 35.5t7.5 36.5l2 -1h1l1 1l4 10v2q-1 2 -1 3v5q0 13 4 17q17 77 53 208t41 149l-2 4l7 6v2q1 2 1 5l-1 8
q0 11 15 43q9 26 26.5 69t22.5 56l9 31q3 7 13 25t11 22v-1q2 16 23.5 66t37.5 50h31q6 0 14 -4q7 -3 10.5 -41.5t3.5 -58.5q-2 -72 -6 -101q-6 -51 -8.5 -144.5t-4.5 -123.5l-3 -46q-3 -42 -3 -88q0 -136 36 -237q2 -7 26 -57.5t24 -77.5q-5 0 -9 -2l-29 -4q-3 0 -6 0.5
t-5.5 2t-4.5 3t-4 4.5l-3 4.5t-2.5 6t-2.5 6t-2.5 7t-2.5 7.5l-8 23q-2 6 -18.5 47t-21.5 60q-2 12 -5 16z" />
    <glyph glyph-name="N" unicode="N" horiz-adv-x="808" 
d="M717 566q1 -37 -2 -79.5t-8 -96t-7 -81.5q0 -18 -13 -174.5t-16 -176.5l-4 -24q0 -18 -8 -67t-15 -56v1l-18 -15h-13q-26 0 -49 22.5t-35 46.5t-32 72t-30 67l-46 93q-71 134 -134 330q-47 153 -47 213q-4 -18 -11.5 -51t-10.5 -48.5t-6 -38.5t-3 -42l4 -4
q-3 -26 -11 -39l-6 -17q1 -4 2 -6v-2l-6 -5l4 -8l-3 -5q3 0 3 -4l-3 -1q0 -42 -4 -74v1q-16 -189 -19 -272q-2 -17 -8.5 -56t-8.5 -59q-2 -7 -2.5 -34t-4.5 -37q-12 -28 -8 -51t-4 -37t-39 -14h-25q-5 6 -5 14q0 6 1 9v7q0 45 15 123.5t18 104.5q0 1 1 22.5t3 44.5t5.5 55.5
t7.5 57.5l3 3q0 4 -0.5 10t-0.5 10q0 30 8 90q0 -2 2 -2t2 6t-2 6h-1q2 23 6 41h1q3 0 3 5q0 4 -3 6l6 57q0 2 -0.5 6.5t-0.5 6.5q0 16 8 27q-1 37 12.5 100.5t15.5 85.5q1 14 8 51t7 58v24q-3 3 -4 5q3 6 4 9l3 4q1 2 1 6q-6 5 -8 7l8 8q3 3 5 3l11 4l10 10q1 1 2 1
q15 0 30.5 -8.5t19.5 -22.5q9 -21 17.5 -57t8.5 -55q-8 -1 -8 -6q0 -2 5.5 -17t7.5 -15q3 0 5 1q14 -34 14 -53q21 -126 56 -222v1l4 -15l4 -7q5 -10 5 -16q0 -1 -0.5 -3t-0.5 -3l49 -119q20 -26 25 -46v-10q3 0 8.5 -10.5t5.5 -15.5l10 -19q18 -36 18 -47h9q5 -10 9 -16
q6 -6 32.5 -66.5t45.5 -83.5q3 17 5 67t5 87.5t8 39.5q0 3 -0.5 8.5t-0.5 8.5q0 35 9 110t9 116q0 77 17 231.5t17 230.5q0 28 -1 40q6 8 6 39q0 3 -0.5 9t-0.5 8q0 11 2 11v8l-1 3q-2 3 -2 4q0 2 4 10l6 12h13q37 0 37 -33q0 -41 -6 -121t-6 -121q0 -5 0.5 -13.5t0.5 -12.5
q-7 -7 -7 -26q0 -8 4 -9q0 -2 -1.5 -14.5t-1.5 -18.5q0 8 -3 8q-2 0 -2 -6q0 -5 2 -5t3 3z" />
    <glyph glyph-name="O" unicode="O" horiz-adv-x="1100" 
d="M190 26l9 -38q42 -127 183 -176h2q1 0 3.5 0.5t5.5 0.5q11 0 17 -6l3 1q3 1 5 1q4 0 10 -3t7 -3q11 0 19 6q5 0 8 -3q2 2 7 2q2 0 8 -2l20 3q42 6 45 8l8 4q3 1 6 1t5 0.5t5 2.5t8 7q4 3 18.5 7t19.5 8l4 2h-1l52 37l8 8q5 2 35.5 29.5t48.5 48.5h-1l8 9q4 7 12.5 15
t10.5 12h-1l27 29q0 3 5 8l4 7l13 21q7 7 10 15.5t6 9.5l17 34q17 37 26 43v-1l7 39q6 23 10 45t6 34.5t4 16.5v38q0 78 -2 96v-1q-1 1 -6.5 32t-14.5 71t-16 60l-5 17q-2 14 -7 21t-5 10q-21 41 -22 52l-1 5q-6 4 -9 10q-62 126 -160 126q-19 0 -47 -7.5t-43 -16.5l-10 -7
q-2 -1 -50 -34v1l-19 -18l-23 -30q-1 -6 -9 -11l-8 -9q-2 -5 -7 -13.5t-9 -15.5l-4 -7l-7 -14q0 -1 -8.5 -12.5t-17 -28.5t-11.5 -32h1q1 -1 1 -2l-2 1q-1 -5 -1 -14l-6 -18q-4 -11 -4 -13l-4 -6v-8q0 -7 -6.5 -24t-6.5 -28l-3 -11q-2 -20 -2 -66q0 -9 0.5 -26t0.5 -22
q1 -11 10 -34.5t9 -30.5l14 -23q7 -7 9 -13v1l4 -8l4 -6q0 4 3 -3q13 -28 23 -28q1 0 1 1q5 -2 8 -5l3 -6q4 -1 14 -5.5t11 -4.5l5 -5h4q88 -40 190 -42l-2 -12l-4 -6q-72 -23 -164 6h-1q-7 0 -13 3q-1 0 -15 5.5t-34.5 15.5t-33.5 19l-12 10q-11 6 -17 17h1l-18 19
q-42 42 -47 73l-6 19q-3 7 -3 19h-1q0 1 -0.5 3.5t-1 5.5t-1.5 8t-1.5 11t-1 13.5t-1 16t-1 19t-0.5 21.5q2 79 28 150l12 33l7 20l2 6q4 4 4 7l8 15h1q11 39 43 79q17 27 18 28l7 9q3 7 15 12.5t12 19.5q0 49 -15 60q-8 5 -18 5l-25 -7l-13 -11q-10 -10 -12 -10l-4 -8
q-1 -2 -16 -17q0 -2 -3 -8l-7 -12q-38 -65 -35 -62q-10 -31 -25 -46v-10q0 -13 -6 -15l1 -2q0 -15 -7 -22h1l-5 -19q-4 -10 -9 -13v-11q0 -8 -7 -8v-4q0 -14 -11 -54q-2 -3 -12 -36.5t-10 -42.5v-3q0 -7 -3 -8v1q-2 -2 -2 -7.5t-2 -6.5l1 -2q-1 0 -2.5 -3.5t-3.5 -10.5
t-4 -16.5t-3.5 -23t-1.5 -27.5v-8q-3 -4 -3.5 -10.5t-2.5 -18.5q-8 -41 -8 -61t-2 -33q0 -6 -0.5 -12t-2 -10t-2.5 -6.5t-1 -3.5l-1 -1q0 -1 0.5 -3.5t0.5 -5.5v-4q1 -4 1.5 -21.5t0.5 -23.5l4 -64l2 -28l-1 -1q0 -2 3 -6zM974 487q26 -162 -18 -283v1q-1 -1 -1 -2
q0 -3 1 -4q0 -8 -7 -16v-6q0 -16 -8 -16q-4 0 -5 2q2 -3 3 -3v-7q0 -6 -6 -7h-1q4 -1 4 -5q0 -3 -7.5 -12.5t-13.5 -13.5v-7q-5 -22 -33 -51q1 0 -3 -9.5t-11 -20.5t-12 -15v1l-3 -2q-11 -22 -18 -22h-1q-6 -20 -19 -20h-2l-3 -1q6 -6 6 -8t-4.5 -4.5t-9.5 -2.5q-2 0 -3 1
q0 -8 -12 -21h1q-11 -12 -11 -10q-1 7 -53 -45h1q-1 -1 -10.5 -7.5t-11.5 -6.5q-5 0 -13 -12t-25 -19l-4 -2h1l-15 -9q-12 -7 -20 -7h-2q-6 -13 -23 -13h-3q-1 -5 -8 -10t-12 -5q-1 0 -3 -1l-1 -1v1q-3 -3 -9 -3h-2q-1 0 -8 -4.5t-21.5 -8.5t-33.5 -4h-3q-11 -4 -60 -4h-31
q-23 0 -44 5h1l-24 7q-12 1 -22 5t-15 6.5t-5 3.5l-7 3h1q-6 1 -11.5 5t-6.5 4q-11 -1 -45 26.5t-43 43.5q-14 25 -20.5 32.5t-13.5 22.5q-35 56 -35 191v39.5v39t1 33t3 38t5.5 36t9.5 44.5l3 16q1 3 4 29t14 61l9 39q4 21 9 32l5 13q-1 2 -1 3q0 11 15 42t18 57l1 1l2 6
q2 11 3 12l5 17q2 13 15 46l3 6q1 1 1 1.5t1 4.5t3 9v-1q0 14 6.5 19.5t10.5 20.5v-1q0 1 6 10t6 14l3 5q0 3 5 14.5t18.5 29t30.5 27.5v-1l1 2q0 18 33 31t46 13q11 0 14 1q2 2 7 2l16 -4q17 0 31.5 -9.5t17.5 -16.5l2 -4q13 0 13 -47l2 1h-1q2 4 4.5 5.5t7 3.5t8.5 5
l30 15q4 3 11 3q2 0 3 -1q7 8 41 14t67 6q76 0 105 -37l2 1q4 0 8.5 -4.5t8.5 -9.5l4 -5q16 -10 20 -14t4 -11v-4q8 0 18.5 -10.5t13.5 -27.5v1q0 -2 1 -5q1 -1 1 -2q6 -1 7 -1.5l3 -1.5t3 -5.5t3.5 -11t8.5 -20t14 -29.5l2 -6q9 -3 9 -16q0 -5 8.5 -22.5t8.5 -51.5v-3l2 -1
q2 -1 3.5 -3t3.5 -4t3.5 -5t1.5 -6l3 -15v1q2 -4 4 -22q4 -21 7 -32.5t4.5 -13.5t2 -5t0.5 -10z" />
    <glyph glyph-name="P" unicode="P" horiz-adv-x="745" 
d="M170 426q-2 75 -4 75q-3 0 -17.5 -18.5t-20.5 -30.5q-12 -26 -14 -36t-2 -46q0 -28 20 -46t41 -18q5 0 5 8q0 5 -3.5 29.5t-4.5 82.5zM561 920q-6 3 -41 3l-11 -1l-19 -4q-18 -3 -39 -7.5t-27 -8.5q-32 -16 -50.5 -27t-29.5 -21.5t-15.5 -17.5t-14 -24t-18.5 -31
q-18 -26 -23 -35t-4.5 -15.5t-1.5 -12.5q-3 -9 -6.5 -13t-3.5 -6v-2q0 -8 -9.5 -33.5t-15.5 -71.5q-8 -48 -8 -129q0 -57 0.5 -88t3 -47.5t6 -20.5t9.5 -4q18 0 59.5 12t43.5 17q1 2 16.5 8t18.5 8q6 4 6 2q1 -2 33 21v1l6 6v-1q-1 -3 2 -3q9 2 43 30q46 46 58 46
q14 0 57 50.5t76 108.5q39 68 39 149q0 3 -1 3l-2 -1h-2q-2 0 -2 5q0 1 0.5 4t0.5 6q0 14 -2 14h-2q-2 0 -2 6q0 27 -26.5 59.5t-50.5 44.5l-49 19zM533 988q2 2 8 2q1 0 27 -4q40 -7 64.5 -18.5t33.5 -21.5t24 -30t28 -33q22 -29 24 -42q1 1 3 -1.5t5 -9t5.5 -16.5
t4.5 -25.5t2 -33.5q-1 -64 -15 -104l-1 -3q0 -4 -1.5 -9t-4 -11.5t-7 -14.5t-10.5 -16q-3 -10 -16.5 -33t-26.5 -34q-2 -2 -3 -6.5t-4 -5.5q-4 -2 -26 -29.5t-62.5 -67t-87.5 -68.5q-16 -13 -85 -56q-69 -42 -105 -47l-44 -13q-21 -9 -21 -14q0 -20 7 -55q6 -31 10 -60
t5.5 -38t5.5 -21.5t13 -29.5q10 -20 16 -35.5t7 -21.5l1 -5q0 -25 15 -50t15 -46q-1 1 -2.5 -2t-4 -7t-6 -8t-8.5 -7t-10 -3q-9 0 -17.5 10t-13.5 20l-5 9l-6 9q-6 10 -16 32t-14 45l-12 34q-16 57 -16 88v3q0 6 -3 13.5t-3 8.5v3q0 5 -5.5 41.5t-5.5 38.5v3q0 15 -4.5 27
t-10.5 12l-1 -1h-2t-2 2.5t-6 2.5q-2 -1 -6 -1q-33 0 -70 38.5t-37 103.5q0 58 34 117l14 19q15 20 32.5 38t27.5 18l1 -1l1 1q1 2 4 5t6 5q4 1 8.5 21t11 51t14.5 49q0 1 4 14t11.5 32.5t16.5 34.5q2 5 5 9.5t5 6.5l3.5 3.5t1.5 2.5v1q0 5 1 8.5t2.5 4.5t4 4t4.5 7
q6 12 12.5 21.5t12.5 16.5t7 8q3 9 19 26q13 14 25 14q1 0 5.5 6.5t10.5 6.5q1 0 3 -0.5l2 -0.5q1 0 1 2q-1 2 -1 3t14 10q61 38 87 38l15 2q54 5 57 8z" />
    <glyph glyph-name="Q" unicode="Q" horiz-adv-x="988" 
d="M608 880q-9 1 -16 1q-12 0 -48.5 -13.5t-41.5 -19.5q-6 -3 -7 -4l-8 -8q-14 -7 -37.5 -34t-30.5 -27q-4 0 -5 1q0 -1 -1 -2l1 1q0 -4 -1 -8t-2 -6.5t-2.5 -4l-2.5 -2.5l-1 -2q-3 -3 -5.5 -8t-3.5 -8t-2 -3l-14 -19h1q-9 -15 -11 -17l-12 -20q-6 -12 -12 -15q-1 0 -3 -3.5
t-5.5 -10t-8.5 -10.5q0 -5 -12 -28.5t-18 -29.5l-4 -5l1 1q-2 -21 -13 -39q-16 -49 -24 -49q0 -2 1 -3q-2 -12 -8 -18v-4q0 -1 -3 -7q-6 -6 -20.5 -54t-14.5 -61v-1q0 -9 -11.5 -63t-14.5 -54v-6q0 -5 -2.5 -19.5t-2.5 -22.5v-6q0 -14 -3.5 -27t-3.5 -44q0 -18 4.5 -68
t6.5 -55l10 -25q20 -51 46.5 -76.5t77.5 -42.5h1q2 -2 5 -2q-19 110 -19 167q0 6 1 8t1 4t-1 3q0 13 3 35v9v1l1 2v9l1 1v3v4q1 53 15 100q-1 1 -1 7q0 4 3 10t3 8v3q0 14 4 24.5t4 14.5v3q0 10 2 19.5t4 14.5l1 5l2 3q3 15 3 16l2 6l3 12q22 95 33 106q3 42 16 55h-1
q-1 0 -1 1q0 19 45 103l18 33q2 8 5 13l4 -1q0 6 -1 6l14 26q7 14 13.5 29.5t9 22t8 12t14.5 6.5v-1q2 1 7 12t13 22q38 49 81 92l8 8q1 0 1 1zM407 -179q1 4 5 4h10l6 -1q11 9 16 9q1 0 3 -0.5t3 -0.5q4 0 7 3l4 4v-1l4 3h-1q4 6 6 6q12 4 52 29l14 6l21 20q0 4 5 6l7 2
l7 6q4 4 9 4l-4 1l6 10q4 5 14.5 14t14.5 10l23 22l3 3t2 3l51 60q7 12 21 26h-1l17 22l-2 2l5 6q1 1 3 5l9 9h-1l28 46q0 1 4.5 9.5t10 19.5l8.5 17l5 11q7 7 7 12q0 2 -0.5 4t-0.5 3t0.5 2t2 2.5t4.5 6t6.5 11.5t9.5 21t13 33l6 16q7 29 12 35q-1 1 -1 4t3.5 10t3.5 8v1
q0 9 3.5 17t3.5 9v1q0 7 4.5 20t4.5 26l4 24q3 6 3 14q0 2 -0.5 5t-0.5 4q0 7 3 20t3 20v4q0 4 3 7l-1 -1q0 16 2.5 30t5 22.5t2.5 10.5v2q-1 2 -1 3v4q0 1 -0.5 3t-0.5 3q0 9 1.5 33t1.5 32q0 48 -6 80t-12.5 45.5t-19.5 32.5l-36 14q-2 0 -4.5 1t-3.5 1h-1q-8 0 -12 4
q-13 0 -31.5 -6t-31 -11.5t-13.5 -4.5l5 -10q9 -19 16.5 -64t7.5 -77q0 -20 -3.5 -30t-3.5 -19l-3 -14q0 -4 -4.5 -9t-8.5 -7l-1 -2q-6 -12 -33 -12q-14 0 -23.5 9t-9.5 15q0 2 12 22.5t12 31.5v10q2 10 2 23q0 76 -21 94q-3 -3 -8 -3l-4 -3v1l-5 -5h1q-2 -5 -15 -20
t-19 -16l-4 -5q-2 -2 -2 -5l-32 -39h1q-1 -4 -7 -15t-14 -25t-11 -19l-8 -10h1l-8 -14q-6 -6 -8 -7v1l-2 -6q-1 -9 -5.5 -20.5t-8.5 -17.5t-5 -7l-6 -11l-2 -5l-11 -22q-1 -2 -3 -5.5t-4 -8t-5 -9t-5.5 -9t-4.5 -7.5t-4 -5l-1 -2q2 -2 2 -5q0 -7 -7 -24t-7 -21v2
q0 -22 -24 -59v-12q0 -1 -1.5 -8t-4.5 -16t-6 -13l-1 -10q-1 -1 -1.5 -7t-2.5 -8v-2q0 -4 -5 -9v-7q0 -3 -3 -15.5t-3 -20.5l-1 -2q0 -23 -7 -43.5t-7 -21.5v-2q0 -11 -2 -14v-5q0 -5 -4 -30t-8 -31v-8q0 -10 -1.5 -23t-1.5 -15q0 -3 1 -4q0 -12 -2 -19v-7v-2q-1 -2 -1 -3
v-21q0 -13 -5 -20q6 -6 6 -15l-2 -6v-1l-1 -2q5 0 5 -8q0 -6 -3 -14q2 -6 2 -9q-1 -2 -1 -4q3 -4 4.5 -11.5t1.5 -13.5l1 -5l-4 -14q1 -1 6 -18.5t11.5 -32.5t10.5 -15zM890 -512q-78 -26 -159.5 -21t-150.5 39q-4 2 -7.5 3t-4.5 1t-2.5 0.5t-2.5 2.5l-16 7q-20 9 -23 15
l3 -2l-13 8q-12 8 -24.5 17.5t-12.5 12.5q-1 4 -16.5 14t-30.5 33l-7 9q-9 7 -15 12.5t-9.5 12t-5 10t-3.5 10.5t-3 10l-7 19q-7 7 -9 13q0 12 -10 30t-31 21l-21 3l-13 6q-34 10 -78 42.5t-47 49.5q0 1 -4 5v-1q-7 6 -10 12l2 2q-3 3 -8.5 10.5t-12.5 21.5t-8 26l-1 -2
q-2 0 -5.5 18t-6.5 51.5t-3 66.5q1 1 1 13q0 3 -0.5 9t-0.5 9q0 36 3 59.5t6 32.5t3 12q0 41 12 47v-1q1 1 1 6q0 1 -0.5 3.5t-0.5 4.5v6q0 18 8 36v-1q1 3 1 11v4q0 13 10 41l8 23q3 3 3 9v2q0 10 5.5 22t5.5 13v2q0 5 5 10h-1l4 11q0 2 5 9t6 8l-3 1q0 2 6.5 10t12.5 24.5
t6 38.5l8 19q2 1 4 9l5 9q18 47 35 64h-1q4 5 4 10q0 2 -1 3.5t-1 2.5q0 6 10 11l6 4q0 8 25 47l20 31l15 14q3 8 7 12h-1q15 28 40.5 53.5t35.5 29.5v-1l3 3h-1q15 18 60 40.5t77 22.5l5 2h4l2 1h3q1 -1 10 -1q10 0 15 1h11l11 1q5 -3 11 -3q9 0 23 -14t38 -14q1 3 41 13
t50 10h3q8 4 22 4q7 0 39 -15q1 0 4 1h-1l2 1h3q15 0 40.5 -17t27.5 -28q0 -3 9 -16t9 -31l4 -8q2 -8 6.5 -52t4.5 -60q0 -9 -1.5 -22t-1.5 -24q1 -2 1 -8q0 -42 -10 -52v-26q0 -36 -7 -70t-7 -35q-1 -4 -2 -6v-2q0 -3 -2 -4q0 -1 1 -2q0 -7 -4 -12l2 -6q0 -3 -2 -5v-17
q-3 -15 -3 -21l-3 -1v-8q0 -2 -8 -25t-12 -32q2 -4 2 -11q-2 0 -7 -8v1q-2 -9 -8 -15h1q-2 -4 -2 -7q0 -2 0.5 -4t0.5 -3q0 -3 -1 -5l-3 -6t-4 -9l-4 1l-11 -34q0 -3 -4.5 -8t-7.5 -16l-4 -6h1l-19 -37q-27 -57 -77 -122.5t-104 -117.5l-20 -19l-7 -7q0 -5 -21.5 -24
t-33.5 -19q-3 0 -4 1q0 -2 -10 -14t-26 -24.5t-28 -12.5h-4q-4 -4 -9 -5.5t-6 -2.5l-9 -8q-7 -3 -8 -4l-24 -3q-2 -7 -7 -7q-6 0 -8 2q-4 -4 -8 -5v1l-4 -3h1q-4 -4 -4 -7l4 -11v1l8 -19q0 -5 5 -10l9 -18v1q6 -10 6 -15l2 -2v1q9 -5 26.5 -28t20.5 -30h-1l3 -3
q1 0 4.5 -1.5t8.5 -6.5t9 -11h-1q2 0 9 -5h-1q1 0 1 -1l2 -1l9 -7v1l20 -13q1 0 5.5 -4.5t10.5 -9t14 -5.5l12 -8q8 -1 22 -8.5t16 -7.5h1q4 0 9 -3.5t7 -3.5h2q3 1 5 1q10 0 23 -10q10 0 35 -4t28 -9h1q2 1 3 1q12 -3 18 -3h3q10 0 15 -3q2 2 12 7q15 0 18 -5l12 6h8
q4 4 9 4l8 1q2 1 8.5 3t8.5 3l24 6h-1q31 8 63 33v-1l3 3q8 7 17 11t10 5l20 12q1 1 5 3t5 3l15 10q15 15 22 16q9 0 9 -13q-7 -31 -43.5 -61t-131.5 -67h-2z" />
    <glyph glyph-name="R" unicode="R" horiz-adv-x="897" 
d="M91 259l-21 12l-10 6q-3 0 -8 2h-2q0 -3 -2 -7l9 -24h14l3 -12q12 -9 15 -15l8 -9h-1l15 -13l20 -11l-1 1l6 -3t7 -2q0 3 0.5 9t0.5 7q0 5 -3 8l-2 9l-7 6v-1q-5 4 -19 18.5t-22 18.5zM323 141q27 0 40 3l48 6q4 4 9.5 5t8.5 4l8 3v-1l6 3q27 10 40 14h-1q11 8 21 8l13 8
l9 2l9 9l9 3v-1l9 9q3 0 5 1l1 -1l-1 -3q12 25 25 28l6 4l11 4v-1l8 7q1 0 2.5 1.5t3.5 2.5l2 1l-3 -3l7 7l3 3h-1q4 9 18 19h7l17 17l5 2l2 5q1 0 2 -1l21 22q50 53 50 61q0 4 2 6l-1 -1q0 14 22 36l6 6h-1l5 6q0 7 1 8l5 4v7q2 6 7 13l5 8l6 8q0 8 3 11q3 11 7 23t5 22
t1 37q0 36 -2 44v-1l-3 11h1q-2 2 -2 5l-2 10l-5 4q-1 1 -1 14q-10 25 -21 42t-18.5 23.5t-13 11.5t-6.5 9q-1 0 -3 2l-18 13q-1 0 -5 2t-4 3l-24 13l-1 1l-6 3t-9.5 3.5t-16.5 2.5t-25 1h-35l-1 -1h-2h-5q-6 0 -17 -1t-14 -1l-10 -6l-11 -2q-10 -2 -23 -7.5t-19 -13.5
l-9 -5q-15 -15 -30 -15l-14 -14v1q-13 -13 -19 -14v-5l-8 -11q-8 0 -10 -2l-13 -14v1l-8 -6h1q-6 -9 -10 -17.5t-5.5 -12t-4 -6t-6.5 -3.5q1 0 1 -2l-13 -16v1q-1 -3 -9 -11l-5 -6q0 -5 -4 -15t-8 -11l-11 -13l-1 -3v-3l-2 -18h-9q0 -4 -3 -5v1q-1 -1 -1 -4l-5 -5
q-4 -5 -8 -13.5t-4 -17.5v-20l-6 -4q-1 -9 -11 -24l-3 -9l-3 -8v1l-2 -8q0 -5 -6 -11v-10q-6 -6 -6 -13v-5l-5 -23l-7 -18q0 -10 -4 -18l-3 -11q0 -30 -7 -58t-7 -41l4 -4q6 -7 13 -19t23 -29l15 -16v-7l8 -8q18 -3 54 -3zM605 857l4 -1q4 1 13 1q41 0 58 -6l14 -5
q5 -5 13 -5l7 -3q10 -2 13.5 -3.5t5.5 -1.5l15 -10q9 -9 20 -14l13 -10h-1q15 -8 22 -26h-1l20 -18v1q14 -11 18 -23l3 -11q2 -1 5 -7l6 -10q0 -2 1 -4l-2 1l2 -4q3 -5 6 -12.5t7 -17t7 -24t4 -29.5v-25q0 -45 -10 -78v-1l-2 -7q-1 -7 -3 -15.5t-4 -13.5l-6 -12
q0 -14 -8 -17l-5 -15l-4 -4q-7 -17 -16 -27l-12 -14q0 -6 -5 -11v-4q-1 -1 -11 -12t-21 -34l-12 -4q-3 -5 -3 -6l-12 -12q-5 -9 -8 -11l-11 -12h1q-4 -9 -15 -9l-24 -26h1l-15 -15l-8 -2q-11 -11 -17 -14l-5 -6q-5 -6 -12.5 -13t-15.5 -10v1l-11 -11l-5 -1q-4 -4 -13 -7
q-16 -6 -17 -6l-14 -12h1q-3 -1 -9 -5l-17 -10l-33 -13q-10 -6 -44 -15l-6 -2h1q-2 -2 -17.5 -5.5t-21.5 -3.5l-18 -2q-1 0 -5 -1t-5 -1l-4 -2h-62q-1 0 -3 -1h-2h-1q4 -4 6 -12h-1l5 -7q16 -5 19 -13h-1l15 -12q0 -5 2 -7l2 -5h-1l11 -13h-1l2 -4v1q6 0 20.5 -13t25.5 -25
t11 -11l2 -6q15 0 38 -31h-1l4 -3q1 1 5.5 -1.5t9 -7t4.5 -8.5l16 -4l7 -12h-1l5 -4l-1 1h10l13 -9q6 0 11 -8h-1l6.5 -6.5t5.5 -5t7 -5.5h5q3 0 9 -5l2 -1q7 -1 40 -16h-1q1 0 2 -1q2 -2 3 -2v1l8 -5l7 -5l9 -8q10 0 20 -7l6 -3q32 -15 33 -15l4 -6q13 -2 20.5 -4t8 -3.5
t1 -2.5t2.5 -1l3 -1q27 -3 30 -6q7 -7 16 -8.5t14 -3.5l35 -12q20 -2 37 -9h4q2 -1 18 -3l23 -3q35 0 40 -1q24 0 40 2.5t22 2.5q12 2 29.5 4t32.5 6t40 15q6 0 8 -1q19 12 21 12l9 4q13 9 21 9q9 0 16.5 -7t7.5 -13q0 -10 -15 -16v1q-11 -11 -16 -11v-1q-3 -3 -5.5 -6
t-3 -4.5t-1.5 -3t-3 -2t-5 -0.5l-7 -3v1q-10 -10 -29 -14q0 -1 -8 -4.5t-23 -7.5t-29 -6l-10 -3q-6 -2 -12 -2q0 -1 -12 -3t-34.5 -4t-44.5 -2q-17 0 -50 4h-7q-14 0 -26 2l-15 3q-50 10 -53 11q-64 9 -75 21v1q-30 6 -33 13v-1l-15 7q-7 1 -15 7h1l-12 6q-5 0 -9 2l-8 3
q-6 2 -31 15l-6 2l-6 3q-13 6 -22 12.5t-12.5 9.5t-5.5 3l-20 14q-10 0 -19 9l-7 5l-15 12h-8q0 2 -5 4.5t-7 6.5l-8 5q-1 0 -14.5 13t-16.5 13l-3 1l-6 6q-4 4 -13.5 9t-12.5 15l-25 22v-1l-29 24q-8 3 -15 11h1q-5 5 -5 6l-2 5v-1l-3 7h1l-5 4v-1l-15 14q-13 5 -29 41h1
l-4 4q-2 2 -7 6.5t-6 5.5h1l-18 18l-6 7q-5 7 -10.5 14.5t-11.5 14t-8 6.5l-1 -1v-9q0 -10 -1 -14q0 -6 1.5 -10.5t1.5 -6.5q0 -3 -1.5 -5t-1.5 -3l1 -4q1 -4 1 -8v-7q0 -59 4 -114q0 -1 4.5 -30.5t4.5 -76.5q0 -14 -1 -17q9 -12 16 -84q0 -27 -13 -27q-3 0 -4 1
q-9 -3 -26 -3q-5 1 -12.5 17.5t-14 57.5t-6.5 95l-5 30q0 15 -2 42.5t-2 39.5v7q-1 0 -1 4v20q0 12 -0.5 39.5t-0.5 31.5l-1 38q-68 30 -76 47v-1l-13 9q-4 2 -12.5 10.5t-11.5 8.5l-10 19q-2 1 -2 2l-3 3v-1q-12 4 -19.5 27t-7.5 36q0 28 14.5 46t27 23t18.5 5q5 0 25 -8.5
t30 -16.5h6l13 -11q0 1 2 1l29 -27q2 14 6 20l7 41l5 13q0 28 11 50l6 19q3 20 10 34v2q4 4 6.5 11t7.5 12v2q0 17 12 41l5 5q2 28 20 46l3 9q6 16 16 26l3 6q0 2 5 7l4 3q0 1 1 3l1 2l7 9l-1 -1q3 10 11 18l13 21q5 6 20 22.5t17 18.5l11 14q7 15 24 22l2 2q1 4 9.5 11
t15.5 9l12 10q26 26 50 31l20 12q8 4 21 4l8 3q1 1 3.5 2t3 1.5t2.5 1.5t3.5 1t4 0.5l5 1t6.5 1t9 0.5t11 0.5t14 0.5z" />
    <glyph glyph-name="S" unicode="S" horiz-adv-x="755" 
d="M683 972q1 0 4.5 0.5t5.5 0.5q6 0 8 -1l9 -1q4 2 13 2q2 0 9 -0.5t10 -0.5l22 -2q7 0 13 -2q10 -4 16.5 -4.5t12.5 -3.5t23 -16l6 -4q14 -9 17 -15l7 -7q47 -47 47 -78q0 -16 -14 -30q-24 0 -24 18v5q-13 13 -18 16v9l-13 13v-1l-8 2q-1 1 -6.5 3.5t-11.5 8t-10 14.5h1
l-10 10v-1q-6 4 -22 9.5t-25 5.5l-21 1q-6 -2 -10 -2t-5 1h-1l-2 -1q-1 0 -3 1h-2h-5q-1 -1 -20 -8.5t-22 -12.5h-8l-11 -11l-1 -1q-2 -1 -5 -3t-6.5 -5.5l-8 -8t-9 -10t-10.5 -13t-11 -16.5l-14 -19q0 -3 -4 -11t-4 -12l-9 -10q-1 -6 -3 -10l-3 -7v1l-3 -14q-1 -6 -6 -11h2
l-3 -15q0 -6 -4 -16t-4 -11q-6 -35 -6 -48q0 -3 0.5 -16.5t0.5 -27.5v-15v-1l1 -2v-40l1 -1v-3l1 -4q0 -2 1 -3v-9q0 -1 0.5 -4t0.5 -5t-1 -5v-3q2 -6 2 -12l2 -10q8 -32 8 -35q0 -6 -1 -8q0 -1 1 -2q1 -2 1 -3l7 -26v1q4 -8 6 -25l3 -16v1l3 -7q2 -4 2 -13l-2 -8
q15 -19 15 -37l-1 -1q6 -2 6 -13v-14q0 -1 6 -15t7 -22l4 -10q5 -12 5 -23v-6l2 -1h3v-11q3 -12 3 -16l5 -9h-1q2 -2 2 -8l1 -2q11 -21 14 -76q0 -7 -3 -11v-5q0 -1 2 -3l4 -14q1 -5 1 -17q0 -16 -3 -22v-6q-1 -10 -8.5 -40t-7.5 -35v-4q-2 -13 -6 -19l-4 -7q-8 -14 -8 -18
l-7 -9q-1 -2 -5.5 -9.5t-4.5 -8.5l-9 -10l-3 -2v1q-2 -2 -5 -8l-8 -11q-12 -12 -20 -14l-12 -11q-12 -14 -13 -14t-1 1l-2 -1h1q-3 -2 -8 -7t-9 -8t-8 -3l-10 -7q-6 -6 -13 -8h1q-6 -2 -9 -4l-9 -1l-4 -4l-24 -5l-11 -1l-11 -11q-4 -2 -6 -2h-2l-2 1l-2 -1h-2t-4 0.5t-5 0.5
h-4q-8 0 -16 -2h-30q-40 0 -86 10t-70 24l-19 13q-11 7 -43.5 35t-31.5 31l-5 20l-3 2v-1q-9 5 -9 13l-2 8l-3 2q-4 5 -7 26l-3 13v-1q-1 3 -1 14l1 8q-3 3 -3 6q0 2 2 4v12q3 25 5 34l5 10q0 13 7 20h-1l7 12q0 8 4 17.5t11 19.5t9 15v-1q0 1 3 4h-1q9 15 15 21l14 15
q11 12 21 14l2 3l-1 -1q0 3 3 9l1 3q2 15 11 15q1 0 7 -2q10 20 18 20q7 0 21 -7l1 -26q-2 -2 -2 -6l-7 -5v1l-7 -9l-2 -8l-18 -21q-18 -21 -18 -25l-9 -12l-2 -6l-4 -5q0 -7 -4 -13.5t-4 -8.5l-5 -10q-5 -10 -9.5 -30.5t-6.5 -26.5v-6q-2 -2 -2 -5v-11q1 0 3 -13.5t2 -18.5
h-1l3 -5l4 -11q4 -10 7 -15.5t10 -13.5t16 -12v-7q5 -2 9 -11l27 -20q3 -1 8.5 -6t6.5 -5t3.5 0.5t4.5 0.5q23 0 47 -24q2 -2 17.5 -5t17.5 -4q4 1 16 1q13 0 19 -1h21q1 0 3 0.5t4 0.5q1 0 3 -0.5t3 -0.5q9 3 13 3q1 0 3 -0.5t3 -0.5l16 6q1 0 7.5 3t20.5 10l9 2l23 10v-1
l7 7l11 7q0 1 2 3h-1q2 7 18 18t17 12h-1q2 3 7 10t7 11l10 12q1 7 13 19h-1l3 7q3 12 5 16l7 19q0 5 1 7v4q0 1 0.5 3t0.5 3l4 18q7 17 7 48q0 17 -4.5 52t-4.5 43l-8 45q-4 7 -5 14.5t-3 9.5l-5 12v-1q-3 7 -5 26l-11 23v6v1q-1 1 -1.5 2.5t-1 4t-0.5 4.5l-1 3v-1l-3 11
q-6 8 -12 47l-2 10q-1 1 -7 23v-1q-5 8 -5 18l-2 5q-1 0 -1 4l-4 24q-4 10 -5 17.5t-1 10t-1.5 5.5t-5.5 8v31q0 3 -2.5 16t-2.5 19v3l1 2q-3 7 -3 20q0 9 1 14q0 3 -3.5 9t-3.5 13q0 33 7 49q0 1 -1 4t-1 5q0 6 3 15v5q1 0 1 1t-0.5 3t-0.5 4q0 4 2 10v10q0 4 2 8l3 -1v34
l9 23l3 11q3 10 7.5 22t8.5 16h-1q0 4 14 30l5 7l-1 -1l1 2l1 2l4 6h-1l8 13q0 3 2 5l10 7v-1l15 14l1 2l1 2l25 24q9 9 11 9h1q19 19 35 24v-1l3 4q1 4 11.5 6t13.5 5l7 3h20z" />
    <glyph glyph-name="T" unicode="T" horiz-adv-x="675" 
d="M-113 1033q1 0 11.5 0.5t19.5 0.5q182 0 447 -8q13 0 34 -1t29 -1h7l10 -1q10 -1 23 -1.5t19 -0.5h6q24 0 75 -3.5t59 -3.5q4 2 6 2h1l2 -1q6 -3 35.5 -5t63.5 -2.5t41 -1.5l38 -3q0 1 12.5 -2t29.5 -6.5t24 -3.5h8l1 -1h2h4q26 -2 52 -10h-1q3 -1 10 -1.5t13.5 -2
t10.5 -4.5h1q1 0 11 -2q6 -6 13 -9t10.5 -3t5.5 -3.5t2 -12.5q0 -7 -10 -14v1q-13 -12 -23 -12q-26 0 -40 8h1q-95 18 -122 18h-4q-7 0 -10 4h-4q-3 0 -7.5 -0.5t-6.5 -0.5q-13 0 -34.5 6.5t-30.5 6.5l-10 -6q-10 4 -63 4h-36q-36 0 -59.5 3t-54.5 4h-25q-4 0 -11.5 0.5
t-11.5 0.5q-2 -4 -4.5 -11.5t-4.5 -9.5t-6 -2t-5 7v-12t-0.5 -11t-1 -8.5t-0.5 -5.5v-2l-3 -11q-1 0 -1 -23v-7q0 -17 -3 -20h1q-1 -4 -5 -51v-4q-1 -3 -2.5 -8t-2.5 -12t-1.5 -16t-0.5 -17q-5 -14 -5 -20q0 -2 1.5 -6.5t1.5 -5.5q0 -3 -2.5 -8.5t-2.5 -6.5l1 -2l1 -2
q0 -6 -3 -9l-4 -4q2 -6 2 -13q0 -2 -0.5 -7t-0.5 -7q0 -5 1 -5q0 -2 -1.5 -6t-1.5 -7q0 -2 0.5 -8.5t0.5 -8.5q0 -6 -5 -6q1 -1 1 -24q0 -52 -7 -52l2 -14l-3 -30q0 -1 1.5 -9.5t1.5 -11.5q0 -8 -6 -14q1 -2 1 -11q0 -19 -4 -23q4 0 4 -8q0 -1 -1.5 -9t-3.5 -16l-1 -8
q4 -2 4 -18q-3 -8 -4.5 -32.5t-5.5 -28.5q1 -5 1 -21q0 -12 -1.5 -26.5t-1.5 -19.5v-8q0 -20 -6 -26v-23q0 -15 -4 -19q0 -76 -6 -88l-3 -6q6 0 7 -3l-3 -9q-4 -9 -6 -10q1 -1 1 -19q0 -22 -2 -29v-7q0 -13 -3 -52q0 -2 1.5 -14t1.5 -41q0 -51 6 -90.5t11 -54t7 -14.5
q3 11 3.5 20.5t1 12t2.5 4t8 2.5q4 0 6 -0.5t3 -5t1 -13.5l1 -11q8 0 8 -8q0 -7 -7 -10q3 -2 8 -8.5t5 -9.5q0 -7 -8 -13l-3 -4q-2 -3 -6.5 -8.5t-9.5 -11t-12 -9t-14 -3.5q-30 0 -47 34l-7 14v-1l-8 34v4q0 5 -2 9l-1 4q-1 4 -2.5 10.5t-3 12.5t-2.5 11l-1 4v1l-2 6
q-2 6 -2 19l-2 15q0 2 -0.5 4t-0.5 3v6q-1 7 -1 33q0 178 11 253l6 55q0 4 1.5 14.5t3.5 27t3 38.5v6q0 1 0.5 3.5t0.5 3.5q15 120 15 200l3 39q0 5 1 16t1 14v4l2 15q0 2 1.5 13t1.5 15q2 30 7 54t18 168l3 16q1 9 3.5 26t3.5 21l3 21l1 2v2l3 12q3 27 6 36v-1q2 12 2 18
q0 3 -0.5 4.5t-2.5 3t-6.5 2t-12.5 0.5q-266 0 -278 3q-2 0 -6 0.5t-5 0.5q-5 0 -8.5 -1t-6.5 -1t-10 1t-10 1h-4q0 1 -11 1q-4 -2 -6 -2q-3 0 -9.5 2.5t-11.5 2.5q-3 0 -7.5 -0.5t-8.5 -0.5h-4l-53 2l-53 1l-10 9q-5 7 -5 15q0 30 27 30z" />
    <glyph glyph-name="U" unicode="U" horiz-adv-x="1181" 
d="M257 -120q-55 81 -61 201.5t35 293.5q41 182 35 340q-3 88 -45 88q-60 0 -96 -69t-36 -139q0 -65 66 -114q0 -2 1 -8.5t-2.5 -10.5t-14.5 -7q-3 0 -10 -3t-12 -3q-7 0 -12.5 3t-11.5 10.5t-8 8.5q-55 55 -55 120q0 106 64 191.5t140 85.5q37 0 62 -32t29 -93
q11 -180 -40 -391q-18 -76 -24.5 -159t4.5 -162t42 -118q52 -67 121 -67q36 0 66 13q-2 -2 25 7t54 19.5t27 12.5q0 -1 17 8.5t33.5 21t16.5 13.5l15 11q14 11 29 23.5t15 16.5q12 9 49 41q57 59 108 122q14 14 18 21t4 13t18 32t54 70q1 1 31.5 62t34.5 70q3 9 9 22t10 26
t10 38q2 6 4 11.5t2.5 7.5t1.5 4.5t1.5 3.5t1.5 5t1.5 7.5t2.5 12.5t3.5 19t5 27.5l7.5 37.5q1 8 2.5 14.5t2.5 10.5t2 7t2 4v1q0 2 -2 4t-2 3t1.5 5t3 10l2.5 10q-1 4 -1 35v28q0 54 -22 74.5t-67 20.5q-9 0 -25 -7t-18 -7h-1q-4 0 -16.5 -16t-24.5 -32l-11 -17q-1 0 -1 4
t-2 4q-1 0 -11 -14.5t-15 -14.5q-7 0 -7 17q0 4 3 9.5t5 12.5l3 7q3 8 8 20t11.5 24t16 20.5t19.5 8.5l7 5q6 4 19.5 10t29.5 10q3 1 13 1q12 0 19 -1q62 -5 62 -16q0 4 16 -13t32 -40.5t16 -36.5v-1q0 -1 2.5 -3.5t3.5 -8t1 -16.5t-5 -68.5t-6 -65.5q0 -15 -7.5 -47
t-16 -61t-9.5 -33q0 -19 -14 -56l-13 -36v-1q0 -7 -8 -21q-9 -18 -15 -37.5t-12.5 -33t-22.5 -29.5q-20 -20 -20 -35q-1 0 -6.5 -8.5l-11 -17t-7.5 -8.5q-4 -2 -8 -14t-17 -23q-5 -7 -5.5 -13t-5.5 -12.5t-22 -19.5q-3 -3 -14 -22.5t-30 -35.5q-7 -6 -23.5 -25.5
t-49.5 -52.5q-41 -40 -57 -47q-1 0 -5.5 -6t-10.5 -11t-10 -5h-2q-5 -10 -72 -51q-27 -26 -38 -26q-22 -20 -38 -22q-47 -21 -84 -21q-3 0 -4.5 -2t-2.5 -2q-2 0 -3 1l-24 -8q-26 -6 -59 -6q-44 0 -72 11q-20 8 -49 29t-43 41z" />
    <glyph glyph-name="V" unicode="V" horiz-adv-x="911" 
d="M617 66v1v-1zM386 -301q-12 0 -32.5 18t-40.5 58l-3 14q-3 2 -5.5 5.5t-3.5 6.5t-2.5 7t-2.5 6l-6 13q-5 13 -5 18v1l-2 2q-2 3 -5 7t-6 9.5t-5 14.5t-2 19q0 7 1 11l-1 2l-2 4h1q-5 5 -5 10l1 -1l-5 7q0 7 -4 15l-2 17q-3 4 -9 32.5t-8 49.5v4q0 11 -2 17v-1
q-2 4 -2.5 10t-1 17t-2.5 22v-1q-4 9 -4 27v3q0 5 -3 21.5t-4 33.5l-2 25q-3 13 -3 25l-2 10q0 4 -1.5 17t-1.5 15v5q0 21 -2.5 44t-2.5 38v8q0 11 -1 13v20q0 2 -2 5.5t-2 5.5q0 3 2 15q0 12 -2 29t-2 20q0 7 1 9v11q-3 3 -3 13q1 3 1 12q0 11 -3 50l-2 30q0 2 -0.5 5.5
t-0.5 5.5v10q0 15 -1.5 36.5t-1.5 29.5v9q0 12 -2 29t-2 40q0 4 0.5 8t0.5 5q0 2 -1 5t-1 7l-3 19q-2 17 -3 18v16q0 21 21 21q20 0 32 -13h-1q12 -12 12 -21q0 -2 -2 -4l-1 -2q4 0 7 -1q-2 -4 -2 -6t2 -5.5t2 -4.5q0 -4 -4 -7q0 -1 3 -1l13 -263q0 -3 -2 -7q3 0 3 -9
q0 -10 -2 -13q13 -192 31 -358q-1 -3 -1 -10q0 -13 4 -32t4 -24l-2 -14q4 -4 4 -9q0 -2 -3 -7.5t-3 -6.5q7 0 9 -4.5t1 -10.5t0.5 -17t6.5 -21h-1q6 -6 8 -15v-2q0 -19 4.5 -39.5t12.5 -44.5t11 -38q0 -4 -3 -5q4 -3 9.5 -15.5t5.5 -18.5q0 -3 -3 -6l3 -3v1q0 4 4 4l21 -47
v-1q1 0 2.5 -1.5l4 -4t4.5 -3.5l8 -9l15 13q10 8 17 18l8 15l4 -1v7l13 23q3 8 12 25t12 27v-1q24 35 44 106v1q2 10 7 20t6 15v-1q0 2 4 8t4 8l3 8q3 7 7.5 18t8.5 18l3 -1q0 11 3 20l6 18q8 17 12 29l7 20q0 6 5.5 18t7.5 14l8 16q0 10 6 16q1 1 5.5 13.5t8.5 24.5l5 12
l3 10q3 9 8.5 19.5t11.5 13.5v-1q3 3 3 10v2q0 6 3 9q-3 0 2 9t11.5 18.5t6.5 10.5q-1 1 -1 2q0 3 3 8l4 -1q-1 2 -1 5q0 1 0.5 3t0.5 3l8 18q4 13 14 27v1q0 6 10.5 26t11.5 22l4 7q5 6 9 20t9 19v4q6 9 9 14l4 8q0 33 26 46v3q0 12 6 13v-1q1 1 1.5 5t5 13.5t11.5 20.5
l16 29v-1q2 10 7 12v-1q1 1 8 14t17 29.5t17 23.5l-1 -1q0 3 7 12.5t10 9.5q8 23 20 36l3 3t1 2l4 6q2 4 12 14h-1l8 10q2 6 15.5 25.5t21.5 19.5l5 5h-1q5 10 12 14v-1l4 3q3 3 7 9t8.5 9.5t12.5 6.5l5 2h-1l7 4q12 5 14 5q5 0 5 -13q0 -22 -4.5 -32t-13 -19.5t-13.5 -22.5
q-5 -5 -9.5 -8.5t-6.5 -5.5l-2 -1l1 -3q1 -3 1 -4q0 -6 -8 -8l-4 -6q0 -4 -4 -10.5t-9 -7.5l-8 -10q-7 -16 -13.5 -23t-10.5 -14l-8 -14q-4 -4 -8.5 -13t-8.5 -12v1q-5 -5 -11 -19l-10 -17l-22 -35q-16 -41 -26 -47v1q-2 -2 -5 -13.5t-7 -13.5l-6 -12v-5q0 -6 -6 -6v-1
q0 -3 -1 -4l-3 -3h1q-5 -9 -10 -9v-4q7 -2 7 -5q0 -4 -8 -9l-2 -3q-3 -4 -7 -10.5t-8.5 -14t-9 -17.5t-6.5 -18q-5 -29 -16.5 -37.5t-11.5 -24.5q0 -4 -2 -7t-4 -4.5t-2 -2.5l-6 -13q-9 -18 -11 -20h1q-2 -6 -2 -8l-65 -126q-1 0 -1.5 -6.5t-1.5 -14t-3 -9.5v-1l1 -2l-1 -1
v-2l-4 -9q-2 -4 -2 -5l-7 -10l-11 -35v-1q0 -7 -6 -13h1q-4 -7 -5.5 -13.5t-1.5 -9.5t-1.5 -5t-5.5 -4v1q-2 -2 -5.5 -15.5t-6.5 -15.5v1q-1 -1 -1 -2t1 -1h-1q5 -1 5 -3q-1 0 -4.5 -7t-9 -15.5t-8.5 -10.5q1 -2 1 -11l-8 -23q-6 -6 -6 -17l-16 -34q-3 -6 -6 -9q2 -4 2 -7
l-2 -1q-1 -2 -2.5 -4.5t-2.5 -4.5v-2q0 -3 -4 -4v-8l-9 -14q0 -1 0.5 -2t0.5 -2q0 -10 -13 -23q-3 -4 -6 -11t-13 -29.5t-25 -51.5l-3 -5q-3 -5 -6 -9.5t-7.5 -10.5t-9 -9.5t-8.5 -4.5l-1 -1q0 -9 -5 -9q0 -6 -22 -17t-38 -11z" />
    <glyph glyph-name="W" unicode="W" horiz-adv-x="1172" 
d="M941 139q-4 0 -4 -7q0 -4 1 -5q-1 -1 -1 -2q-1 -2 -1 -3t2 -1l2 -1q-3 -15 -36 -84t-44 -88l-4 -6q-41 -61 -72 -61q-28 0 -50 28v-1l-6 16q-2 7 -7 20t-8 20v-1l-5 14q-2 5 -10 27t-11 31t-7.5 26t-6.5 31.5t-2 29.5l1 4q2 4 2 16q-2 -3 -4 -3h-2q0 38 -5.5 95.5
t-5.5 84.5l-3 144q-3 124 -22 159q-30 -23 -59 -78l-5 -8q-53 -84 -142 -298l-3 -8q-2 -5 -18 -45.5t-25 -60.5q-3 -6 -33 -80.5t-56.5 -118.5t-50.5 -44q-18 0 -30 6q-34 19 -50 133t-16 191q-2 27 -2.5 92t-4.5 97v199q-4 20 -4 50v22q0 9 18 9q20 0 36.5 -11t16.5 -29
v-83q0 -38 -1.5 -114.5t-1.5 -116.5v-76q0 -1 1.5 -17t1.5 -19q0 -46 10 -139.5t26 -102.5l9 9q47 80 108.5 235.5t82.5 199.5l13 26q28 58 31 67h-1l9 9q4 5 16 27l8 15q33 61 52 87l6 9q2 5 6 9l3 7q11 18 18.5 28t21.5 20t28 10q7 0 12.5 -1.5t10 -5.5t8 -7.5t6 -10.5
t4 -11t3 -13t2 -13t2 -14t1.5 -13l3 -25q11 -103 13 -110v-173l1 1l-4 -5l3 -3q-1 -4 -1 -12q0 -10 2 -22q3 -9 4 -72.5t10 -128t31 -86.5l-2 -3q5 -4 7 -18v-4q2 -17 13 -21q15 11 28 35l2 3q49 91 114 265q6 26 26 68q-1 0 -1 1t5 8.5t10 18.5t5 23h8q0 5 -1 9l-2 3l2 5
q1 4 4 13l6.5 19.5t8.5 23t10 22.5l14 30q3 0 3 7v2q11 26 26.5 58t28.5 55.5t35 64.5t35 65h-1q9 9 17 9q11 0 25 -10t14 -20t-5 -24.5t-15 -32t-17.5 -30t-20 -31t-16.5 -24.5q0 3 -2 3q-3 0 -3 -6q0 -3 1 -4q-12 -12 -43.5 -75.5t-31.5 -79.5l1 -3l-2 -16q-9 -11 -20 -41
t-13 -46l-4 3l-5 -11q-14 -30 -14 -46q0 -1 2 -3l2 -2v-2q-4 4 -10 4q0 -9 -5 -20t-5 -20v-6l3 -4l-3 -10q-2 -9 -4 -16v10q0 7 -2 7t-2 -7t2 -7v-8q-18 -59 -25 -59h-3v2q0 7 -1 7z" />
    <glyph glyph-name="X" unicode="X" horiz-adv-x="801" 
d="M204 67l101 120q0 3 21 28t29 31l14 21l1 2l-2 2l-11 22v-1l-2 7q-23 34 -26 56l-8 9q3 4 -6 12.5t-9 13.5l-6 11q0 5 -10 18l-22 39l-5 18q-1 1 -7 13l-3 4h1l-2 2q-1 -1 -2 -1l-6 16v-1q-1 1 -5.5 12.5t-8.5 13.5l-4 11q-9 18 -9 26l-16 24l-7 21q-6 3 -6 16l-7 9
q-1 2 -2.5 9.5t-6.5 11.5l-7 18l-12 20l-9 28l-4 6l-11 28q0 2 -8.5 22t-10.5 23l-14 18q0 4 -10 25t-10 29q0 6 1 9q8 13 24 13q13 0 21 -9h4q14 -9 23 -24h-1q2 -2 8 -2l2 -12q0 -4 2 -4l2 -3v1l42 -125q11 -8 18 -24q0 -8 1 -9v-11l45 -93l3 -6q0 -2 0.5 -4t1.5 -3l1 -2
v-1l60 -118h-1q5 -4 11.5 -10.5t10.5 -11t3 -5.5l-1 -1l53 -105l6 -5q3 7 7 12t12 12.5t14 14.5q4 9 20.5 26.5t32.5 22.5v1q0 17 22 29l6 7q4 8 16 18l6 5l96 116l5 1q0 6 5 13q1 15 14 22l-1 -2l4 4h-1l4 6q0 1 12 19t33 39v-1q0 1 1 3l1 2l5 7l13 14q3 0 34 63l4 7
q-22 1 -22 17q0 13 11 30.5t11 18.5l24 23v-1l7 6q12 2 18 2q45 0 45 -44q0 -25 -31 -61l-6 -6q-9 -9 -9 -12q0 -1 0.5 -4t0.5 -4q0 -8 -5 -13l-1 -2q-1 -1 -1 -4l-5 -4q-1 -1 -9 -5l5 -1l-13 -20q-1 -6 -11.5 -21t-12.5 -17l-9 -13q-4 -7 -12 -12l-5 -5v-4q-1 -16 -14 -16
l-5 -3q0 -9 -12 -22.5t-12 -14.5l-7 -7q-1 -1 -10.5 -12.5t-16.5 -15.5v1l-63 -76h1l-10 -14l-2 -9l4 -1q-62 -54 -137 -144v1q-1 -1 -2.5 -3t-2.5 -3.5t-3.5 -3.5t-6.5 -4v1q-1 -1 -1.5 -2.5t-1.5 -2.5h3v-12q6 -8 11 -18.5t5 -11.5h-1q5 -4 5 -11l-1 -8l76 -115
q29 -38 29 -55v-1q-1 -1 -1 -2l1 -2h1l103 -151l6 -7h-1l6 -7l4 -5q1 0 5 -8l8.5 -17t5.5 -13l6 -9l4 -15q5 -5 9 -21l2 -7v1q2 -4 2 -8l-2 -13q1 -2 1 -7q0 -11 -6.5 -19.5t-16.5 -8.5q-25 0 -31 19h1q-5 6 -5 12v2l-82 136l-9 27h1l-5 6q-13 12 -21 24l-1 1q-1 1 -2.5 1
t-2.5 1l-2.5 2.5t-3 3.5t-3 5t-2.5 7t-2 9l-8 12q-7 10 -16 18l-26 49l-11 22q-4 5 -15 25l-15 24l-4 16q-10 8 -12 11l-4 10v-1l-8 12q-8 12 -9 19l-10 13l-3 10q-1 -2 -17 -15.5t-19 -15.5l4 -4q-6 -6 -9.5 -13.5t-8.5 -12.5l-1 -1l-3 -3q-19 -23 -29 -26v1l-6 -7
q0 -5 -3 -6l-12 -8q-2 -11 -23 -37v-4l-85 -104v1q-24 -27 -106 -139h1l-6 -20l-5 -5q-4 -5 -9 -10t-5 -6l-7 -10q-2 -12 -8 -20l-3 -10v1l-3 -4q3 0 8 2t7 2q7 0 13 -7q0 -10 -16.5 -29t-42.5 -19q-2 0 -3 1q-7 -5 -12 -5q-11 0 -15 11h1q-6 6 -6 19q0 6 1 9q0 33 16 40v-1
l4 3h-1q2 7 12 20t10 37q2 -2 3 -2q2 0 6 7q86 135 164 220l-2 4q-1 2 -1 4q0 7 19 15z" />
    <glyph glyph-name="Y" unicode="Y" horiz-adv-x="936" 
d="M375 -422q39 -99 151 -140h5q9 0 17 -3q2 1 6 1t7 -1l7 6q3 0 16.5 5.5t20.5 6.5l8 7l2 2q5 2 5 6t-6 9q8 2 13.5 4.5t8 4t6 6t4.5 5.5l6 6h-1l8 11q6 15 12 21l3 14q0 6 2 8h-1q16 32 16 38q0 1 -0.5 2.5t-0.5 2.5l1 4l3 15t5 22t7 27t8 29q0 3 -1 4q0 6 1 16l2 10
q0 20 3 45t5.5 40.5t3.5 17.5q-1 3 -1 8q-1 3 0.5 8t3 14.5t1.5 21.5v17l1 7q-1 14 1 17v26q0 1 1 2q-1 1 -1 7v25l-5 -2l-16 -14l-8 -1l1 1l-5 -4h1q0 -1 -2 -3l-3 -3l-19 -16l-12 -8q-4 -2 -5 -2q-2 0 -4 1q1 -1 -4 -5.5t-13.5 -9.5t-14.5 -6h1l-7 -3v1l-15 -16
q-4 -4 -5 -4l-18 -15l-10 -1l-9 -8l-20 -18v1q-17 -17 -24 -19l-28 -28q-4 -2 -12 -17t-24 -20l-5 -5h1q-12 -14 -22 -35l-14 -14h1q-3 -6 -7 -7l-15 -17v-4q0 -7 -3 -13v-5q-16 -42 -21 -48q5 -10 5 -12v-1q-1 -1 -1 -2l-5 -5q5 -7 7 -18zM807 42l-11 -29q-2 -31 -5 -121
t-9.5 -148t-21.5 -121v-3q0 -5 -2 -7v-6q0 -16 -10 -32l3 -3q0 -14 -12 -16v-7q0 -14 -8 -17v1l-2 -2q-6 -19 -11.5 -30t-9 -15.5t-13.5 -15t-18 -19.5h1l-21 -23q0 -1 -8 -10l-16 -13q-5 -3 -14 -3l1 -1q-10 -9 -34 -13l-23 -7h1q-6 -4 -20 -4q-11 0 -23 3l-23 3
q-15 2 -19 5l-7 3q-3 0 -16 7.5t-18 8.5l-7 8v-1l-17 14v-1q-36 27 -41 41l-10 8v-1l-6 3q-4 4 -4 6l-4 -1l-3 8q-14 18 -17 29v-1q-8 11 -9 13l-6 10l-3 15v-1q-4 4 -4 62q0 22 3 28l6 18q1 5 4 12.5t6 13.5t3 7l23 32v2l2.5 5t2.5 4l7 8h-1l10 13q14 16 18 19l3 6
q0 1 10 10t27.5 25.5t31.5 30.5l24 24v-1l27 23v-1l4 4q3 3 4 3q2 0 30.5 24t35.5 24q4 0 13.5 10.5t19.5 11.5l3 2q1 1 13.5 13t25.5 20t27 9l4 5q3 1 12.5 9t17.5 10h-1q1 0 3 2l3 3l9 2l2 2v64q0 1 -0.5 4t-0.5 5q0 5 2.5 39t2.5 70v16q0 46 2.5 64t2.5 42v29
q2 19 1.5 29.5t0 21.5t3.5 24v11q2 35 7 88t7 55l1 1q-3 3 -3 12q0 7 2 15v3q0 17 2.5 45t2.5 37v5q0 1 1 4v4l1 6q1 11 2 13v24l-4 -5q-3 -5 -13 -17v-4q0 -10 -5.5 -17.5t-5.5 -12.5l-12 -15q-15 -42 -28 -42l-2 -5q0 -7 -7 -22t-7 -18l-7 -15q-3 -11 -11 -17v-6l-13 -15
l-2 -4l-4 -9l2 -6l-6 -20l-7 -9q0 -1 -1 -4l-1 -3l-5 -10q-2 -2 -2 -8l-3 -10q-3 -11 -9 -25.5t-11 -19.5l-4 -4v1l-6 -7q0 -10 -4 -16l-5 -7l-2 -4q-31 -52 -31 -85l-6 -8q-1 -12 -10 -30l-7 -12q0 -15 -15 -54q-5 -7 -8.5 -15t-5.5 -13.5t-3 -10t-2 -7.5v-3l-8 -9
q0 -2 -12 -37l-17 -18q2 -6 2 -14q0 -4 -2 -8t-2 -5t1 -1q-10 -16 -16 -34l-3 -8q0 -1 -3.5 -7.5t-5.5 -6.5h-1l-1 -8l-11 -16q-2 -11 -9 -18l-5 -7l-2 -6q-5 -15 -6 -16h1l-2 -4l-2 -4t-1 -3l-8 -9h1q-28 -36 -39 -47l-21 -20v1q-25 -23 -50 -23q-18 0 -26 5
q-5 2 -13.5 8.5t-20 23t-11.5 33.5l-2 3q-9 18 -9 39l-3 11q-3 3 -3 33q0 7 2 15l-2 6q-2 6 -2 42v11q0 23 2 28q-3 3 -3 8q0 3 1 6q4 15 4 124q3 56 6 63l7 12q-2 4 -2 12q0 7 1 10v1q1 -1 2 4q1 10 2 11q-2 4 -2 8q0 26 2 32v15q0 1 1 4l2 18v5q0 3 1 4v-1q2 14 2 29
q1 24 4 51t3 74q-2 6 -2 18q5 20 5 82q-1 3 -1 12l-1 -1h1l-8 -9q0 -9 -19 -36l-6 -7q-4 -4 -5 -7l-7 -7q1 -1 1 -3q0 -8 -7.5 -16.5t-7.5 -14.5l-6 -9q-2 -2 -24 -48l-4 -8l-2 -5l-5 -10l-21 -29q0 -16 -15 -31h1l-5 -7v-5q-3 -3 -11 -18.5t-8 -16.5l-10 -21l-8 -10
q-10 -10 -15 -37t-17 -43q-12 -22 -18.5 -27.5t-24.5 -5.5q-16 0 -21.5 7t-5.5 24q0 27 22 53q4 2 7 18.5t7 22.5l3 7q5 8 8 15q2 4 6 5t8 7.5t7 25.5l4 7q4 8 9 16.5t11 16.5t9 9q-1 1 -1 2q0 5 7.5 13t7.5 11v6q3 12 11 18l7 5l3 18l14 18q5 16 14 28l4 6v-1
q2 9 16.5 35.5t18.5 28.5l6 10q1 11 4 14h-1l12 15q3 4 11.5 19t18.5 27l10 14q2 9 8 14l14 12v-1l11 10q3 3 10 3q5 0 11 -3l17 -16q6 -8 6 -24q0 -8 -3 -29q1 -3 1 -9l-1 -2v-5.5t-0.5 -8t-1 -10t-0.5 -11.5v-38q-18 -233 -30 -457q0 -3 -2 -23.5t-2 -25.5q0 -1 0.5 -5
t0.5 -7q0 -11 -3 -19q2 -6 2 -9q0 -1 -0.5 -3.5t-0.5 -3.5q1 -2 1 -7t-3 -13q5 -10 5 -13q0 -1 -2 -9t-2 -13v-8q0 -7 2 -11v-10h-1l1 -1l2 -4l4 -7v-22l5 -32l5 -24l3 -18q0 -1 -1 -1q6 -6 8 -10l13 -6q-5 -5 -5 -6h11l36 35h-1l4 17q7 13 18 21q0 -3 2 1q10 34 22 46l6 6
q2 2 4.5 10.5t5.5 12.5q18 57 28 67l5 7l-1 -1q0 5 2 8l4 6q0 7 4.5 15.5t5.5 10.5v-1q2 12 11 25l5 10v6q1 17 7 31v-1q0 5 2 8l3 6q1 1 2.5 5.5t4.5 11.5t6 11l1 3q2 11 6 15h-1q3 4 6 19.5t12 22.5l6 19q1 6 12 35t16 39l6 10q0 3 6 11l4 7q2 14 7 18l4 6q5 28 16 39
q0 23 18 41l2 3q-1 1 -1 5t7 20l8 19q0 3 2 7l3 7q8 11 8.5 16t1.5 6l5 10q0 8 5 15l10 22l8 10h-1q0 6 9 15l5 12q5 5 9 11.5t10 12.5h-1l9 20q1 0 11 12h-1l3 6l2 5q3 4 6 9l2 5l9 18q0 2 13 22.5t22 31.5v5q-1 1 4 10v-1q0 7 21 25q12 4 16 4q10 0 23 -16t16 -18
q0 -3 -2 -11t-2 -16l4 -6h-1l2 -2l1 -2q-7 -7 -7 -12v-4q0 -16 -5 -22q1 -4 1 -17q0 -33 -4 -45q0 -1 0.5 -5t0.5 -6q0 -5 -1 -7q-32 -330 -35 -563l3 -11q6 -12 6 -17q0 -10 -8 -12q5 -7 5 -10l-6 -12l3 -3q0 -6 -3 -12q2 -8 2 -10q0 -5 -1 -7l10 -16q5 -7 5 -10
q0 -5 -7 -11z" />
    <glyph glyph-name="Z" unicode="Z" horiz-adv-x="755" 
d="M319 310l78 84h3q0 6 19 25h-1l21 23l5 -3q0 5 5 10h-1q0 2 2.5 5.5t8.5 8t14 7.5q0 8 12 19h-1l9 11h-1q9 11 21.5 23.5t28.5 27.5t23 22l10 12h-1q13 18 21 22q13 17 33 29q2 2 4 3l10 11q4 4 8 9.5t7 8.5t8 6v-1q7 7 15 20.5t26 34.5l14 22q5 10 9 16.5t6.5 8.5
t4.5 6.5t3 12.5l1 1q-11 2 -21.5 3.5t-18 1.5t-12.5 -0.5t-8 -1.5h-4q-6 0 -9 -1q-2 0 -10.5 0.5t-11.5 0.5l-46 1q-1 0 -3 0.5t-3 0.5l-15 -1q-69 3 -82 7l-24 2q-50 0 -58 6h-14q-13 0 -15 2h-2q-7 0 -32.5 4t-31.5 4q-12 0 -53.5 9.5t-49.5 9.5l-13 4l-7 -1q1 0 -3 1
q-57 15 -57 35q0 10 4 18q4 5 6 7t5.5 3t10.5 1q29 0 57 -14v1h3q9 0 23.5 -4.5t25.5 -4.5q1 0 3 1l4 -1q4 -1 6 -1h1q1 1 2 1t3 -1l16 -3h2q17 0 39.5 -4t27.5 -8l4 1q11 0 14 -1l30 -3h2q2 -1 4 -1h6q2 -1 10 -1q5 0 5 1q27 -2 27 -5h12l55 -2l14 -1l47 -3h64
q3 0 6.5 -0.5t4.5 -0.5h5l2 -1h4l6 1q65 0 78 -8l2 1h6q11 0 18.5 -5.5t7.5 -11.5q0 -5 -4 -8v-1q14 -14 14 -18q0 -13 -27 -50l-1 -2q0 -1 0.5 -2.5t0.5 -2.5t-6 -6t-12 -14t-6 -18l-5 -5v-3l-6 -4q0 -3 -4 -7.5t-7.5 -7.5t-4.5 -3q0 -1 -1 -3l-3 -7q-2 -7 -16 -23t-21 -19
q-1 0 -2 -2t-2 -4.5t-3 -3.5l-6 -9l-18 -11v1q-2 -2 -5 -7t-5.5 -8t-6.5 -3h-1l-21 -22h1l-14 -17l-10 -8l-2 -2q-23 -23 -27 -26q-3 -7 -13.5 -18.5t-17.5 -11.5l-5 -10q-19 -30 -33 -31q-39 -44 -39 -47l-7 -8q-21 -26 -30 -29q-15 -22 -26 -32l-4 -4q-2 -7 -8 -9l-8 -6v1
q-2 -2 -2 -3t0.5 -2.5t0.5 -2.5q0 -2 -8 -6.5t-8 -8.5l-14 -14l-78 -93h1q-3 -1 -5 -9l-13 -15l1 1q0 -4 -8 -15t-15 -12l-95 -127l-3 -4q-10 -10 -10 -17t-2 -9l-7 -6q0 -5 -5.5 -13.5t-11.5 -10.5v-2q0 -8 -6.5 -12.5t-6.5 -9.5v1q-3 -3 -3 -7l-4 -11q-2 -4 -8 -10v-8
q-2 -3 -7 -12v1q-3 -17 -10 -20v1q-4 -17 -4 -25l-3 -8q-1 -1 -1 -4q0 -12 1 -12l14 -8q6 -5 11 -7t7 -3.5t4 -5.5h2q1 -1 7 -1l9 -3q11 -8 53 -19t79 -11h8q18 -2 21 -4h4q4 0 6 -1q6 -5 55.5 -11.5t59.5 -6.5q3 0 11 2t11 2q28 -2 59.5 -3t48.5 -2t19 -1q5 2 10.5 2.5
t15 0.5t16.5 1h9h1q2 1 3 1h4q2 2 51 9t65 7l1 -1q1 0 8.5 4t13.5 4l8 2q7 3 19 7t25 9t26 12t20 13l7 3v-1l5 5q5 0 20 20l14 16q0 12 10 17v-1l4 5h-1q3 11 11 22t12 22l5 9q0 2 3 7l3 8q1 5 8 17l-1 1q1 5 3 6q-1 1 -1 8q0 5 9.5 21.5t14.5 16.5q2 -1 15 -37q0 -3 -1 -4
l-6 -6q3 -3 3 -15q0 -30 -10 -42l-6 -21l-7 -18q-2 -6 -9 -13q-4 -4 -5.5 -8.5t-0.5 -7t0.5 -4t-4.5 -1.5t-6 1l1 -2v-1l1 -2q0 -2 -1 -3.5t-2 -4t-2 -4.5l-8 -10q-8 -14 -30 -33t-31 -19l-1 -1q-2 -7 -44 -26l-43 -16l-37 -8q-38 -12 -54 -12q-2 0 -23.5 -2.5t-59.5 -4.5
t-81 -2q-45 0 -81.5 1.5t-55.5 3t-22 1.5q-108 5 -119 16h1l-17 3q-25 3 -33 5l-22 4q-16 0 -22 6v-1q-20 8 -44 8q0 1 -7 3t-16.5 4.5t-13.5 5.5l-9 6q-16 6 -46 28l-4 4q-4 4 -10.5 8t-8 7.5t-1.5 13.5q0 41 26.5 97t43.5 77l6 5h-1l11 20q1 0 3.5 3.5l5 7t4.5 5.5l4 7
q2 9 18 31l5 9q3 5 6 5l2 2h-1l18 23q0 3 2 6l7 10q0 7 14 14v3l12 12q2 2 6 9t19 22h-1l7 10q25 38 44 57l12 12q0 3 16 19l9 14q2 3 9.5 9t9.5 10v-1l2 2q2 2 4.5 5.5t2.5 6.5z" />
    <glyph glyph-name="bracketleft" unicode="[" horiz-adv-x="819" 
d="M479 1084q28 2 75 2q17 0 36 -2t30.5 -4t12.5 -3q-3 3 7 -1l38 -13q11 0 41 -22.5t30 -38.5q0 -17 -9 -32t-18 -15q-4 0 -15 17t-18 17q-1 0 -16 6.5t-32.5 12.5t-22.5 6q-1 0 -2.5 -0.5t-2.5 -0.5l-33 5q-7 1 -15 1q-3 -1 -11 -1q-7 0 -9 1q-3 0 -62 -5.5t-65 -5.5
q-2 0 -3 1h-1l-1 -1q0 -1 -44.5 -9t-44.5 -20q0 -31 5.5 -91.5t5.5 -114.5q0 -1 -0.5 -3.5t-0.5 -4.5q0 -1 0.5 -16t0.5 -32q0 -18 -1 -27t-1 -14q0 -40 3 -54v-4q0 -3 -1.5 -9.5t-1.5 -15.5v-106q0 -5 1 -14t0.5 -20t-3.5 -31v-12t0.5 -10.5t0.5 -8v-5.5v-2q0 -3 -2 -4
q-1 -1 -1 -2t0.5 -3t1 -6t0.5 -10q-5 -40 -5 -65q0 -20 -5 -65.5t-5 -100.5q0 -2 0.5 -4.5t0.5 -3.5q0 -2 -1.5 -6t-1.5 -10v-3q0 -5 -1.5 -8t-1.5 -6t1 -11t1 -10q0 -7 -2 -10.5t-4 -4t-2 -1.5q0 -2 2.5 -3.5t2.5 -3.5q0 -1 -1 -5t-1 -7q0 -6 1.5 -19t1.5 -16q0 -6 -3 -7
q-1 0 -1 -1l1 -4q2 -4 2 -9q0 -2 -1 -13.5t-2 -30t-1 -37.5q0 -94 14 -187.5t26 -105.5q4 -7 32 -15.5t43 -8.5h5q-1 -1 8.5 -3t31 -4t47.5 -2q24 0 46 1.5t38.5 3.5t31 4.5t25 5t17.5 4.5t11 3l5 2q6 2 10.5 4t6.5 3.5t3 1.5q3 0 6.5 -3t3.5 -5v-1q0 -1 4.5 -3.5t4.5 -4.5
l-15 -26q-2 -5 -2 -6v-1q0 -8 -12 -11q2 -1 -3 -3q-33 -17 -107 -26q-24 -3 -43 -3q-20 0 -63 2.5t-45 2.5q-42 0 -73 7.5t-68 33.5q-18 14 -38 116.5t-20 167.5q0 3 1 10.5t1 22.5q-1 6 -1 28q0 17 1 51.5t1 41.5q0 2 -0.5 4t-0.5 4q0 7 1.5 16.5t1.5 14.5v4q2 8 2 26
q1 31 7 108.5t6 98.5v7q4 40 4 85v7q4 12 4 23q0 25 -0.5 47.5t-0.5 40.5q0 9 0.5 26t0.5 25q0 13 -1 36t-1 26q0 10 1 21t1 23q-1 10 -1 41q2 13 2 42q-2 40 -2 46v5l1 3q0 1 -1.5 32.5t-1.5 42.5q0 15 -4.5 62t-6.5 50q-1 0 -1 2t2 6q0 1 -2 11.5t-3.5 23.5t-1.5 20
q0 25 15.5 31t52 5.5t62.5 8.5q2 1 14 3t26.5 4t29.5 4t24.5 3.5t9.5 2.5z" />
    <glyph glyph-name="backslash" unicode="\" horiz-adv-x="690" 
d="M104 858l5 -2q1 0 7 -1.5t9.5 -4t11 -8t16.5 -17.5t20 -29q5 -7 9.5 -14t7 -10.5t4.5 -6.5t2.5 -5t0.5 -3q-1 -1 -1 -2q-1 -1 2 -10q16 -59 16 -61l2 -11q1 -11 2.5 -23.5t3.5 -15.5v-4q2 -4 8 -17q18 -36 17 -43l34 -76q0 -1 23 -42.5t22 -50.5q-1 -2 22 -47t26 -49
q-2 1 8 -21.5t24 -51t22 -42.5q4 -4 13 -26l60 -116q15 -33 23.5 -50.5t11.5 -22t13.5 -29.5t31.5 -76q10 -19 18 -40t13.5 -39.5t10 -36.5t7.5 -32.5t4.5 -25.5t2.5 -17l1 -6q-2 -14 -10.5 -23.5t-23.5 -2.5q-9 4 -15.5 12.5t-5.5 14.5q0 2 -9 22.5t-18 45.5t-8 37v1
q-1 0 -4.5 8.5t-7.5 19t-6 13.5q-2 4 -6.5 19t-24.5 59.5t-57 114.5q-27 61 -71 139q-10 12 -25 52q-2 4 -45 89q-21 41 -33 68.5t-15.5 37t-12.5 27t-25 45.5q-54 93 -64 130q-1 4 -12.5 32.5t-21 55t-9.5 32.5q0 2 -15 31.5t-13 57.5l1 2q0 1 -2.5 5.5t-4.5 11.5t-2 14
q1 5 13 10t19 4z" />
    <glyph glyph-name="bracketright" unicode="]" horiz-adv-x="572" 
d="M323 1129l2 1h3q39 0 47 -37.5t8 -224.5q0 -4 -1 -13t-1 -13q0 -5 2 -9l-3 -73q-2 -74 -5 -136.5t-6 -65.5q-1 -1 -1.5 -18t-1.5 -36.5t-2 -23.5q0 1 -2 -16.5t-5 -47.5t-6 -63.5t-5 -70t-2 -61.5v-5q0 -1 -1 -8.5t-2 -22.5t-2 -35.5t-2 -55t-1 -74.5q0 -67 2 -189.5
t2 -146.5q0 -22 1 -55q2 -54 -8.5 -66.5t-73.5 -28.5q-18 -4 -28 -7q-1 0 -16 -7.5t-34.5 -12t-43.5 -4.5q-3 0 -19.5 -4.5t-40.5 -4.5q-51 10 -56 64q0 38 23 38l4 -2q7 -7 13.5 -15.5t9 -11t7.5 -4.5t14 -2q20 0 61 13q20 6 33.5 11t17.5 7t12 4.5t22 5.5l21 5l1 11
q1 6 1 51v19v2v8.5t0.5 13.5t0.5 19v23.5v29v33.5l-3 225v1q0 154 10.5 264t10.5 112q8 80 11 148q11 121 11 283q0 197 -10 197t-17.5 -3.5t-13.5 -3.5h-2q0 -1 -7.5 -3.5t-16.5 -6t-12 -6.5l-19 -6q-1 0 -3 -1q-24 -10 -27 -10q-59 0 -59 42q0 35 148 64q60 13 60 16z" />
    <glyph glyph-name="asciicircum" unicode="^" horiz-adv-x="487" 
d="M427 274q-20 0 -30 6.5t-19 24.5q-2 10 -13 24q-5 4 -22 50t-25 75q-9 37 -30 115q-17 70 -20 70l-7 -11q-7 -10 -18 -32.5t-17 -45.5q-3 -7 -5 -11.5t-3.5 -5.5t-2 -2t-0.5 -2t-2.5 -6t-2.5 -9v-1q0 -5 -6.5 -18.5t-15.5 -30t-10 -17.5t-12.5 -32.5t-23.5 -42.5
q1 0 -2 -5t-7 -12.5t-4 -12.5q0 -2 -3 -10t-11 -17.5t-19 -9.5q-12 0 -16 1h-2q-10 0 -20.5 7t-10.5 16q0 2 2.5 7t2.5 8v1q0 2 3.5 4.5t3.5 3.5t3.5 8t3.5 8v2q0 1 1.5 2t1.5 3v1q0 4 2 4q3 0 19 30.5t16 38.5q0 4 6 17.5t12 25t6 10.5v3q1 1 20 38q28 54 28 56v1
q0 1 5 7.5t10 18t5 24.5v2l25 60q8 22 11 34q2 9 4 14.5t5 9t3.5 4.5t5.5 3.5t6 2.5l4 1q1 0 11 -5t16 -5q11 0 25 -39t23 -86q37 -152 68 -252q4 -11 6.5 -19t2.5 -9.5t0.5 -3t3.5 -2.5l3 -5q30 -48 30 -63q0 -13 -4.5 -16t-19.5 -3z" />
    <glyph glyph-name="underscore" unicode="_" horiz-adv-x="700" 
d="M541 -80q2 1 4 1q14 0 52.5 -9t45.5 -14q9 -9 9 -33q0 -11 -11 -11q-2 0 -3.5 1t-2.5 1l-2 -2q-2 -2 -19 -2q-6 0 -17 0.5l-22 1t-21.5 1t-17.5 1.5h-6q-1 -1 -154 -3q-78 -1 -136.5 -2t-82.5 -2t-26 -1q-48 0 -64.5 7.5t-16.5 27.5l1 2q20 15 23.5 17.5t36 8t84 6
t164.5 0.5q179 0 182 3z" />
    <glyph glyph-name="grave" unicode="`" horiz-adv-x="399" 
d="M56 1134q7 7 10 7q2 -3 17.5 -9t15.5 -11v-2l1 -1q0 -1 1.5 -5t4 -8.5t8.5 -12t14 -15.5q9 -11 20.5 -27.5t17.5 -23.5t12 -7q0 -1 12 -10.5t23.5 -21t11.5 -17.5l3 -2q4 -3 8.5 -6t7.5 -3t33 -31t30 -33v-1q6 0 33 -50q1 -2 1 -5q0 -1 -1.5 -4t-1.5 -4q0 -5 5 -8t5 -10
q0 -10 -10 -10q-6 0 -8.5 1.5t-5.5 6.5t-6.5 11.5t-14 17.5t-25.5 23q-29 21 -100 93l-25 24q-67 62 -71 72l-4 5q-3 5 -7.5 13.5t-9 18t-8 18.5t-3.5 13q0 6 6 14z" />
    <glyph glyph-name="a" unicode="a" horiz-adv-x="715" 
d="M134 76q3 0 12 7.5t10 12.5q51 67 93 106q4 4 26 47.5t31 53.5q8 10 23.5 41t23.5 41q26 33 26 34v1q-5 15 -46 26q-3 2 -15 2q-45 0 -59 -14q-3 1 -24.5 -18t-21.5 -22v-1q-2 -4 -9 -15t-13 -21t-6 -12q0 -7 -4.5 -16t-8.5 -15l-4 -6v-1l1 -1l-2 -14q-2 -13 -4.5 -27.5
t-6.5 -22.5v-3q0 -1 -7 -11t-7 -22q0 -2 1 -3q0 -4 -4.5 -12.5t-4.5 -11.5v-3l1 -1q0 -2 -3 -6t-3 -6v-2l-1 -2q-1 -2 -2 -6.5t-2 -9.5t-2 -11.5t-1 -12.5v-3q-1 -3 -1 -7t1.5 -9t1.5 -7v-1q0 -5 3 -10.5t8 -5.5zM251 497q10 2 25 2q103 0 129 -34l7 -6l27 33l16 2
q1 0 4 0.5t5 0.5q19 0 21.5 -8.5t15.5 -106.5q2 -18 8 -78t10.5 -102t5.5 -44q7 -29 16 -50l13 -16q13 -17 13 -21q0 -2 6.5 -8.5t16.5 -12.5t19 -6q3 0 11 5t10 5q3 0 3 2q24 13 25 25l6 6q5 6 13 12.5t14 6.5l4 -2q4 -1 6 -1q4 0 6 2.5t3 2.5q7 0 7 -7q0 -1 -1 -4.5t-3 -9
t-3 -9.5q-2 -6 -8.5 -12t-12.5 -23v-2q0 -11 -28.5 -31t-43.5 -20q-4 0 -13 1.5t-13 1.5t-15 6.5t-15 6.5h-1q-1 0 -8 6t-10 6q-2 0 -2 -1q-6 0 -18 15t-13 15q-12 7 -21.5 32.5t-18.5 75t-13 79.5t-12 91q0 4 -2.5 7.5t-5.5 5.5l-2 2q1 1 1 3q0 27 -6 27q-5 0 -29 -30
q-8 -9 -12 -20.5t-5 -18t-3 -6.5q1 0 -11 -23t-29.5 -46t-29.5 -23q-5 0 -5 -5v-2l-3 -7q-2 -7 -7 -18.5t-10.5 -22.5t-13 -19t-13.5 -8q-2 0 -4 1l-1 2q1 0 -2.5 -4t-7.5 -8.5t-4 -6.5q0 -1 2 -2.5t2 -2.5q0 -12 -70 -82q-27 -34 -66 -34q-5 0 -29.5 16.5t-27.5 26.5
q0 31 11 65q0 2 -1 4t-1 5q0 63 13 83q-1 -1 6.5 19t15 43.5t7.5 28.5t12.5 48t15.5 46t3 6q-1 6 15.5 34.5t26.5 38.5q12 13 26.5 23.5t24 15.5t12.5 5h2q1 0 4.5 3t7.5 4z" />
    <glyph glyph-name="b" unicode="b" horiz-adv-x="538" 
d="M303 90q62 99 89 255q3 18 3 19v3q0 1 0.5 3.5t0.5 3.5q0 4 -2 8.5t-2 6.5l1 2q0 5 -3 10.5t-8 5.5q-3 0 -12 -7.5t-10 -12.5q-53 -71 -93 -106q-21 -24 -55.5 -94t-48.5 -89l-11 -13l14 -40q4 -2 10 -5.5t10 -4.5t12 -1q33 0 47 8l12 7q3 -1 24.5 18t21.5 22v1zM186 626
l-6 -52q0 -3 -0.5 -7t-0.5 -5q0 -4 1 -5q-7 -21 -7 -41q0 -5 2 -7l-4 -14l-5 -37l-15 -160q0 -1 -0.5 -5t-0.5 -6v-12q0 -10 -3 -12.5t-3 -5.5q0 -1 0.5 -3.5t0.5 -4.5q0 -18 -3.5 -43.5t-3.5 -41.5q1 2 68 118q5 20 24 47q47 73 67 84q3 1 5.5 5.5t12.5 17.5t28 31
q29 34 66 34q5 0 29.5 -16.5t27.5 -26.5q0 -31 -11 -65q0 -2 1 -4.5t1 -5.5q0 -31 -5 -49q-3 -6 -2.5 -21.5t-2.5 -20.5l-7 -20q-7 -20 -14.5 -43t-7.5 -28t-13.5 -43t-17.5 -42q-3 -3 -3 -6q1 -6 -15.5 -34.5t-26.5 -38.5q-12 -13 -26.5 -23.5t-24 -15.5t-12.5 -5h-2l-3 -3
q-4 -2 -12.5 -4t-21.5 -2q-49 0 -115 17v-1q-6 6 -11 6l-11 7q-12 7 -30.5 58.5t-19.5 87.5q0 9 2 13h-1q3 3 3 7v1l1 -1q0 1 2 13v-1q2 8 2 13v4q0 4 3 6h-1q0 2 6 4q4 -3 6 -3q1 0 4 14.5t5.5 32.5t2.5 26q0 2 0.5 4t0.5 4l4 18v3q0 17 5 45q3 16 3.5 28.5t0.5 17t1 5.5
h-1q1 4 1 5v3q0 1 1.5 6t2.5 14t1 19q0 34 1.5 53.5t4.5 37.5t4 32v-1l6 18q0 74 6 96q-2 2 -2 7q0 2 0.5 4.5t0.5 3.5q0 3 -0.5 7t-0.5 7q0 1 0.5 5t0.5 6q0 9 -1 13v2v1l1 2q0 5 -6 9t-12 16.5t-6 38.5l6 18q-1 2 -1 6q0 2 1 6t1 7v2q-1 2 -1 3q9 13 9 18v2q2 2 2 4l-1 2
q-1 2 -1 3l4 8q5 5 22 5l12 -8q13 -8 15 -8l5 -4q6 -7 7 -15v-3q0 -9 4 -30.5t4 -22.5q0 -5 -2 -9v-5q0 -1 0.5 -4.5t0.5 -4.5q-1 -5 -1 -16v-22q0 -27 -3 -37v1q-2 -4 -2 -7q0 -6 4 -8h-1v-2q0 -1 -2 -3t-2 -6q0 -7 1 -10q0 -2 -1.5 -8t-1.5 -9q3 -12 3 -24q0 -9 -1 -11h1z
" />
    <glyph glyph-name="c" unicode="c" horiz-adv-x="474" 
d="M356 170q12 -12 12 -33v-3q-6 -8 -11 -13.5t-7.5 -8t-5 -4t-3 -2.5t-0.5 -2v-3q4 -1 4 -3q0 -3 -5 -8l-9 -9q-47 -43 -59 -45q-1 -1 -2 -3l-8 -6q-3 -1 -7 -3.5l-12 -7.5t-17 -10q-33 -20 -46 -20q-2 0 -12 2.5t-16 2.5q-38 0 -68.5 31.5t-30.5 63.5v4q-1 3 -1 13t1 13
q1 13 6.5 46.5t6.5 33.5h1q0 3 2 7l3 12v1q1 1 1.5 4t2.5 5q0 9 -1 10q5 0 6 1l1 -4v6h1q4 11 7.5 21t6 16t4 10.5t1.5 6.5l1 1l10 22v-1l9 16q9 24 14 28v-1q0 1 1 2l1 10l3 -5q1 6 3 11h1l7 11q4 11 13 24l-1 -1l7 9v-1l16 17l22 29q29 14 30 20l2 2l15 9h12l13 -1
q9 0 19 -5v1l7.5 -3t3 -1h1.5t3 -1l7 -3.5t14 -8t23 -14.5l13 -9q3 -10 11 -17l8 -21h-1q2 -2 8 -10v1q2 -2 2 -27q0 -14 -6.5 -22.5t-15.5 -8.5q-3 0 -4 1l-21 9v22q0 23 -12 42l-5 -2q-2 -1 -3 0t-2 3.5t-8 5.5t-19 5h-1q-9 0 -20.5 -4t-18.5 -9t-6 -7l-2 1
q-25 -21 -26 -22l-1 3l-1 -1v-2v-12l-10 -12v-1l-8 -8q-5 -3 -10 -8t-7 -8t-1 -3l-1 -8l-7 -13v-1l-1 2l-18 -42l-1 3q-1 -10 -6 -22.5t-10 -15.5q-2 0 -5 -9t-6.5 -20t-4.5 -13h1q-5 -16 -5 -23l-3 -7q-4 -10 -4 -15l-4 -16q0 -3 -3 -19t-3 -23q3 -23 21 -39l4 -4
q8 -13 26 -13q26 0 54 15l21 15q9 6 20 15t19 15t9 7v-1q10 15 14 19q0 1 1 1l9 8l28 27q9 10 19 10z" />
    <glyph glyph-name="d" unicode="d" horiz-adv-x="701" 
d="M333 446q-3 2 -15 2q-34 0 -47 -7l-12 -7q-3 1 -24.5 -18t-21.5 -22q-1 -4 -14.5 -25.5t-13.5 -23.5q0 -7 -4.5 -16t-8.5 -15l-4 -6q1 -1 1 -3q-1 0 -8 -34.5t-7 -38.5l-6 -10q-6 -11 -6 -16q0 -2 1 -3q0 -4 -4.5 -12.5t-4.5 -11.5v-3l1 -1q0 -4 -2.5 -6.5t-5 -5.5
t-5 -16.5t-2.5 -37.5q0 -33 14 -33q9 0 27.5 21.5t44 54.5t43.5 50q4 4 26 47.5t31 53.5q8 10 23.5 41t23.5 41q26 33 26 34q-3 15 -46 27zM107 -18q-5 0 -29.5 16.5t-27.5 26.5q0 31 11 65q0 2 -1 4t-1 5q0 65 13 83q-1 -1 6.5 19t15 43.5t7.5 28.5t11.5 46t15.5 47l1 8
q18 43 45 72q12 13 26.5 23.5t24 15.5t12.5 5q1 0 3 1.5t5 3t11 3t20 1.5q9 0 19 -0.5t18.5 -2t16.5 -3t14 -2.5t11 -2.5t7 -2.5h2q7 0 13 -3t13.5 -8t11.5 -7q1 7 5 28l4 24q1 3 1.5 5.5t1 10.5t2.5 19l3 22q3 8 4 31v5q1 3 2 7.5t1.5 7.5t1.5 5.5t2 3.5q-1 1 -1 2t3 21
l1 -1q1 15 6 34t6 24q0 1 -0.5 2t-0.5 2v1l1 2l2 8q6 17 8 44q0 5 5.5 14.5t5.5 14.5q0 1 -0.5 2.5t-0.5 3.5q0 19 9.5 32t17 16.5t10.5 3.5q1 0 3 0.5t4 0.5q8 0 22 -10h-1q0 -1 5.5 -4t9.5 -8.5t4 -11.5q0 -3 -3 -20.5t-3 -28.5l-6 -22q0 -2 -9 -29t-10 -39l-4 -14
q-2 -2 -2 -6q0 -3 1 -5l-1 -2q-3 -9 -3 -14v1q-1 -2 -1 -4q0 -9 3 -10h-4l-1 -6q-2 -6 -3 -14t-1 -15l-3 -12v1l-1 -12q0 -2 -0.5 -6t-0.5 -5l-4 -29q-3 -6 -3 -17q0 -1 0.5 -3.5t0.5 -3.5l-7 -40q-2 -4 -2 -8q0 -7 1 -12q0 -1 -1 -3v1q-3 -5 -9 -106l-2 -13l-3 -16v-26
l-1 1v-57q0 -8 5.5 -23.5t5.5 -19.5q3 -29 13 -51l18 -43q9 -15 25 -31.5t24 -18.5l7 -2v1q2 -4 11 -4q16 0 39 23t31 43q8 6 14 12q0 -7 7 -7q3 0 4 1l3 -1q0 -7 8 -13h-1q4 -8 4 -9q0 -19 -5 -19q-3 0 -11 -20.5t-29.5 -41t-56.5 -20.5q-103 0 -155 120l1 -1l-11 29
q-1 1 -6 14v6q-3 12 -3 26q0 6 0.5 14t0.5 11q0 9 -2 9q-10 52 -13 111q-6 -9 -8.5 -18.5t-3.5 -14.5t-3 -5q-3 0 -15 -26t-21 -28q-23 -38 -34 -38q-4 0 -19 -41t-33 -41q-2 0 -4 1l-1 2q0 -1 -7 -9t-7 -10q0 -1 2 -2.5t2 -2.5q0 -2 -8.5 -13.5t-15.5 -14.5
q-3 -1 -5.5 -5.5t-12.5 -17.5t-28 -31q-27 -34 -66 -34z" />
    <glyph glyph-name="e" unicode="e" horiz-adv-x="416" 
d="M175 352q0 -1 -4.5 -13t-9.5 -26.5t-6 -17.5q49 42 89 99q9 -5 16 11t7 32q0 4 -2 4q-19 0 -54.5 -34.5t-35.5 -54.5zM239 506h3q10 2 17 2q10 0 19 -3t20 -8.5t16 -7.5h-1q13 -9 17 -15t4 -22l-4 -13l1 1l-5 -16q-9 -41 -31 -59q-7 -5 -12 -15.5t-21 -21.5
q-3 -1 -19 -19t-16 -23q-1 1 -2 1q-5 0 -13.5 -7.5t-11.5 -15.5l-1 -1q-28 -10 -46 -41.5t-18 -61.5q0 -119 38 -132h-1q1 -3 1.5 -8.5t3 -9t8.5 -5.5h1q17 -6 52 -6q48 -1 100.5 32.5t86.5 74.5q3 4 15 19t24 29.5t25.5 30.5t24 25.5t15.5 9.5h1l2 -1l3 -11q3 -6 3 -11
q0 -4 -2 -10q1 -1 1 -3q-25 -21 -25 -35q0 -1 1 -1l-5 -3q-1 -6 -8 -20.5t-10 -14.5q-19 -8 -20 -11l8 -5q-2 -1 -10.5 -13.5t-19.5 -24t-21 -11.5l-9 -17l-4 -4q-4 -3 -8 -6.5t-11.5 -9.5t-15 -11.5t-17.5 -11.5t-20.5 -11.5t-23 -10.5t-25 -9t-26.5 -6t-28 -2q-22 0 -38 4
t-18 4h-8q-4 3 -21 8q-20 2 -30.5 18t-15.5 31t-13 15q-5 0 -10 11.5t-9.5 26t-6.5 17.5q-5 10 -6 61t-2 59q21 55 22 62q1 4 1 9q0 1 -0.5 6t-0.5 8q0 2 1 6.5t3 10t4 10.5t3 8l1 3l4 10v-1q4 8 4 13q0 3 -2 5t-2 4q0 4 4.5 10.5t4.5 8.5q0 4 17 24t19 24v-1l8 9
q2 3 12.5 11.5t10.5 16.5q1 14 61 46h-3z" />
    <glyph glyph-name="f" unicode="f" horiz-adv-x="447" 
d="M355 813q0 4 0.5 9.5t0.5 7.5q0 8 -2 8q-1 0 -12 -30.5t-22 -64t-11 -39.5q0 -1 1 -1q16 0 30 39.5t15 70.5zM222 -301q-50 0 -50 23q0 -1 -8 14t-16 31t-8 17q0 8 8 9q4 0 11 -11t10 -11q9 0 9 19l-1 14q-5 38 -11 87q-8 70 -8 191q2 59 8 59q0 1 -1 2t-1 8
q0 60 10.5 131.5t10.5 107.5v4h-2q-3 0 -15 -2q-135 -26 -144 -33q-1 -1 -3 -9.5t-13 -8.5q-12 0 -18.5 2t-10 10t-4 11.5l-2.5 17.5q0 17 7 23t23.5 9.5t28.5 11.5q3 3 8.5 3.5t15.5 1t21 3.5q52 9 90 17q17 3 23 6q13 13 13 89q0 1 -6.5 4t-12 7t-5.5 8l5 7q6 7 13.5 14.5
t11.5 7.5t7.5 9.5t6.5 22.5t4 15q0 3 8 42t11 42q3 1 2.5 11t3.5 32.5t18 48.5q1 2 3 11t6 23t10 27l5 8q4 9 9.5 22t5.5 21q0 3 5 13t16 22.5t24 18.5l6 3q1 0 17 -9q26 -16 36.5 -39t10.5 -73q0 -77 -9.5 -112t-40.5 -69l-8 -10h1q3 2 1 -1q-6 -8 -53 -58q-28 -29 -31 -36
q-10 -58 -22 -99q0 -1 1 -1q10 0 16 1.5t8 3t8 5.5t14 8t13.5 8t7.5 5.5t5 1.5q4 0 7 -4l2 -4l4 2q3 3 6 3q6 0 6 -4q0 -1 -2.5 -2.5t-2.5 -2.5q0 -2 3 -2q1 0 3 0.5t3 0.5q6 0 6 -4q0 -1 -1.5 -3.5t-1.5 -4.5q0 -1 1 -4t1 -4q0 -11 -21 -23t-51 -24t-39 -18l-8 -6l-1 -25
q0 -4 -11.5 -95t-12.5 -104q-1 -19 -2 -59t-2 -69t-2 -30l1 -16q2 -15 2 -23q0 -6 -1.5 -12.5t-1.5 -8.5l1 -4q0 -4 3 -26t7 -59q2 -31 4.5 -51t3.5 -26t2 -14.5t1 -22.5q0 -39 -3 -51t-16 -13z" />
    <glyph glyph-name="g" unicode="g" horiz-adv-x="563" 
d="M355 436q-6 3 -13 3q-43 1 -109 -80q-14 -17 -20.5 -34t-8.5 -19q-10 -13 -12.5 -19.5t-7.5 -21t-17 -38.5q-10 -15 -27 -52.5t-21 -66.5q-5 -16 -5 -19q0 -1 1 -2q0 -2 -2.5 -4t-2.5 -4v-2q0 -2 -2 -10t-2 -15v-12l11 4q13 2 15 3l11 10q29 31 36 31q50 64 80 89l3 5
q4 5 9.5 13t12.5 17t15 19t15 17q3 3 5 7t3 6.5t3 2.5q4 1 12 12t14.5 21t7.5 10h2q-2 0 6 17.5t17.5 36t9.5 20.5q0 7 -15 28t-24 27zM506 413l-16 -20l-1 -42q0 -1 -0.5 -5t-0.5 -6v-9q0 -6 -0.5 -22t-0.5 -23t1 -18.5t1 -21.5q0 -1 -0.5 -3t-0.5 -3q0 -2 0.5 -6t0.5 -7
q0 -2 -0.5 -6.5t-0.5 -6.5q0 -4 1 -14.5t1 -16.5q0 -65 -4 -83v-13q-1 -28 -7 -90t-12 -88l-3 -13v-3l-1 -2q-8 -35 -15 -61t-10 -35t-3 -10v-4q0 -3 -3 -5v1q-5 -3 -5 -6l2 -2h-1v-3q0 -32 -26 -76q-8 -25 -22.5 -41.5t-14.5 -26.5v-1q0 -3 -3 -6h1q-8 -6 -9 -10v1l-17 -21
l-3 -3l-3 -3q-4 -4 -6 -6.5t-1.5 -3.5t0 -2t-2.5 -3t-7.5 -6l-16.5 -12v1q-12 -7 -12 -9q0 -3 -13 -6.5t-14 -5.5h1q-6 -3 -15 -8t-12 -6.5t-9 -3.5t-11.5 -2.5t-13 -1t-20.5 -0.5q-24 0 -35 7v-1q-7 4 -13 5q-52 11 -89.5 55.5t-60.5 100.5l-5 7q0 4 -3 9.5t-3 7.5l-4 8
q-3 3 -3 13v3q0 7 -5.5 23t-5.5 23q0 12 1 21.5t2.5 14l2.5 7.5t2 4l1 2q0 1 -1.5 2.5t-1.5 3.5q0 13 17 42q14 6 20 16q2 -2 3 -2q-1 1 9 10t21 18l11 10v1l2 2q2 2 5.5 4t6.5 2q5 0 5 -2l-1 -1q2 -6 5 -6q5 0 7 5.5t4 5.5q5 0 5 -5q0 -1 -1 -4l-1 -2q0 -3 2 -3
q-1 -1 -3.5 -2l-5 -2t-4.5 -3t-2 -4t2 -6t2 -5t-2 -7l-1 1l-10 -13q-3 -2 -5 -3t-3 -2.5t-2.5 -4t-2.5 -4.5l-3.5 -7l-4.5 -9l-6 -12q-2 -7 -6.5 -34.5t-4.5 -37.5q0 -7 2.5 -17t2.5 -13v-4q0 -5 4 -5q17 -23 26 -53h-1q2 -3 3 -4l8 -13q6 -6 8 -12q1 -6 17 -27t24 -21h1
q1 0 2.5 -1l3 -2t3.5 -2q9 -7 15 -12.5t6 -7t5 -4t9.5 -3.5t22.5 -4h-1q12 -2 20 -2q23 0 58 31l12 9h-1l10 8q3 2 15.5 17.5t16.5 23.5l9 11q8 13 8 17l4 6l17 27q2 2 2 3l-1 2v2q0 2 2 10l5 15q4 9 7 18t4.5 14t2.5 6q6 18 21 77l10 43l9 62q17 112 17 209q0 1 -0.5 6
t-0.5 8v27q0 9 2 52t2 60l-30 -38q-1 -1 -7 -12.5t-13 -19.5q-1 -1 -11 -23t-29 -33q-4 -4 -5.5 -6t-3 -4.5t-8.5 -12t-19 -23.5q-60 -72 -67 -74q0 -1 -1 -4q-1 -11 -5.5 -13t-12.5 -5t-15 -15q-39 -39 -103 -39q-10 0 -20.5 2.5t-17 5.5t-7.5 3q-3 0 -4 -1q-12 0 -12 31
q0 27 6 41l2 6q22 63 22 80v3q0 3 2 3t9.5 20t18.5 47.5t17 40.5q3 6 7 13t7.5 12.5t6.5 9.5t4 6l2 2v1q0 8 11 26t22 33.5t11 16.5q-1 0 1.5 2t7 5.5l9 7t8 7.5t3.5 7l3 6q4 5 10.5 11.5t13.5 6.5q5 5 15 12.5t38.5 20t55.5 12.5q24 0 37 -9q1 0 5 -0.5t5.5 -1.5t7 -4.5
t13.5 -11t20 -19.5q12 24 37 24q35 0 35 -21q0 -2 -1 -6t-1 -7q0 -5 2 -11q0 -11 -3 -11z" />
    <glyph glyph-name="h" unicode="h" horiz-adv-x="789" 
d="M140 102q105 185 198.5 273.5t143.5 88.5q75 0 96 -81q4 -7 17 -85.5t14 -92.5q1 -8 4 -17q2 -2 7.5 -38.5t17.5 -48.5l1 -3q1 -3 4 -8t7 -11.5t9.5 -13t12 -11.5t15 -8.5t17.5 -3.5q7 0 13 3t13 3q8 0 13 5.5t6 5.5q2 0 4.5 -2.5t3.5 -2.5t5 2l3 2q3 0 6 -6.5t3 -11.5
q0 -1 -1 -5.5t-1 -7.5v-2q0 -4 -9 -7l-7 -7q-7 -7 -19.5 -13.5t-27.5 -6.5q-43 0 -65 12q-7 3 -11 6t-5 4.5t-1.5 2t-2.5 0.5q-8 0 -18 9t-18 23t-14.5 27t-11.5 25l-5 11q-3 8 -18 91.5t-16 96.5q0 9 -4 17q2 -2 2 2q1 23 -15 54q-12 22 -27 22q-51 0 -126 -84t-154 -231
q-20 -36 -41.5 -54.5t-56.5 -18.5q-32 0 -32 136v15q0 2 -0.5 12.5t-0.5 19.5q0 15 2 42t2 30q0 4 -1 6q-2 5 2 32q8 75 8 246q0 8 -0.5 12t-0.5 11q0 5 1 19.5t1 15.5q0 21 -2 79t-2 78q0 4 0.5 14t0.5 16v90q0 7 2 12t4.5 7t6 5t4.5 4q2 1 7 1q32 0 40.5 -14t8.5 -70
q0 -17 -0.5 -74.5t-0.5 -85.5q2 -42 2 -78q0 -174 -6.5 -293t-6.5 -192z" />
    <glyph glyph-name="i" unicode="i" horiz-adv-x="313" 
d="M257 876l1 1q1 1 3 1q1 0 3.5 -0.5t4.5 -0.5h23q12 -1 14 -4.5t8 -3.5v-2q-6 0 -6 -6q-2 -3 -22.5 -9t-21.5 -8h1l-10 -9q-16 -16 -25 -37.5t-11 -36.5t-10.5 -25.5t-24.5 -10.5q-11 0 -20 5t-9 10q2 6 2 18q3 28 8.5 42.5t10 18.5t4.5 8q0 1 -1 1q6 0 8 6v-1q2 5 7 9
t6 6q6 9 16 15.5t18 8t15 3t8 1.5zM121 483l1 2q4 4 14 4q20 0 33 -8.5t13 -16.5q0 -9 -7 -27t-7 -38v-5q-1 -2 -3 -19t-4.5 -56t-2.5 -83q-3 -3 -3 -11q0 -23 3 -51t3 -32q0 -3 -0.5 -13t-0.5 -18q0 -26 2.5 -50t5 -36.5t4.5 -12.5l-15 -15q0 1 -18 1q-7 0 -12 1.5t-9 5
t-7 6.5t-5 10t-3 12t-2 14.5t-1 16t-1 18.5t-1 20l-3 25q-4 30 -4 116q0 98 8.5 162.5t21.5 77.5z" />
    <glyph glyph-name="j" unicode="j" horiz-adv-x="275" 
d="M190 841q2 0 6 0.5t5 0.5h3q4 -1 8.5 -2.5t8.5 -3.5t7 -6.5t3 -9.5q0 -2 -4.5 -4t-4.5 -3v-2l-2 -1q-2 0 -2 -2v-4q0 2 -13 -8.5t-26 -25t-13 -21.5v-1q0 -1 -2.5 -7.5t-2.5 -14.5q0 -5 1.5 -8t2.5 -4t1 -2q0 -7 -9 -7q-5 0 -5 -1.5t-2 -1.5q-24 0 -35 13.5t-13 29
t-4 16.5q0 1 1.5 4t4 6.5t4.5 6.5t4 4l1 2v1q0 4 12 16q0 1 23 16t24 15h1q1 0 17 9zM124 493q4 1 12 1q2 0 7.5 0.5t8 0t8 -1.5t7.5 -5t5 -9.5t4.5 -16t1.5 -23.5q0 -10 -1.5 -36.5t-1.5 -38.5t2 -29.5t2 -34.5q0 -6 -0.5 -17t-0.5 -16q0 -15 1.5 -25.5t1.5 -16.5l-2 -39
q1 -1 0.5 -3.5t0 -9t1.5 -12.5q0 -19 -2.5 -45t-2.5 -32q0 -10 1 -16t1 -9q0 -1 -2 -12.5t-2 -22.5q0 -6 2 -6t5 3l1 1q1 1 2.5 3t4.5 4.5t7.5 6t10.5 8t15.5 10.5t20.5 13q4 3 7.5 5.5t5 4.5t2.5 3.5t1.5 2.5t1.5 1h1q0 -1 16.5 13t34 28.5t18.5 14.5t14 12t16 12l2 -1l1 1
q1 1 4 2t10 1q12 -1 12 -6q0 -1 -8 -18.5t-10 -18.5q3 1 -1 -3q-17 -16 -17 -19q0 -2 -32.5 -31.5t-44.5 -38.5q-61 -48 -100 -83q-8 -7 -10.5 -17t-6.5 -48q-8 -70 -12.5 -108.5t-6.5 -48t-4.5 -27t-6.5 -46.5q-12 -118 -27 -178.5t-33.5 -79.5t-50.5 -22q-18 0 -18 1
q-41 22 -41 30q0 4 -0.5 5t-2 1h-3t-4 3.5t-5 9.5t-6 19.5t-6.5 32.5q0 2 -2 8t-3.5 12t-2.5 22.5t-1 39.5q0 7 1 21.5t1 19.5q0 4 -1 9v2q0 1 1 4.5t3 11.5t4 18q6 35 20 65t19 45q4 12 21.5 42.5t18.5 33.5q0 3 15.5 27.5t20.5 25.5q-1 0 4 3.5t11 9t6 10.5q0 2 20 26
t20 29q0 51 4.5 109.5t5.5 130.5q0 14 -2.5 27.5t-2.5 28.5q0 3 0.5 9t0.5 9q0 32 -5 111q0 4 0.5 19t0.5 23q0 18 -1.5 26t-1.5 10q0 27 16 29zM89 -207q5 42 5 48q0 7 -2 7q-1 0 -4 -3q-13 -15 -24 -32.5t-16 -27.5l-4 -10q-14 -27 -24 -53t-13.5 -37.5t-4.5 -11.5v-2
q0 -7 -7 -34.5t-7 -66.5q0 -37 7 -71.5t15 -53.5t14 -19q7 0 16.5 29.5t11.5 58.5q0 46 17.5 150.5t19.5 128.5z" />
    <glyph glyph-name="k" unicode="k" horiz-adv-x="566" 
d="M491 -24q-20 14 -42 36q0 -2 -10.5 7.5t-31 30.5t-41.5 46q-49 57 -83 80t-78 23h-13.5h-12t-8.5 -0.5t-7.5 -2l-5 -5t-4.5 -8t-2.5 -11t-1.5 -15.5v-21q0 -55 7 -77.5t26 -25.5q5 0 23.5 10t22.5 16q6 6 7 6q2 0 4 -6.5t2 -10.5q0 -22 -13 -31l-3 -3q-2 -3 -6 -7.5
t-10.5 -9t-16 -7.5t-20.5 -3q-51 0 -71.5 46.5t-20.5 132.5q0 87 6 105q-1 3 -1 8q0 16 5.5 66.5t5.5 73.5q0 5 -0.5 10.5t-0.5 8.5q0 8 2 17.5t2 15.5q0 2 -0.5 4t-0.5 3t0.5 12.5t1 29.5t1 39.5t1 48t0.5 49.5v6q0 1 0.5 5t0.5 8q0 2 -0.5 15t-0.5 25q0 2 0.5 9t0.5 11
q0 13 -2 35q0 31 6 40.5t17 9.5q2 0 6 -0.5t6 -0.5h6q30 0 30 -74q0 -57 -4.5 -173t-4.5 -129q0 -6 0.5 -8.5t0.5 -5.5q0 -28 -3.5 -94t-9.5 -76q0 -9 2 -9q4 0 9 2q9 2 11.5 1t11.5 5.5t41 32.5q72 69 89 85q9 8 16 14t9 8l4 4t4 5q5 5 32.5 36t47 46t37.5 15q7 0 13.5 -8
t8.5 -13q-1 -22 -73 -85q-19 -16 -94 -91q-40 -34 -40 -54q0 -3 7 -8t23.5 -17t33.5 -29q7 -5 43 -41t36 -41v-1l-1 -1q0 -1 25.5 -26t30.5 -29q12 -11 20.5 -18.5t15.5 -13t10.5 -8t7.5 -4t5 -1.5h5h6q13 0 68 22q8 4 11 4q4 0 4 -16q0 -29 -25 -43.5t-51 -14.5q-3 0 -4 1
q-2 0 -6 -1.5t-5 -1.5q-3 0 -50 10z" />
    <glyph glyph-name="l" unicode="l" horiz-adv-x="334" 
d="M168 1031h2q1 0 3 0.5t4 0.5q21 0 44 -21l-2 -35q0 -4 -1 -12.5t-1.5 -14.5t-0.5 -11l-5 -47q0 -15 -2 -36t-2 -23q0 -1 0.5 -4.5t0.5 -6.5q0 -15 -4.5 -60.5t-4.5 -65.5q0 -6 0.5 -12.5t0.5 -13.5q0 -17 -4 -57l-4 -39l-1 -23v-3q0 -30 -14 -162q-6 -84 -6 -128v-24
q0 -47 3 -54q0 -2 1 -2v-1q2 -4 2.5 -11t1.5 -12l-1 1q26 -98 72 -141l5 -3l-2 1q12 -7 14 -7h1q2 1 3 1l3 -4q-17 -4 -17 -18q-1 2 -1 4q-34 3 -63.5 17t-34.5 28v-1l-2 10q-6 4 -18.5 27.5t-12.5 29.5v1q0 7 -6 20t-6 14v1q0 6 -2 31t-2 38q0 57 8 175.5t12 120.5v18
l8 128q0 1 2 44.5t4.5 97t6 110t8.5 95t10 39.5z" />
    <glyph glyph-name="m" unicode="m" horiz-adv-x="1040" 
d="M499 58q-24 -56 -44 -68.5t-40 11.5q-40 43 -35 125l1 8l2 64q0 4 0.5 12.5t0.5 11.5l1 6q0 1 -1 2v2q3 50 4.5 69t2.5 30q0 23 -7 40t-17 17q-23 0 -90.5 -104t-124.5 -230q-31 -68 -57 -68q-13 0 -21 20t-8 55q0 29 2 46l24 224v136q0 23 8 31l4 10q4 -2 5 -2h6
q5 -3 16 -6.5t13 -6t5 -13t3 -30.5v-17q0 -8 0.5 -18.5t0.5 -16.5q0 -13 -1 -23l-2 -22q-2 -23 -5.5 -47t-4.5 -38l-12 -142q58 119 114 201t91.5 113t56.5 31q36 0 49 -58l2 -7l2 -5h-1q4 -8 6.5 -20t4 -20t0.5 -9q0 -5 -1 -10.5t-1 -6.5q0 -3 1 -5l2 -36q0 -49 -3 -85
q0 -2 -1 -5.5t-1 -4.5l-4 -40q-1 -9 -1 -23q0 -13 1 -18v-18q0 -1 1 -2v-2v-24q52 128 110 223.5t98 135.5t63 40q2 0 9.5 -1.5t11.5 -1.5t6 1q11 0 33 -48l-3 -2l4 -11q12 -48 34 -238q4 -7 4 -26l6 -22q8 -31 16 -39q25 -46 64 -46q7 0 41 14q17 7 54 31.5t67 45.5l29 21
l7 10v-1q8 6 12 6q5 0 9 4l4 5q6 0 6 -13q0 -1 -0.5 -3.5t-0.5 -3.5q0 -5 3 -8h-1q2 -2 2 -5q0 -4 -1.5 -6.5t-3 -4t-5 -5.5t-6.5 -8l-4 -6q-3 -5 -8 -11.5t-9 -8.5l-7 -4q-6 -5 -12 -10.5t-6 -9.5l-9 -7q-10 -11 -17 -16q-3 0 -20.5 -9t-19.5 -14q0 -2 -2 -2v1q-6 0 -6 -4
q0 -5 -17.5 -9.5t-17.5 -7.5l-4 -1l-7 -2q-8 -2 -20.5 -3.5t-25.5 -1.5q-10 1 -28.5 8.5t-21.5 7.5q-1 0 -7 -2q-18 3 -37 24.5t-32.5 44t-16.5 24.5h1l-3 3q1 1 1 3t-4 13.5t-4 16.5l-6 12q-3 3 -6 42l-7 91t-7 74q-3 38 -22 38q-24 0 -84.5 -95.5t-122.5 -236.5z" />
    <glyph glyph-name="n" unicode="n" horiz-adv-x="633" 
d="M163 4q-5 -22 -40 -22q-29 1 -42 23t-17 65l-2 12q0 8 3 29l2 26q3 25 6 72v8v1q0 1 0.5 3.5t1.5 5t2 8t2 11.5l-2 -2q-1 0 -1 2t1 10.5t1 10.5v6q4 37 7 47v56l1 1v2v17q-1 6 -1 23q0 59 5 72l8 8q2 0 10 -3l35 -11l4 -97q0 -4 0.5 -16t0.5 -18q0 -21 -5 -61t-5 -53
q1 -3 1 -16q0 -2 -0.5 -7t-0.5 -9v-4q-9 -87 -9 -122v-8q61 180 147.5 284t158.5 104q11 0 21 -14q4 0 6 -10.5t4.5 -26t6.5 -22.5v-6q0 -2 1 -3l1 -21q5 -26 5 -65v-63l3 -5q2 -46 9 -82l1 -9q0 -3 1 -6v-7q2 -47 18 -66l25 -17l-1 1l8 4q15 6 40 22.5t33 25.5l7 8l6 4h-1
l41 38l-1 -1q6 4 9.5 7.5t5.5 4.5l6 9l8 6q17 27 28 29q8 3 14 3q12 0 12 -18q0 -13 -20.5 -34.5t-20.5 -29.5q-5 -11 -32 -32t-37 -34q-4 -14 -52 -40t-61 -26q-20 0 -51 29t-38 69v-1l-3 12q-2 3 -6 32.5t-4 39.5v17q-3 10 -5 24l-2 13v8q0 62 -2 65q0 1 0.5 4t0.5 5
q0 1 -0.5 4.5t-0.5 5.5l-2 4v21q0 3 -1 5l-2 28q1 1 0 6t-4 10.5t-7 7.5q-44 0 -118.5 -119.5t-120.5 -268.5l-1 -1zM163 6v1h1z" />
    <glyph glyph-name="o" unicode="o" 
d="M228 -36q-128 29 -128 161q0 41 11 97.5t31 80.5l4 9q0 5 8.5 25.5t14.5 23.5l6 6q4 4 5 11q7 0 13 9.5t6 16.5q0 23 49 61.5t74 46.5h4q3 0 6 1.5t4 1.5l2 -2q9 -7 25 -7l27 -9q7 -1 9 -10h-1v-2q0 -13 -40 -26l14 -28q1 -8 2 -12t4 -8.5t5 -6.5t9 -8.5t12 -10.5l1 -2
q0 -7 6 -16l6 -26q12 -19 16 -46q-4 -5 -4 -10q1 -1 4.5 -16t7 -42t3.5 -51q0 -21 -3 -40t-3 -21v-4q-6 -6 -6 -16q0 -23 -25 -52t-51 -49.5t-26 -21.5q-3 -3 -15.5 -4.5t-27 -2.5t-19.5 -3q-10 -4 -14 -4q-1 -1 -2 -1q-10 7 -24 7zM208 289q-32 -92 -32 -152q0 -45 20 -85
t45 -40q31 0 39 8l11 8q31 4 50 36l-5 -3q24 21 32.5 47.5t8.5 81.5q0 90 -24 178l-12 30q-2 17 -12 30v-1q-1 2 -1 9q-15 0 -33 -16t-30.5 -33t-13.5 -17l-7 -13q-1 -1 -6 -11l-3 -4q-5 -3 -7 -5.5t-4 -6t-3 -8t-4.5 -13.5t-8.5 -20z" />
    <glyph glyph-name="p" unicode="p" horiz-adv-x="611" 
d="M463 377q-15 5 -30 5q-32 0 -86 -33q-13 -8 -21 -14.5t-10 -8.5l-1 -3q0 -3 -18 -23.5t-18 -33.5q0 -4 -4.5 -4t-4.5 -1l1 -2q1 -2 1 -3l-20 -37q-17 -38 -17 -56q0 -3 4 -3q17 0 78 34q29 16 47 26.5t26 15.5t10.5 7t3 3.5t1.5 2.5t7 6t18 13q21 16 37 43t16 41t-20 25z
M119 133q5 0 5 26v16q-1 30 -4 35q1 -1 -1.5 -8t-5.5 -16.5t-3 -15.5q0 -37 9 -37zM200 -463q0 -52 -4.5 -71t-15 -23.5t-41.5 -4.5q-15 0 -23 16t-8 62q0 100 5 124t5 58v25q0 47 5 56v2q0 5 2 23v9q0 5 2.5 28t2.5 48q0 7 -1 10q1 6 1 23v22q0 11 -1 33t-1 40
q0 4 0.5 10.5t0.5 9.5q-2 45 -6 47q-2 2 -13 2q-1 0 -2 -0.5t-2 -0.5l-7 1q-7 2 -16.5 5t-19 8t-16 13.5t-6.5 18.5q0 3 0.5 7.5t1 13t0.5 15.5v6q0 13 17 56q5 17 29.5 43.5t24.5 30.5q0 29 -15.5 122t-15.5 105q0 5 5 10q6 8 17 8q3 0 11 -3t15 -3h4q17 0 24.5 -24
t16.5 -114q8 -76 15 -76q1 0 3 3q2 -2 2 -3q-9 -7 -9 -47q1 -6 1 -19q0 -2 -0.5 -4.5t-0.5 -3.5q0 -3 2 -3q4 0 10 10q21 46 54 84.5t47 38.5q3 0 13 10t37 20.5t70 10.5q64 0 77 -11q4 -4 7 -4q20 0 36.5 -23.5t16.5 -41.5q0 -24 -11 -46q-7 -12 -30.5 -38t-28.5 -28
q2 0 -20 -16t-48 -33t-34 -19q-18 -18 -61 -32l-6 -3q-5 -3 -13 -7t-17 -8t-19 -7t-16 -3l-1 1h-2q-43 0 -43 -107v-13q-3 -6 -3 -77q0 -2 0.5 -8t0.5 -10t-0.5 -10t-0.5 -8q1 -11 1 -66q0 -5 -0.5 -10.5t-0.5 -9.5q0 -19 3 -35q-1 -38 -2 -71t-1 -48l-1 -15q1 -2 1 -13
q0 -16 -3 -27t-3 -16q2 -10 2 -25z" />
    <glyph glyph-name="q" unicode="q" horiz-adv-x="592" 
d="M506 413l-23 -29q2 -64 2 -120q0 -73 -1.5 -121.5t-4 -82t-3.5 -46.5q0 -8 -6 -77t-6 -152q0 -32 4 -132.5t4 -143.5q0 -10 -7 -20h-4q-3 0 -7 -5l-4 -4h-6.5h-7t-6 0.5t-6.5 2t-5.5 3.5t-5 5.5t-4 9t-3.5 12t-2 16t-1 20.5v7q-5 26 -5 137q0 26 1 41t1.5 20.5t0.5 7.5
q0 5 -5 5q1 142 8.5 182t11.5 247q-1 10 -1.5 48.5t-0.5 51.5l-17 -21q-1 -1 -7 -12.5t-13 -19.5q-1 -1 -11 -23t-29 -33q-4 -4 -5.5 -6t-3 -4.5t-8.5 -12t-19 -23.5q-60 -72 -67 -74q0 -1 -1 -4q-1 -11 -5.5 -13t-12.5 -5t-15 -15q-39 -39 -103 -39q-10 0 -20.5 2.5
t-17 5.5t-7.5 3q-3 0 -4 -1q-12 0 -12 31q0 27 6 41l2 6q22 63 22 80v3q0 3 2 3t9.5 20t18.5 47.5t17 40.5q3 6 7 13t7.5 12.5t6.5 9.5t4 6l2 2v1q0 8 11 26t22 33.5t11 16.5q-1 0 1.5 2t7 5.5l9 7t8 7.5t3.5 7l3 6q4 5 10.5 11.5t13.5 6.5q5 5 15 12.5t38.5 20t55.5 12.5
q24 0 37 -9q1 0 5 -0.5t5.5 -1.5t7 -4.5t13.5 -11t20 -19.5q12 24 37 24q35 0 35 -21q0 -2 -1 -6t-1 -7q0 -5 2 -11q0 -11 -3 -11zM355 436q-6 3 -13 3q-43 1 -109 -80q-14 -17 -20.5 -34t-8.5 -19q-10 -13 -12.5 -19.5t-7.5 -21t-17 -38.5q-10 -15 -27 -52.5t-21 -66.5
q-5 -16 -5 -19q0 -1 1 -2q0 -2 -2.5 -4t-2.5 -4v-2q0 -2 -2 -10t-2 -15v-12l11 4q13 2 15 3l11 10q29 31 36 31q50 64 80 89l3 5q4 5 9.5 13t12.5 17t15 19t15 17q3 3 5 7t3 6.5t3 2.5q4 1 12 12t14.5 21t7.5 10h1q-1 1 7.5 18.5t17.5 35.5t9 20q0 7 -15 28t-24 27z" />
    <glyph glyph-name="r" unicode="r" horiz-adv-x="512" 
d="M397 515q33 1 51 -12t18 -33q0 -13 -8 -20t-21.5 -3.5t-26.5 20.5q-37 -7 -48 -20q0 -1 -13 -11l-10 -10l-12 -9l-4 -6q-7 -2 -18 -18l1 1l-7 -10l-1 -1q-6 -5 -26 -41.5t-31 -60.5l-7 -17v2q-11 -17 -17 -51l-1 -4l-4 -13v1q-17 -38 -34 -167q-4 -32 -11 -39v-2l-6 -8
q-2 -2 -32 1h2q-14 4 -19 9q-11 14 -9 35q0 16 -2 22q0 5 -2 15v13v62l2 53q0 5 2 39q2 24 0 32q0 23 1 32q0 2 0.5 9t0.5 9q1 7 1 21v18q0 3 0.5 8t0.5 7v26q0 6 0.5 16t0.5 13q0 30 3 51q2 31 -2 41q-2 4 3 18q9 30 31 30q11 0 28 -14q9 -9 9 -49q0 -15 -2 -71
q-4 -45 -4 -76q0 -4 -1.5 -20t-4 -45t-3.5 -47q18 61 50 124q2 4 3 5l14 22l-1 -1q20 29 47 60l18 17l7 6l6 4l-1 -1l9 7q3 3 11 7l12 8q6 1 10 2q1 0 2.5 1t4 2.5t4.5 2.5l6 4q1 0 2 0.5t2 0.5q3 1 26 3z" />
    <glyph glyph-name="s" unicode="s" horiz-adv-x="421" 
d="M301 13q1 0 -2 -2.5t-9 -6t-14 -7.5t-18.5 -8t-22 -7t-25 -5t-25.5 -2q-93 0 -119 56v-1q-5 7 -5 16q0 36 28.5 69.5t50.5 46.5h-1q6 12 45 25l14 8h-1q4 3 25.5 14t26.5 12q-1 2 -3 15t-3 15v-1q-14 20 -18 59h-1q-6 12 -6 13l-6 14q-3 6 -3 12l-3 15q-1 6 -6.5 27.5
t-6.5 30.5l-1 3q0 3 -1 8.5t-2 12.5t-1.5 16.5t-0.5 19.5q0 7 1 9.5t1 4.5q-2 1 -2 4t2 5q0 -1 2 3q9 26 22 27q13 5 34 5q11 0 29 -5l8 -4q9 -5 19 -10.5t21 -15t16 -19.5v1l7 -9q0 -1 0.5 -5t0.5 -5q0 -18 -12 -20l-10 -5h1q-5 -5 -6 -5q-2 0 -2 5q-1 -2 -8 7t-22 20.5
t-32 11.5q-5 0 -6 -4q1 -2 1 -6q0 -1 -1 -4t-1 -5t1 -3v1q2 -4 2 -8v-10q0 -1 -0.5 -5t-0.5 -6t2.5 -11t3.5 -17l3 -26q10 -12 16 -50l5 -17q1 -2 1 -5v-5q5 -5 5 -10v-1q-1 -1 -1 -2q0 -4 4 -6l6 -9l3 -11v1q2 -3 5.5 -11t6.5 -13t8 -5h5q2 0 6 -2q0 -5 -4 -9q-4 -8 -4 -9
q0 -3 3 -16l9 -34q13 -39 13 -76q0 -17 -19 -44.5t-28 -29.5zM273 172l-37 -19l-12 -6q-45 -24 -80 -54v1q0 -1 -3 -4.5t-3 -4.5l-3 -4q-12 -12 -12 -35q0 -4 24 -9t37 -5q22 0 44 6l7 3q7 0 25 15.5t18 28.5l6 9v28q0 3 -1.5 8t-1.5 6l-3 10v-1q-4 7 -4 16t-1 11z" />
    <glyph glyph-name="t" unicode="t" horiz-adv-x="611" 
d="M243 775q5 3 7 3q1 0 4 -3t9 -4q5 -1 10.5 -5.5t9.5 -10.5t7.5 -11.5t5.5 -9.5l2 -4q7 0 13 -47t6 -61l-1 -1v-2q0 -2 2.5 -11t2.5 -15q0 -2 -0.5 -7.5t-0.5 -8.5q0 -17 2 -34.5t2 -30.5q-1 -6 -2 -14t-1 -10q0 -3 4 -3q11 0 57 4q5 0 13 -0.5t11 -0.5t7 1t6 1h3l2 -1v-1
q0 -2 7 -2l14 1q14 1 38 2t48 1q50 0 69 -3q8 1 25 1h10q4 0 36 -7t35 -7q2 0 5 1t4 1q7 0 19.5 -4.5t21 -9.5t8.5 -6t-4 -4.5t-4 -5.5t3 -3l3 -1q0 -1 -2 -2q-7 -2 -34 -2h-9q-21 0 -41 -2q-95 0 -115 5l-3 1h-3q-3 0 -13 -2t-19 -2q-5 0 -15 2q-13 0 -69.5 -2t-73.5 -2
h-26q-18 0 -18 -7q0 -3 1 -20t1 -30v-5q0 -9 0.5 -16.5t1 -11t0.5 -4.5l-1 -2q0 -1 -0.5 -3.5t-1 -5.5t-1 -7.5t-0.5 -8.5t1 -9v-5q0 -36 -5 -36v2v-1q0 -1 -0.5 -5t-0.5 -9q-7 -108 -19 -120q-1 -1 -1 -2q2 -2 2 -12q0 -16 -2.5 -29.5t-2.5 -19.5q0 -13 1 -29t2 -27l1 -11
q0 -1 -0.5 -1.5t-0.5 -1.5t2 -5.5t2 -6.5q0 -15 -36 -15q-5 0 -11.5 2t-13.5 9t-7 19l1 1l-1 3q0 2 -1 6.5t-2 10.5t-1.5 16t-0.5 21q0 20 4.5 61t4.5 43v1l1 7q1 7 2.5 19t3.5 22v-3q13 39 13 160q0 14 -0.5 36t-0.5 28v2h-6q-18 2 -31 2h-20t-26 -1q-30 -2 -69 -25.5
t-50 -23.5q-16 0 -16 39q0 5 9 16q4 7 7.5 11t4.5 4h1.5t0.5 2q-1 3 17 10t50 13.5t62 6.5q6 0 14.5 -0.5t12.5 -0.5h11q8 0 12 -1q18 5 20 14q-5 10 -5 55q1 2 1 8q0 4 -2 7.5t-2 9.5q0 5 1 7q-14 95 -14 109v2l1 2q-4 10 -7 16.5t-4 7.5t-2 3.5t-1 3.5t-1 7q0 11 6 22
t13 13z" />
    <glyph glyph-name="u" unicode="u" horiz-adv-x="665" 
d="M469 282l17 63q-164 -314 -319 -329l-7 -2q-4 -3 -14 -3q-15 0 -23 1.5t-19.5 13t-19.5 33.5l-10 24q-4 10 -4 29q0 20 4.5 86.5t4.5 84.5q0 14 -5 23t-10 10q6 4 10 51l4 49v1q1 1 1 2v6q0 3 -1 8.5t-1 7.5q0 3 3 5v29l12 10q6 6 9 11t4 7t4.5 3.5t11.5 1.5q28 0 44 -12
v-17q0 -7 3 -23q0 -1 -0.5 -3t-2 -9t-2.5 -18v-27q0 -15 -5 -18h-1q-3 -5 -3 -8l1 -2q-1 -12 -1 -27l-6 -37q0 -1 -0.5 -2t-0.5 -2v-12q-14 -65 -14 -144q0 -27 7.5 -45.5t18.5 -18.5q39 0 78 26.5t102 110.5t148 234q2 3 7 9t7.5 8t7.5 4t12 2q1 0 4 -0.5t5 -0.5l15 -3
q14 -7 14 -22q0 -6 -2 -14.5t-2 -13.5v-25l-1 -1v-2l-6 -50v-2q-1 -2 -1.5 -5t-0.5 -6q0 -25 -13 -65.5t-13 -60.5q0 -3 -7.5 -39.5t-7.5 -80.5q0 -67 19 -85l6 -8q5 -5 23 -5q40 3 74 28l12 -6q5 -16 -6 -29q-9 -3 -17 -10t-12.5 -14t-17 -12t-32.5 -5q-8 0 -11 1l-22 7
q-12 3 -33.5 18.5t-24.5 25.5l-9 24l-4 8q-3 7 -5 14q-4 24 -4 58q0 20 7.5 43.5t7.5 65.5l1 7q0 7 2.5 16.5t2.5 14.5l1 3q2 5 2 17l1 12z" />
    <glyph glyph-name="v" unicode="v" horiz-adv-x="526" 
d="M81 471q3 3 15 3q26 -7 40 -16q1 -1 3.5 -11.5t4.5 -21t3 -10.5q-1 -1 -1 -2q0 -14 10.5 -72.5t10.5 -97.5q2 -13 5 -16q3 -2 7.5 -33.5t6.5 -32.5v-6q0 -10 7 -31q0 -2 1 -4l1 -3l10 -24q5 -13 5 -15l4 -2v-1q0 -3 7 -12t10 -9q2 0 10 15.5t9 20.5q1 0 7 20.5t15 46
t16 35.5h-1l10 22q1 1 36 90.5t41 102.5q5 21 10 34q1 2 -2 7t-12.5 9.5t-22.5 4.5q-36 -1 -36 19q0 5 1.5 9t4.5 6.5t7 4.5t8 3t9 1.5t9 0.5t8 -0.5t7 -0.5t5 -1h2l17 1q17 1 18 1q7 0 26 -19q10 -10 10 -35q0 -5 -3 -17.5t-3 -13.5q-1 -11 -7 -31q-4 -12 -44 -115.5
t-42 -113.5l-3 -12l-2 -8q-3 -3 -14.5 -34.5t-11.5 -32.5q0 -2 1 -3h-1q0 -20 -27 -50t-47 -30q-61 0 -92 61l-7 14q-17 28 -31 111q-3 10 -6 33q-2 13 -6 35l-13 105q0 1 -0.5 2.5t-0.5 2.5l-4 27q-2 5 -12 61q0 14 6 14q1 0 1 -1h4v4q0 8 3 11z" />
    <glyph glyph-name="w" unicode="w" horiz-adv-x="734" 
d="M520 -4q-5 -2 -6.5 -4t-2 -4t-8 -4.5t-21.5 -4.5h-19.5t-18 0.5t-16 2.5t-14 6.5t-12.5 12t-11.5 18.5t-10.5 27.5t-10 38.5l-4 24q0 2 -1 5t-1 7q0 5 1 8v13q-1 4 -1 15v34q0 2 -1 8t-1 9q0 6 1 9v30q0 43 -2 54.5t-12 11.5q-5 0 -13 -14t-8 -18l-2 -1q0 -2 1 -3
q-4 -2 -7.5 -9t-7.5 -18.5t-7 -16.5l-9 -18q-12 -19 -20.5 -40.5t-9.5 -24.5l-22 -41q0 -1 -3 -7.5t-3 -8.5v1q0 -2 -7 -12l-4 -6q-18 -34 -31 -47q-4 0 -18 -18t-32 -18h-5q-3 -2 -6 -2t-4 1q-10 0 -13 -1q-35 2 -35 150v39q2 8 2 18q0 3 -0.5 7.5t-0.5 5.5l-1 60
q-1 50 -4 89q0 3 1 4l-1 5l1 -1l-1 10q0 1 -0.5 5t-0.5 7l-3 31q-1 10 -4 22t-2 19q0 10 4 14v-1q4 2 4 3q2 0 3 0.5t2 0.5q2 0 23.5 -4.5t24.5 -5.5q0 -1 1 -1q0 1 1 1q0 -13 4 -21v1q2 -17 4 -31.5t3 -20.5t1 -7q-4 -4 -4 -7q0 -2 2 -3v1q2 -2 6 -31v-16q0 -4 1 -5
q-1 0 -3 1h-2q-7 0 -7 -5q0 -3 6 -8.5t6 -18.5q0 -10 -1 -14q0 -27 2 -45q-3 -6 -3 -11l2 -7v-21q2 -10 2 -27q0 -7 -0.5 -18t-0.5 -14q0 -10 4.5 -25t8.5 -15q3 2 25 37t26 46q12 31 14 34l5 7l6 19q13 22 20 37l8 15q2 14 10 22l16 29l10 13q0 1 0.5 3.5t0.5 3.5l7 17
q0 5 24 31l3 3v-1q11 9 45 9l17 -6q16 -6 16 -17q0 -5 -2 -15.5t-2 -14.5q0 -5 4.5 -7.5t4.5 -5.5q0 -1 -1 -5t-1 -9l2 -23v-1q0 -5 2 -7l-2 -5q-1 -1 -1 -3t8 -6q-6 -5 -6 -27q0 -6 4 -10.5t4 -9.5q0 -3 -1 -10t-1 -9q0 -3 0.5 -6t0.5 -4q-2 -8 -2 -16q0 -11 2 -25.5
t2 -18.5q0 -11 -3 -17q2 -29 12 -66l7 -35q1 -18 15 -18q6 0 10 4v-1q9 6 27 32.5t23 38.5l8 14l2 7l10 17q0 3 6 15t7 17l14 27q0 2 0.5 6t0.5 5l8 17l10 75v-1l5 20q-1 1 -1 5q0 3 1.5 10t1.5 14q-1 0 -2 -1t-2 -1h-2q6 6 6 15q-1 5 -1 13q0 11 4 30l-1 6q-1 2 -1 4h4
q0 6 1 9q0 1 -0.5 6t-0.5 7q3 2 7 17.5t4 21.5q0 18 -16 18l-1 -1q0 1 1 1q2 2 3.5 8t4.5 9v-1q8 6 18 6q3 0 8 -2t8 -2q4 0 5 1q8 -2 19.5 -11t13.5 -15q0 -5 -2.5 -13t-2.5 -12v-2v-1q-1 -1 -1 -2v1l-5 -23q0 -4 2 -6q0 -1 -3 -4v1q-5 -2 -5 -8l1 -19v-6q0 -5 -1.5 -13
t-1.5 -12q0 -2 1 -8t1 -9q0 -10 -3.5 -17t-3.5 -10q0 -2 3.5 -12.5t3.5 -19.5l-3 -19l-2 -15v1q-5 -4 -5 -10t2 -8q-6 -12 -7 -19v-5q0 -10 -1 -14v1q-3 -5 -3.5 -7t-2 -7.5t-5.5 -15.5l-17 -42l-11 -18l-17 -34q-28 -56 -35 -57q-4 0 -15 -13.5t-17 -15.5h1z" />
    <glyph glyph-name="x" unicode="x" horiz-adv-x="526" 
d="M136 522q3 0 7 0.5t5 0.5t4.5 0.5t5 0t5 -2t6 -6t6 -11.5t6.5 -18.5t6 -26.5q14 -64 29 -93q3 -6 5.5 -11.5t3 -8t1.5 -2.5q-1 0 6.5 -18t17 -35.5t12.5 -17.5q1 0 1.5 1t2.5 5.5t6 8.5q5 5 8 10q2 3 4 3q7 0 21.5 23t22.5 23h1q4 0 6.5 15.5t17.5 20.5q10 6 31.5 46.5
t42.5 40.5q4 0 8 -2.5t5 -2.5t2 1t2 1q9 0 14.5 -10.5t7 -19t1.5 -11.5q0 -14 -10 -24q-2 -1 -3 -3.5t-2 -6.5t-8 -14.5t-20 -25.5q-5 -4 -9 -10t-21.5 -28t-49.5 -57q-7 -8 -17.5 -17t-16 -14t-9.5 -11.5t-4 -11.5t2.5 -9.5t12.5 -20.5t21 -35q1 -1 11.5 -15t21 -27.5
t13.5 -14.5l5 -3q6 -3 13.5 -10.5t11.5 -16.5q4 -10 9 -20t8 -15t3 -7q-5 -27 -21 -27q-7 0 -22 8t-17 13q-1 3 -1.5 4t-1.5 2.5t-4.5 4.5t-8 7.5t-13 14.5t-18.5 24q-31 38 -38 51q-22 45 -33 45q-3 0 -72 -71q-36 -36 -36 -46q0 -4 3 -2.5t6 -1t3 -12.5q-1 -8 -3 -12
t-3.5 -5.5t-1.5 -2.5v-2q-25 -27 -33 -27q-20 0 -33.5 14t-17.5 25t-4 15q0 20 24 57.5t53 54.5q4 2 10 10q11 14 40.5 38t29.5 46q0 1 -4 6.5t-7.5 12.5t-3.5 12l-7 7q-8 8 -15 23t-7 34v1q-6 0 -27 84q-21 64 -21 85q0 1 0.5 3.5t0.5 3.5l2 15z" />
    <glyph glyph-name="y" unicode="y" horiz-adv-x="478" 
d="M98 -454q-2 0 -9.5 -3.5t-22.5 -3.5q-12 0 -20.5 2.5t-16.5 2.5q-29 5 -52 28t-32 43v-1l-9 20q-19 42 -19 159q1 22 4 36.5t3 21.5q-7 30 15 47q3 -1 5 -3.5t3 -7t1 -8t-0.5 -8.5t-0.5 -6t-0.5 -3.5t-0.5 -3.5q0 -8 5 -21.5t5 -45.5q0 -30 5.5 -34t5.5 -12v-4l2 -10
q2 -10 8 -15h-1q2 -5 2.5 -8t0.5 -4.5t2 -3.5q-1 -1 -1 -4q0 -12 10.5 -34t22.5 -36h-1q23 -30 54 -30q44 0 90 53l11 13q7 2 42 70l12 24q15 29 17 42l7 19l11 37l6 17q4 14 11 35.5t9.5 29.5t6.5 23.5t5.5 29t4 34.5t4.5 50v3q0 1 1 5.5t1 7.5l3 21q3 20 7.5 94t4.5 98v6
q-7 -10 -12 -22t-8 -19l-2 -7l-42 -93q-3 -9 -8 -14v1q-1 0 -5.5 -8t-13.5 -21t-20 -24v1l-5 -6q-4 -6 -11 -14.5t-16 -16.5t-20.5 -14t-22.5 -6q-4 0 -12 2t-10 2q0 5 -6 6.5t-7 5.5l-11 13l-4 4q-3 4 -8.5 10t-7.5 9q1 3 1 8q0 7 -2.5 26.5t-2.5 32.5q0 38 5 122.5t5 90.5
q0 62 -3 61q0 3 13 7l12 3q1 1 3 1q5 0 14 -2.5t12 -2.5h3q2 0 5.5 -2t7.5 -9t4 -18q0 -12 -3 -19v-7q-3 -3 -3 -8q0 -1 1 -3v-2q-1 -1 -3 -34t-4.5 -86.5t-2.5 -95.5q0 -26 4 -30h-1q2 -4 5 -8v1l5 -16l24 25l21 24l14 18q3 8 18 30l5 9q4 6 7 13t7 13l16 33q4 2 10.5 25
t17.5 34l7 14q22 45 31 73v-1q8 25 20 32q9 3 17 3h13l20 -13q7 -4 7 -7q0 -14 -2.5 -20t-2.5 -7l1 -4q1 -4 1 -12q0 -5 -3.5 -45.5t-3.5 -91.5v-3l-5 -55q0 -4 -1.5 -16t-1.5 -17v-2q0 -25 -7 -39v-12l-2 -16q0 -17 -3.5 -29t-3.5 -22q-1 -15 -4 -34.5t-6.5 -37t-6.5 -33
t-5 -24.5l-3 -10l-4 -4q-3 -8 -3 -13l1 -3l-4 -8q-1 -2 -3 -8t-2 -8l-26 -71q-4 -12 -14.5 -36t-19 -42.5t-8.5 -21.5v-2q-19 -19 -33 -47q-6 -17 -23.5 -34t-31.5 -25l-14 -8q-3 0 -21 -13t-31 -13q-1 0 -2 0.5t-2 0.5z" />
    <glyph glyph-name="z" unicode="z" horiz-adv-x="384" 
d="M320 424q0 -71 -51 -130l-15 -18l-12 -20l-1 4q0 -2 -2.5 -9t-8 -15.5t-12.5 -11.5q-27 -23 -25 -36q0 -2 -2 -2l-11 -4l-8 -14l-30 -37q0 -1 -4 -11q-13 -34 -20 -34q0 -16 -6 -16h-2q-2 0 -2 -3v-3q0 -4 11 -10l10 -6q6 -5 18 -9h1q1 0 3 -1l1 1l69 -23h2l-1 -1
q3 -1 11 -1q18 -6 49 -6l13 -2q2 -1 8 -1q7 0 13 3l3 1l19 7l12 2l12 -20q6 -18 -19 -36l-2 2q-2 -1 -2 -3l-2 1q-4 -4 -4 -6q-16 0 -21 -3l-1 1q-7 -7 -9 -7q-87 -8 -222 55q-5 0 -25 24v1q-8 8 -8 32q0 13 16 49.5t27 45.5l51 66l7 8v-1q4 4 5 4l1 -1q0 13 7 21l1 -2
l84 129v-1l6 14q7 25 7 33q-1 -1 -13 -1q-76 0 -91 16l-2 -2l-12 6q-3 1 -3 12q-2 -3 -10 -3q-2 0 -2 3q0 6 5.5 16.5t11.5 14.5l1 -1q6 6 6 7l-1 1h15l4 -1l4 2q17 -4 33 -5.5t32.5 -2.5t25.5 -2l5 -1q4 -1 9 -2.5t8 -1.5h1l1 -1h2q-3 0 3.5 -3t17 -17t10.5 -34z" />
    <glyph glyph-name="braceleft" unicode="{" horiz-adv-x="597" 
d="M391 1049h3q27 0 45 -6l16 -9q3 -1 10.5 -5t12.5 -5h-1q20 -10 42.5 -35t36.5 -58q0 -2 3 -8l7 -11q11 -26 11 -31q0 -9 -7 -9q-2 0 -9 2.5t-9 2.5t-4.5 -2.5t-3.5 -2.5q-9 11 -36.5 52.5t-47.5 61.5h1l-9 5v-1q-6 6 -22 9q-13 0 -31.5 -5t-30.5 -10t-13 -6l-28 -20
l-16 -15q-14 -13 -28.5 -34.5t-32.5 -79.5t-18 -128q0 -72 57 -196q33 -72 33 -101q0 -37 -6 -46q-16 -16 -16 -33l9 -7q9 -6 18.5 -14.5t9.5 -15.5t6 -10v1l5 -5h-1q13 -26 19 -56v-2q0 -2 1.5 -8.5t1.5 -7.5v-6q5 -10 5 -28q-1 -47 -9 -90v1q-3 -15 -7.5 -30.5t-7 -24
t-2.5 -11.5v-3q-7 -7 -7 -14q0 -2 -0.5 -3.5t-1.5 -3.5l-4.5 -9t-7.5 -17.5t-11.5 -31.5t-16.5 -49q-1 -2 -17 -37t-16 -42v-1q-4 -1 -13.5 -24t-12.5 -36l-5 -21q-3 -18 -3 -37q0 -38 22 -69h-1q3 -4 4 -4q0 -7 15 -19q25 -20 45.5 -26.5t55.5 -6.5q15 0 30 6t28 7l16 5
q3 4 9 4q4 -1 5.5 -3.5t2 -4.5t0.5 -4t1.5 -3.5t5.5 -1.5t8 4l1 -1q0 -6 -9 -14t-20 -16t-14 -12h-6q-4 0 -17.5 -6t-52.5 -6q-81 0 -98 22l-21 14q-29 20 -35 27q-43 48 -43 118q0 15 4 55q2 24 40 108q48 109 64 159q0 4 1 6l16 52q1 3 4 17t5.5 38t2.5 44q0 73 -37.5 107
t-76.5 34q-21 1 -34.5 14t-13.5 28q0 6 12 10t22 4q9 0 25 -3t19 -3q6 0 8 1q6 4 8 6l6 6v-1q9 4 9 12v1q0 3 3 6v-1q7 4 7 13q0 12 -12 53.5t-22 47.5q1 1 1 2q0 8 -1.5 12t-4 6.5t-7 12.5t-9.5 25v-1q-3 10 -6 14l-17 54q-12 48 -12 110q0 10 1 14l1 23v5l5 28q0 1 3.5 18
t6.5 20l3 9v5q-3 -3 0 2q1 3 6 11q28 51 28 66q0 4 20.5 27.5t24.5 23.5q34 38 64 38h2q6 0 11 5v-1q6 2 7 2l19 5q19 5 21 7z" />
    <glyph glyph-name="bar" unicode="|" horiz-adv-x="372" 
d="M224 -396q-2 0 -7 -2t-8 -2q-7 0 -11 3l-1 -1q-2 6 -13 12t-11 10v1q0 6 -3 9l-7 7h1l-4 11l-2 8q-22 53 -22 90v11q2 0 4 2v-1q15 7 15 29v8l-2 40q0 1 -1 3v9q-1 7 -1 22v9q0 6 -1 15t-1 10v45q-3 9 -3 19v12q0 16 1 23v25q0 79 4 116q-1 8 -1 23q0 6 1 15.5t1 13.5
q-1 4 -1 18q0 41 1.5 73t3 48t1.5 20v9q0 22 4 75v7q-1 18 4 63t5 64v16q0 6 2 26v14q0 81 8 127l4 54q1 8 1 26q-1 1 -1 2q0 3 3 11t3 10q0 4 -1 6q3 6 3 30v4q-1 13 -4 19q2 14 2 34v15q2 15 11 26q2 -2 19.5 -7.5t23.5 -14.5q1 -6 4.5 -11.5t6.5 -8.5l3 -2l2 -4v-1
q0 -2 1 -2v-11q2 -4 2 -22q0 -1 -0.5 -3t-0.5 -3q0 -8 2 -16q-1 -3 -3 -5l-4 -35q0 -8 -3 -26q0 -2 -0.5 -4t-0.5 -3l-3 -25v-8q0 -9 -2 -13v-4v-7l-8 -73q-3 -38 -7 -91v-14q0 -12 -5.5 -76t-5.5 -96q0 -4 0.5 -6.5t0.5 -4.5q0 -6 -3 -43t-3 -53q1 -4 1 -15v-1
q0 -1 -0.5 -3.5t-0.5 -6.5t-0.5 -9t-1 -11t-0.5 -13.5t-0.5 -15.5t-0.5 -17v-18v-10q-1 -4 -1 -14l-3 -139q-2 -8 -2 -23v-15q0 -82 5 -99l1 -4v-4q0 -9 13 -182q0 -57 8 -86q-2 -11 -4 -14q-2 1 -7 1z" />
    <glyph glyph-name="braceright" unicode="}" horiz-adv-x="534" 
d="M238 1082q6 0 21.5 0.5t20.5 0t18 -2t20 -5t19.5 -9.5t25 -15.5t27.5 -22.5q29 -32 42 -61t14 -70q0 -10 -3 -41.5t-4 -32.5q1 -12 -8.5 -35.5t-9.5 -31.5h1l-5 -7l-8 -22q0 -15 -10.5 -30.5t-13.5 -26.5l-16 -33q-5 -12 -22 -45l-14 -33v1q-10 -30 -21 -46h1
q-2 -2 -9 -17.5t-15.5 -44t-8.5 -52.5q0 -37 14.5 -56t29.5 -19q8 0 12 13h-1q4 12 5 13v-1q3 4 23 4q32 0 36 -6l8 -5q4 0 13 -7v1q1 -1 2.5 -3t3 -3.5t2.5 -3t2 -1.5l4 -5q1 -2 7.5 -7t6.5 -14q0 -24 -16 -24q-34 -9 -34 -23q0 -2 1 -9t1 -14q0 -2 -1.5 -21.5t-1.5 -37.5
q0 -5 0.5 -12.5t0.5 -10.5v-7q1 -5 1 -26q0 -7 -1 -22t-1 -23q0 -5 0.5 -9t0.5 -7q0 -19 -5.5 -77t-7.5 -67v1q-3 -4 -6 -26l-6 -27q-7 -34 -10 -40t-8 -29v1l-11 -31q-5 -19 -10.5 -30t-10 -16.5t-5.5 -9.5l-7 -15q-7 -11 -10.5 -17t-5 -10t-3.5 -8l-9 -10q1 0 -7 -13
t-23.5 -31.5t-35.5 -37t-48 -31.5t-57 -13q-31 0 -51.5 13.5t-27.5 28t-12 33.5l-5 19h1q-6 15 -6 53q0 64 21 64q4 0 11.5 -17t8.5 -30q1 -5 4 -9t6 -6l2 -2q-3 -7 -3 -11q0 -6 5 -11l3 -3q0 -26 9.5 -42t24.5 -18q19 0 58.5 39.5t52.5 60.5l8 10q8 9 22 34q30 54 47 112
q0 -1 2 6.5t5.5 23t8 35t9 43.5t8 48t6 50.5t2.5 48.5q0 28 -1 38q2 54 2 64q0 16 -1.5 32.5t-1.5 25.5v4q0 4 -10 10.5t-17 6.5q-1 0 -3 -1q-2 0 -4 2l-6 6q-1 0 -6 5l-14 8q-29 22 -43 59t-14 54v16q0 19 5 40t11 37.5t18 47.5t20 55q27 36 44 90h-1l6 9l2 4l4 9l4 8
q54 105 54 202v6l-3 15q0 29 -31 51t-60 22q-5 0 -13 -1t-29 -4.5t-37 -8.5t-29 -14.5t-13 -22.5v-3q0 -6 -4 -6q-9 0 -27.5 11t-19.5 16l-6 17q0 22 13.5 38t51.5 32h-1l43 10q12 1 23 2z" />
    <glyph glyph-name="asciitilde" unicode="~" horiz-adv-x="705" 
d="M548 495q-1 5 -1 15q4 -2 6 -2q1 0 2 0.5t2 0.5q2 0 3 -1h-1q3 -10 9 -10t16 10q10 -15 23 -23q23 -29 32 -37h-1q5 -12 5 -37q0 -34 -31 -77t-104 -67l-23 -6q-3 -1 -12 -1q-38 0 -88 16q-22 9 -67 37.5t-48 34.5h1l-1 1l-27 26q-2 1 -6 1q-21 0 -41 -12l-8 -5
q-3 -2 -14.5 -12t-15.5 -18l-7 -14q-4 -6 -6 -15l-6 -12q-5 -11 -5 -41v-42q0 -15 -23 -15q-13 0 -29 14t-21 31v-1q-6 26 -6 38q0 5 4 25l7 30q2 6 2 10l9 11q6 12 9 16h-1q19 23 66 55h-1l12 7l26 5q26 5 50 5q16 0 41 -17l11 -8q8 -6 13 -8l26 -25h-1q3 -5 15.5 -16
t18.5 -14l7 -5v1q7 -7 32 -16t38 -9q37 0 44 10h-1q7 7 10 7q1 -1 3 -1q9 0 21 14q-2 1 2 3.5t13 8.5t18 14.5t16 22.5t7 31q0 7 -12 31.5t-12 34.5z" />
    <glyph glyph-name="uni00A0" unicode="&#xa0;" horiz-adv-x="420" 
 />
    <glyph glyph-name="exclamdown" unicode="&#xa1;" horiz-adv-x="337" 
d="M230 425q-4 -2 -5 -2q-17 0 -38.5 32t-21.5 52q0 7 9.5 18.5t14.5 11.5q1 0 3 -0.5t3 -0.5q4 0 8 1t6.5 1.5t3.5 0.5q9 0 30 -19t21 -37q0 -19 -13.5 -38.5t-20.5 -19.5zM123 -342q-4 -19 -15 -28.5t-36 -9.5q-31 0 -31 33q2 10 7.5 26t9 27.5t3.5 13.5l1 6q2 5 4.5 14
t5 19t4.5 20.5t3 18.5q0 1 2 8t4.5 15.5t5 24t4.5 31.5q0 11 7 39.5t8 33.5q0 1 8.5 32.5t8.5 46.5q0 1 -2 5t-2 6t3 5t3.5 19.5t3 42.5t11.5 48q15 60 22 73.5t23 13.5q4 0 15.5 -5.5t13.5 -8.5q-2 0 -9 -83q-2 -16 -11 -62.5t-13 -106.5q-9 -63 -12 -73q-1 -3 -4.5 -27
t-8.5 -52t-11 -43q-3 -6 -4.5 -20t-6.5 -41.5t-15 -61.5z" />
    <glyph glyph-name="cent" unicode="&#xa2;" horiz-adv-x="621" 
d="M396 -423q-2 -2 -5 -2q-12 0 -28 7q-8 0 -14.5 26t-13.5 28q-1 0 -3 17.5t-5 39t-9 29.5h-1q-2 2 -2 4q0 1 1 2h1l1 1v2v1l-1 2h-1q-2 2 -2.5 12t-1.5 12h-1q0 2 -5.5 26t-5.5 30v3q0 2 -1.5 10t-1.5 12l-3 23q0 -5 -3 3q-8 22 -8 58q0 1 1 6.5t1 11.5q0 3 -0.5 10
t-0.5 11l-3 25h-2q-9 0 -39.5 4.5t-45.5 12.5l-22 6l-18 8v1q0 -1 -10 4.5t-25.5 16.5t-25.5 21l-7 7q-3 4 -10.5 16t-10.5 17t-8.5 16t-7.5 19t-4 20.5t-2 26.5q0 29 14 59t29 46q3 3 6.5 9t13 17t27.5 26q-6 -3 1 2q35 23 35 27q0 2 16.5 16t40.5 28.5t38 14.5q7 0 7 2
q0 1 17.5 8.5t18.5 10.5v4q1 19 4 41l4 28q2 14 7 63l8 66q1 12 3 26t2.5 22t2 18t2 15.5t1.5 11.5t2 9.5l2 7t2 5.5t3 3h4q16 0 34.5 -17t18.5 -40l-2 -43q0 -29 -4.5 -59t-5.5 -40q-11 -66 -11 -99v-2l1 -7l39 -1q55 -2 99 -22t44 -46q0 -5 -12.5 -8.5t-25.5 -3.5
q-8 0 -41.5 8t-63.5 8q-40 0 -42 -2q-3 -4 -8.5 -42.5t-6.5 -64.5l-1 -31l-5 -102l-4 -104h15q1 0 3 -0.5t3 -0.5q5 0 11 1.5t14 1.5l27 5q17 3 31.5 8.5t18.5 5.5t8.5 5t15 10t31.5 5q4 0 6 -2l8 -6q7 -1 7 -21q0 -9 -2.5 -15.5t-6.5 -9t-7.5 -4t-5.5 -2t-1 -1.5
q0 -13 -59.5 -27t-99.5 -17h-5.5h-4t-3.5 -1t-2 -1.5t-1 -2.5t-1 -3.5t-0.5 -5t0.5 -6.5v-8.5v-10.5q0 -33 2 -57.5t6 -51t6 -44.5q0 -2 2 -8l-1 -1q1 0 3.5 -5.5t5.5 -19t3 -28.5v-3l2 -12q3 -13 6 -27.5t5 -18.5q1 0 2 -1q13 -13 13 -80q0 -7 -6 -9zM297 325q0 7 0.5 16
t0.5 12q0 16 -6 16q-20 0 -44.5 -16t-27.5 -23q-3 2 -41 -34.5t-38 -44.5q-2 -4 -6.5 -9.5t-4.5 -6.5l-6 -9q-5 -10 -10.5 -26t-5.5 -32q0 -14 7 -35t14 -29q30 -30 80 -43q51 -13 60 -13q4 0 6 1l9 1l1 51q2 19 4 63t4 77t3 36z" />
    <glyph glyph-name="sterling" unicode="&#xa3;" horiz-adv-x="809" 
d="M131 -11q-20 -2 -36.5 -6t-34.5 -4q-48 0 -69 16v5q0 4 -0.5 9t-0.5 6q3 9 3 13l9 5q11 5 16 7l24 10q9 4 19 8t14 6t9.5 4t7 2.5t5.5 0.5h6h8l34 5l32 5q2 0 4.5 0.5t3.5 0.5h4q6 0 11.5 2.5t10.5 6t9.5 7t8 7.5t6 7t3.5 4l1 2l7 9l12 19q31 58 31 100v4q0 2 1.5 9
t1.5 10q0 1 -0.5 8t-0.5 12q0 9 0.5 28t0.5 27l3 12l-22 1h-18q-36 0 -80.5 -13.5t-55.5 -13.5q-13 0 -42 12h1q-10 5 -10 23q0 17 8 24t19.5 9t13.5 4l12 2q12 2 19.5 5.5t13.5 3.5h2q6 0 10 4l8 -1q8 -1 10 -1q9 0 20 5l-1 -1q2 0 10 -1.5t18 -1.5q11 0 16 1l21 1
q9 1 15 5.5t9 14t4 16.5t2 20.5t1 17.5q-1 2 -1 8q0 5 1 6q0 7 -2 13l10 30l3 19q4 16 16.5 46.5t23 53.5t12.5 24q7 2 18.5 17t19.5 29.5t7 14.5q5 0 15 7t16 9h7q6 0 26 -10.5t34 -10.5l18 -13q2 -2 20.5 -18.5t24.5 -22.5q-1 0 -1 -1q0 -5 6 -8l3 -3q3 -2 9 -8t11 -13.5
t9 -19t4 -22.5v-1q0 -1 4.5 -12t4.5 -26q0 -79 -33 -91q-1 2 -4 2l-1 1q-4 7 -12 7h-4v51l-1 -1l-1 17v11q0 8 -13 38t-21 39l-7 7l-1 -1q0 4 -13 15t-26 19l-13 9q-22 0 -51 -47t-40 -76q0 -3 0.5 -7t0.5 -6l-7 -21t-3.5 -13t-1.5 -5v1q-3 -6 -3.5 -14t-1.5 -13t-5 -6
q0 -3 1 -8.5t2 -9.5l1 -4q-5 -5 -5 -20q0 -5 1 -12v-6l-1 -18l16 -3h-1q20 -7 53 -9l34 -5l9 -3h6q7 -1 53.5 -6.5t76.5 -8.5l8 -2q6 0 20 -2t18 -2h4q8 -2 21 -4.5t18 -3.5t10 -5t7 -11q-7 -14 -13 -14q-1 0 -3 1q-7 0 -9 -6q-2 2 -3 6q-7 -9 -13 -10q-2 0 -6.5 0.5
t-13.5 0.5t-20 1l-32 2q-8 1 -38 4t-61.5 5.5t-56.5 2.5l-37 4l-42 1q-7 -4 -7 -10q0 -3 1.5 -8t1.5 -7t-0.5 -7t-0.5 -8q0 -1 0.5 -3t0.5 -3l-1 -15q-4 -4 -4 -9q0 -3 1 -5l3 -17q0 -1 -2 -2l-2 -1q1 -3 1 -12q0 -76 -38 -134q-8 -13 -8 -19q0 -16 88 -16h5q9 -1 24 -1
t26 -1l35 -3q38 -4 46 -4h2q4 0 6 -1l66 -3q89 -6 89 -5l5 1l-1 -1q4 0 11 4v-1h2q2 0 5.5 -1.5t5.5 -1.5q3 0 10 3v-1l12 4q12 4 21 13q2 -3 5 -3q2 0 12.5 6t13.5 6h1q0 -1 -0.5 -1t-0.5 -1q1 -3 10.5 -10t9.5 -20q0 -10 -4 -20l-14 -14l-27 -15q-2 0 -4 3l-3 3l-3 -2
q-3 -1 -8.5 -2.5t-12.5 -3.5t-18 -3.5t-22 -1.5q-33 0 -86 3l-30 2q-3 0 -7.5 0.5t-6.5 0.5h-18q-1 1 -25.5 3.5t-67 5.5t-80.5 3h-4q-11 0 -49 2.5t-72 2.5q-8 0 -20 -0.5t-15 -0.5h-9q-4 -1 -17 -8t-19 -7q-13 -5 -23.5 -8t-13.5 -4t-5 -3z" />
    <glyph glyph-name="currency" unicode="&#xa4;" horiz-adv-x="644" 
d="M185 415l19 27l2 6q8 27 12 27h1q4 0 10 7t6 12v1q0 5 20 28v2q5 5 5 9l3 3l8 9q0 2 1 3h1q18 34 32 48l15 13q41 51 91 97l6 4q14 13 22 17.5t9 5.5l9 5q10 2 15 7l20 9q2 -1 6 -1q3 0 5 2l6 3q2 0 6.5 0.5t7.5 0.5q13 0 22.5 -3t14.5 -6t6 -3l18 -18q7 -7 7 -21
q0 -5 -2 -5l-15 -11q-1 0 -2 2t-4 4t-9 2h-5q-2 1 -5 1q-2 0 -4 -0.5t-3 -0.5h-8q-3 0 -16 -7t-34.5 -22t-37.5 -31l-7 -5q-4 -1 -5 -1t-1.5 -1t0 -1.5t-1 -3t-3.5 -5.5t-7.5 -8t-13.5 -12l-17 -21q0 -1 -1 -2t-1 -2l-10 -9q-6 0 -26.5 -28.5t-22.5 -30.5q-4 -1 -12 -12.5
t-13 -22.5l-6 -10l-11 -11q-2 -8 -5.5 -15t-6.5 -10l-3 -3l-6 -12q0 -3 3 -3h2q0 -6 20 -6q9 2 23 2t24 1h1q12 4 29 4l17 2q6 2 11 2l2 -1h4q6 0 18 2l21 3q1 0 4 1l108 20l27 4q15 2 28.5 -6.5t14.5 -25.5q0 -1 -10 -8t-12 -7h-2q-8 0 -13 -5h-7q-14 0 -22 -7h-1
q0 -1 -6.5 -2t-14.5 -2t-11 -2h-1l-6 -3l-6 -2q-16 -4 -27 -6t-15.5 -1.5t-7.5 0t-6 -2.5l-3 -2h-6l-2 -1q-2 -1 -7 -2.5t-12 -3t-17 -3t-21.5 -3t-27 -2.5t-31.5 -1q-7 0 -9 2h-1q-4 3 -7 3q-2 0 -7 -5h-1q0 -6 -41 -6q-6 0 -13 1t-13 1h-1q-9 -4 -21 -24.5t-12 -30.5v-5
q-3 -3 -3 -8q0 -16 35 -16q9 0 14 1q10 0 12 -1h1q3 -1 8 -1q1 0 4.5 0.5t5.5 0.5h47q87 0 113 13l14 3q1 1 11.5 3t19.5 3l8 1q4 0 7.5 -2t8.5 -2q1 0 3 0.5t4 0.5h2q0 -1 6 -7.5t6 -15.5q0 -4 -4.5 -6.5t-4.5 -5.5h-3q-12 0 -46.5 -16t-48.5 -16q-1 0 -3 1.5t-4 1.5
q-1 0 -6.5 -2t-17 -4.5t-27.5 -2.5h-5l-32 -4l-1 -2q-2 1 -6 1q-6 0 -10 -3h-1q0 -1 -8 -1l-106 3q-10 0 -16.5 -4t-8.5 -16.5t-2.5 -20.5t-0.5 -29v-15q0 -48 17 -65q0 2 3 -3q27 -43 39 -54q9 -9 18 -11l8 -4q3 -3 7 -5h1q2 0 6 -4h1l6 -3q6 -3 16 -6.5t23.5 -7.5
t33.5 -6.5t42 -2.5q110 24 139 86q0 -1 13 -17l7 -7q0 -1 2 -3q1 -1 1 -2l-1 -1h-1q0 -4 2 -10t2 -9q0 -10 -9 -21l-9 -10l-8 -13l-7 -5q-4 -2 -8.5 -4t-7.5 -3.5t-4 -2.5q-3 -3 -7 -5.5t-6 -3t-3.5 -1.5t-1.5 -3l-8 -3q-5 0 -11 -2l-5 -1q-2 0 -3 1h-4q-5 0 -8 -3l-2 -2
q-6 0 -10 -2.5t-10 -2.5q-8 0 -27 2t-21 2q-3 0 -11.5 -0.5t-11.5 -0.5l-8 1l-22 4l-38 11q-27 10 -47 24l-15 9l-17 11l-10 4q-36 32 -63 68h-1q-6 2 -17 46.5t-11 73.5q0 11 2.5 32t2.5 26q0 15 -6 15l-3 1q-65 23 -65 58q0 13 15 13q2 0 30 -10.5t38 -10.5q5 0 10 5
l10 26l12 26q2 4 2 7q0 6 -14 10.5t-30.5 7.5t-30.5 13.5t-14 27.5q0 8 5.5 12t11 4.5t19.5 0.5q9 0 20.5 -2.5t26.5 -2.5q14 0 19.5 -3.5t6.5 -3.5q6 0 17 14z" />
    <glyph glyph-name="yen" unicode="&#xa5;" horiz-adv-x="785" 
d="M454 -217q-33 0 -38 13q-7 19 -53 186q-3 8 -5.5 41t-6 60t-10.5 30q-39 0 -85 -14.5t-66 -14.5q-32 0 -32 36q0 27 146 49q2 0 8.5 -1t9.5 -1q12 0 12 11q0 26 -7 36v43q10 19 10 32q-31 0 -92 -9.5t-94 -9.5q-17 0 -33 9t-16 27q0 2 2 9.5t2 10.5q1 -1 4 -1q5 0 13 5.5
t12 5.5l6 -8q12 0 17 4q1 -4 13 -4q13 0 71.5 9t58.5 15v2q-5 10 -49 91.5t-55 127.5h-4q-11 43 -22 69q0 15 10.5 24t25.5 9q3 0 10.5 -10t15.5 -21.5t12 -14.5q14 -44 64 -154t63 -110l24 23q0 1 32 51t67 105t40 66q4 7 16.5 38t26.5 52t29 21q17 0 26.5 -17.5t6.5 -31.5
l-26 -53q-3 -1 -16.5 -24.5t-28.5 -52t-20 -35.5q-86 -128 -95 -142v-3h127q8 0 17 -8.5t9 -17.5q0 -24 -36 -24q-4 0 -11 0.5t-9 0.5q-9 0 -28 -3.5t-29 -3.5q-51 0 -74.5 -13.5t-23.5 -52.5q1 2 1 -3v-8q-1 -51 15 -51q41 0 123.5 10t127.5 10q4 0 11.5 -8t7.5 -14
q0 -13 -23 -23t-59 -15.5t-71 -8.5t-69.5 -5.5t-43.5 -3.5q0 -64 27 -163t27 -147q0 -10 -6 -18t-10 -9z" />
    <glyph glyph-name="brokenbar" unicode="&#xa6;" horiz-adv-x="306" 
d="M119 720q0 1 3 1q52 0 52 -128q0 -2 -0.5 -4t-0.5 -4q0 -1 1.5 -11t2.5 -28.5t1 -38.5v-10q0 -76 12 -150.5t12 -79.5q0 -13 -9.5 -20t-18 -8t-23.5 -1q-14 0 -20 41q-19 116 -19 124q0 5 2 7q-5 15 -5 59q-2 10 -8 83.5t-6 79.5q0 2 1.5 5.5t1.5 6.5q0 2 -3 15t-3 29
q0 7 3 11t11 10t13 11zM166 98q8 3 14 3q34 0 34 -33q0 -6 -1 -13t-3 -18t-3 -51t-1 -103q0 -15 4 -40t4 -52q0 -5 -8.5 -12.5t-21.5 -7.5q-33 0 -37 14q0 5 -2 11.5t-5 16t-5 40.5t-2 78q0 21 2 30t2 11q0 3 -1.5 9t-1.5 13q0 30 8 62.5t24 41.5z" />
    <glyph glyph-name="section" unicode="&#xa7;" horiz-adv-x="678" 
d="M296 706q14 2 24 2q40 0 76 -24q0 1 10.5 -5t21 -13t10.5 -10l10 -10q10 -11 19.5 -28t9.5 -33q0 -21 -17 -21q-21 0 -27.5 4t-15.5 22q-31 63 -83 63q-2 0 -15 -3t-28 -9t-17 -12q0 -1 -16 -20.5t-16 -28.5q0 -26 16 -51q13 -13 13.5 -19t39.5 -45q95 -95 129 -141
q1 -1 7 -12t19.5 -28t36.5 -40q38 -38 59.5 -82.5t21.5 -83.5q0 -22 -8 -38q-2 -22 -20.5 -38t-42.5 -23.5t-42.5 -11t-29.5 -3.5q-10 0 -13 3t-1.5 5.5t-2.5 2.5l-2 -1q-1 -2 -2 -2q-5 0 -8.5 6t-3.5 12q0 2 2 6.5t12 10t26 5.5h3l2 -1q1 0 5 4q0 1 5 3t12.5 6t15 10.5
t13.5 19t8 27.5q0 21 -8 38q-2 2 -2.5 7.5t-9.5 22.5t-32 46q-35 40 -46.5 63t-84.5 97l-1 2q-2 2 -5.5 6.5t-8.5 11t-12.5 15t-15.5 17.5t-18.5 20.5t-21.5 22.5l-7 7l-4 -6q-23 -23 -26 -24q1 -1 -4 -5.5t-11.5 -11t-9.5 -12.5q-5 -9 -11 -15l-1 -2l1 -1q0 -1 -7 -24.5
t-7 -39.5q0 -38 18 -64l6 -8q6 -9 13.5 -21t9.5 -19q1 -2 9.5 -9.5t22.5 -30.5q1 -2 8.5 -9t17 -18t17.5 -24q5 -9 16 -15q0 -2 33 -41t33 -56q0 -3 8 -17t8 -22q0 -2 -0.5 -4.5t-0.5 -3.5q0 -3 2 -3q1 0 2 5l1 4q10 -23 10 -30v-4l5 -12q4 -13 4 -27q0 -7 -1 -12
q-1 -14 -7 -35t-12 -21q-2 0 -3.5 -10t-11.5 -23.5t-31 -20.5l1 -1q-4 -10 -33 -23q-24 -10 -47 -10q-52 0 -78.5 25t-26.5 50q0 4 3 4q1 0 1.5 -2.5t1.5 -2.5q3 0 5.5 9t4.5 9l5 -7q5 -7 10 -7h3q7 0 16.5 -12t27.5 -12q13 0 21.5 1.5t12 3.5t4.5 2q22 0 45 40t23 53
q0 29 -16 77q-4 11 -6 11q0 4 -13 26t-47 65.5t-78 87.5q-4 3 -4 6q0 -4 -30 46q-3 0 -14.5 15.5t-22.5 46t-11 60.5q0 45 10 60l7 18q13 25 26 41q39 47 60 50h9l-5 11q-6 9 -6 14t-3 8l-6 6t-6 15.5t-3 32.5q0 35 15 54q3 4 10 13t8.5 11t7.5 9t8 8.5t8.5 6t11 6t12.5 5
t17 6t21 5.5z" />
    <glyph glyph-name="dieresis" unicode="&#xa8;" horiz-adv-x="463" 
d="M200 877q9 13 26 -4q4 -4 3 -15.5t-5 -18.5q-6 -11 -9 -13q-3 -1 -1 -7q0 -6 -4 -10t-4 -8q2 -4 -7 -17q-5 -7 -13 -23q-4 -8 -14.5 -19.5t-16.5 -12.5q-5 -2 -4 -10t-16 -28q-10 -12 -21 -17.5t-15 -1.5q-3 3 -7 3t-9.5 6t-5.5 10q0 6 7 15q7 8 13 21q6 10 8 10t2 4t4 4
q3 0 5 6t5 6q4 0 9 9t7 9q3 0 1 2q-1 2 6.5 15t10.5 13q2 0 2 5t8 19t16 23q7 12 8 14q1 6 6 6t5 5zM380 798q-8 -39 -30 -76q-15 -24 -15 -32q0 -7 -21 -28q-8 -8 -10 -16q-3 -13 -35 -35q-13 -10 -28 -11q-12 -1 -17 1.5t-9 12.5q-6 15 9 21q8 4 25 24.5t24 35.5q1 2 5 8
t5 8q5 5 8 13q2 7 9 18q1 3 3 7l3.5 7t1.5 4q1 4 8 15t8 16q0 4 7 9q5 3 5 10q2 7 4 8q6 6 8 10q11 15 18 1q2 -5 8 -5t6 -5q0 -7 2 -7q3 -1 -2 -14z" />
    <glyph glyph-name="copyright" unicode="&#xa9;" horiz-adv-x="1004" 
d="M572 459h6q9 0 13 -6q1 -2 23 -8.5t22 -20.5q0 -5 -7 -10t-8 -10t-5 -5q-70 0 -116 -37q-4 -3 -7.5 -4.5t-5 -2t-1.5 -1.5q0 -4 -11 -12t-22 -22t-11 -31q0 -9 2 -17.5t5 -13t5 -4.5q4 0 4 -2t1.5 -3t11.5 -2.5t30 -1.5q35 0 44 1t21.5 7t35.5 12q3 0 12.5 7.5t26.5 7.5
q4 0 4 -2q0 -1 -2 -4.5t-2 -6.5t2 -3l5 3q6 3 14 3q5 0 5 -10q0 -30 -41 -47l-1 -2q-28 -20 -79 -27q-13 -2 -25 -2q-27 0 -46 2.5t-26 5.5t-12 5.5t-8 2.5q-9 0 -16.5 4t-11.5 8t-7 9l-4 5q-28 27 -28 76q0 33 9 42q-7 1 66 67q35 30 56.5 38t78.5 12zM584 701q4 1 18 1
q101 0 143 -42q1 -1 7.5 -9t13 -17t12.5 -20t6 -19l-4 -6q-5 -6 -12.5 -13t-13.5 -7q-7 0 -31 26t-30 26q-5 0 -6 2.5t-1.5 5.5t-14 5.5t-40.5 2.5q-55 0 -107 -26q-20 -10 -36 -17t-22.5 -9t-11.5 -4.5t-8 -5.5q1 3 -12.5 -6l-31.5 -21t-24 -15q-9 -5 -48 -39t-53 -53
q-24 -34 -41 -63t-22 -41.5t-5 -15.5l-7 -17q-8 -29 -8 -82q0 -9 7.5 -35.5t14.5 -32.5q1 -1 13.5 -16.5t24.5 -30t12 -15.5l41 -26l5 -2q4 -3 13.5 -7.5t21 -9t27 -9t30.5 -6.5q2 0 41 -9.5t93 -9.5q24 0 47 3.5t33 6.5l11 3q0 -2 26 7t57 24t40 27q5 5 6 5q-1 0 2.5 2.5
t11 9t15 15.5t13 24.5t5.5 33.5q7 24 7 91q0 29 -10 101t-10 85q0 2 2.5 4.5t2.5 6.5t-4 7l-1 1l2 4q1 4 1 6q0 4 -4 4q-2 0 -2.5 -3.5t-1.5 -3.5q-18 30 -18 52q0 6 10 6q5 0 7 -5.5t5 -5.5q7 0 7 5l-4 3q-3 3 -3 7t4 4q5 0 14.5 -7.5t11.5 -7.5h1q1 0 1 -2l-1 -2v-4
q0 -8 7 -16t8 -12q3 -14 18.5 -49t15.5 -72q0 -17 1.5 -29t3.5 -16t3.5 -6.5t1.5 -4.5t-2 -4.5t-2 -6.5q7 -21 7 -97q0 -21 -2 -27q0 -39 -35 -96t-54 -57q-2 0 -3 1l-13 -10q-13 -9 -25 -9q-5 0 -6 -4t-3 -4q-1 0 -2 0.5t-2 0.5q-3 0 -6.5 -4t-5.5 -4q0 -1 -16 -7
t-35.5 -12t-26.5 -6h-5q-3 0 -5 -2t-2 -4.5t-22 -4.5t-65 -2q-50 0 -75 4q-33 5 -51 8t-23 4t-12.5 4l-12.5 5q-29 7 -45.5 12.5t-18.5 7.5t-3 2.5t-5 0.5q-8 0 -20.5 6t-25.5 14t-24.5 16.5t-19.5 14.5l-7 6q-1 0 -8.5 9.5t-18 23t-17.5 20.5q-6 7 -10.5 16.5t-7 16.5
t-4.5 13l-2 6q-19 34 -19 72q0 2 1 7t1 8t-1 5.5t-1 5.5q0 18 5.5 41.5t12.5 45t7 23.5l3 7q3 7 6.5 15.5t8 17t8 14.5t5.5 6q11 11 21.5 26.5t17 24.5t11.5 9q-1 1 9.5 12.5t10.5 12.5q0 7 9.5 16t23 19t15.5 12q3 3 33.5 21.5t44.5 29.5l3 3q3 2 10 7t14.5 9.5t16.5 8
t17 3.5l7 -7q1 0 1 4q0 11 31.5 22.5t111.5 33.5z" />
    <glyph glyph-name="ordfeminine" unicode="&#xaa;" horiz-adv-x="641" 
d="M310 642l-5 5l-3 1h-7.5h-9.5q-13 0 -20 -3l-6 -2h1q-1 0 -4 -0.5t-9 -3t-15 -9.5v1q-5 -5 -36 -41q-1 -1 -13 -22.5t-12 -24.5l-3 -7v-2l-1 -2l-10 -12l-13 -32q-2 -3 -3 -4l-2 -2q2 -2 2 -5l-9 -17q-4 -12 -4 -24q3 -2 3 -3l6 5l14 11v-1l39 39v-1l6 6l40 37l21 18v-1
l11 10l56 58q12 12 11 12q0 2 -4 3.5t-10.5 5t-10.5 7.5zM249 704h7q14 0 40 -5.5t36 -10.5l6 -4q7 -4 14.5 -8.5t8.5 -4.5l11 -10l20 22l15 1q26 2 30 -20v-6q1 -23 2.5 -61t2.5 -63t1 -26l4 -19q0 -2 0.5 -5.5t0.5 -4.5l4 -14q2 -5 9 -14l1 -5q0 -2 3 -5l1 -1q0 -1 3 -4
l1 -1q0 -1 2 -3.5t3 -2.5l8 -8l3 -1q4 -1 6 -1q1 0 7 2l2 -3l11 6q21 21 26 22l12 7h-1q10 4 11 4t3.5 -1.5t4.5 -1.5t2 1l2 1l8 1q10 -10 10 -14q0 -2 -1 -3l-8 -14q-8 -11 -11 -8l-7 -8q0 -7 -1 -9v1q-3 -9 -9 -9h-1l-10 -9q-23 -21 -49 -21q-5 0 -9 2q2 0 -5.5 2.5
t-11.5 4.5t-12.5 7.5t-16.5 12.5q-10 0 -22 15.5t-23 52.5t-14 85q-7 12 -7 14t2 4v8l-1 1q-5 0 -21.5 -15t-39 -37.5t-35.5 -32.5q-2 -7 -5 -8l-27 -25h1q-3 -8 -16 -8l-6 -8q0 -4 -5 -9l-16 -14v1l-3 -3l-5 -2l-14 -14q-9 -4 -12 -11q-16 -17 -46.5 -33t-43.5 -16
q-8 0 -18.5 11t-10.5 19q0 16 9 43.5t9 29.5q4 28 12 46v1q1 1 1 2l5 16q5 8 7 16l4 7q2 2 2 3l8 17q62 132 115 145l8 3q8 4 10 4l3 -1q1 0 2 1z" />
    <glyph glyph-name="guillemotleft" unicode="&#xab;" horiz-adv-x="872" 
d="M770 504q1 0 7 -1.5t11 -1.5h2q1 0 5 -1t8 -3t8.5 -5t8 -7.5t5.5 -11.5t2 -15q0 -3 -12 -10.5t-19 -7.5t-35 -11t-42 -25q-20 -20 -80 -49q-16 -10 -39 -28.5t-38 -31.5t-14 -13q2 0 -1 -2.5t-8.5 -10t-5.5 -16.5q0 -13 26 -30q29 -19 69 -49.5t43 -39.5q0 -1 18 -20.5
t20 -29.5l-1 -5q-1 -5 -3 -9.5t-4 -4.5q-1 0 -3 2l-3 2l-1 -1q-1 0 -2.5 -0.5t-4 -1t-4.5 -0.5q-9 0 -17 3.5t-12 6.5l-3 3v-1q-9 21 -60 47q-3 0 -16 10t-31.5 23.5t-30.5 19.5q-21 11 -44.5 37.5t-23.5 53.5q0 8 8 24q5 10 11.5 17t10.5 9.5t4 4.5q2 3 14.5 16.5
t32.5 31.5t35 25q7 4 13 5q4 2 24 17q14 11 25 19q6 6 13 10.5t13.5 7.5t22 10t29.5 14q20 10 38 15.5t24.5 6.5t6.5 2zM428 553l18 4q5 0 23 -9.5t18 -14.5q0 -1 -1.5 -4t-1.5 -5t2 -3t2 -3q0 -4 -8 -7.5t-28.5 -14t-41.5 -26.5q-6 -6 -34.5 -28t-34.5 -23q0 -1 -5.5 -5
t-17.5 -13.5t-24 -21.5q-53 -43 -79 -63q-6 -5 -22.5 -19.5t-30 -26t-15.5 -11.5h-1q-1 0 -1 -5q0 -26 54 -73q20 -21 38 -36t25 -20l8 -5q2 0 2.5 -0.5t0.5 -2t2.5 -4.5t7.5 -6q24 -21 41.5 -40t24.5 -28t7 -11l3 -4q3 -5 7 -11.5t7.5 -14.5t6.5 -16.5t3 -14.5
q0 -7 -4.5 -9t-22.5 -2q-14 0 -23 3.5t-13 7.5t-12 13q-15 30 -27 44t-26.5 24t-25.5 22q-9 9 -16 14.5t-9.5 7t-3.5 2.5t-2 4q-3 7 -4 10q-1 -1 -4 -0.5t-21 14.5t-48 42q-5 5 -10 9l-7.5 6t-4.5 4l-2.5 2.5t-0.5 1.5q-1 -1 -11 12t-19.5 29.5t-9.5 23.5q0 34 73 80
q12 8 19 15.5t10 8.5t23 19t28 18q1 0 1 -0.5t1 -0.5q6 17 14 18q-1 0 4 4t15 11.5t22 16t25 19t23 19.5q18 16 53.5 41.5t60.5 31.5z" />
    <glyph glyph-name="logicalnot" unicode="&#xac;" horiz-adv-x="765" 
d="M682 79q-57 0 -57 71q0 22 7 63.5t8 51.5l1 13l-10 2q-5 2 -12 2q-1 -1 -2 -1h-1h1q-1 1 -19.5 2.5t-53 3.5t-66.5 2q-15 0 -126 -4q-40 -2 -69.5 -4t-39.5 -3t-19 -1.5t-18 -0.5q-4 1 -10 1q-16 -1 -44 -1q-60 0 -77 7q3 -2 1 -2q-11 0 -24 16q-11 12 -11 30
q-3 19 29 19q7 0 21.5 -1t28.5 -1q13 0 15 2q1 0 4.5 -2t4.5 -2h1l1 1q1 0 2 -1t5.5 -2t11.5 -1q4 0 12.5 1t14.5 1q5 0 11.5 -1.5t7.5 -1.5q3 0 5 2t2 3t3 1q29 -2 100 1q5 -1 45 0.5t40 3.5q1 1 2 1h1q1 -1 2 -1q2 -1 40.5 -1.5t82.5 -1.5t55 -2q12 -2 36.5 -2.5t42 -1.5
t18.5 -2h-1q40 -9 40 -38q0 -4 -3 -14q-1 -8 -11 -74q0 -1 -3 -12t-6 -29t-4 -37q0 -6 -1 -11t-1.5 -7t-0.5 -3q0 1 2.5 -2t5.5 -9t3 -11q0 -4 -8 -8t-16 -4z" />
    <glyph glyph-name="uni00AD" unicode="&#xad;" horiz-adv-x="713" 
d="M532 309q16 2 35 2l21 1l-1 -13q-1 -15 -8.5 -24t-17.5 -9h-4q-1 1 -7 -3t-16 -8t-17 -4q-9 0 -11.5 -1t-3.5 -1h-1q1 -2 -13 -6.5t-51 -9t-84 -4.5h-5q-30 0 -64.5 -5.5t-60.5 -5.5q-25 0 -38.5 6.5t-17 13.5t-5.5 19l-2 12l13 5q13 6 36 7q2 0 24 2.5t64.5 5.5t95.5 3
h3q2 0 6 1q36 5 130 16z" />
    <glyph glyph-name="registered" unicode="&#xae;" horiz-adv-x="1080" 
d="M740 158q-10 0 -25 2.5t-25.5 5.5t-11.5 4q-25 15 -65.5 28t-75.5 30q-1 0 -10 5.5t-22.5 9.5t-29.5 4q-6 0 -14.5 -4.5t-8.5 -6.5q0 -25 -5 -37.5t-11 -15t-17 -2.5q-22 0 -33.5 14t-11.5 26q2 19 2 53q1 26 2 46t2.5 30.5t2.5 17t1.5 9t0.5 3.5v2q0 1 4 19q7 38 12 50
t28 38l3 5q3 5 6 9.5t9.5 11t13.5 11.5t17.5 8.5t21.5 3.5q2 0 4 -0.5t4 -0.5q3 0 7 2q3 3 6 3q21 0 35 -7q2 -1 5 -1.5t4.5 -1t1.5 -1.5q0 2 12.5 -7.5t24.5 -29.5t12 -41q0 -36 -16.5 -75.5t-26.5 -44.5l-2 -3q-29 -32 -29 -35q0 -2 17 -10.5t20 -8.5q4 0 42 -18.5
t45 -18.5h1q4 0 13 -6q14 -6 43.5 -15.5t40 -17t10.5 -19.5q0 -23 -34 -23zM533 476q-6 10 -11 10l-5 -4q-35 -24 -35 -37v-1v-1v-1l-4 -4q-2 -5 -6 -19q-3 -10 -7 -17t-6 -16.5t-3 -31.5q-1 -10 -2 -18.5t-1.5 -12t-0.5 -4.5q0 -3 2 -3q4 0 17 10.5t28 27.5t26.5 43.5
t11.5 52.5q0 17 -4 26zM537 746q3 1 24 1q48 0 67 -6q13 -4 54.5 -26t49.5 -24q4 -1 9 -6t9 -10l3 -5q3 0 12.5 -9.5t19 -27t9.5 -32.5q0 -6 -8.5 -18t-16.5 -12q-3 0 -9.5 2t-8.5 2q-4 0 -8.5 10t-8 21t-5.5 13h2q-2 12 -33 38q-53 44 -112 44q-14 0 -30.5 -4.5t-19.5 -4.5
q-6 0 -12 -1t-13.5 -4t-13 -5t-14 -7.5t-13 -8t-15 -10t-14.5 -10t-16 -11.5l-16 -12l-8 -7q-8 -7 -17 -14.5t-20.5 -20.5t-19.5 -26q-12 -18 -16 -26l-16 -21q-34 -50 -40 -81l-17 -48l-2 -7q-2 -8 -4 -17t-2 -12t-0.5 -5.5t-1.5 -3.5t-1 -2l-1 -1q0 -1 0.5 -1t0.5 -1
t-1.5 -2.5t-1.5 -2.5t1 -1q0 -1 -2 -5t-2 -6l1 -1q0 -1 -2 -27.5t-2 -49.5q0 -31 8 -53l16 -55l-1 -1v-2q1 1 3 -2l5 -7.5t5.5 -10t4.5 -10t2 -7.5q-1 -1 -1 -2q0 -2 31 -40q21 -27 27 -32.5t14 -5.5q1 0 15 -9.5t31 -19t25 -9.5q4 0 18.5 -5t47 -10t79.5 -5q16 0 32 4
q1 0 9.5 1.5t13.5 2t15 3.5t18 7t19.5 10.5t23.5 15.5q4 3 6.5 4t5.5 1.5t13 7.5t26 21l2 2q2 1 6 4t9.5 7.5t11.5 10.5t12.5 12t12.5 13.5t10 14.5q16 25 22 48q13 36 13 72q0 19 -4 49t-4 32v3q-3 1 -16 57q0 1 -7 15.5t-14 31.5t-7 23q0 3 -8 17t-16 27l-8 13q0 4 -11 17
t-23.5 26t-13.5 15l-8 7q-7 7 -17 14.5t-15 7.5l-2 -1h-3t-1 3q0 4 -15 6.5t-15 8.5q0 9 20 9l10 -1q9 -2 23 -4.5t25 -6.5q17 -6 25.5 -15t15.5 -11q5 -3 9.5 -7t7 -6t3.5 -2q2 0 10 -9.5t9 -9.5t6.5 -11t14 -24t15.5 -16l6 -8q7 -8 12.5 -19t5.5 -20l-1 -2q0 -1 3 -3
q-2 0 1 -1q25 -10 25 -49q0 -5 9.5 -23.5t9.5 -36.5q0 -5 7.5 -40t7.5 -72q0 -9 -3 -9h-1q-8 0 -8 -6q0 -1 3.5 -4t3.5 -10q0 -23 -10 -25l-3 -2q5 -3 5 -8q0 -3 -1.5 -11t-11 -26t-25.5 -34q4 0 -12 -14q-9 -7 -9 -10q-5 -10 -21 -26t-32 -16l-13 -15q-13 -15 -30 -15
q1 0 -10 -7.5t-24.5 -15.5t-18.5 -8h-1l-2 1q-2 0 -16 -7.5t-27 -8.5q-2 -1 -15 -4t-36 -6t-42 -3q-88 0 -115 11q-5 0 -27.5 5.5t-31.5 10.5q-53 13 -80 40q-4 7 -8 7l-4 1q0 -2 -6.5 4t-15 14.5t-11.5 9.5l-4 3q-4 3 -7.5 6t-6.5 6.5t-3 6.5v1q0 2 -9 14t-9 14
q0 1 -6.5 9.5t-13 19.5t-6.5 18q0 3 -11.5 24t-11.5 47q0 3 -2.5 11t-4.5 26t-2 44q0 83 25 147q12 50 29 77q-1 0 2.5 8t10 19.5t12.5 20.5t12 23t33 43q13 12 13 14q-1 4 48 50q9 9 26.5 20.5t30.5 18.5l12 8q0 -2 12.5 4.5t30 14.5t26.5 8q8 0 9.5 2t2.5 2h1l6 2q5 2 9 2
q1 0 5 -0.5t5 -0.5q4 0 6.5 2.5t7.5 3.5z" />
    <glyph glyph-name="macron" unicode="&#xaf;" horiz-adv-x="809" 
d="M65 712h3q2 1 4 1q5 0 19 -1t18 -1q10 0 15 -3t13.5 -6t63 -6t152.5 -3h1q2 0 5.5 0.5t8.5 0.5t13 0.5t17.5 1t23 0.5h28.5q50 0 114.5 4.5t100.5 4.5q14 0 20 -1q1 0 14.5 -1.5t25.5 -3.5t22.5 -11.5t10.5 -25.5q0 -17 -8.5 -24t-29.5 -7l-1 1h-2.5t-4.5 0.5t-7 1
t-9 0.5q-8 0 -19.5 -0.5t-34 -1.5t-49.5 -2q-32 -1 -54 -2t-29 -2t-11 -1.5t-7 -0.5q-2 0 -3 1.5t-5 1.5q-1 0 -11.5 -1t-24.5 -1q-74 0 -128.5 2.5t-79 5t-26.5 2.5t-4.5 -1t-7.5 -1q-34 0 -66 7t-42 7q-3 0 -4.5 -0.5t-2.5 -0.5l-1 -1l-3 3q-3 2 -8.5 6.5t-11 9.5t-9.5 10
t-4 9q0 7 4 14t8 7q2 0 2 1q-2 1 -2 2q0 2 3 5z" />
    <glyph glyph-name="degree" unicode="&#xb0;" horiz-adv-x="353" 
d="M174 716q-4 8 -9 8q-8 0 -14.5 -7t-13 -17.5t-9.5 -13.5q-22 -22 -27 -71q0 -59 55 -59l27 -1q55 6 55 58l-27 49q-6 13 -6 16q0 6 -25 31q-3 4 -6 7zM172 790q8 3 30 3q7 0 22 -12t15 -25q0 -2 -4.5 -11.5t-4.5 -11.5q0 -4 26 -34h1q19 -20 32 -47q3 -7 3 -11
q11 -14 11 -46q0 -9 -4.5 -22t-9.5 -13q-1 0 -2 2t-3 2l-1 -1q0 -1 1.5 -3.5t1.5 -3.5q0 -7 -9 -15t-18 -14l-9 -6q0 -1 -10.5 -6t-31.5 -10t-43 -5q-50 0 -79 23t-29 53v1l-6 22q-1 12 -1 25q0 46 43 100.5t79 65.5z" />
    <glyph glyph-name="plusminus" unicode="&#xb1;" horiz-adv-x="581" 
d="M254 541q1 2 18 2q24 0 38 -12l5 -4v1q6 -4 7.5 -39.5t3.5 -68.5t7 -33q8 0 7 2q-1 4 2 5q12 4 78 4h30q16 0 36.5 -6t21.5 -6q8 -1 11.5 -4.5t5.5 -8.5t4 -7q-5 -6 -6 -7h-20q-24 0 -38.5 -1.5t-19 -3t-5.5 -1.5q-3 0 -6 2t-4 2q-4 0 -5 -3l-4 -3q-1 0 -3 0.5t-3 0.5
t-3 -0.5t-3 -0.5h1q-12 -3 -20 -3l-14 -3q-11 0 -30 -3l-20 -4l-3 -12q-3 -12 -7 -48.5t-4 -82.5q0 -5 3 -17t3 -19q0 -4 -2 -6q0 -9 1.5 -16t5 -17t5.5 -17v1q0 -1 2 -3l4 -16q4 -8 4 -12q0 -3 -3.5 -7.5t-3.5 -7.5q-1 -1 -3.5 0t-9.5 3t-11 2q-23 4 -31 20l-7 9h1
q-2 2 -5 16t-4 15h1q-12 15 -12 97q0 15 1.5 41.5t1.5 37.5q0 27 -9 27l-11 -2q-11 -1 -26.5 -3.5t-22.5 -4.5l-7 -3q-9 -3 -12 -3v-4q-2 0 -10 -1t-10 -1l-17 -9q-9 -3 -16 -3q-2 0 -9 1.5t-9 1.5h-7l-11 7q-16 14 -16 26q0 2 3 5v-1q9 7 14 7l1 -1q16 8 36 12t34 15h6
q2 0 4.5 0.5t3.5 0.5l48 7q33 0 40.5 5t8.5 29v7q0 29 1 30q0 30 -2 34v-1q-2 11 -3.5 27.5t-3.5 21.5l1 8q0 3 2 7zM444 51h7q2 2 4 2t5.5 -4.5t6.5 -4.5h2q2 1 3 1q11 -5 11 -15q0 -7 -9.5 -19.5t-16.5 -12.5q-3 0 -6 3q-5 0 -9 -4v1q-8 -5 -42 -12l-15 -3q-1 0 -3 -1h-1
q-71 -13 -187 -13q-19 0 -87 19h1q-3 2 -8 8t-9 7q0 2 1 7t1 6.5t1 4.5t2 3.5t3.5 2t5.5 1.5h7q10 0 26 -2q1 0 1.5 -0.5l1 -1l1.5 -1.5t3.5 -2t6.5 -1.5t11.5 -1t17.5 -0.5q5 0 6 1l5 5q3 -2 31 -2q19 0 29 2q2 -2 4 -2q14 0 15 2q1 0 1 -0.5t1 -0.5q3 0 6 1h3h11
q32 -1 78 9l33 7q3 3 14 5t17.5 4t8.5 2z" />
    <glyph glyph-name="twosuperior" unicode="&#xb2;" horiz-adv-x="520" 
d="M168 731q7 2 12 6l20 7q10 3 24 3q45 0 81 -30t36 -88q0 -9 -6 -29t-11 -26v-4q-1 -10 -14.5 -35.5t-24.5 -39.5l-12 -15q-4 -4 -4 -12l-8 -14q-2 -1 -7 -6q2 -4 39 -4q23 -8 49 -10t38.5 -5.5t19.5 -17.5h-1l5 -3v1q20 -9 20 -21q0 -14 -13 -14q-5 0 -8 1l-4 2
q-7 0 -10 3q-8 0 -17 -1q-13 0 -27.5 2t-26.5 2l-46 3q-4 4 -11 4q-109 0 -109 35q0 7 6.5 16t21 26.5t26.5 35.5l6 6h-1l7 9q8 21 17 25l9 17q-1 3 15 33l6 19q0 4 4 7v5q0 48 -10 62h1l-4 4q-1 0 -4.5 -0.5t-4.5 -0.5h-9q-14 0 -34 -8l-14 -7q-1 -4 -7 -4l-14 -12
q-1 -1 -1 -3l-7 -8l-9 -19q-10 -15 -27 -15q-15 0 -27 7.5t-12 17.5q0 8 6.5 23.5t12.5 21.5l28 28q5 5 8.5 7.5t5 3l3 1t3.5 1.5l16 7h-1z" />
    <glyph glyph-name="threesuperior" unicode="&#xb3;" horiz-adv-x="460" 
d="M239 791q7 1 18 1q25 0 46.5 -19.5t21.5 -53.5t-9 -44q-4 -5 -18 -41t-19 -38l-9 -16l-8 -11q-1 -2 -1 -4q0 -4 -9 -16.5t-9 -24.5q0 -7 9 -11t10 -6l33 -22v-1q4 2 23 -10q21 -14 24 -14q14 -33 17 -33q1 0 1 2q3 -6 4 -6v-7l1 -1q1 -1 2 -3t2 -4.5t2 -6.5t1 -8
q0 -27 -15 -57.5t-24 -35.5h-2q0 -6 -7 -10v1l-3 -5h1q-4 -6 -26 -28l-9 -9q-2 -2 -9.5 -10.5t-13.5 -14.5t-17 -13.5t-24 -11.5v1l-14 -11q-6 -1 -14 -7l-6 -4q-29 -15 -61 -15q-47 0 -47 67q0 17 11 40t24 23q10 0 10 -10v-4q0 -8 4 -14.5t4 -9.5q-1 -1 -1 -2q0 -2 1.5 -6
t1.5 -6t-1 -6.5t-1 -7.5l3 -7q4 0 14.5 7t16.5 7h2q10 10 14 10l2 1v-1q16 16 35 30t33 28l37 41q21 24 21 54q0 12 -4 17h1q-12 13 -22 19t-15 8t-7 4v-1l-8 4q-7 0 -8 4l-7 4q-39 23 -53 50l-4 9q-4 10 -4 19q0 15 11 37l5 7l1 2q1 2 1 3l25 40q2 2 6 10l4 5q13 13 23 45
v-1l3 12q0 4 3 13v-1q0 3 1 9.5t1 8.5q0 16 -12 16q-6 1 -22.5 -6.5t-24.5 -14.5l-10 -8q-10 -6 -12 -8t-3 -4t-5 -6h1l-7 -11q-13 -19 -32 -16q-8 0 -11 4h1q-15 15 -15 25q0 8 2 14t8 13t9.5 11t13.5 12.5t14 12.5l32 19q10 6 47 14z" />
    <glyph glyph-name="acute" unicode="&#xb4;" horiz-adv-x="536" 
d="M336 782l-42 -40q-2 -2 -7 -6t-7 -5q-28 -27 -36 -30q-4 -1 -18 -14.5t-14 -15.5t-9 -7q-8 -3 -10 -9l-47 -60q-5 -7 -17 -7q-43 0 -43 24q0 13 40 55q23 23 27 29q3 5 11 9q7 5 11 10q2 3 11 9q11 5 19 15l14 11q2 0 10 8q15 12 23 18q2 2 5 4.5t5 4t4 3.5l2 1
q4 5 27 22t25 17q3 0 6 5q5 5 6 5q4 0 11 7q8 8 10 8q3 0 10 7q25 25 30 25q1 0 11 8q7 7 12 7q2 0 12 8q8 8 12 8t13 9q7 9 17 13q7 5 10 4.5t8 -5.5q22 -33 -69 -93q-1 0 -5 -4.5t-8 -6.5q-12 -9 -12 -11t-5 0t-5 -3q0 -4 -4 -4q-5 0 -7 -5q-3 -7 -14 -12q-11 -4 -23 -16z
" />
    <glyph glyph-name="mu" unicode="&#xb5;" horiz-adv-x="896" 
d="M107 -652q-3 0 -2.5 -9t-7.5 -18t-32 -9q-5 0 -10 5t-5 12q0 5 8.5 20t19 40t15.5 52q0 5 8.5 28t8.5 27q1 8 6 17t10 15l4 6q0 1 -1 2.5t-1 4.5q0 7 14 53t17 46q2 0 2 1t-1 3q0 3 3 6q-3 -2 4 19.5t17 50.5t11 41q3 14 17 58.5t14 61.5q1 21 6 46.5t11 49.5t7 29
q2 12 3 19.5t1 9t0.5 5t1.5 6.5t5 13q5 21 7.5 33.5t3.5 15.5q3 15 6 26t4.5 15t2.5 10t1 14v16q0 1 3 14.5t6.5 29.5t3.5 22v3q0 -1 2 5q6 23 9 29q2 2 3 2q1 1 1 3q2 31 20 121q3 7 10 35t7 40v3q0 4 3 13.5t3 29.5q3 50 21 50q1 0 5.5 -0.5t6.5 -0.5q3 0 5 2q0 1 3 1
q7 0 19 -7.5t12 -21.5v-6q0 -2 2 -6.5t2 -5.5l-2 -2q-2 -2 -2 -6q0 -2 1 -8.5t1 -8.5q0 -4 -2 -6.5t-2 -6.5q0 -3 3 -17.5t3 -21.5q0 -4 -3 -12.5t-3 -14.5q0 -2 3.5 -3t3.5 -5q0 -2 -2.5 -7.5t-2.5 -8.5q0 -2 2 -8.5t2 -9.5q0 -6 -3 -13t-3 -8t1 -4.5t2 -10t1 -15.5
q0 -13 -2 -19t-2 -7t0.5 -6t0.5 -6q0 -3 -3 -6.5t-3 -4.5v-1q1 -1 1.5 -3t0.5 -5t0.5 -7.5t0.5 -10.5q0 -15 -2.5 -26t-2.5 -16q0 -1 0.5 -3t0.5 -3q0 -8 -1 -16l-2 -8q0 -2 1 -2q1 -1 1 -2t-3 -10.5t-3 -20.5v-8q0 -8 -3 -12t-3 -6q0 -1 2 -9t2 -10t-1 -3.5t-1 -2.5t0.5 -4
t0.5 -4q0 -2 -2 -2.5t-2 -1.5l1 -1q0 -1 0.5 -3t1 -5.5t1 -9.5t0.5 -14q0 -43 8 -43q7 0 25.5 26t30.5 26q1 0 3 4.5t10.5 18.5t20.5 31q21 29 19 21q1 1 3 5q13 22 30 52q2 3 10.5 15t15.5 22.5t7 12.5q0 -2 15 19.5t35 54.5t32 57q2 2 4.5 11.5t25.5 37.5q6 7 11.5 18.5
t11.5 15t22 3.5q9 0 11 -4q2 -1 6.5 -6t9 -14.5t3.5 -17.5l-1 -2v-2q0 -4 2 -8l1 -1l-4 -13q-1 -9 -1 -24l2 -22q0 -2 -2.5 -7t-2.5 -6q3 -24 3 -49q0 -47 -2 -49q-1 -1 -1 -2q0 -2 1.5 -10t1.5 -14l-3 -24q0 -2 4 -4q-2 1 5 -18.5t15 -42t8 -27.5q-1 -16 19 -29t20 -31
q0 -14 -3.5 -18t-12.5 -4q-1 0 -3 0.5t-3 0.5q-2 0 -5 -2.5t-9 -2.5q-19 0 -25 8l-18 23q-25 35 -25 53q0 3 -4 11q-18 40 -18 123q0 11 0.5 36.5t0.5 33.5q0 36 -4 36q-7 0 -9 -2t-2 -6.5t-5 -14t-17 -21.5l-3 -6q-18 -26 -18 -32v-1q0 -2 -8 -9.5t-10 -12.5
q-48 -60 -48 -74q0 -8 -13.5 -24t-13.5 -17v-1q0 -2 -4.5 -8.5t-6.5 -7.5l-3 -5q-3 -5 -8 -13t-11 -17t-14 -20t-16 -20l-11 -11q-10 -11 -18 -19l-9 -8q0 2 -2 -1q-14 -36 -56 -36q-3 0 -13 3t-12 3h-1q-29 0 -29 79q1 43 2.5 72.5t3.5 40.5l1 10q0 2 2.5 14t5.5 45t4 83
q0 32 -3 32q-2 -2 -6 -11.5t-4 -15.5q0 -1 1 -2.5t1 -2.5v-1q-1 -1 -2 -3t-2 -4.5t-1.5 -6.5t-0.5 -8q0 -6 2 -6h1q-13 -18 -13 -25v-9q0 -3 -2.5 -4.5t-2.5 -2.5l1 -2q1 -3 1 -5q0 -3 -6.5 -14t-6.5 -12h9l-3 -2q-2 -2 -2 -4q0 -1 1.5 -3.5t1.5 -3.5q0 -2 -3.5 -9t-3.5 -10
v-3l1 -1q0 -1 -1.5 -4t-1.5 -10q-1 -14 -4 -27.5t-6 -21.5l-2 -8v-2q1 -2 1 -3q0 -9 -5.5 -24t-5.5 -16v-2q0 -4 -5.5 -11.5t-5.5 -10.5q0 -6 3 -6l3 8q1 0 1 -7q0 -19 -14 -71q-9 -33 -11 -50l-7 -30q0 -1 0.5 -1t0.5 -1t-5 -15t-5 -21q-2 -13 -5.5 -19t-6 -6.5t-2.5 -1.5
q0 -2 2 -3t2 -4q0 -5 -9 -20t-9 -33q0 -1 1.5 -4t1.5 -6q0 -6 -3.5 -14.5t-6.5 -15.5l-4 -6v-1q1 -1 1 -2q0 -2 -3 -8t-3 -8t1 -3q-2 -14 -5 -20q3 2 -5 -14l-7 -18q-1 0 -5.5 2t-6.5 2t-2 -1q0 -4 6 -7t6 -9l-3 -5q-3 -4 -6 -13t-3 -19q0 -16 -15.5 -40.5t-15.5 -53.5v-2
q0 -2 -5 -12.5t-5 -11.5v-1q0 -1 -3 -7t-3 -9q0 -1 1 -2.5t1 -2.5l-2 -5q-1 -5 -6 -18.5t-12 -28.5l-11 -26q-1 0 -1 0.5t-1 0.5t-1.5 -3l-1 -6t-1.5 -4z" />
    <glyph glyph-name="paragraph" unicode="&#xb6;" horiz-adv-x="818" 
d="M549 720q12 4 16 4q6 0 16 -7t12 -7h3q6 0 9 -9.5t5 -9.5h3q20 0 53 -7.5t44 -15.5l18 -12q30 -23 30 -41q0 -11 -24 -25t-30 -14q-4 0 -14.5 5.5t-10.5 8.5v1q0 2 -2 8t-2 7t5 5.5t5 7.5q0 15 -44 15h-4q-25 0 -29 -5.5t-3 -37.5q1 -23 1 -38q0 -62 2.5 -184t3.5 -276
q0 -182 2.5 -243t12.5 -112q3 -15 3 -26q0 -5 6 -26.5t6 -28.5q0 -14 -7 -22t-15 -8q-25 0 -34 8t-17 42q-3 12 -5.5 21.5t-3.5 13.5l-2 4q-10 20 -14 132q0 -1 -0.5 10t-2 30t-2.5 41.5t-1.5 49.5t-0.5 49q0 5 0.5 28.5t0.5 37.5q0 46 -4 46t-20.5 -2.5t-21.5 -2.5
q-2 0 -4 0.5t-3 0.5q-3 0 -10.5 -2.5t-9.5 -2.5q-1 0 -4 1.5t-4 1.5t-6 -1.5t-8 -1.5h-2q-4 0 -7 -5q-5 -8 -5 -95q0 -58 3 -102.5t6 -59.5l3 -15q1 -4 12 -21.5t11 -30.5q0 -38 -4.5 -51t-18.5 -13q-31 0 -49.5 32t-23.5 68t-5 78q-6 18 -6 126q0 21 1.5 49t1.5 32
q0 9 -5 11t-24 4q-62 6 -99 28q-16 7 -51.5 30t-35.5 36q-34 36 -34 87q0 54 23 91l23 36q48 67 82 83q8 4 17 13q16 13 29.5 18.5t39.5 24.5q7 7 15 11t11.5 5.5t6 7t2.5 16.5q0 13 -1.5 36t-1.5 25q0 12 8.5 19t16.5 8q-2 -1 6 -4q27 -13 39 -13q2 -2 2 -15.5t1 -25.5
t5 -12t36 16q37 18 55 18q5 0 7.5 19.5t15.5 23.5zM530 602l-3 7q-35 -11 -42 -15l-5 -3q-25 -15 -36 -15h-4q-8 0 -8 -24v-20q0 -10 -1.5 -14t-1.5 -8t1.5 -15t1.5 -16t-1 -10t-1 -6l2 -5q3 -4 6.5 -13t7 -22.5t6 -36.5t2.5 -52q0 -8 -1 -25t-1 -27q0 -33 0.5 -46.5
t3 -27.5t8.5 -18t17 -4q18 0 40 4l18 3l-1 85q-1 66 -3.5 151t-2.5 109q0 2 0.5 9.5t0.5 11.5q0 31 -3 43z" />
    <glyph glyph-name="periodcentered" unicode="&#xb7;" horiz-adv-x="285" 
d="M132 361q1 0 4 0.5t5 0.5q22 0 36 -7.5t14 -18.5q0 -3 -2 -7t-2 -5q0 -2 5 -2q2 0 10 1t10 1q8 0 15 -11t7 -22q0 -4 -2 -6q-4 -8 -20 -30.5t-19 -23.5q-2 -1 -24 -17.5t-39 -16.5q-12 0 -26.5 1.5t-33.5 11.5t-19 27q0 1 1 2t1 2q0 2 -1.5 4.5t-1.5 3.5l1 1q1 2 2 6
t2 10q4 30 23 53.5t36 32.5z" />
    <glyph glyph-name="cedilla" unicode="&#xb8;" horiz-adv-x="347" 
d="M184 68l82 -13q0 -5 -7 -8q-2 -1 -6.5 -4.5t-5.5 -4.5q-11 -11 -18 -17q-38 -31 -38 -46q0 -9 5 -22.5t10 -18.5q5 -2 13 -17q5 -12 9 -14t9 -9q6 -7 29 -29q10 -10 10 -13q0 -4 9 -11t9 -10t5 -10q18 -26 20 -55q1 -13 1 -25q-1 -1 -3 -22q0 -20 -6 -32q-17 -33 -33 -47
q-32 -29 -43 -29q-3 0 -12 -9q-11 -12 -36 -17q-8 -2 -9 -4q-4 -2 -18 -3t-23 1q-15 3 -16 3q-8 2 -18 12l-10 9l2 18q2 18 3 21.5t8 6.5q17 6 25 -7q2 -3 9 -5q8 0 10 -2q4 0 12 5q9 6 15 8q4 2 4 3q0 3 3 3q4 0 17 10q16 10 17 10q2 0 10 6.5t8 8.5q0 3 6 7
q14 12 19.5 37.5t-1.5 40.5q-4 7 -2 7l-1 2q-2 2 -7 12q-16 30 -62 76q-20 20 -36.5 45t-18.5 39q-7 35 0 42q3 3 5 13q2 9 3 9q3 0 3 3q0 2 7.5 12t13.5 14q19 17 19 20z" />
    <glyph glyph-name="onesuperior" unicode="&#xb9;" horiz-adv-x="439" 
d="M308 726h3l2 -2q0 2 2 2q10 0 18 -8l1 -1q0 1 2 1h1q4 1 6 0.5t4.5 -11.5t2.5 -32q0 -26 -2.5 -57t-2.5 -41l-3 -26q0 -13 -1 -15v1q-5 -42 -5 -71q0 -44 8 -61t8 -31q0 -12 -15 -15q-4 -1 -9 -1q-17 0 -30 9t-13 15l-3 4v-1q-15 20 -15 107q0 83 10 129l-4 -3
q-4 -2 -7 -7l-8 -4q-4 -8 -11 -13l-33 -27q-3 -1 -10 -9.5t-12 -11.5q-5 -2 -6.5 -5t-2.5 -3q-2 0 -2 1v-4l-23 -27l-32 -29h-16q-31 0 -31 31q0 5 6 14t16 19.5t19 19.5t18.5 18t10.5 10l19 19l37 33l30 27q8 4 17.5 14t12.5 11v-1l18 18q10 10 25 14z" />
    <glyph glyph-name="ordmasculine" unicode="&#xba;" horiz-adv-x="358" 
d="M220 716l9 1q6 0 8 -1l8 -4l17 -6q11 -6 14 -9.5t3 -14.5t-18 -22q0 -2 1 -6.5t1 -5.5q20 -13 20 -29l5 -13q0 -2 10 -37t10 -86q0 -29 -1 -31q0 -1 -1.5 -9.5t-4.5 -20t-9 -22.5q-25 -46 -55 -54q-23 -17 -58 -17q-18 0 -28 2.5t-19.5 7t-17.5 6.5l-9 5q-3 0 -4 3
q-4 4 -18.5 16.5t-18.5 18t-9 19.5t-5 34q3 25 9 37t6 18l11 27q4 8 6.5 18t4.5 15v-1l1 2q10 28 30 59q2 4 5.5 10t15 22.5t23 29.5t27.5 24.5t31 13.5zM215 636l-19 -21q-9 -13 -9 -16l-3 -4l-12 -13q-1 -1 -1 -4q0 -6 -7 -21.5t-13 -28.5l-6 -12q0 -19 -10 -41.5
t-10 -43.5t12 -34.5t28 -13.5q12 0 24 7l6 3q6 3 16 15l5 7q3 8 10 8q2 0 5.5 11t4.5 11q2 0 2 -1l-1 8q2 8 2 43q0 2 -0.5 6t-0.5 6v24q-3 11 -3 27l-3 15l-6 31l-2 9q-2 2 -2 5l1 -1l-3 6q-5 5 -5 13z" />
    <glyph glyph-name="guillemotright" unicode="&#xbb;" horiz-adv-x="607" 
d="M288 475q16 2 22 2q28 -2 82 -41t58 -41q51 -36 78.5 -78t27.5 -67q0 -26 -8 -43.5t-50 -74.5q-33 -37 -60 -66q-10 -11 -10 -13q0 -1 -4 -11q-5 -10 -8 -20.5l-4 -14t-6.5 -6t-17.5 -2.5q-4 0 -9.5 2t-14 13.5t-8.5 31.5q0 7 6.5 21.5t10.5 17.5l12 21q8 11 13 15
q19 29 42 56t32.5 41t9.5 26t-19 41q-35 49 -62 63q4 1 -9 11.5t-32 20.5t-30 10h-1q-1 -1 -2 -1q-5 0 -22 12q-24 17 -29.5 27.5t-5.5 30.5q0 7 3 9.5t15 6.5zM68 529q12 3 18 3q2 0 5 -2t9 -4q11 -3 15 -4.5t7 -5t5 -8t12 -16.5t25 -27q87 -87 94 -99q6 -11 16 -24
t14 -25.5t4 -36.5q0 -11 -4 -20t-18 -38q-22 -45 -37 -60q-13 -13 -36.5 -52.5t-23.5 -71.5q0 -19 13 -32t29 -17.5t29 -10t13 -11.5q-1 -1 -1 -2t2.5 -5.5t2.5 -7.5q0 -15 -28 -15l-25 -3q-2 0 -11 3.5t-13 3.5q-27 0 -49 41.5t-22 70.5q0 27 28.5 86t70.5 108l8 13
q6 15 6 29q0 19 -19.5 48t-36.5 37q-2 2 -17.5 16t-28.5 26.5t-14 15.5q-2 -2 -14 9.5t-24.5 28t-14.5 26.5q-2 7 -4.5 9t-2.5 4q0 15 18 20z" />
    <glyph glyph-name="onequarter" unicode="&#xbc;" horiz-adv-x="994" 
d="M750 351q7 3 29 3l4 -1q4 -1 9.5 -3t11 -4.5t9.5 -6.5t4 -9q0 -21 -8 -29q-4 -2 -5 -2q-3 -14 -84 -103q-6 -7 -8.5 -11t-2.5 -5t-0.5 -2t-3 -4t-10 -10.5l-21.5 -21.5q-29 -30 -29 -35q0 -2 -12 -17.5t-12 -22.5q0 -5 13 -5q36 0 68 17q22 12 38.5 24.5t23.5 18.5t10 6
h1q1 -1 2 -1t4.5 2.5t10.5 2.5q11 0 28 -5q11 -3 15 -6.5t7 -19.5t3 -51q0 -28 -2 -78.5t-2 -60.5q0 -20 4 -46.5t4 -27.5q0 -7 -9 -10.5t-15 -3.5q-1 0 -5.5 2t-9.5 3q-21 5 -31.5 24.5t-10.5 33.5v3q0 1 -3.5 24t-3.5 41q0 19 1.5 35.5t3 26t1.5 11.5q0 6 -3 6
q-2 0 -17 -6.5t-17 -6.5q-1 0 -2.5 -1t-2.5 -2.5t-6 -3t-12.5 -3t-22 -2.5t-34.5 -1q-48 0 -79 20.5t-31 57.5q0 2 9 18.5t11 16.5q-1 0 5.5 10t15 20.5t12.5 10.5q1 0 3 -1h3q1 0 1 1t-0.5 3t-0.5 3q0 4 4 4q2 1 6 8q10 17 40 53l3 5q4 5 8 10.5t10 11.5t12 9q3 1 6 5.5
t4.5 9t2.5 4.5q6 0 23 30.5t32 33.5zM274 704q6 5 26 5q52 -4 52 -29q0 -2 -2 -14q-1 -3 -1.5 -31.5t-3 -56t-6.5 -31.5q-1 -1 -5 -26.5t-8 -57.5t-4 -46q0 -22 4 -40.5t9 -28t10 -16.5t8 -9l3 -2q1 0 6.5 2t8.5 2q1 0 5.5 -1.5t11.5 -2.5t13 -1q16 0 58 65q3 4 17 19
t26.5 29t12.5 17q0 7 4.5 9t12.5 7.5t13 19.5l9 6q9 7 17 16t8 15v1q0 2 5 5q8 2 11 6q15 19 40 45q47 49 51 57q0 1 7.5 11t19.5 20t20 10h11q17 0 36 -7.5t19 -24.5q0 -3 -8.5 -14t-12.5 -11h-1q-1 0 -3 -5q1 3 -4 -4q-16 -25 -26 -25q-2 0 -9.5 -9.5t-17 -21.5t-13.5 -16
q-68 -68 -71 -68l-7 -9q-6 -9 -14 -17.5t-12 -8.5l-2 -4q-2 -4 -9 -13t-18 -20q-4 -4 -7.5 -9.5t-5.5 -8t-4 -2.5q-3 0 -13 -12.5t-22.5 -29.5t-19.5 -24q-3 -1 -5 -4.5t-9.5 -14.5t-21.5 -25q-20 -24 -44 -55t-40 -52t-23 -28l-12 -11q-16 -20 -16 -41q0 9 -12 -11
q-22 -37 -22 -80q0 -15 2.5 -25t5.5 -12.5t5.5 -4.5t2.5 -4q0 -8 -6 -11t-16 -4t-13 -3q-25 0 -40 20.5t-15 59.5q0 25 8 45q0 2 11 18t11 31q0 2 5 9.5t13 18.5t12 20l3 5q25 50 34 50q-3 0 14 16q14 14 14 20q0 2 16.5 22.5t16.5 26.5q0 2 -2 2l-2 -1q-2 -1 -3 -1
q-11 0 -16 8l-2 1q1 -4 -4 -4q-24 1 -50 17q-19 0 -36.5 45.5t-17.5 82.5q0 21 1.5 35.5t3.5 31t3 30.5q0 10 -4 10q-6 0 -11 -5t-12.5 -15.5t-15.5 -18.5q-51 -48 -58 -48l-2 -1q-1 -1 -4 -2t-7.5 -2t-11 -2t-13.5 -1q-6 0 -13 2.5t-9 2.5l-1 -1h-2q-8 0 -19.5 11t-11.5 24
q0 10 7 10h6h11q27 9 64 55q7 10 10.5 13t12 10.5t24.5 25.5q47 52 62 71q9 11 12 18t7 10z" />
    <glyph glyph-name="onehalf" unicode="&#xbd;" horiz-adv-x="814" 
d="M206 806q2 3 11 3q59 0 59 -40l-7 -31q-5 -17 -14 -33q-7 -13 -21 -76t-14 -98q0 -19 4 -26q1 -3 17.5 -15.5t16.5 -13.5q0 -4 -4.5 -7t-7.5 -3h-4q-3 0 -7 -3t-5 -3q-3 0 -5 2q-4 0 -18 5t-14 8q0 -3 -11 5t-22 30t-11 54q0 20 3 36q8 28 12.5 53t11.5 53q22 90 30 100z
M549 661q6 2 9 2q17 0 33 -10.5t16 -24.5q0 -5 -1 -7t-4.5 -6t-6.5 -9q-1 -2 -27.5 -23t-27.5 -30q-1 1 -4.5 -3.5t-9 -9t-9.5 -4.5h-1q-39 -58 -55 -59q2 -1 -11.5 -13.5t-29 -25.5t-16.5 -15l1 -1q-5 -20 -21 -30q-5 -4 -11 -4q-3 -1 -26 -24.5t-29 -23.5q1 0 -4.5 -7.5
t-13.5 -15t-12 -7.5q-3 0 -8 -7l-2 -1q-2 -2 -5 -4.5t-8 -6t-10.5 -8.5t-12 -11t-14 -14t-15 -16.5t-16 -19.5t-16.5 -22q-4 -7 -8.5 -13t-6.5 -9l-3 -2l1 -1v-2t-3.5 -10.5t-3.5 -18.5q0 -7 7.5 -17t7.5 -17q0 -5 -9 -5q-1 0 -3 1h-1q-5 0 -10.5 -2.5t-6.5 -2.5q-3 0 -3 4
v6q-6 -6 -7 -6l-3 2l-3 2l-1 -2q-1 0 -3 3q-5 5 -14 10t-13 9.5t-4 14.5v4q0 9 -3 12.5t-3 8.5q0 8 11.5 40t22.5 32h5q4 0 4 2q0 1 -2.5 3t-2.5 5t6.5 9.5t10.5 6.5q1 0 17 20.5t24 20.5q-2 0 5 7l15.5 15.5t9.5 10.5q71 71 74 71l9 9q10 9 20.5 18t13.5 10q-2 0 4.5 5.5
t14.5 12.5t9 9l6 6q18 19 20 19q1 0 3 -2l2 -2q2 0 2 4l-1 2v3q0 5 2.5 7t10 8.5t15.5 16.5q54 67 65 67q1 0 14.5 12.5t30 26.5t23.5 17zM727 -74q4 7 9 7.5t11 -2t9 -2.5q1 0 4.5 -4.5t3.5 -5.5l-4 -7q-4 -7 -4 -12q-1 -21 -19 -32t-35 -12.5t-47 -1.5q-32 0 -62.5 6.5
t-36.5 16.5v2l-1 1q-14 -6 -57 26l-6 4q-5 3 -11.5 7.5t-14.5 12.5t-14 17q-11 18 -11 45q0 1 -1 4t-0.5 6t7 15.5t19.5 32.5q16 21 17 23q3 19 48 108q1 2 1 10v4q0 4 0.5 11t0.5 9q0 24 -28 24q-13 0 -21 -1.5t-23 -11t-30 -28.5l-1 -2q0 -2 -1 -4t-3 -5t-4.5 -6t-6.5 -5
t-9.5 -3.5t-12.5 -1.5q-18 0 -31 12t-13 21q0 17 23 39t48 35q2 2 34 10l31 8h3q59 0 89.5 -30.5t30.5 -73.5q0 -13 -2.5 -26t-4.5 -20t-3 -8q4 0 -5.5 -19.5t-21 -41t-11.5 -24.5t-3.5 -5t-3.5 -5q0 -5 -17.5 -26t-17.5 -44q0 -3 3.5 -6t17 -14.5t27.5 -25.5q24 -24 92 -24
q26 0 57 18q10 5 12 5z" />
    <glyph glyph-name="threequarters" unicode="&#xbe;" horiz-adv-x="896" 
d="M242 796q2 1 8 1q74 0 74 -76q0 -20 -11.5 -49.5t-11.5 -41.5q0 1 -2.5 -1.5t-5.5 -7.5t-6 -11.5t-5.5 -14.5t-2.5 -16q0 -13 34.5 -37.5t34.5 -30.5q0 -3 2.5 -5t5 -4.5t5 -13t2.5 -26.5q0 -9 -4 -14t-4 -6v-1q0 -3 -3.5 -7t-3.5 -5q0 -9 -31 -38t-41 -33l-19 -13
q-57 -34 -79 -34q-19 0 -38.5 16.5t-19.5 46.5l6 10q5 10 10.5 22t5.5 18v4q0 7 6 14t11 7q3 0 5.5 -4.5t3.5 -4.5t6 8t7 8q3 0 7 -6q2 -4 4 -6t3 -2.5t1 -2.5q0 -3 -3.5 -5.5t-3.5 -4.5q0 -5 5 -5h5q1 0 1 -1q0 -3 -3 -14t-3 -13v-1q1 -1 13 7t14 10q0 1 8.5 5t8.5 5
q0 3 24 28.5t24 44.5q0 4 -21 17t-41.5 34.5t-20.5 46.5q0 37 10 50l2 3q2 3 6.5 10t8.5 15t7 17.5t3 17.5q0 4 -2 4q-9 0 -23.5 -22.5t-31.5 -22.5q-45 5 -45 32q0 72 104 99zM654 308q8 3 17 3q17 0 33.5 -11t16.5 -28q0 -7 -18 -32.5t-26 -25.5l-9 -8q-8 -7 -17.5 -19.5
t-9.5 -22.5q0 -3 -5 -4t-5 -5q0 -3 -3.5 -6t-12 -14.5t-17.5 -30.5q0 -2 4 -2q8 0 24 6l15 7q8 0 38.5 22.5t39.5 22.5q1 0 9 -2q2 0 5 0.5t11 -1.5t14 -7t11 -17t5 -29q-5 -62 -11 -120.5t-10 -87.5l-4 -30l2 -14q2 -13 2 -27q0 -48 -24 -48q-30 0 -41.5 24t-11.5 74
q0 32 6 66t6 45v19q0 13 0.5 23t1 14t1 7.5t0.5 4.5q0 12 -5 12q-2 0 -8.5 -5.5t-7.5 -5.5t-4 1.5t-5 1.5l-24 -11q-9 -3 -16 -3q-62 0 -94 32l-12 12l1 19q1 41 28 65l9 13q26 34 30 43q2 4 8 7t6 5l-1 1q0 5 6 13t10 8q6 0 24 23zM626 761q3 5 12 5q11 0 19 -3t11.5 -7
t6 -7t3.5 -3h2q13 0 13 -27q0 -13 -4 -19q1 0 -5.5 -10.5t-14 -23t-7.5 -16.5v-2q0 -15 -15 -33.5t-24 -44.5q-1 -12 -16.5 -25.5t-24.5 -44.5q-3 -12 -24.5 -36.5t-27.5 -40.5q-9 -17 -16.5 -27.5t-13.5 -20.5q-10 -13 -14.5 -23.5t-6 -13.5t-7.5 -5q-7 -3 -12 -12.5
t-7.5 -17.5t-4.5 -8q1 0 -14.5 -21.5t-37 -56t-28.5 -59.5q-21 -63 -35 -77q8 4 -29 -119l-3 -10l-4 3q-4 3 -6 3t-3.5 -3.5t-4.5 -3.5t-9 3t-6 6v4q-6 -4 -8 -4t-6.5 6.5t-4.5 9.5v3l-3 5q-2 4 -2 17q0 20 4.5 43.5t9.5 41t5 20.5l10 26q17 53 21 53h4q-14 7 23 48l3 5
q39 56 39 73q0 1 16 25.5t17 24.5t5 9.5t13 26t21 30.5q4 5 7.5 10t4.5 7.5t2.5 4t2.5 1.5q-3 0 7 15t23.5 33.5t15.5 22.5q1 1 4.5 8.5t12.5 20t23 26.5q23 34 23 41q-3 5 34 63q3 4 5 7.5t3 4.5l2 2l1 2v2q1 2 1.5 4t2 7.5t3.5 11.5l5.5 16.5t7.5 23.5z" />
    <glyph glyph-name="questiondown" unicode="&#xbf;" horiz-adv-x="441" 
d="M275 515q-1 1 -2.5 1.5t-5 2t-5.5 2.5l-2 1v1q1 1 1 2t-2 1q-1 0 -5 -4l-3 -3q-4 0 -11.5 15t-7.5 23q0 11 8.5 18.5t19.5 7.5q23 0 33 -1t19 -6.5t9 -17.5q0 -9 -16 -25t-30 -18zM258 -319q-2 -2 -4 -2l-1 1q-106 5 -106 18l-3 1q-3 1 -8 4t-12 7t-17 12.5t-20 18.5
q-22 22 -29.5 42t-7.5 58q0 47 20 89q2 5 4.5 13t10.5 22t30 43q18 34 35.5 49.5t18.5 17.5q23 44 43 55l12 22q5 7 10 10l8 10q9 11 18 24.5t9 20.5q0 1 10 18t10 32q0 2 -1 5l-1 3h4q2 0 2.5 20t9.5 20q3 0 4 -1l4 3q4 3 10.5 5.5t13.5 2.5q13 0 15 -9t2 -57
q0 -24 -1 -36.5t-3 -13.5t-3 -2t-1 -5q0 -6 -26 -47t-27 -44q0 5 -12 -12q-53 -75 -62 -86q-11 -13 -20 -22q-4 -4 -27 -44.5t-26 -43.5l-4 -9q-3 -8 -8 -23.5t-5 -29.5q0 -49 28.5 -80t69.5 -31q26 0 60.5 23.5t34.5 46.5v3q0 30 38 30q32 0 32 -22q0 -23 -3.5 -33.5
t-14.5 -26.5q-7 -10 -23 -25.5t-21 -17.5q4 0 -5 -5q-37 -17 -65 -22z" />
    <glyph glyph-name="Agrave" unicode="&#xc0;" horiz-adv-x="1082" 
d="M505 1403q7 7 10 7q2 -3 17.5 -9t15.5 -11v-2v-1q1 -1 2.5 -5t4 -8.5t8.5 -12t14 -15.5q9 -11 20.5 -27.5t17.5 -23.5t12 -7q0 -1 12 -10.5t23.5 -21t11.5 -17.5l4 -3l7.5 -5t7.5 -3t33 -31t30 -33v-1q6 0 33 -50q1 -2 1 -5q0 -2 -1.5 -4t-1.5 -4q0 -4 5 -7t5 -11
q0 -10 -10 -10q-6 0 -8.5 1.5t-5.5 6.5t-6.5 11.5t-14 17.5t-25.5 23q-29 21 -100 93l-25 24q-67 62 -71 72l-3 5q-4 5 -8.5 13.5t-9 18t-8 18.5t-3.5 13q0 6 6 14zM875 887l-4 20l-2 6l-9 -12q-4 -5 -9.5 -10.5t-8 -8.5t-2.5 -5q0 -3 -0.5 -4t-3.5 -3t-11.5 -15t-21.5 -36
q-10 -18 -18 -31t-12.5 -18.5t-8 -9t-4.5 -3.5t-1.5 -0.5t-0.5 -2.5q0 -3 2 -4.5t2 -3.5q0 -12 -4 -15l-5 -3l-20 -37v1l-26 -61q-5 -11 -9 -20.5t-7 -16t-5.5 -11.5l-4 -8l-2.5 -5l-1 -2l-1 -1q0 -1 1 -1l1 -2q-1 0 -4 -5t-6 -15t-3 -20v-2q-1 0 -5.5 -17.5t-10.5 -37
t-10 -23.5t-4.5 -8.5t-4 -24t-12.5 -49.5q-10 -33 -18 -54t-11 -26l-2 -4q0 -2 1.5 -7t1.5 -7q-1 -27 -7.5 -38t-7.5 -32l-1 -22h9q10 0 19 3q11 4 59 13t69 9q1 0 2 -1h1q1 0 19.5 6t24.5 6h3l2 -1q7 0 15 3q13 4 30 6t43 9q5 2 6 8.5t1 46.5v2q1 2 1.5 7t1 12t1.5 16.5
t2 20.5t1.5 24.5t1 28t1 32t0.5 34.5v18t-0.5 16.5t-0.5 7.5q5 23 5 100q0 8 -2 40t-3.5 72t-1.5 82q0 6 0.5 14.5t0.5 12.5q0 12 -11 67zM937 -308q-2 0 -8 2l-6 2q0 -3 -3 -3q-4 0 -7 5v-1q-2 0 -10.5 11.5t-19 33t-14.5 43.5v-1q-1 0 -4 15.5t-6 39.5t-3 44q0 6 1 9l1 4
l-4 16v4q0 15 2.5 29.5t2.5 38.5q0 4 -0.5 10.5t-0.5 8.5q0 10 3 23.5t3 23.5v7q0 15 3.5 57.5t3.5 55.5q0 17 -2 18q0 -2 -20 -9t-24 -7h-2q-3 -2 -33.5 -9t-37.5 -8h-8q-5 0 -18.5 -4.5t-19.5 -4.5q-3 0 -6 1t-4 1t-1 -3t-2 -3q-1 0 -2 0.5t-2 0.5t-3 -1.5t-4 -1.5t-5 0.5
t-4 0.5q0 -1 -2 -2t-6 -2.5t-10 -3t-13.5 -2.5t-15.5 -1q0 -1 -10 -4t-23.5 -6.5t-21.5 -3.5q-1 0 -2 0.5t-2 0.5q-8 0 -15.5 -19.5t-7.5 -31.5q0 -5 -1 -8t-2.5 -4.5t-1.5 -2.5t1.5 -3t1.5 -3q-3 0 -4 -7t-5.5 -31t-16.5 -55q-14 -26 -14 -59l-17 -55q-2 -11 -2 -15v-2v-7
t-2.5 -12t-7 -14.5t-15 -10.5t-25.5 -5q-10 0 -18 8t-8 22q0 16 27 105q4 14 11 37.5t10.5 34.5t8.5 28t7 26.5t4.5 21.5t3.5 21t1 17q0 7 -4 7q-2 0 -9 -3t-9 -3h-1q-2 -1 -21 -5t-26 -4q-10 0 -13 3q-7 -5 -116 -23q-13 -1 -22 -2.5t-12.5 -2.5l-7 -2t-5.5 -1
q-4 0 -10.5 1.5t-11.5 2.5l-5 1h-1q-2 -1 -4.5 -1.5t-6.5 -1.5t-11.5 -1.5t-16.5 -0.5q-103 0 -103 35q0 8 7.5 15.5t17.5 7.5q1 0 41 -3.5t66 -3.5q15 0 89 10q30 0 64 7t56.5 13.5t25.5 6.5q2 0 7.5 -2.5t6.5 -2.5t3 2h4q5 1 12 2t14.5 3.5t13.5 7.5t8 13q3 15 8.5 35
t8 30.5t2.5 13.5l-1 2v1q1 0 1.5 0.5t1 2t1.5 5t2 7.5q0 7 7 41t13 40q0 1 13.5 43.5t13.5 53.5q6 29 10.5 46.5t7.5 23t6 12t5 13.5l8 24q7 23 17 50.5t18 40.5q23 54 64 134q40 79 50 87v1v1l-2 -2l2 2q5 7 51 68q25 35 53 49q3 3 13 3q16 0 39 -14t23 -39l16 -141
q0 -95 4 -99l-2 -7q-1 -7 -1 -9q0 -1 2 -5t2 -10q0 -8 -3 -14l-2 -7q0 -1 2 -6.5t2 -8.5q0 -2 -1 -4t-1 -5t1 -13t1 -20q0 -72 -7 -72l-2 2v-2q0 -1 1 -3l1 2q1 2 2 2q3 0 3 -42l-14 -265l-25 -221q0 -3 1 -3l2 1l1 -9l2 -16l1 -8q0 -1 -3 -7.5t-3 -14.5q0 -13 2 -28t2 -17
q0 -8 -3.5 -10.5t-3.5 -5.5q0 -8 3 -8l2 2q1 0 1 -9v-5q0 -9 2.5 -22.5t2.5 -15.5q-1 -1 -1 -4q0 -2 1 -5l2 -4h-3q-3 -1 -3 -3q0 -6 3 -9v2q1 0 5.5 -13.5t6.5 -13.5h-1l2 -3q2 -2 5 -6.5t6 -11t5 -18t2 -24.5q0 -6 -6.5 -10t-10.5 -4z" />
    <glyph glyph-name="Aacute" unicode="&#xc1;" horiz-adv-x="1082" 
d="M1209 1342l-42 -40q-2 -2 -7 -6t-7 -5q-28 -27 -36 -30q-4 -1 -18 -14.5t-14 -15.5t-9 -7q-8 -3 -10 -9l-47 -60q-5 -7 -17 -7q-43 0 -43 24q0 13 40 55q23 23 27 29q4 5 11 9q7 5 11 10q2 3 11 9q11 5 19 15l14 11q2 0 10 8q15 12 23 18q2 2 5 4.5t5 4t4 3.5l2 1
q4 5 27 22t25 17q3 0 6 5q5 5 6 5q4 0 11 7q8 8 10 8q3 0 10 7q25 25 30 25q1 0 11 8q7 7 12 7q2 0 12 8q8 8 12 8t13 9q7 9 17 13q7 5 10 4.5t8 -5.5q22 -33 -69 -93l-4 -4q-5 -5 -9 -7q-12 -9 -12 -11t-5 0t-5 -3q0 -4 -4 -4q-5 0 -7 -5q-3 -7 -14 -12q-10 -4 -23 -16z
M875 887l-4 20l-2 6l-9 -12q-4 -5 -9.5 -10.5t-8 -8.5t-2.5 -5q0 -3 -0.5 -4t-3.5 -3t-11.5 -15t-21.5 -36q-10 -18 -18 -31t-12.5 -18.5t-8 -9t-4.5 -3.5t-1.5 -0.5t-0.5 -2.5q0 -3 2 -4.5t2 -3.5q0 -12 -4 -15l-5 -3l-20 -37v1l-26 -61q-5 -11 -9 -20.5t-7 -16t-5.5 -11.5
l-4 -8l-2.5 -5l-1 -2l-1 -1q0 -1 1 -1l1 -2q-1 0 -4 -5t-6 -15t-3 -20v-2q-1 0 -5.5 -17.5t-10.5 -37t-10 -23.5t-4.5 -8.5t-4 -24t-12.5 -49.5q-10 -33 -18 -54t-11 -26l-2 -4q0 -2 1.5 -7t1.5 -7q-1 -27 -7.5 -38t-7.5 -32l-1 -22h9q10 0 19 3q11 4 59 13t69 9q1 0 2 -1h1
q1 0 19.5 6t24.5 6h3l2 -1q7 0 15 3q13 4 30 6t43 9q5 2 6 8.5t1 46.5v2q1 2 1.5 7t1 12t1.5 16.5t2 20.5t1.5 24.5t1 28t1 32t0.5 34.5v18t-0.5 16.5t-0.5 7.5q5 23 5 100q0 8 -2 40t-3.5 72t-1.5 82q0 6 0.5 14.5t0.5 12.5q0 12 -11 67zM937 -308q-2 0 -8 2l-6 2
q0 -3 -3 -3q-4 0 -7 5v-1q-2 0 -10.5 11.5t-19 33t-14.5 43.5v-1q-1 0 -4 15.5t-6 39.5t-3 44q0 6 1 9l1 4l-4 16v4q0 15 2.5 29.5t2.5 38.5q0 4 -0.5 10.5t-0.5 8.5q0 10 3 23.5t3 23.5v7q0 15 3.5 57.5t3.5 55.5q0 17 -2 18q0 -2 -20 -9t-24 -7h-2q-3 -2 -33.5 -9
t-37.5 -8h-8q-5 0 -18.5 -4.5t-19.5 -4.5q-3 0 -6 1t-4 1t-1 -3t-2 -3q-1 0 -2 0.5t-2 0.5t-3 -1.5t-4 -1.5t-5 0.5t-4 0.5q0 -1 -2 -2t-6 -2.5t-10 -3t-13.5 -2.5t-15.5 -1q0 -1 -10 -4t-23.5 -6.5t-21.5 -3.5q-1 0 -2 0.5t-2 0.5q-8 0 -15.5 -19.5t-7.5 -31.5q0 -5 -1 -8
t-2.5 -4.5t-1.5 -2.5t1.5 -3t1.5 -3q-3 0 -4 -7t-5.5 -31t-16.5 -55q-14 -26 -14 -59l-17 -55q-2 -11 -2 -15v-2v-7t-2.5 -12t-7 -14.5t-15 -10.5t-25.5 -5q-10 0 -18 8t-8 22q0 16 27 105q4 14 11 37.5t10.5 34.5t8.5 28t7 26.5t4.5 21.5t3.5 21t1 17q0 7 -4 7q-2 0 -9 -3
t-9 -3h-1q-2 -1 -21 -5t-26 -4q-10 0 -13 3q-7 -5 -116 -23q-13 -1 -22 -2.5t-12.5 -2.5l-7 -2t-5.5 -1q-4 0 -10.5 1.5t-11.5 2.5l-5 1h-1q-2 -1 -4.5 -1.5t-6.5 -1.5t-11.5 -1.5t-16.5 -0.5q-103 0 -103 35q0 8 7.5 15.5t17.5 7.5q1 0 41 -3.5t66 -3.5q15 0 89 10
q30 0 64 7t56.5 13.5t25.5 6.5q2 0 7.5 -2.5t6.5 -2.5t3 2h4q5 1 12 2t14.5 3.5t13.5 7.5t8 13q3 15 8.5 35t8 30.5t2.5 13.5l-1 2v1q1 0 1.5 0.5t1 2t1.5 5t2 7.5q0 7 7 41t13 40q0 1 13.5 43.5t13.5 53.5q6 29 10.5 46.5t7.5 23t6 12t5 13.5l8 24q7 23 17 50.5t18 40.5
q23 54 64 134q40 79 50 87v1v1l-2 -2l2 2q5 7 51 68q25 35 53 49q3 3 13 3q16 0 39 -14t23 -39l16 -141q0 -95 4 -99l-2 -7q-1 -7 -1 -9q0 -1 2 -5t2 -10q0 -8 -3 -14l-2 -7q0 -1 2 -6.5t2 -8.5q0 -2 -1 -4t-1 -5t1 -13t1 -20q0 -72 -7 -72l-2 2v-2q0 -1 1 -3l1 2q1 2 2 2
q3 0 3 -42l-14 -265l-25 -221q0 -3 1 -3l2 1l1 -9l2 -16l1 -8q0 -1 -3 -7.5t-3 -14.5q0 -13 2 -28t2 -17q0 -8 -3.5 -10.5t-3.5 -5.5q0 -8 3 -8l2 2q1 0 1 -9v-5q0 -9 2.5 -22.5t2.5 -15.5q-1 -1 -1 -4q0 -2 1 -5l2 -4h-3q-3 -1 -3 -3q0 -6 3 -9v2q1 0 5.5 -13.5t6.5 -13.5
h-1l2 -3q2 -2 5 -6.5t6 -11t5 -18t2 -24.5q0 -6 -6.5 -10t-10.5 -4z" />
    <glyph glyph-name="Acircumflex" unicode="&#xc2;" horiz-adv-x="1082" 
d="M1091 1042q-37 -4 -77 36q-16 11 -27 21t-15 14.5t-4 5.5v1q0 2 -10.5 10.5t-11.5 12.5q0 1 -3.5 9t-8 15.5t-8.5 10.5l-39 71q-1 0 -4 -4q-5 -10 -15 -19.5t-17.5 -15t-7.5 -6.5v-2q0 -1 -1 -2l-89 -97q-2 -5 -6 -12.5t-20.5 -19.5t-37.5 -12q-8 0 -18.5 10.5
t-10.5 22.5q0 3 10.5 9.5t34 26.5t47.5 51q3 4 7.5 8t6.5 6t2 4q0 6 13.5 19t37.5 40.5t43 59.5q8 13 12 16t13 3q18 5 28 -11q6 -8 10 -12l35 -72q2 0 6 -11q0 -5 2.5 -8.5t5 -5t3.5 -2.5q1 0 4.5 -3.5t8 -10l9 -13t7.5 -13t3 -9.5l-1 -1v-2l100 -94q0 -1 -0.5 -1t-0.5 -1
q3 -3 2.5 -5t-2 -6.5t-1.5 -7.5l-3 -4h-12zM875 887l-4 20l-2 6l-9 -12q-4 -5 -9.5 -10.5t-8 -8.5t-2.5 -5q0 -3 -0.5 -4t-3.5 -3t-11.5 -15t-21.5 -36q-10 -18 -18 -31t-12.5 -18.5t-8 -9t-4.5 -3.5t-1.5 -0.5t-0.5 -2.5q0 -3 2 -4.5t2 -3.5q0 -12 -4 -15l-5 -3l-20 -37v1
l-26 -61q-5 -11 -9 -20.5t-7 -16t-5.5 -11.5l-4 -8l-2.5 -5l-1 -2l-1 -1q0 -1 1 -1l1 -2q-1 0 -4 -5t-6 -15t-3 -20v-2q-1 0 -5.5 -17.5t-10.5 -37t-10 -23.5t-4.5 -8.5t-4 -24t-12.5 -49.5q-10 -33 -18 -54t-11 -26l-2 -4q0 -2 1.5 -7t1.5 -7q-1 -27 -7.5 -38t-7.5 -32
l-1 -22h9q10 0 19 3q11 4 59 13t69 9q1 0 2 -1h1q1 0 19.5 6t24.5 6h3l2 -1q7 0 15 3q13 4 30 6t43 9q5 2 6 8.5t1 46.5v2q1 2 1.5 7t1 12t1.5 16.5t2 20.5t1.5 24.5t1 28t1 32t0.5 34.5v18t-0.5 16.5t-0.5 7.5q5 23 5 100q0 8 -2 40t-3.5 72t-1.5 82q0 6 0.5 14.5t0.5 12.5
q0 12 -11 67zM937 -308q-2 0 -8 2l-6 2q0 -3 -3 -3q-4 0 -7 5v-1q-2 0 -10.5 11.5t-19 33t-14.5 43.5v-1q-1 0 -4 15.5t-6 39.5t-3 44q0 6 1 9l1 4l-4 16v4q0 15 2.5 29.5t2.5 38.5q0 4 -0.5 10.5t-0.5 8.5q0 10 3 23.5t3 23.5v7q0 15 3.5 57.5t3.5 55.5q0 17 -2 18
q0 -2 -20 -9t-24 -7h-2q-3 -2 -33.5 -9t-37.5 -8h-8q-5 0 -18.5 -4.5t-19.5 -4.5q-3 0 -6 1t-4 1t-1 -3t-2 -3q-1 0 -2 0.5t-2 0.5t-3 -1.5t-4 -1.5t-5 0.5t-4 0.5q0 -1 -2 -2t-6 -2.5t-10 -3t-13.5 -2.5t-15.5 -1q0 -1 -10 -4t-23.5 -6.5t-21.5 -3.5q-1 0 -2 0.5t-2 0.5
q-8 0 -15.5 -19.5t-7.5 -31.5q0 -5 -1 -8t-2.5 -4.5t-1.5 -2.5t1.5 -3t1.5 -3q-3 0 -4 -7t-5.5 -31t-16.5 -55q-14 -26 -14 -59l-17 -55q-2 -11 -2 -15v-2v-7t-2.5 -12t-7 -14.5t-15 -10.5t-25.5 -5q-10 0 -18 8t-8 22q0 16 27 105q4 14 11 37.5t10.5 34.5t8.5 28t7 26.5
t4.5 21.5t3.5 21t1 17q0 7 -4 7q-2 0 -9 -3t-9 -3h-1q-2 -1 -21 -5t-26 -4q-10 0 -13 3q-7 -5 -116 -23q-13 -1 -22 -2.5t-12.5 -2.5l-7 -2t-5.5 -1q-4 0 -10.5 1.5t-11.5 2.5l-5 1h-1q-2 -1 -4.5 -1.5t-6.5 -1.5t-11.5 -1.5t-16.5 -0.5q-103 0 -103 35q0 8 7.5 15.5
t17.5 7.5q1 0 41 -3.5t66 -3.5q15 0 89 10q30 0 64 7t56.5 13.5t25.5 6.5q2 0 7.5 -2.5t6.5 -2.5t3 2h4q5 1 12 2t14.5 3.5t13.5 7.5t8 13q3 15 8.5 35t8 30.5t2.5 13.5l-1 2v1q1 0 1.5 0.5t1 2t1.5 5t2 7.5q0 7 7 41t13 40q0 1 13.5 43.5t13.5 53.5q6 29 10.5 46.5t7.5 23
t6 12t5 13.5l8 24q7 23 17 50.5t18 40.5q23 54 64 134q40 79 50 87v1v1l-2 -2l2 2q5 7 51 68q25 35 53 49q3 3 13 3q16 0 39 -14t23 -39l16 -141q0 -95 4 -99l-2 -7q-1 -7 -1 -9q0 -1 2 -5t2 -10q0 -8 -3 -14l-2 -7q0 -1 2 -6.5t2 -8.5q0 -2 -1 -4t-1 -5t1 -13t1 -20
q0 -72 -7 -72l-2 2v-2q0 -1 1 -3l1 2q1 2 2 2q3 0 3 -42l-14 -265l-25 -221q0 -3 1 -3l2 1l1 -9l2 -16l1 -8q0 -1 -3 -7.5t-3 -14.5q0 -13 2 -28t2 -17q0 -8 -3.5 -10.5t-3.5 -5.5q0 -8 3 -8l2 2q1 0 1 -9v-5q0 -9 2.5 -22.5t2.5 -15.5q-1 -1 -1 -4q0 -2 1 -5l2 -4h-3
q-3 -1 -3 -3q0 -6 3 -9v2q1 0 5.5 -13.5t6.5 -13.5h-1l2 -3q2 -2 5 -6.5t6 -11t5 -18t2 -24.5q0 -6 -6.5 -10t-10.5 -4z" />
    <glyph glyph-name="Atilde" unicode="&#xc3;" horiz-adv-x="1082" 
d="M1045 1299q6 2 12 2q24 -4 27 -6q1 -2 13.5 -5t22.5 -17t10 -43q0 -3 -6 -15q-2 -2 -4 -7.5t-4 -9.5t-12.5 -9.5t-28.5 -9t-53.5 -6t-84.5 -2.5q-39 0 -73 0.5t-52 1.5t-19 1q-7 0 -10 -2t-4 -2t-3 1.5t-7 1.5q-15 0 -33 -4.5t-18 -11.5q0 -4 9 -22t9 -21t-2.5 -6
t-4.5 -3q-1 0 -1 0.5t-1 0.5l-11 -5q-10 -5 -17 -5q1 0 -3 1q-67 27 -67 77q0 5 15 18.5t15 14.5q0 -1 5 2.5t13.5 8t14.5 4.5q1 0 8 1.5t26.5 3t52.5 1.5t98 -3t78 -3q4 0 18.5 0.5t20.5 0.5q2 1 12 -1.5t22 7.5t12 31q0 5 -5 13.5t-5 12.5t15 13zM875 887l-4 20l-2 6
l-9 -12q-4 -5 -9.5 -10.5t-8 -8.5t-2.5 -5q0 -3 -0.5 -4t-3.5 -3t-11.5 -15t-21.5 -36q-10 -18 -18 -31t-12.5 -18.5t-8 -9t-4.5 -3.5t-1.5 -0.5t-0.5 -2.5q0 -3 2 -4.5t2 -3.5q0 -12 -4 -15l-5 -3l-20 -37v1l-26 -61q-5 -11 -9 -20.5t-7 -16t-5.5 -11.5l-4 -8l-2.5 -5
l-1 -2l-1 -1q0 -1 1 -1l1 -2q-1 0 -4 -5t-6 -15t-3 -20v-2q-1 0 -5.5 -17.5t-10.5 -37t-10 -23.5t-4.5 -8.5t-4 -24t-12.5 -49.5q-10 -33 -18 -54t-11 -26l-2 -4q0 -2 1.5 -7t1.5 -7q-1 -27 -7.5 -38t-7.5 -32l-1 -22h9q10 0 19 3q11 4 59 13t69 9q1 0 2 -1h1q1 0 19.5 6
t24.5 6h3l2 -1q7 0 15 3q13 4 30 6t43 9q5 2 6 8.5t1 46.5v2q1 2 1.5 7t1 12t1.5 16.5t2 20.5t1.5 24.5t1 28t1 32t0.5 34.5v18t-0.5 16.5t-0.5 7.5q5 23 5 100q0 8 -2 40t-3.5 72t-1.5 82q0 6 0.5 14.5t0.5 12.5q0 12 -11 67zM937 -308q-2 0 -8 2l-6 2q0 -3 -3 -3
q-4 0 -7 5v-1q-2 0 -10.5 11.5t-19 33t-14.5 43.5v-1q-1 0 -4 15.5t-6 39.5t-3 44q0 6 1 9l1 4l-4 16v4q0 15 2.5 29.5t2.5 38.5q0 4 -0.5 10.5t-0.5 8.5q0 10 3 23.5t3 23.5v7q0 15 3.5 57.5t3.5 55.5q0 17 -2 18q0 -2 -20 -9t-24 -7h-2q-3 -2 -33.5 -9t-37.5 -8h-8
q-5 0 -18.5 -4.5t-19.5 -4.5q-3 0 -6 1t-4 1t-1 -3t-2 -3q-1 0 -2 0.5t-2 0.5t-3 -1.5t-4 -1.5t-5 0.5t-4 0.5q0 -1 -2 -2t-6 -2.5t-10 -3t-13.5 -2.5t-15.5 -1q0 -1 -10 -4t-23.5 -6.5t-21.5 -3.5q-1 0 -2 0.5t-2 0.5q-8 0 -15.5 -19.5t-7.5 -31.5q0 -5 -1 -8t-2.5 -4.5
t-1.5 -2.5t1.5 -3t1.5 -3q-3 0 -4 -7t-5.5 -31t-16.5 -55q-14 -26 -14 -59l-17 -55q-2 -11 -2 -15v-2v-7t-2.5 -12t-7 -14.5t-15 -10.5t-25.5 -5q-10 0 -18 8t-8 22q0 16 27 105q4 14 11 37.5t10.5 34.5t8.5 28t7 26.5t4.5 21.5t3.5 21t1 17q0 7 -4 7q-2 0 -9 -3t-9 -3h-1
q-2 -1 -21 -5t-26 -4q-10 0 -13 3q-7 -5 -116 -23q-13 -1 -22 -2.5t-12.5 -2.5l-7 -2t-5.5 -1q-4 0 -10.5 1.5t-11.5 2.5l-5 1h-1q-2 -1 -4.5 -1.5t-6.5 -1.5t-11.5 -1.5t-16.5 -0.5q-103 0 -103 35q0 8 7.5 15.5t17.5 7.5q1 0 41 -3.5t66 -3.5q15 0 89 10q30 0 64 7
t56.5 13.5t25.5 6.5q2 0 7.5 -2.5t6.5 -2.5t3 2h4q5 1 12 2t14.5 3.5t13.5 7.5t8 13q3 15 8.5 35t8 30.5t2.5 13.5l-1 2v1q1 0 1.5 0.5t1 2t1.5 5t2 7.5q0 7 7 41t13 40q0 1 13.5 43.5t13.5 53.5q6 29 10.5 46.5t7.5 23t6 12t5 13.5l8 24q7 23 17 50.5t18 40.5q23 54 64 134
q40 79 50 87v1v1l-2 -2l2 2q5 7 51 68q25 35 53 49q3 3 13 3q16 0 39 -14t23 -39l16 -141q0 -95 4 -99l-2 -7q-1 -7 -1 -9q0 -1 2 -5t2 -10q0 -8 -3 -14l-2 -7q0 -1 2 -6.5t2 -8.5q0 -2 -1 -4t-1 -5t1 -13t1 -20q0 -72 -7 -72l-2 2v-2q0 -1 1 -3l1 2q1 2 2 2q3 0 3 -42
l-14 -265l-25 -221q0 -3 1 -3l2 1l1 -9l2 -16l1 -8q0 -1 -3 -7.5t-3 -14.5q0 -13 2 -28t2 -17q0 -8 -3.5 -10.5t-3.5 -5.5q0 -8 3 -8l2 2q1 0 1 -9v-5q0 -9 2.5 -22.5t2.5 -15.5q-1 -1 -1 -4q0 -2 1 -5l2 -4h-3q-3 -1 -3 -3q0 -6 3 -9v2q1 0 5.5 -13.5t6.5 -13.5h-1l2 -3
q2 -2 5 -6.5t6 -11t5 -18t2 -24.5q0 -6 -6.5 -10t-10.5 -4z" />
    <glyph glyph-name="Adieresis" unicode="&#xc4;" horiz-adv-x="1082" 
d="M982 1332q9 13 26 -4q4 -4 3 -15.5t-5 -18.5q-6 -11 -9 -13q-3 -1 -1 -7q0 -6 -4 -10t-4 -8q2 -4 -7 -17q-5 -7 -13 -23q-4 -8 -14.5 -19.5t-16.5 -12.5q-5 -2 -4 -10t-16 -28q-10 -12 -21 -17.5t-15 -1.5q-3 3 -7 3t-9.5 6t-5.5 10q0 6 7 15q7 8 13 21q6 10 8 10t2 4
t4 4q3 0 5 6t5 6q4 0 9 9t7 9q3 0 1 2q-1 2 6.5 15t10.5 13q2 0 2 5t8 19t16 23q7 13 8 14q1 6 6 6t5 5zM1162 1253q-8 -39 -30 -76q-15 -24 -15 -32q0 -7 -21 -28q-8 -8 -10 -16q-3 -13 -35 -35q-13 -10 -28 -11q-12 -1 -17 1.5t-9 12.5q-6 15 9 21q8 4 25 24.5t24 35.5
q1 2 5 8t5 8q5 6 8 13q2 7 9 18q1 3 3 7l3.5 7t1.5 4q1 4 8 15t8 16q0 4 7 9q5 3 5 10q2 7 4 8q6 6 8 10q11 15 18 1q2 -5 8 -5t6 -5q0 -7 2 -7q3 -1 -2 -14zM875 887l-4 20l-2 6l-9 -12q-4 -5 -9.5 -10.5t-8 -8.5t-2.5 -5q0 -3 -0.5 -4t-3.5 -3t-11.5 -15t-21.5 -36
q-10 -18 -18 -31t-12.5 -18.5t-8 -9t-4.5 -3.5t-1.5 -0.5t-0.5 -2.5q0 -3 2 -4.5t2 -3.5q0 -12 -4 -15l-5 -3l-20 -37v1l-26 -61q-5 -11 -9 -20.5t-7 -16t-5.5 -11.5l-4 -8l-2.5 -5l-1 -2l-1 -1q0 -1 1 -1l1 -2q-1 0 -4 -5t-6 -15t-3 -20v-2q-1 0 -5.5 -17.5t-10.5 -37
t-10 -23.5t-4.5 -8.5t-4 -24t-12.5 -49.5q-10 -33 -18 -54t-11 -26l-2 -4q0 -2 1.5 -7t1.5 -7q-1 -27 -7.5 -38t-7.5 -32l-1 -22h9q10 0 19 3q11 4 59 13t69 9q1 0 2 -1h1q1 0 19.5 6t24.5 6h3l2 -1q7 0 15 3q13 4 30 6t43 9q5 2 6 8.5t1 46.5v2q1 2 1.5 7t1 12t1.5 16.5
t2 20.5t1.5 24.5t1 28t1 32t0.5 34.5v18t-0.5 16.5t-0.5 7.5q5 23 5 100q0 8 -2 40t-3.5 72t-1.5 82q0 6 0.5 14.5t0.5 12.5q0 12 -11 67zM937 -308q-2 0 -8 2l-6 2q0 -3 -3 -3q-4 0 -7 5v-1q-2 0 -10.5 11.5t-19 33t-14.5 43.5v-1q-1 0 -4 15.5t-6 39.5t-3 44q0 6 1 9l1 4
l-4 16v4q0 15 2.5 29.5t2.5 38.5q0 4 -0.5 10.5t-0.5 8.5q0 10 3 23.5t3 23.5v7q0 15 3.5 57.5t3.5 55.5q0 17 -2 18q0 -2 -20 -9t-24 -7h-2q-3 -2 -33.5 -9t-37.5 -8h-8q-5 0 -18.5 -4.5t-19.5 -4.5q-3 0 -6 1t-4 1t-1 -3t-2 -3q-1 0 -2 0.5t-2 0.5t-3 -1.5t-4 -1.5t-5 0.5
t-4 0.5q0 -1 -2 -2t-6 -2.5t-10 -3t-13.5 -2.5t-15.5 -1q0 -1 -10 -4t-23.5 -6.5t-21.5 -3.5q-1 0 -2 0.5t-2 0.5q-8 0 -15.5 -19.5t-7.5 -31.5q0 -5 -1 -8t-2.5 -4.5t-1.5 -2.5t1.5 -3t1.5 -3q-3 0 -4 -7t-5.5 -31t-16.5 -55q-14 -26 -14 -59l-17 -55q-2 -11 -2 -15v-2v-7
t-2.5 -12t-7 -14.5t-15 -10.5t-25.5 -5q-10 0 -18 8t-8 22q0 16 27 105q4 14 11 37.5t10.5 34.5t8.5 28t7 26.5t4.5 21.5t3.5 21t1 17q0 7 -4 7q-2 0 -9 -3t-9 -3h-1q-2 -1 -21 -5t-26 -4q-10 0 -13 3q-7 -5 -116 -23q-13 -1 -22 -2.5t-12.5 -2.5l-7 -2t-5.5 -1
q-4 0 -10.5 1.5t-11.5 2.5l-5 1h-1q-2 -1 -4.5 -1.5t-6.5 -1.5t-11.5 -1.5t-16.5 -0.5q-103 0 -103 35q0 8 7.5 15.5t17.5 7.5q1 0 41 -3.5t66 -3.5q15 0 89 10q30 0 64 7t56.5 13.5t25.5 6.5q2 0 7.5 -2.5t6.5 -2.5t3 2h4q5 1 12 2t14.5 3.5t13.5 7.5t8 13q3 15 8.5 35
t8 30.5t2.5 13.5l-1 2v1q1 0 1.5 0.5t1 2t1.5 5t2 7.5q0 7 7 41t13 40q0 1 13.5 43.5t13.5 53.5q6 29 10.5 46.5t7.5 23t6 12t5 13.5l8 24q7 23 17 50.5t18 40.5q23 54 64 134q40 79 50 87v1v1l-2 -2l2 2q5 7 51 68q25 35 53 49q3 3 13 3q16 0 39 -14t23 -39l16 -141
q0 -95 4 -99l-2 -7q-1 -7 -1 -9q0 -1 2 -5t2 -10q0 -8 -3 -14l-2 -7q0 -1 2 -6.5t2 -8.5q0 -2 -1 -4t-1 -5t1 -13t1 -20q0 -72 -7 -72l-2 2v-2q0 -1 1 -3l1 2q1 2 2 2q3 0 3 -42l-14 -265l-25 -221q0 -3 1 -3l2 1l1 -9l2 -16l1 -8q0 -1 -3 -7.5t-3 -14.5q0 -13 2 -28t2 -17
q0 -8 -3.5 -10.5t-3.5 -5.5q0 -8 3 -8l2 2q1 0 1 -9v-5q0 -9 2.5 -22.5t2.5 -15.5q-1 -1 -1 -4q0 -2 1 -5l2 -4h-3q-3 -1 -3 -3q0 -6 3 -9v2q1 0 5.5 -13.5t6.5 -13.5h-1l2 -3q2 -2 5 -6.5t6 -11t5 -18t2 -24.5q0 -6 -6.5 -10t-10.5 -4z" />
    </font>
</defs>
</svg>
